<svg width="169" height="39" viewBox="0 0 169 39" fill="none" xmlns="http://www.w3.org/2000/svg">
<g clip-path="url(#clip0)">
<path d="M2.5408 12.6451C3.09689 13.3378 3.80716 13.8918 4.61531 14.2632C5.42345 14.6346 6.30724 14.8131 7.19662 14.7847C8.93083 14.7847 10.113 14.0161 10.113 12.7646C10.113 11.2482 8.42567 10.7912 5.72279 10.0953C2.51997 9.25406 0.832622 7.78961 0.832622 5.19308C0.832622 2.28495 3.19178 0 7.24349 0C9.74846 0 12.1389 0.841278 13.6335 2.59654L11.2952 4.75686C10.7662 4.17052 10.1186 3.70261 9.39511 3.38395C8.6716 3.06529 7.88859 2.90312 7.09767 2.90812C5.2645 2.90812 4.49374 3.6767 4.49374 4.73609C4.49374 5.88895 5.53531 6.51212 7.82156 7.11451C12.2326 8.26738 13.7273 9.71105 13.7273 12.3336C13.7273 15.8181 10.6911 17.7188 7.09767 17.7188C3.67611 17.7188 1.36903 16.5607 0.181641 15.0236L2.5408 12.6451Z" fill="#1D1D1B"/>
<path d="M16.9562 7.37912H14.9824V5.26554H15.3678C17.5863 5.26554 17.7999 3.7959 18.1644 1.80176H20.2111V5.26554H22.7682V7.37912H20.2111V13.6991C20.2111 14.665 20.4767 15.1895 21.4922 15.1895C21.8901 15.1913 22.284 15.1099 22.6484 14.9506L22.914 17.2615C22.1338 17.5774 21.2977 17.7329 20.4559 17.7185C17.7061 17.7185 16.9822 16.2022 16.9822 14.1353L16.9562 7.37912Z" fill="#1D1D1B"/>
<path d="M32.0488 17.3294C31.8456 16.7821 31.7228 16.2084 31.6842 15.626C31.1634 16.8049 29.9969 17.7033 28.1429 17.7033C25.6587 17.7033 24.2109 16.0882 24.2109 13.8552C24.2109 11.3781 26.0701 10.3914 28.8199 9.98636L31.4915 9.57611V9.11912C31.4915 7.70141 30.7207 7.38983 29.6375 7.38983C28.9735 7.38603 28.3163 7.52295 27.7094 7.79153C27.1024 8.06011 26.5597 8.45422 26.117 8.94775L24.5547 6.78224C25.5181 5.81633 27.3929 4.90234 30.0489 4.90234C33.4236 4.90234 34.7985 6.34602 34.7985 9.37358V13.8968C34.7985 15.7195 34.8454 16.3479 35.2516 17.3294H32.0488ZM31.4915 11.6585L29.4084 12.0428C27.9606 12.3077 27.3565 12.8114 27.3565 13.7513C27.3453 13.9691 27.38 14.1868 27.4585 14.3903C27.5369 14.5939 27.6574 14.7787 27.812 14.9329C27.9667 15.0871 28.152 15.2072 28.3561 15.2855C28.5602 15.3637 28.7786 15.3984 28.997 15.3872C30.3718 15.3872 31.5019 14.2551 31.5019 12.4531L31.4915 11.6585Z" fill="#1D1D1B"/>
<path d="M38.3403 7.37912H36.3613V5.26554H36.7467C38.9653 5.26554 39.184 3.7959 39.5433 1.80176H41.5952V5.26554H44.1471V7.37912H41.5952V13.6991C41.5952 14.665 41.8608 15.1895 42.8711 15.1895C43.2691 15.1919 43.663 15.1105 44.0273 14.9506L44.2668 17.2615C43.4848 17.5772 42.6471 17.7326 41.8035 17.7185C39.059 17.7185 38.3351 16.2022 38.3351 14.1353L38.3403 7.37912Z" fill="#1D1D1B"/>
<path d="M46.0059 5.26562H49.2816V12.1413C49.2816 13.9433 49.9118 14.8313 51.1877 14.8313C52.75 14.8313 53.6197 13.6057 53.6197 11.274V5.26562H56.9007V17.3291H53.8176V15.2883C53.1875 16.6592 52.1772 17.62 50.1044 17.62C47.3287 17.62 46.0059 15.9374 46.0059 12.9098V5.26562Z" fill="#1D1D1B"/>
<path d="M60.411 13.6995C60.8811 14.1959 61.4455 14.5944 62.0713 14.8716C62.6971 15.1489 63.3719 15.2994 64.0565 15.3145C64.921 15.3145 65.8376 14.977 65.8376 14.1357C65.8376 11.8975 59.3069 13.149 59.3069 8.67777C59.3069 6.05527 61.6661 4.9024 64.1502 4.9024C65.8701 4.83447 67.5618 5.35283 68.9467 6.37205L67.4312 8.53236C66.4797 7.74673 65.2914 7.30235 64.0565 7.27045C63.3118 7.27045 62.6608 7.56126 62.6608 8.30906C62.6608 10.3551 69.1654 9.44115 69.1654 13.7202C69.1654 16.4155 66.6344 17.7137 64.2231 17.7137C62.2838 17.7922 60.3846 17.148 58.8955 15.9065L60.411 13.6995Z" fill="#1D1D1B"/>
<path d="M71.3887 0.358398H78.0391C81.393 0.358398 84.4291 1.82804 84.4291 5.59821C84.4291 9.75267 81.6325 11.2275 78.0651 11.2275H74.9092V17.3294H71.3887V0.358398ZM77.5079 8.43882C79.3931 8.43882 80.6691 7.78969 80.6691 5.59821C80.6691 3.70274 79.2213 3.02764 77.4871 3.02764H74.9092V8.43882H77.5079Z" fill="#1D1D1B"/>
<path d="M86.3564 5.26616H89.2728L89.5124 7.64459C89.8577 6.81561 90.4464 6.11013 91.2011 5.62079C91.9558 5.13144 92.8412 4.88111 93.7412 4.90265V8.24699C93.3983 8.17886 93.0493 8.1458 92.6996 8.14832C91.2987 8.14832 89.6374 8.72475 89.6374 11.6329V17.3453H86.3564V5.26616Z" fill="#1D1D1B"/>
<path d="M102.594 17.3291C102.391 16.7822 102.269 16.2081 102.235 15.6257C101.714 16.8046 100.548 17.703 98.6884 17.703C96.2095 17.703 94.7617 16.0879 94.7617 13.8549C94.7617 11.3778 96.6157 10.3911 99.3655 9.98606L102.042 9.5758V9.11881C102.042 7.7011 101.272 7.38952 100.183 7.38952C99.5191 7.38572 98.8619 7.52264 98.2549 7.79122C97.648 8.05981 97.1052 8.45391 96.6626 8.94744L95.1002 6.78193C96.0845 5.82121 97.9437 4.90723 100.595 4.90723C103.969 4.90723 105.344 6.3509 105.344 9.37847V13.9016C105.344 15.7244 105.391 16.3528 105.802 17.3343L102.594 17.3291ZM102.042 11.6582L99.9591 12.0425C98.5114 12.3074 97.9125 12.8111 97.9125 13.751C97.9013 13.9683 97.9359 14.1856 98.0141 14.3887C98.0922 14.5919 98.2122 14.7765 98.3663 14.9306C98.5203 15.0847 98.705 15.2049 98.9085 15.2835C99.112 15.3621 99.3298 15.3973 99.5477 15.3869C100.923 15.3869 102.058 14.2548 102.058 12.4528L102.042 11.6582Z" fill="#1D1D1B"/>
<path d="M110.776 12.0688C111.015 14.3018 112.151 15.2625 113.718 15.2625C114.262 15.2759 114.798 15.1308 115.261 14.8448C115.723 14.5589 116.092 14.1446 116.322 13.6527L118.759 15.0236C117.65 16.7789 115.817 17.7189 113.525 17.7189C109.526 17.7189 107.406 14.9302 107.406 11.347C107.406 7.76373 109.573 4.90234 113.354 4.90234C116.999 4.90234 118.999 7.59755 118.999 11.3677C118.999 11.778 118.973 11.9701 118.973 12.0688H110.776ZM110.776 10.1941H115.671C115.671 8.67771 114.947 7.30674 113.281 7.30674C111.786 7.30674 110.968 8.3869 110.776 10.1941Z" fill="#1D1D1B"/>
<path d="M121.816 13.6995C122.286 14.1959 122.851 14.5944 123.477 14.8716C124.102 15.1489 124.777 15.2994 125.462 15.3145C126.326 15.3145 127.243 14.977 127.243 14.1357C127.243 11.8975 120.712 13.149 120.712 8.67776C120.712 6.05526 123.077 4.9024 125.556 4.9024C127.277 4.83452 128.97 5.35281 130.357 6.37204L128.836 8.53236C127.877 7.74017 126.676 7.29538 125.431 7.27044C124.686 7.27044 124.035 7.56125 124.035 8.30905C124.035 10.3551 130.545 9.44115 130.545 13.7202C130.545 16.4154 128.014 17.7137 125.602 17.7137C123.673 17.7872 121.784 17.1452 120.301 15.9117L121.816 13.6995Z" fill="#1D1D1B"/>
<path d="M135.404 12.0688C135.644 14.3018 136.779 15.2625 138.346 15.2625C138.89 15.2746 139.426 15.1289 139.888 14.8431C140.35 14.5573 140.719 14.1437 140.95 13.6527L143.388 15.0236C142.278 16.7789 140.445 17.7189 138.18 17.7189C134.18 17.7189 132.061 14.9302 132.061 11.347C132.061 7.76373 134.201 4.90234 137.987 4.90234C141.633 4.90234 143.627 7.59755 143.627 11.3677C143.627 11.778 143.627 11.9701 143.627 12.0688H135.404ZM135.404 10.1941H140.299C140.299 8.67771 139.575 7.30674 137.909 7.30674C136.399 7.30674 135.581 8.3869 135.404 10.1941Z" fill="#1D1D1B"/>
<path d="M145.819 5.26586H148.736L149.001 7.21326C149.382 6.51716 149.942 5.93553 150.625 5.52906C151.307 5.12259 152.086 4.90616 152.881 4.90234C155.511 4.90234 156.766 6.5849 156.766 9.78383V17.3294H153.485V10.5784C153.485 8.58423 152.787 7.76373 151.485 7.76373C150.184 7.76373 149.1 8.80234 149.1 11.3677V17.3294H145.819V5.26586Z" fill="#1D1D1B"/>
<path d="M160.24 13.6995C160.71 14.1959 161.274 14.5944 161.9 14.8716C162.526 15.1489 163.201 15.2994 163.885 15.3145C164.75 15.3145 165.666 14.977 165.666 14.1357C165.666 11.8975 159.136 13.149 159.136 8.67776C159.136 6.05526 161.5 4.9024 163.979 4.9024C165.7 4.83452 167.394 5.35281 168.781 6.37204L167.26 8.53236C166.3 7.74017 165.1 7.29538 163.854 7.27044C163.109 7.27044 162.458 7.56125 162.458 8.30905C162.458 10.3551 168.968 9.44115 168.968 13.7202C168.968 16.4154 166.437 17.7137 164.026 17.7137C162.086 17.7922 160.187 17.148 158.698 15.9065L160.24 13.6995Z" fill="#1D1D1B"/>
<path d="M123.025 24.9268C121.697 24.9268 120.463 25.2228 120.031 26.0017C119.958 26.1627 120.031 26.2977 120.223 26.4068C120.304 26.4467 120.392 26.4699 120.482 26.475C120.572 26.4801 120.662 26.4669 120.747 26.4363C120.831 26.4058 120.909 26.3584 120.975 26.2971C121.041 26.2358 121.093 26.1618 121.13 26.0796C121.416 25.5603 122.109 25.4201 123.046 25.4097C123.104 25.399 123.156 25.3678 123.193 25.3218C123.23 25.2757 123.249 25.218 123.246 25.1592C123.244 25.1004 123.22 25.0445 123.179 25.0018C123.139 24.9591 123.084 24.9324 123.025 24.9268Z" fill="#1D1D1B"/>
<path d="M168.797 30.2602H135.05C133.914 30.2602 129.967 32.2855 129.321 31.4442C129.149 31.2313 130.144 30.5822 130.232 30.3589C130.389 29.985 129.842 29.7253 129.519 29.9954C128.91 30.4887 125.108 32.4205 125.582 31.143C126.217 29.9798 127.977 29.4397 129.748 29.1229C130.092 29.0814 130.618 28.8217 130.133 28.4946C129.613 28.2661 127.899 28.6659 127.358 28.8009C124.926 29.393 119.233 31.9635 118.103 31.6208C117.718 31.2365 118.937 29.772 119.254 29.4501C119.952 28.7386 119.197 28.7127 118.577 28.8373C115.822 29.3566 110.672 32.192 109.354 31.8856C109.083 31.7818 110 30.0629 110.26 29.6526C111.5 28.7854 117.031 24.148 116.025 23.2236C114.328 21.7228 110.297 28.4167 109.573 29.528C108.875 29.9902 105.875 31.9064 105.407 31.5585C105.136 31.1067 106.412 30.0005 107.396 29.6422C108.177 29.3462 108.708 29.5903 109.333 29.3981C109.562 29.3306 109.766 29.0918 109.557 28.8788C109.083 28.4167 106.693 29.1177 106.12 29.3254C103.777 30.0888 99.5738 31.9895 97.2251 31.4858C96.6314 31.3559 96.2251 31.143 96.1835 30.4939C97.028 30.5547 97.8752 30.4178 98.6572 30.094C98.923 30.0137 99.1695 29.8802 99.3817 29.7016C99.5939 29.523 99.7674 29.3031 99.8915 29.0554C100.079 28.4011 98.7353 28.1882 97.5375 28.5725C96.7492 28.8178 96.0655 29.3186 95.595 29.9954C93.9233 30.5147 90.559 31.6987 89.3039 31.4806C89.0279 31.4286 91.236 29.663 90.9392 28.9775C90.4184 27.6896 86.0177 30.1615 85.1689 30.5354C85.4188 30.2135 86.0959 29.18 85.4136 28.9775C84.3721 28.6711 82.1275 30.1615 81.2109 30.6912C81.5807 30.1719 82.9347 29.0658 82.2837 28.7438C81.013 28.2764 75.2167 31.6364 73.9095 30.8211C73.7876 30.7279 73.6939 30.6029 73.6387 30.4599C73.5836 30.3169 73.5692 30.1616 73.597 30.0109L74.6959 28.453C76.3624 27.8714 80.5964 23.7792 79.9037 23.2028C78.3414 21.9669 75.2948 26.3966 74.2168 28.1934C72.519 29.1437 67.4101 31.7039 65.9988 30.4004C66.6133 30.0161 66.6081 28.9464 65.7748 28.9827C65.7332 28.2505 64.2854 28.6919 64.0198 28.8009C62.4835 28.8633 55.1664 31.6571 54.6977 31.2936C53.8801 30.7743 55.6404 29.3981 55.3591 28.9827C55.0779 28.5673 53.4426 29.8863 51.9219 29.3878C52.2188 29.2527 52.7864 28.91 52.6094 28.5153C52.3282 27.8974 50.7189 28.3595 50.8491 29.2891C48.9649 30.1705 46.9825 30.8259 44.9434 31.2417C45.3184 30.8938 47.0266 29.5436 46.7141 28.8529C46.6516 28.7179 46.4745 28.6296 46.1933 28.588C44.2299 28.3751 41.2354 30.7691 39.8189 31.9531C40.2595 31.2438 40.7412 30.5606 41.2615 29.9071C41.3969 29.7513 41.8135 29.1489 41.5375 28.9827C40.9386 28.6192 38.0587 29.985 37.2983 30.229C24.9661 30.229 12.5558 30.229 0.218405 30.229C0.161775 30.229 0.107465 30.2515 0.0674219 30.2914C0.0273788 30.3313 0.00488281 30.3855 0.00488281 30.442C0.00488281 30.4984 0.0273788 30.5526 0.0674219 30.5925C0.107465 30.6324 0.161775 30.6549 0.218405 30.6549H37.3452C37.8243 30.6549 39.6314 29.7876 40.397 29.6163C39.7252 30.847 39.0221 32.057 38.2513 33.2514C37.7306 33.7136 32.0019 38.2731 34.3402 38.8703C36.0484 39.3013 37.9857 34.6587 38.7148 33.537C40.3084 32.192 43.6935 29.3514 45.8079 29.2579C45.5996 29.9538 44.381 30.9249 43.6935 31.2936C43.4399 31.4258 43.1568 31.4919 42.8707 31.4858C42.5218 31.4858 42.0999 31.6312 42.2458 32.0466C42.3916 32.4621 43.1988 32.1505 43.4592 32.1037C46.4589 31.5844 48.4639 30.7068 51.1408 29.663C51.7084 30.2342 53.4687 29.8396 54.2655 29.7201C54.0988 30.2394 53.5208 31.278 53.9634 31.7298C54.6404 32.5088 57.5152 31.0755 62.3585 29.6526C61.8377 30.0525 60.5774 30.8886 60.8482 31.6987C61.3117 33.0177 64.9103 31.8597 65.5873 30.7951C67.4153 32.1453 71.7014 30.0265 73.6179 29.0554C73.3887 29.3566 73.0971 29.7201 72.8836 30.0213C72.8836 30.0213 71.1077 30.0213 72.0972 31.1067C70.014 33.5838 68.4777 37.3384 68.7746 38.4705C68.8579 38.7872 69.186 39.2338 69.988 38.7924C70.79 38.351 71.467 37.2709 72.0295 36.0349C72.7545 34.5332 73.169 32.9013 73.2481 31.2365C73.4249 31.3316 73.6143 31.4015 73.8105 31.4442C75.8104 31.8337 79.0184 29.8448 81.3099 29.4605C81.3724 29.9123 79.2996 31.3819 79.3986 31.8441C79.4454 32.031 79.8777 32.1193 80.06 32.057C81.3099 31.6727 82.9243 30.0888 84.8304 29.663C84.7205 29.9934 84.5432 30.2976 84.3096 30.5562C84.169 30.7016 83.669 31.1638 83.7888 31.3871C83.8235 31.4583 83.882 31.5154 83.9541 31.5485C84.0263 31.5816 84.1077 31.5888 84.1846 31.5689C85.5907 31.3715 89.1164 28.9308 90.1111 29.2943C90.3038 29.7461 88.5488 30.6289 88.3665 31.3715C88.1842 32.1141 89.6528 32.0726 90.132 31.9947C91.0827 31.8419 92.0209 31.6198 92.939 31.33C93.3869 31.1898 93.8399 31.0651 94.293 30.9405C94.7461 30.8159 95.1575 30.6705 95.5325 30.5926C95.6035 30.8888 95.7366 31.1667 95.9231 31.4079C96.371 31.9739 97.2303 32.0155 97.9333 32.057C100.115 32.1089 103.579 30.7899 105.698 29.9798C105.25 30.3121 104.167 31.2001 104.474 31.8493C105.131 33.2514 108.089 31.0495 108.911 30.5302C108.625 31.0495 108.094 32.0466 108.802 32.4569C109.88 33.0697 116.255 29.9382 118.275 29.4657C118.015 30.0421 116.812 31.5429 117.416 32.1141C118.234 32.9035 125.426 29.5955 126.889 29.2891C126.28 29.5332 124.582 30.7639 124.582 31.5013C124.691 33.106 127.764 31.626 128.649 31.2365C128.581 31.4015 128.572 31.5848 128.623 31.7558C129.102 33.2358 134.393 30.6705 135.081 30.7172H168.802C169.067 30.7535 169.067 30.2602 168.797 30.2602ZM115.156 23.8C115.489 24.122 111.609 28.0687 111.041 28.3855C111.843 27.3625 114.505 23.5559 115.166 23.8H115.156ZM96.7407 29.6007C97.3865 29.0814 99.0478 28.7334 99.1311 29.0398C99.2144 29.3462 97.048 30.0784 96.3293 29.9798C96.4424 29.8297 96.5818 29.7013 96.7407 29.6007ZM79.1121 23.6235C78.9819 24.5738 76.3884 26.7393 75.425 27.4092C76.2739 26.3135 77.8206 23.9714 79.1121 23.6235ZM34.684 37.9719C34.4132 37.733 37.3139 34.8976 37.3139 34.8976C35.4131 37.9096 34.7673 38.0498 34.684 37.9719ZM65.0978 30.39C64.3375 31.3923 61.3377 32.0258 61.4836 31.2729C61.5617 30.3693 64.4572 29.1489 65.1291 29.2995C65.0077 29.4541 64.9393 29.6434 64.9336 29.8396C64.928 30.0359 64.9855 30.2288 65.0978 30.39ZM69.4516 38.1796C69.1547 37.7019 71.7014 32.2855 72.5763 31.6052C72.4357 33.8019 70.3057 38.5224 69.4464 38.1589L69.4516 38.1796Z" fill="#1D1D1B"/>
</g>
<defs>
<clipPath id="clip0">
<rect width="169" height="39" fill="white"/>
</clipPath>
</defs>
</svg>
