<svg width="119" height="68" viewBox="0 0 119 68" fill="none" xmlns="http://www.w3.org/2000/svg">
<path d="M108.715 29.9736C109.095 31.2236 109.323 32.5016 109.38 33.7996H96.1507C95.9948 30.1136 95.0113 26.5936 93.348 23.3576C95.9008 22.3136 98.2597 21.1576 100.399 19.8976L98.9554 18.7736C97.0163 19.9296 94.8833 20.9996 92.5824 21.9676C89.9536 17.5096 86.0015 13.6556 81.1358 10.7236L73.8172 9.13758C74.7348 9.47558 75.6344 9.83958 76.51 10.2336C74.6508 11.0376 72.5818 11.7136 70.3389 12.2436C69.2054 10.6116 67.944 9.21558 66.5866 8.09558L64.2158 8.01758C65.9809 9.06958 67.6042 10.6036 69.0375 12.5316C68.6057 12.6196 68.1659 12.7016 67.7241 12.7796V14.0016C68.4098 13.8596 69.0895 13.7096 69.7492 13.5416C72.0841 17.0636 73.8132 21.6836 74.6608 26.9116C72.4079 27.2696 70.089 27.5496 67.7241 27.7536V29.1316C70.157 28.9296 72.5438 28.6536 74.8607 28.2996C75.0886 30.0756 75.2166 31.9136 75.2286 33.7976H42.0702C42.0842 31.9136 42.2101 30.0756 42.438 28.2996C44.7549 28.6536 47.1398 28.9296 49.5746 29.1316V27.7536C47.2058 27.5496 44.8889 27.2696 42.6399 26.9116C43.4835 21.6836 45.2147 17.0636 47.5496 13.5416C48.2133 13.7096 48.891 13.8596 49.5746 14.0016V12.7796C49.1329 12.7016 48.6931 12.6196 48.2613 12.5316C49.6626 10.6416 51.2519 9.13158 52.975 8.08358L50.5762 8.20958C49.2688 9.30758 48.0534 10.6676 46.9579 12.2456C44.7149 11.7156 42.6419 11.0396 40.7868 10.2356C41.3545 9.97958 41.9342 9.73758 42.518 9.50758L36.2109 10.6976C31.3232 13.6316 27.3511 17.4956 24.7144 21.9696C22.5814 21.0696 20.5943 20.0836 18.7712 19.0236L17.3798 20.1776C19.3929 21.3296 21.5898 22.3936 23.9487 23.3596C22.2855 26.5956 21.304 30.1156 21.148 33.8016H7.91826C7.97623 32.4896 8.20612 31.1976 8.59394 29.9376L4.07407 28.6236C3.41038 30.5196 3.06055 32.4776 3.06055 34.4796C3.06055 51.4436 27.9488 65.1956 58.6504 65.1956C89.3479 65.1956 114.236 51.4436 114.236 34.4796C114.236 32.6676 113.95 30.8896 113.407 29.1656L108.715 29.9736ZM94.5994 33.7996H76.392C76.376 31.8536 76.2461 29.9536 76.0122 28.1176C81.7815 27.1656 87.127 25.7456 91.8647 23.9416C93.482 26.9956 94.4395 30.3176 94.5994 33.7996ZM70.9806 13.2116C73.3834 12.5296 75.6004 11.6816 77.5775 10.7376C83.3927 13.5776 88.1065 17.6856 91.0911 22.5736C86.5372 24.3576 81.3877 25.7676 75.8123 26.7236C74.9727 21.5016 73.2735 16.8556 70.9806 13.2116ZM39.7233 10.7376C41.6964 11.6816 43.9133 12.5296 46.3182 13.2116C44.0233 16.8556 42.3241 21.5016 41.4865 26.7256C35.9111 25.7696 30.7595 24.3576 26.2077 22.5756C29.1922 17.6856 33.906 13.5776 39.7233 10.7376ZM25.43 23.9416C30.1718 25.7456 35.5153 27.1656 41.2866 28.1176C41.0507 29.9536 40.9227 31.8556 40.9067 33.7996H22.6993C22.8572 30.3176 23.8148 26.9956 25.43 23.9416ZM7.93625 35.4556H21.134C21.228 39.2036 22.1715 42.7816 23.8228 46.0736C21.15 47.1996 18.6912 48.4396 16.4762 49.7776C11.3746 45.6596 8.27809 40.7456 7.93625 35.4556ZM17.9375 50.9016C19.9446 49.6716 22.1656 48.5236 24.5764 47.4756C27.2991 52.2036 31.5052 56.2676 36.7127 59.2836C29.2662 57.3456 22.8272 54.4516 17.9375 50.9016ZM44.4551 60.8876C42.5819 60.2536 40.7908 59.4976 39.0976 58.6336C41.3145 57.4976 43.9193 56.5576 46.806 55.8636C48.5951 58.4976 50.7101 60.5376 53.039 61.8136C50.0964 61.6356 47.2258 61.3256 44.4551 60.8876ZM48.0953 55.5756C51.3438 54.8976 54.9101 54.5236 58.6504 54.5236C62.3886 54.5236 65.9529 54.8996 69.2014 55.5756C66.3348 59.5376 62.6565 61.9156 58.6504 61.9156C54.6383 61.9156 50.962 59.5376 48.0953 55.5756ZM72.8417 60.8876C70.071 61.3236 67.2024 61.6356 64.2577 61.8136C66.5866 60.5376 68.7016 58.4976 70.4928 55.8636C73.3794 56.5576 75.9842 57.4976 78.1992 58.6336C76.506 59.4976 74.7168 60.2536 72.8417 60.8876ZM71.1145 54.9016C72.7717 52.2096 74.1071 48.9876 75.0227 45.4056H73.8112C72.8837 48.8976 71.5423 52.0116 69.8871 54.5676C66.4387 53.6836 62.6405 53.1396 58.6524 53.1396C54.6603 53.1396 50.864 53.6836 47.4137 54.5676C45.7544 52.0116 44.4151 48.8976 43.4875 45.4056H42.2801C43.1937 48.9896 44.529 52.2116 46.1862 54.9016C43.1757 55.7656 40.4689 56.8896 38.16 58.1336C32.9685 55.2936 28.7704 51.4016 26.0597 46.8556C27.505 46.2696 29.0163 45.7216 30.5796 45.2096V43.6296C28.7485 44.1956 26.9793 44.8096 25.2941 45.4756C23.6968 42.3696 22.7773 38.9916 22.6833 35.4536H40.9227C40.9347 35.9436 40.9547 36.4316 40.9847 36.9176H42.1501C42.1222 36.4336 42.1002 35.9436 42.0862 35.4536H75.2186C75.2026 35.9436 75.1806 36.4316 75.1526 36.9176H76.3161C76.344 36.4336 76.364 35.9436 76.378 35.4536H94.6174C94.5215 38.9916 93.6039 42.3696 92.0047 45.4756C90.3175 44.8116 88.5523 44.1976 86.7212 43.6296V45.2096C88.2824 45.7196 89.7957 46.2676 91.241 46.8556C88.5323 51.4016 84.3363 55.2936 79.1387 58.1336C76.8318 56.8916 74.1251 55.7676 71.1145 54.9016ZM80.5861 59.2836C85.7936 56.2676 89.9976 52.2016 92.7203 47.4756C95.1332 48.5236 97.3522 49.6736 99.3612 50.9016C94.4695 54.4516 88.0325 57.3456 80.5861 59.2836ZM100.819 49.7796C98.6036 48.4416 96.1427 47.1996 93.472 46.0756C95.1212 42.7816 96.0688 39.2056 96.1607 35.4576H109.358C109.019 40.7456 105.924 45.6596 100.819 49.7796Z" fill="#0D5F9B"/>
<path d="M6.80745 23.168L7.67105 21.75L7.87295 21.872C7.87495 21.956 7.86496 22.044 7.84497 22.138C7.82498 22.232 7.79899 22.314 7.771 22.384L8.43269 24.168C8.59461 24.156 8.78052 24.138 8.99043 24.116C9.20033 24.094 9.41822 24.068 9.64812 24.038C9.87601 24.008 10.1099 23.976 10.3458 23.94C10.5817 23.906 10.8096 23.87 11.0255 23.832L11.3333 23.672L11.5132 23.782L10.9515 24.704L10.6736 24.826C10.5022 24.8477 10.3302 24.865 10.1579 24.878C9.97196 24.894 9.78205 24.904 9.58615 24.91C9.39024 24.916 9.19633 24.922 9.00042 24.924C8.80651 24.926 8.6166 24.926 8.43669 24.922L8.29875 25.15L9.6801 25.992C9.74207 25.924 9.80604 25.866 9.87201 25.818C9.93798 25.772 10.0019 25.736 10.0619 25.708L10.2638 25.83L9.28629 27.434L9.08438 27.312C9.09238 27.22 9.10437 27.128 9.12436 27.038C9.14235 26.948 9.16634 26.864 9.19633 26.784L6.20174 24.958C6.14177 25.032 6.0738 25.1 5.99983 25.158C5.92587 25.216 5.8539 25.264 5.78394 25.298L5.58203 25.176L6.55957 23.572L6.76148 23.694C6.76148 23.758 6.75548 23.83 6.74548 23.912C6.73349 23.994 6.7135 24.078 6.68751 24.164L8.03088 24.984L8.14682 24.626L7.39718 22.996C7.3392 23.058 7.27523 23.114 7.20327 23.164C7.1313 23.214 7.06533 23.256 7.00736 23.288L6.80745 23.168Z" fill="#0D5F9B"/>
<path d="M9.42351 20.3878C9.32156 20.4698 9.21761 20.5358 9.10766 20.5898C8.99771 20.6438 8.89576 20.6838 8.8038 20.7118L8.62988 20.5538L11.0248 17.8998L11.1987 18.0578C11.1847 18.1278 11.1607 18.2078 11.1247 18.2958C11.0887 18.3838 11.0447 18.4698 10.9908 18.5558L13.5935 20.9078C13.6695 20.8478 13.7475 20.7978 13.8294 20.7578C13.9114 20.7178 13.9894 20.6818 14.0673 20.6518L14.2412 20.8098L12.9618 22.2278L12.7879 22.0698C12.8079 21.9918 12.8319 21.9138 12.8639 21.8338C12.8939 21.7538 12.9299 21.6758 12.9698 21.5998L10.3571 19.2398L9.67939 19.9898C10.1372 20.4198 10.507 20.7918 10.7869 21.1078C11.0667 21.4218 11.2866 21.6958 11.4446 21.9278C11.6025 22.1598 11.7144 22.3598 11.7784 22.5258C11.8424 22.6918 11.8884 22.8458 11.9163 22.9878C11.9443 23.1178 11.9383 23.2478 11.9023 23.3778C11.8664 23.5078 11.8104 23.6138 11.7364 23.6958C11.6844 23.7218 11.6185 23.7318 11.5385 23.7258C11.4586 23.7198 11.3726 23.7038 11.2846 23.6798C11.1947 23.6558 11.1087 23.6218 11.0228 23.5818C10.9368 23.5398 10.8648 23.4958 10.8029 23.4458L10.7409 23.1638L11.3686 22.7358C11.3186 22.6178 11.2507 22.4858 11.1647 22.3378C11.0787 22.1898 10.9608 22.0198 10.8089 21.8298C10.6589 21.6378 10.471 21.4238 10.2451 21.1878C10.0232 20.9458 9.74936 20.6798 9.42351 20.3878ZM15.8105 19.5158L14.3632 20.6938L14.2153 20.5118C14.2492 20.4298 14.2912 20.3498 14.3372 20.2678C14.3832 20.1878 14.4372 20.1158 14.4951 20.0498L12.2822 17.3278C12.2042 17.3638 12.1222 17.3998 12.0363 17.4358C11.9483 17.4718 11.8624 17.4958 11.7764 17.5078L11.6285 17.3258L13.0758 16.1478L13.2237 16.3298C13.1997 16.3978 13.1658 16.4698 13.1258 16.5438C13.0858 16.6198 13.0358 16.6918 12.9758 16.7618L14.4611 18.5898L14.717 19.0038L14.6331 18.4198L14.4691 15.7398L14.3752 15.6238C14.1953 15.7118 14.0313 15.7678 13.8814 15.7938L13.7335 15.6118L15.1808 14.4338L15.3287 14.6158C15.3027 14.6958 15.2648 14.7738 15.2128 14.8498C15.1608 14.9258 15.1068 15.0018 15.0489 15.0758L17.2618 17.7998C17.3458 17.7518 17.4297 17.7138 17.5157 17.6858C17.6017 17.6558 17.6856 17.6338 17.7696 17.6198L17.9175 17.8018L16.4702 18.9798L16.3223 18.7978C16.3483 18.7398 16.3822 18.6698 16.4222 18.5918C16.4622 18.5138 16.5122 18.4378 16.5681 18.3638L15.0868 16.5398L14.827 16.1198L14.9189 16.6758L15.0828 19.3938L15.1688 19.4998C15.2548 19.4558 15.3407 19.4198 15.4267 19.3938C15.5106 19.3678 15.5906 19.3458 15.6626 19.3298L15.8105 19.5158ZM19.6767 16.7078L18.0834 17.7018L17.9595 17.5018C17.9995 17.4338 18.0495 17.3598 18.1114 17.2818C18.1734 17.2038 18.2334 17.1378 18.2953 17.0798L16.4402 14.1018C16.3483 14.1398 16.2543 14.1698 16.1583 14.1898C16.0644 14.2098 15.9824 14.2198 15.9125 14.2178L15.7885 14.0178L17.3818 13.0238L17.5057 13.2238C17.4757 13.2918 17.4357 13.3598 17.3878 13.4278C17.3398 13.4958 17.2858 13.5558 17.2258 13.6078L18.0195 14.8818L19.4128 14.0118L18.6192 12.7378C18.5332 12.7718 18.4513 12.7938 18.3713 12.8038C18.2933 12.8138 18.2194 12.8178 18.1494 12.8178L18.0255 12.6178L19.6187 11.6238L19.7427 11.8238C19.7067 11.8998 19.6587 11.9738 19.5967 12.0458C19.5348 12.1178 19.4708 12.1858 19.4068 12.2438L21.2619 15.2218C21.3519 15.1858 21.4419 15.1578 21.5358 15.1398C21.6278 15.1218 21.7137 15.1098 21.7897 15.1058L21.9136 15.3058L20.3204 16.2998L20.1964 16.0998C20.2304 16.0358 20.2684 15.9698 20.3144 15.9018C20.3604 15.8338 20.4143 15.7718 20.4743 15.7138L19.6247 14.3518L18.2314 15.2218L19.081 16.5838C19.1589 16.5538 19.2369 16.5338 19.3109 16.5198C19.3848 16.5078 19.4648 16.5018 19.5487 16.5038L19.6767 16.7078ZM23.7828 14.3858L22.1095 15.2098L22.0056 14.9978C22.0576 14.9258 22.1155 14.8558 22.1795 14.7878C22.2435 14.7198 22.3114 14.6618 22.3834 14.6118L20.8341 11.4638C20.7502 11.4818 20.6622 11.4998 20.5683 11.5138C20.4743 11.5298 20.3844 11.5338 20.2984 11.5258L20.1944 11.3138L21.8677 10.4898L21.9716 10.7018C21.9316 10.7618 21.8856 10.8258 21.8297 10.8898C21.7737 10.9538 21.7097 11.0138 21.6338 11.0698L22.6733 13.1838L22.8312 13.6458L22.8792 13.0558L23.317 10.4078L23.251 10.2738C23.0571 10.3198 22.8832 10.3378 22.7332 10.3278L22.6293 10.1158L24.3025 9.2918L24.4065 9.5038C24.3645 9.5758 24.3085 9.6438 24.2405 9.7058C24.1726 9.7698 24.1026 9.8298 24.0306 9.8898L25.5799 13.0378C25.6719 13.0098 25.7638 12.9918 25.8538 12.9818C25.9437 12.9718 26.0317 12.9698 26.1157 12.9738L26.2196 13.1858L24.5464 14.0098L24.4404 13.7998C24.4804 13.7478 24.5284 13.6898 24.5844 13.6218C24.6404 13.5538 24.7063 13.4918 24.7783 13.4338L23.7408 11.3258L23.5809 10.8598L23.5469 11.4218L23.1011 14.1078L23.161 14.2298C23.255 14.2058 23.347 14.1918 23.4349 14.1838C23.5229 14.1778 23.6048 14.1738 23.6788 14.1738L23.7828 14.3858ZM27.0232 8.2038L28.5685 7.5918L28.6545 7.8118C28.6065 7.8798 28.5445 7.9458 28.4725 8.0078C28.3986 8.0698 28.3306 8.1198 28.2666 8.1598L27.7209 9.9818C27.8588 10.0698 28.0168 10.1678 28.1967 10.2758C28.3766 10.3838 28.5685 10.4958 28.7684 10.6098C28.9683 10.7238 29.1742 10.8378 29.3841 10.9538C29.594 11.0678 29.7959 11.1758 29.9918 11.2758L30.3337 11.3338L30.4116 11.5298L29.4081 11.9258L29.1142 11.8558C28.9763 11.7778 28.8284 11.6878 28.6725 11.5878C28.5145 11.4878 28.3566 11.3818 28.1967 11.2698C28.0368 11.1578 27.8788 11.0438 27.7209 10.9278C27.565 10.8118 27.415 10.6978 27.2731 10.5858L27.0252 10.6838L27.621 12.1878C27.7109 12.1698 27.7969 12.1618 27.8788 12.1658C27.9608 12.1698 28.0328 12.1778 28.0967 12.1938L28.1827 12.4138L26.4375 13.1058L26.3515 12.8858C26.4135 12.8178 26.4795 12.7518 26.5475 12.6918C26.6174 12.6318 26.6874 12.5778 26.7574 12.5318L25.466 9.2698C25.372 9.2938 25.2801 9.3058 25.1841 9.3078C25.0901 9.3098 25.0042 9.3038 24.9262 9.2898L24.8403 9.0698L26.5854 8.3778L26.6714 8.5978C26.6334 8.6478 26.5854 8.7038 26.5255 8.7618C26.4675 8.8218 26.3995 8.8758 26.3276 8.9278L26.9073 10.3918L27.2151 10.1758L27.595 8.4258C27.511 8.4418 27.427 8.4478 27.3391 8.4438C27.2511 8.4418 27.1752 8.4338 27.1092 8.4258L27.0232 8.2038Z" fill="#0D5F9B"/>
<path d="M31.8027 11.088L30.3454 11.554L30.2734 11.33C30.3234 11.27 30.3814 11.214 30.4434 11.162C30.5073 11.11 30.5713 11.064 30.6373 11.026L30.9411 6.73L31.3769 6.59L34.0776 9.924C34.1616 9.914 34.2476 9.912 34.3355 9.916C34.4235 9.92 34.5034 9.932 34.5754 9.954L34.6474 10.178L32.8002 10.77L32.7283 10.546C32.7923 10.486 32.8622 10.428 32.9382 10.368C33.0141 10.308 33.0901 10.258 33.1641 10.218L32.5204 9.388L31.211 9.808L31.163 10.858C31.3509 10.824 31.5408 10.826 31.7307 10.864L31.8027 11.088ZM31.229 9.378L32.2745 9.044L31.5308 8.04L31.257 7.568L31.245 7.572L31.281 8.134L31.229 9.378ZM37.6839 9.412L36.1926 9.758L36.1387 9.528C36.1946 9.472 36.2546 9.422 36.3226 9.374C36.3906 9.326 36.4585 9.286 36.5265 9.254L37.1822 4.996L37.628 4.892L40.0468 8.436C40.1308 8.434 40.2168 8.438 40.3047 8.45C40.3927 8.462 40.4706 8.48 40.5406 8.506L40.5946 8.736L38.7055 9.174L38.6515 8.944C38.7195 8.89 38.7934 8.836 38.8754 8.784C38.9573 8.732 39.0353 8.688 39.1113 8.652L38.5395 7.772L37.2002 8.082L37.0662 9.124C37.2561 9.106 37.4461 9.124 37.632 9.178L37.6839 9.412ZM37.2522 7.66L38.3216 7.412L37.662 6.35L37.4261 5.858L37.4141 5.86L37.4041 6.422L37.2522 7.66ZM42.2918 4.036L43.927 3.75L43.967 3.982C43.905 4.04 43.833 4.09 43.7491 4.136C43.6651 4.182 43.5872 4.218 43.5152 4.242L42.6136 5.918C42.7296 6.032 42.8655 6.16 43.0214 6.302C43.3568 6.60999 43.6987 6.91073 44.0469 7.204C44.2289 7.358 44.4068 7.506 44.5767 7.642L44.9005 7.768L44.9365 7.976L43.875 8.162L43.6012 8.034C43.4812 7.93 43.3553 7.812 43.2213 7.682C43.0874 7.552 42.9535 7.416 42.8195 7.274C42.6856 7.132 42.5537 6.988 42.4237 6.844C42.2938 6.698 42.1698 6.556 42.0539 6.418L41.792 6.464L42.0719 8.058C42.1638 8.058 42.2498 8.068 42.3298 8.088C42.4097 8.108 42.4777 8.132 42.5377 8.158L42.5776 8.39L40.7285 8.714L40.6885 8.482C40.7625 8.428 40.8405 8.376 40.9204 8.332C41.0004 8.286 41.0803 8.248 41.1583 8.218L40.5526 4.762C40.4566 4.766 40.3627 4.76 40.2687 4.742C40.1748 4.724 40.0928 4.702 40.0208 4.672L39.9809 4.44L41.83 4.116L41.87 4.348C41.822 4.39 41.764 4.434 41.6941 4.48C41.6241 4.526 41.5481 4.566 41.4662 4.602L41.738 6.154L42.0839 6.006L42.8095 4.368C42.7256 4.366 42.6396 4.354 42.5557 4.334C42.4697 4.314 42.3957 4.292 42.3338 4.27L42.2918 4.036Z" fill="#0D5F9B"/>
<path d="M46.3998 7.7959L44.8805 7.9839L44.8525 7.7499C44.9125 7.6999 44.9785 7.6559 45.0504 7.6159C45.1224 7.5759 45.1944 7.5419 45.2663 7.5179L46.3618 3.3519L46.8176 3.2959L48.8527 7.0739C48.9366 7.0799 49.0226 7.0939 49.1065 7.1139C49.1925 7.1339 49.2685 7.1619 49.3344 7.1939L49.3644 7.4279L47.4393 7.6659L47.4113 7.4319C47.4853 7.3859 47.5653 7.3399 47.6512 7.2959C47.7372 7.2519 47.8211 7.2159 47.9011 7.1899L47.4233 6.2559L46.058 6.4259L45.8161 7.4499C46.008 7.4519 46.1939 7.4879 46.3738 7.5619L46.3998 7.7959ZM46.1539 6.0099L47.2434 5.8759L46.6977 4.7499L46.5158 4.2359L46.5038 4.2379L46.4358 4.7959L46.1539 6.0099Z" fill="#0D5F9B"/>
<path d="M53.7267 6.69998C53.7347 6.79398 53.7387 6.90398 53.7387 7.02598C53.7387 7.14798 53.7367 7.27398 53.7327 7.40198C53.7287 7.52998 53.7207 7.65798 53.7107 7.78198C53.7008 7.90798 53.6888 8.01998 53.6708 8.11998L53.4289 8.13798L53.0191 7.15598L50.0645 7.37798L49.8066 8.40998L49.5647 8.42798C49.5327 8.32598 49.5007 8.21198 49.4707 8.08598C49.4408 7.95998 49.4128 7.83198 49.3888 7.70398C49.3648 7.57598 49.3448 7.45198 49.3308 7.33198C49.3148 7.21198 49.3048 7.11198 49.2988 7.02998L49.8366 6.98998C49.9385 6.80798 50.0285 6.58598 50.1064 6.32398C50.1844 6.06198 50.2464 5.77598 50.2904 5.46798C50.3363 5.15998 50.3623 4.83598 50.3723 4.49798C50.3823 4.15998 50.3743 3.82198 50.3483 3.48398C50.2404 3.47198 50.1264 3.44798 50.0085 3.41598C49.8905 3.38398 49.7786 3.34198 49.6766 3.29198L49.6587 3.05798L53.213 2.79198L53.231 3.02598C53.093 3.11598 52.9291 3.18798 52.7372 3.24398L52.9991 6.75598L53.7267 6.69998ZM52.0775 6.82398L51.8136 3.29998L50.8181 3.37398C50.8341 3.85398 50.8301 4.28398 50.8101 4.66798C50.7881 5.05198 50.7561 5.38998 50.7082 5.68198C50.6622 5.97598 50.6062 6.22798 50.5442 6.43798C50.4803 6.64798 50.4183 6.81998 50.3523 6.95198L52.0775 6.82398ZM57.1012 2.66198C57.0992 2.84798 57.0892 3.03998 57.0752 3.23998C57.0612 3.43798 57.0392 3.62598 57.0112 3.79998L56.7573 3.80798L56.4495 3.08598L55.292 3.12198L55.34 4.63998L56.0956 4.61598L56.3535 4.12998L56.5514 4.12398C56.5774 4.32598 56.5954 4.54998 56.6034 4.79798C56.6114 5.04598 56.6074 5.27798 56.5934 5.49398L56.3955 5.49998L56.1076 5.01798L55.352 5.04198L55.402 6.65398L56.6094 6.61598L56.9132 5.81798L57.1671 5.80998C57.1851 5.88798 57.2051 5.97598 57.2251 6.07398C57.2451 6.17198 57.2611 6.27398 57.2751 6.37998C57.2891 6.48398 57.3011 6.59198 57.309 6.69798C57.319 6.80598 57.325 6.90398 57.327 6.99598L53.9766 7.09998L53.9686 6.86398C54.0386 6.82398 54.1146 6.78798 54.2005 6.75198C54.2865 6.71598 54.3764 6.68798 54.4704 6.66998L54.3624 3.16198C54.2785 3.14798 54.1905 3.12798 54.0966 3.09798C54.0109 3.07286 53.9278 3.03936 53.8487 2.99798L53.8407 2.76198L57.1012 2.66198ZM63.2423 7.06398L61.3891 7.02998L61.3931 6.79398C61.4771 6.75398 61.557 6.71998 61.637 6.69198C61.717 6.66398 61.8009 6.64198 61.8929 6.62198L61.9389 4.02998L61.9828 3.30598H61.9329L61.717 3.96598L60.4656 7.01398L60.1797 7.00798L59.0442 3.94398L58.8343 3.21398H58.7784L58.7724 4.00198L58.7264 6.54398C58.8043 6.56198 58.8903 6.58998 58.9843 6.62998C59.0782 6.66798 59.1662 6.71198 59.2481 6.75798L59.2441 6.99398L57.7328 6.96598L57.7369 6.72998C57.8028 6.69798 57.8848 6.65998 57.9827 6.61598C58.0807 6.57198 58.1726 6.54198 58.2606 6.52798L58.3226 3.04998C58.2406 3.03198 58.1527 3.00798 58.0607 2.97798C57.9687 2.94798 57.8868 2.90798 57.8188 2.86198L57.8228 2.62598L59.502 2.65598L60.4056 5.19598L60.5755 5.79398H60.5815L60.7774 5.18998L61.7889 2.69598L63.3262 2.72398L63.3222 2.95998C63.2503 2.99998 63.1743 3.03398 63.0943 3.06398C63.0124 3.09398 62.9304 3.11598 62.8484 3.12998L62.7865 6.64398C62.8724 6.66198 62.9564 6.68798 63.0363 6.72198C63.1163 6.75598 63.1863 6.78998 63.2483 6.82598L63.2423 7.06398ZM65.3713 7.22598L63.5101 7.08998L63.5281 6.85598C63.6101 6.81998 63.694 6.78998 63.784 6.76198C63.872 6.73598 63.9619 6.71998 64.0479 6.71398L64.3058 3.21398C64.2258 3.18798 64.1398 3.15798 64.0519 3.12398C63.9639 3.08998 63.884 3.04798 63.812 2.99798L63.83 2.76398L65.6911 2.89998L65.6731 3.13398C65.6091 3.16598 65.5352 3.19598 65.4552 3.22398C65.3752 3.25198 65.2873 3.26998 65.1973 3.27998L65.0254 5.62998L64.9275 6.10798L65.2673 5.62398L66.9845 3.56198L66.9945 3.41398C66.8046 3.35398 66.6466 3.28198 66.5187 3.19798L66.5367 2.96398L68.3978 3.09998L68.3798 3.33398C68.3059 3.37398 68.2239 3.40398 68.1339 3.42398C68.044 3.44398 67.952 3.46198 67.8601 3.47598L67.6022 6.97598C67.6962 6.99998 67.7841 7.02998 67.8661 7.06598C67.948 7.10398 68.024 7.14598 68.096 7.19198L68.078 7.42598L66.2169 7.28998L66.2348 7.05598C66.2948 7.03198 66.3668 7.00398 66.4487 6.97598C66.5307 6.94598 66.6187 6.92598 66.7106 6.91198L66.8825 4.56798L66.9805 4.08398L66.6666 4.55198L64.9215 6.64398L64.9115 6.77998C65.0054 6.80798 65.0914 6.83998 65.1713 6.87998C65.2513 6.91998 65.3233 6.95798 65.3872 6.99598L65.3713 7.22598ZM71.2025 3.43798L72.8497 3.64198L72.8197 3.87598C72.7438 3.91198 72.6598 3.93998 72.5659 3.95998C72.4719 3.97998 72.3879 3.98998 72.312 3.99398L70.9586 5.33198C71.1549 5.68949 71.3609 6.04162 71.5763 6.38798C71.6983 6.58398 71.8222 6.78398 71.9521 6.98398C72.0821 7.18598 72.208 7.37798 72.33 7.55998L72.6038 7.77598L72.5779 7.98598L71.5084 7.85198L71.2845 7.64998C71.2005 7.51398 71.1145 7.36598 71.0246 7.20198C70.9346 7.03798 70.8467 6.86998 70.7607 6.69398C70.6748 6.51798 70.5908 6.34198 70.5068 6.16598C70.4249 5.98998 70.3489 5.81798 70.2769 5.64998L70.0131 5.61798L69.8132 7.22398C69.9011 7.25198 69.9811 7.28598 70.049 7.32798C70.119 7.36998 70.177 7.41198 70.227 7.45598L70.197 7.68998L68.3339 7.45798L68.3638 7.22398C68.4518 7.19398 68.5398 7.16798 68.6297 7.14798C68.7197 7.12798 68.8056 7.11398 68.8896 7.10798L69.3214 3.62598C69.2292 3.60214 69.14 3.56792 69.0555 3.52398C68.9716 3.47998 68.8996 3.43398 68.8396 3.38398L68.8696 3.14998L70.7327 3.38198L70.7027 3.61598C70.6448 3.64198 70.5768 3.66598 70.4968 3.68998C70.4169 3.71398 70.3329 3.72998 70.245 3.73998L70.051 5.30198L70.4249 5.25998L71.5983 3.90598C71.5184 3.87998 71.4404 3.84398 71.3644 3.79798C71.2885 3.75398 71.2245 3.70998 71.1705 3.66998L71.2025 3.43798Z" fill="#0D5F9B"/>
<path d="M66.8563 17.7359H61.265V12.3139H56.3453V17.7359H50.7519V21.6559H56.3453V27.0759H61.265V21.6559H66.8563V17.7359ZM44.5229 39.4699H45.3305L47.2136 41.8299L49.0887 39.4699H49.8963V43.9859H49.1047V40.3859L47.3875 42.5679H46.9737L45.3245 40.3919V43.9859H44.5249V39.4699H44.5229ZM50.616 39.4699H54.1024V40.0299H51.4796V41.0279H54.0264V41.6559H51.4796V43.4279H54.1763V43.9859H50.616V39.4699ZM56.0075 43.4339L57.2609 40.0559L58.3723 40.0419V43.4339H56.0075ZM55.2038 43.4119C55.2038 43.4119 54.6501 43.3919 54.5661 43.7419C54.4842 44.0919 54.936 45.1219 54.936 45.1219H55.8095L55.4097 43.9859H59.054L58.6422 45.1219H59.5478C59.5478 45.1219 59.9616 44.2779 59.9616 43.8239C59.9616 43.3759 59.5558 43.4339 59.5558 43.4339H59.2199V39.4779H55.8515V40.0359L56.3793 40.0559L55.2038 43.4119ZM68.5875 43.4199V39.4759H69.5291V43.4199C69.5291 43.4199 70.0628 43.3919 70.1868 43.5979C70.3107 43.8039 69.821 45.0939 69.821 45.0939L68.9833 45.0499L69.3432 43.9859H65.2571V39.4779H66.2007V43.4219H68.5875V43.4199ZM74.015 43.9859V40.3259L71.5681 42.6719L71.5321 43.9859H70.6825V39.4699H71.5961V41.8259L73.907 39.4699H74.7926V43.9859H74.015ZM63.7938 43.9859V40.3039L61.3469 42.6919L61.311 43.9859H60.4634V39.4699H61.3749V41.8259L63.6898 39.4699H64.5694V43.9859H63.7938ZM78.9946 39.4639V41.0079L76.5938 41.0239V39.4639H75.8041V41.0239H75.3923V41.8279H75.8041V43.9859H76.5938V41.7859H78.9946V43.9859H79.7823V39.4639H78.9946ZM83.5985 39.4359H82.563L81.7973 41.0839H80.9077V41.7239H81.5035L80.458 43.9859H81.4095L82.415 41.7239H83.7724L84.7719 43.9859H85.7235L83.5985 39.4359ZM82.6289 41.0559L83.0507 40.1579L83.5225 41.0559H82.6289ZM34.6815 39.4359H33.646L32.8823 41.0839H31.9928V41.7239H32.5885L31.543 43.9859H32.4945L33.5 41.7239H34.8574L35.8549 43.9859H36.8065L34.6815 39.4359ZM33.7119 41.0559L34.1338 40.1579L34.6055 41.0559H33.7119ZM40.8126 40.0919C40.3708 39.6499 39.8051 39.4239 39.1314 39.4239C38.4617 39.4239 37.9 39.6479 37.4602 40.0899C37.0244 40.5279 36.8025 41.0899 36.8025 41.7619C36.8025 42.4319 37.0224 42.9939 37.4582 43.4299C37.896 43.8719 38.4597 44.0959 39.1314 44.0959C39.8071 44.0959 40.3728 43.8719 40.8146 43.4299C41.2504 42.9919 41.4723 42.4299 41.4723 41.7619C41.4723 41.0939 41.2504 40.5319 40.8126 40.0919ZM39.1314 43.3479C38.6956 43.3479 38.3438 43.2039 38.0559 42.9059C37.766 42.6039 37.6241 42.2299 37.6241 41.7599C37.6241 41.2959 37.77 40.9119 38.0559 40.6139C38.3438 40.3159 38.6956 40.1699 39.1314 40.1699C39.5712 40.1699 39.923 40.3139 40.2089 40.6119C40.4948 40.9099 40.6407 41.2959 40.6407 41.7599C40.6407 42.2299 40.4988 42.6039 40.2069 42.9059C39.921 43.2039 39.5692 43.3479 39.1314 43.3479Z" fill="#FF5251"/>
<path d="M86.988 11.4959L88.7231 12.1819L88.8091 11.9619C88.7591 11.9079 88.7012 11.8499 88.6372 11.7879C88.5732 11.7279 88.4993 11.6699 88.4193 11.6159L88.4693 11.4899L90.7582 10.0159L91.198 9.66393L90.9601 10.0959L90.0965 12.2819C90.0046 12.2679 89.9146 12.2639 89.8266 12.2659C89.7387 12.2679 89.6627 12.2719 89.5987 12.2779L89.5128 12.4979L91.248 13.1839L91.3339 12.9639C91.28 12.8979 91.22 12.8359 91.152 12.7759C91.086 12.7159 91.0101 12.6599 90.9281 12.6099L92.2175 9.3459C92.3095 9.3599 92.4014 9.3699 92.4934 9.3779C92.5853 9.3839 92.6733 9.3799 92.7553 9.3639L92.8412 9.1439L91.106 8.4579L91.0201 8.6779C91.116 8.7959 91.246 8.9119 91.4099 9.0259L91.3559 9.1639L89.103 10.6159L88.6332 10.9759L88.8691 10.5499L89.7347 8.3599C89.8246 8.3779 89.9126 8.3859 89.9985 8.3839C90.0825 8.3819 90.1605 8.3759 90.2324 8.3639L90.3184 8.1439L88.5832 7.4579L88.4973 7.6779C88.5492 7.7479 88.6132 7.8119 88.6872 7.8699C88.7611 7.9279 88.8331 7.9819 88.9031 8.0319L87.6137 11.2959C87.5277 11.2759 87.4378 11.2659 87.3458 11.2639C87.2518 11.2619 87.1619 11.2659 87.0739 11.2759L86.988 11.4959Z" fill="#0D5F9B"/>
<path d="M90.2175 8.02349C90.3495 8.11349 90.5034 8.19349 90.6793 8.26349C91.0411 8.40549 91.351 8.45349 91.6129 8.40549C91.8708 8.35749 92.0487 8.20949 92.1466 7.96349C92.0806 7.88149 91.9967 7.80749 91.8947 7.74149C91.7908 7.67549 91.7028 7.63349 91.6309 7.61349L91.393 7.63949L91.2091 8.10549C91.1491 8.10349 91.0771 8.09149 90.9952 8.06749C90.9132 8.04349 90.8452 8.02149 90.7913 7.99949C90.7233 7.97149 90.6553 7.93949 90.5874 7.90149C90.5194 7.86549 90.4654 7.82149 90.4214 7.77349L90.5993 7.32349L90.4434 7.14149C90.3455 7.10749 90.2375 7.07549 90.1176 7.04549C89.9976 7.01549 89.8937 7.01349 89.8057 7.03549C89.7577 7.15949 89.7418 7.27949 89.7597 7.39749C89.7777 7.51549 89.8257 7.62749 89.9037 7.73149C89.9816 7.83749 90.0856 7.93349 90.2175 8.02349Z" fill="#0D5F9B"/>
<path d="M92.2468 13.6656L94.1619 14.6036L94.2679 14.3916C94.2099 14.3196 94.142 14.2456 94.06 14.1736C93.978 14.0996 93.8941 14.0316 93.8061 13.9656L95.3534 10.8016L95.9991 11.1176L95.8891 12.2436L96.123 12.3576C96.175 12.2856 96.237 12.1976 96.3069 12.0916C96.4537 11.8694 96.5924 11.6419 96.7227 11.4096C96.7887 11.2956 96.8427 11.1936 96.8867 11.1036L93.3403 9.36757C93.2984 9.45157 93.2524 9.5576 93.2004 9.6816C93.1484 9.8056 93.0984 9.9316 93.0505 10.0596C93.0005 10.1876 92.9565 10.3136 92.9145 10.4356C92.8726 10.5576 92.8426 10.6596 92.8206 10.7416L93.0485 10.8536L93.8701 10.0756L94.5158 10.3916L92.9685 13.5556C92.8645 13.5236 92.7586 13.4996 92.6487 13.4856C92.5387 13.4716 92.4388 13.4596 92.3508 13.4536L92.2468 13.6656Z" fill="#0D5F9B"/>
<path d="M103.345 16.0077C103.479 15.8597 103.605 15.7137 103.721 15.5677L101.094 13.6397L100.954 13.8297C100.986 13.9037 101.032 13.9817 101.088 14.0617C101.144 14.1417 101.2 14.2137 101.258 14.2757L99.1853 17.1077C99.0993 17.0637 99.0114 17.0297 98.9214 17.0057C98.8315 16.9817 98.7475 16.9637 98.6695 16.9517L98.5296 17.1417L101.234 19.1237C101.288 19.0497 101.344 18.9677 101.402 18.8777C101.46 18.7877 101.516 18.6977 101.57 18.6057C101.624 18.5137 101.672 18.4237 101.718 18.3337C101.764 18.2437 101.804 18.1637 101.836 18.0897L101.63 17.9397L100.9 18.3817L99.9249 17.6677L100.876 16.3677L101.486 16.8137L101.416 17.3697L101.576 17.4877C101.72 17.3257 101.866 17.1457 102.012 16.9457C102.158 16.7457 102.282 16.5577 102.386 16.3817L102.226 16.2637L101.724 16.4877L101.114 16.0417L102.012 14.8157L102.948 15.5017L102.746 16.2597L102.952 16.4097C103.079 16.2897 103.211 16.1557 103.345 16.0077Z" fill="#0D5F9B"/>
<path d="M105.757 23.117C105.717 23.019 105.671 22.923 105.619 22.833L108.338 20.597L108.959 21.353L108.37 22.345L108.532 22.541C108.622 22.489 108.724 22.427 108.834 22.357C108.943 22.287 109.055 22.211 109.165 22.131C109.275 22.051 109.381 21.971 109.483 21.893C109.585 21.815 109.675 21.745 109.751 21.681L107.736 19.229L107.554 19.379C107.57 19.467 107.594 19.555 107.628 19.643C107.662 19.729 107.698 19.811 107.738 19.885L105.029 22.115C104.907 22.013 104.753 21.919 104.568 21.837L104.386 21.987L105.677 23.557L105.859 23.407C105.829 23.313 105.795 23.217 105.757 23.117Z" fill="#0D5F9B"/>
<path fill-rule="evenodd" clip-rule="evenodd" d="M74.0307 8.23559L72.5234 7.97159L72.5634 7.73959C72.6354 7.70959 72.7113 7.68759 72.7933 7.66959C72.8733 7.65159 72.9532 7.64159 73.0292 7.63759L75.2961 3.97559L75.7479 4.05559L76.5875 8.26359C76.6655 8.29359 76.7434 8.33159 76.8194 8.37759C76.8954 8.42159 76.9613 8.47159 77.0133 8.52159L76.9733 8.75359L75.0622 8.41759L75.1022 8.18559C75.1862 8.16159 75.2761 8.14359 75.3701 8.12559C75.466 8.10959 75.554 8.09959 75.64 8.09759L75.4561 7.06359L74.1007 6.82559L73.5709 7.73359C73.7549 7.79159 73.9208 7.88159 74.0707 8.00359L74.0307 8.23559ZM75.3981 6.64559L74.3186 6.45559L74.9423 5.37559L75.1822 4.86359L75.2062 5.40959L75.3981 6.64559Z" fill="#0D5F9B"/>
<path fill-rule="evenodd" clip-rule="evenodd" d="M80.1904 9.08942C80.2943 9.13342 80.3963 9.18342 80.4942 9.23942C80.5922 9.29542 80.6801 9.35542 80.7541 9.41742L80.6961 9.64545L78.6951 9.14142L78.753 8.91342C78.841 8.88942 78.931 8.87343 79.0229 8.86742C79.1169 8.86142 79.2048 8.85942 79.2888 8.86342L80.1464 5.46142C80.0584 5.42142 79.9765 5.37742 79.8985 5.32542C79.8225 5.27342 79.7546 5.21942 79.6966 5.16342L79.7546 4.93542L80.5122 5.12542C80.6721 5.16542 80.8581 5.20342 81.068 5.23942C81.2779 5.27542 81.4698 5.31542 81.6417 5.35942C81.8536 5.41342 82.0555 5.48542 82.2474 5.57942C82.4393 5.67342 82.6012 5.78942 82.7352 5.92942C82.8691 6.06942 82.9611 6.23542 83.017 6.42542C83.071 6.61542 83.067 6.83542 83.005 7.08342C82.9451 7.31942 82.8471 7.51342 82.7092 7.66142C82.5712 7.80942 82.4113 7.92142 82.2254 7.99342C82.0415 8.06542 81.8396 8.10342 81.6217 8.10742C81.4038 8.10942 81.1859 8.08342 80.97 8.02942C80.95 8.02342 80.918 8.01542 80.874 8.00542C80.8588 8.00127 80.8431 7.99712 80.8271 7.99289C80.7969 7.98488 80.7655 7.97658 80.7341 7.96742C80.6841 7.95342 80.6362 7.93942 80.5922 7.92542C80.5462 7.91142 80.5142 7.90142 80.4962 7.89142L80.1904 9.08942ZM81.1939 5.66942C81.2419 5.67342 81.3058 5.68742 81.3858 5.70742C81.6417 5.77342 81.8296 5.90142 81.9495 6.09342C82.0675 6.28542 82.0855 6.54142 82.0055 6.86142C81.9615 7.02942 81.9016 7.16742 81.8236 7.27542C81.7456 7.38342 81.6577 7.46542 81.5597 7.52142C81.465 7.57695 81.3592 7.61108 81.2499 7.62142C81.1399 7.63342 81.032 7.62542 80.924 7.59742C80.88 7.58742 80.8221 7.57142 80.7501 7.55142C80.6781 7.53142 80.6262 7.51142 80.5922 7.48942L81.052 5.66142C81.0999 5.66142 81.1459 5.66342 81.1939 5.66942Z" fill="#0D5F9B"/>
<path fill-rule="evenodd" clip-rule="evenodd" d="M83.2944 8.06705C83.3904 7.75905 83.5243 7.48905 83.6942 7.25305C83.8641 7.01905 84.0621 6.83105 84.292 6.69305C84.5218 6.55505 84.7777 6.47305 85.0596 6.44305C85.3415 6.41505 85.6433 6.45105 85.9672 6.55305C86.291 6.65505 86.5589 6.79705 86.7748 6.98305C86.9887 7.16705 87.1506 7.38105 87.2585 7.62505C87.3665 7.86905 87.4225 8.13505 87.4265 8.42505C87.4305 8.71505 87.3845 9.01305 87.2885 9.32105C87.1926 9.62905 87.0587 9.89908 86.8907 10.1351C86.7208 10.3691 86.5229 10.5571 86.295 10.6951C86.0671 10.8331 85.8132 10.9171 85.5314 10.9451C85.2495 10.9731 84.9476 10.9371 84.6238 10.8351C84.2999 10.7331 84.0321 10.5911 83.8162 10.4051C83.6023 10.2211 83.4384 10.0051 83.3304 9.76108C83.2205 9.51708 83.1645 9.24905 83.1605 8.95905C83.1525 8.67305 83.1985 8.37505 83.2944 8.06705ZM84.138 9.10305C84.166 8.87505 84.22 8.63505 84.3 8.38305C84.3724 8.14777 84.4612 7.91787 84.5658 7.69505C84.6618 7.48905 84.7717 7.31905 84.8937 7.18705C85.0156 7.05505 85.1515 6.96305 85.3015 6.91305C85.4514 6.86305 85.6173 6.86505 85.7992 6.92305C85.9892 6.98105 86.1351 7.07705 86.239 7.20705C86.343 7.33905 86.4109 7.49305 86.4429 7.67505C86.4749 7.85705 86.4749 8.06105 86.4449 8.28705C86.4149 8.51305 86.361 8.75305 86.281 9.00505C86.203 9.25905 86.1111 9.48708 86.0111 9.69108C85.9092 9.89508 85.7972 10.0631 85.6733 10.1951C85.5494 10.3271 85.4134 10.4191 85.2675 10.4711C85.1216 10.5231 84.9636 10.5231 84.7937 10.4691C84.6078 10.4111 84.4639 10.3171 84.3599 10.1871C84.256 10.0551 84.186 9.89908 84.15 9.71708C84.114 9.53508 84.11 9.33105 84.138 9.10305Z" fill="#0D5F9B"/>
<path fill-rule="evenodd" clip-rule="evenodd" d="M97.6282 11.9952C97.4783 11.8672 97.3643 11.7292 97.2844 11.5812L97.4043 11.3792L100.263 13.0852C100.215 13.1672 100.157 13.2552 100.091 13.3512C100.025 13.4472 99.9571 13.5412 99.8871 13.6332C99.8172 13.7252 99.7472 13.8152 99.6792 13.8992C99.6093 13.9832 99.5453 14.0572 99.4873 14.1232L99.2694 13.9932L99.3934 13.0352L98.4358 12.4632L97.7122 13.6772C97.7377 13.6892 97.7677 13.7024 97.8022 13.7175C97.8137 13.7225 97.8256 13.7277 97.8381 13.7332C97.8881 13.7552 97.9381 13.7792 97.988 13.8032C98.0023 13.8106 98.0165 13.8179 98.0307 13.8251C98.0663 13.8432 98.1017 13.8612 98.136 13.8812C98.1859 13.9072 98.2279 13.9312 98.2619 13.9532C98.4438 14.0612 98.6037 14.1832 98.7437 14.3192C98.8836 14.4552 98.9896 14.6032 99.0595 14.7632C99.1295 14.9232 99.1595 15.0932 99.1515 15.2752C99.1415 15.4572 99.0775 15.6452 98.9616 15.8412C98.8496 16.0292 98.7137 16.1712 98.5518 16.2672C98.3898 16.3632 98.2159 16.4192 98.026 16.4332C97.8361 16.4472 97.6362 16.4252 97.4263 16.3632C97.2144 16.3012 97.0025 16.2072 96.7906 16.0812C96.7759 16.073 96.7438 16.0529 96.6944 16.0217C96.6834 16.0148 96.6714 16.0073 96.6587 15.9992C96.6385 15.9865 96.6177 15.9734 96.5962 15.9598C96.543 15.9261 96.4854 15.8897 96.4228 15.8512C96.3788 15.8242 96.3348 15.7967 96.2908 15.7692C96.2469 15.7417 96.2029 15.7142 96.1589 15.6872C96.1283 15.6684 96.0999 15.6508 96.0735 15.6346C96.0242 15.604 95.9822 15.5781 95.947 15.5572L95.1853 15.1032L95.3053 14.9012C95.3953 14.9032 95.4852 14.9112 95.5752 14.9272C95.6631 14.9432 95.7511 14.9712 95.835 15.0072L97.6282 11.9952ZM97.6522 14.0712C97.7082 14.0972 97.7661 14.1272 97.8221 14.1612C98.066 14.3072 98.2039 14.4812 98.2339 14.6792C98.2619 14.8792 98.2079 15.0972 98.068 15.3312C97.9221 15.5772 97.7501 15.7312 97.5502 15.7952C97.3503 15.8592 97.1464 15.8292 96.9365 15.7032C96.8807 15.6719 96.826 15.6385 96.7726 15.6032C96.7615 15.5951 96.7505 15.5872 96.7395 15.5795C96.7208 15.5662 96.7023 15.5531 96.6846 15.5392C96.6567 15.5172 96.6367 15.5012 96.6247 15.4892L97.5043 14.0152C97.5462 14.0272 97.5962 14.0452 97.6522 14.0712Z" fill="#0D5F9B"/>
<path fill-rule="evenodd" clip-rule="evenodd" d="M102.868 19.9782C102.938 20.0662 103.004 20.1582 103.061 20.2562C103.121 20.3542 103.167 20.4462 103.203 20.5362L103.043 20.7082L101.528 19.3062L101.688 19.1342C101.776 19.1542 101.864 19.1842 101.948 19.2222C102.032 19.2622 102.112 19.3022 102.184 19.3462L104.567 16.7702C104.509 16.6942 104.459 16.6142 104.415 16.5322C104.375 16.4552 104.341 16.3749 104.315 16.2922L104.475 16.1202L105.049 16.6502C105.17 16.7622 105.314 16.8842 105.482 17.0182C105.65 17.1502 105.798 17.2762 105.928 17.3982C106.088 17.5462 106.23 17.7082 106.354 17.8822C106.472 18.0451 106.56 18.228 106.614 18.4222C106.664 18.6082 106.666 18.7982 106.622 18.9922C106.578 19.1862 106.47 19.3762 106.296 19.5642C106.13 19.7442 105.952 19.8642 105.76 19.9302C105.568 19.9942 105.374 20.0142 105.176 19.9902C104.979 19.9662 104.785 19.9022 104.593 19.8002C104.401 19.6982 104.223 19.5702 104.059 19.4202C104.043 19.4062 104.019 19.3842 103.987 19.3522C103.953 19.3222 103.919 19.2882 103.883 19.2502L103.777 19.1442C103.743 19.1102 103.721 19.0842 103.709 19.0682L102.868 19.9782ZM105.386 17.4582C105.426 17.4862 105.476 17.5282 105.536 17.5842C105.732 17.7642 105.834 17.9662 105.844 18.1902C105.856 18.4162 105.748 18.6502 105.524 18.8922C105.406 19.0202 105.286 19.1122 105.166 19.1702C105.047 19.2262 104.929 19.2582 104.817 19.2602C104.705 19.2622 104.597 19.2422 104.497 19.2002C104.397 19.1582 104.305 19.0982 104.223 19.0222C104.199 19.0006 104.17 18.9729 104.136 18.9397C104.122 18.9267 104.108 18.9128 104.093 18.8982C104.039 18.8462 104.003 18.8022 103.985 18.7682L105.264 17.3842C105.306 17.4062 105.346 17.4302 105.386 17.4582Z" fill="#0D5F9B"/>
<path fill-rule="evenodd" clip-rule="evenodd" d="M106.887 25.2788L106.109 23.9608L106.311 23.8408C106.381 23.8768 106.447 23.9188 106.513 23.9708C106.579 24.0208 106.637 24.0748 106.689 24.1288L110.945 23.4748L111.179 23.8708L108.526 27.2427C108.554 27.3227 108.576 27.4047 108.59 27.4927C108.606 27.5787 108.61 27.6607 108.606 27.7347L108.404 27.8547L107.418 26.1827L107.62 26.0628C107.692 26.1108 107.766 26.1667 107.84 26.2287C107.914 26.2907 107.98 26.3527 108.036 26.4147L108.702 25.6048L108.002 24.4188L106.969 24.6048C107.045 24.7808 107.083 24.9668 107.089 25.1608L106.887 25.2788ZM108.986 25.2868L108.428 24.3408L109.655 24.1168L110.195 23.9568L110.201 23.9668L109.801 24.3388L108.986 25.2868Z" fill="#0D5F9B"/>
</svg>
