<svg width="93" height="79" viewBox="0 0 93 79" fill="none" xmlns="http://www.w3.org/2000/svg">
<path fill-rule="evenodd" clip-rule="evenodd" d="M45.8579 44.7639C50.322 55.5415 49.1711 62.885 46.1562 67.3738C43.0833 71.949 37.3488 74.6593 30.4206 74.6593C23.6477 74.6593 17.223 71.1056 12.3546 64.7842C7.48252 58.458 4.34579 49.5332 4.34579 39.5C4.34579 35.2976 4.89608 31.2897 5.89365 27.5858C4.40778 27.2818 3.04752 26.6335 1.90009 25.728C0.671451 30.0161 0 34.6563 0 39.5C0 61.3153 13.6197 79 30.4206 79C46.4154 79 59.527 66.4106 49.8736 43.1045C48.9245 40.8133 48.9553 38.2044 49.9338 35.9256C59.4722 13.7121 46.382 0 30.4206 0C22.9961 0 16.193 3.45352 10.9118 9.19083C12.3426 9.67854 13.6206 10.4955 14.6553 11.5514C19.1656 6.90481 24.6674 4.34066 30.4206 4.34066C37.1953 4.34066 42.966 7.23324 46.106 12.0138C49.1869 16.7044 50.2903 24.0831 45.9398 34.2146C44.5069 37.5517 44.4544 41.3757 45.8579 44.7639Z" fill="url(#paint0_linear)"/>
<path fill-rule="evenodd" clip-rule="evenodd" d="M7.38785 10.418C6.18779 10.418 5.21495 11.3895 5.21495 12.5883V15.6268H2.1729C0.972841 15.6268 0 16.5983 0 17.7971C0 18.9959 0.972841 19.9674 2.1729 19.9674H5.21495V23.0059C5.21495 24.2047 6.18779 25.1762 7.38785 25.1762C8.58791 25.1762 9.56075 24.2047 9.56075 23.0059V19.9674H12.6028C13.8028 19.9674 14.7757 18.9959 14.7757 17.7971C14.7757 16.5983 13.8028 15.6268 12.6028 15.6268H9.56075V12.5883C9.56075 11.3895 8.58791 10.418 7.38785 10.418Z" fill="#FF342E"/>
<path d="M32.8524 37.9423H35.0753V43.848H32.8524V39.9337H20.0071V43.848H17.7842V37.9423H19.3082C19.8811 36.9581 20.3585 35.6113 20.7405 33.9021C21.1301 32.193 21.325 29.5797 21.325 26.0623V23.1553H32.8524V37.9423ZM30.6179 37.9423V25.1238H23.5594V26.2683C23.5594 29.4882 23.376 31.9603 23.0093 33.6848C22.6503 35.4091 22.1576 36.8284 21.5312 37.9423H30.6179ZM36.2336 39.9337V27.7905H38.3992V37.0267L43.8421 27.7905H46.1681V39.9337H44.0024V30.6975L38.5596 39.9337H36.2336ZM56.1266 36.7406V34.0509H54.6485C51.5164 34.0509 49.9504 34.9017 49.9504 36.6032C49.9504 37.2213 50.1796 37.6981 50.638 38.0338C51.0963 38.362 51.7151 38.526 52.4942 38.526C53.2047 38.526 53.8922 38.3657 54.5568 38.0453C55.2214 37.7249 55.7447 37.2899 56.1266 36.7406ZM56.1266 38.6862C55.0266 39.7086 53.6095 40.2199 51.8755 40.2199C50.6685 40.2199 49.6754 39.8956 48.8962 39.2471C48.117 38.5908 47.7275 37.7477 47.7275 36.7177C47.7275 33.8793 50.1758 32.4601 55.0724 32.4601H56.1266C56.1266 31.5903 56.0808 30.9608 55.9891 30.5716C55.8975 30.1749 55.6415 29.8468 55.2214 29.5874C54.8012 29.328 54.1328 29.1983 53.2161 29.1983C51.2911 29.1983 50.298 29.8849 50.2369 31.2583H48.0827C48.2431 28.7633 49.9924 27.5158 53.3307 27.5158C54.8891 27.5158 56.1037 27.8249 56.9746 28.4429C57.8455 29.0609 58.2809 30.274 58.2809 32.0824V39.9337H56.1266V38.6862ZM61.4902 27.7905H70.7602V39.9337H68.606V29.4844H63.6559V35.8135C63.6559 37.5455 63.3809 38.6862 62.8309 39.2356C62.2809 39.7773 61.5131 40.0482 60.5277 40.0482C59.9394 40.0482 59.4544 40.0101 59.0724 39.9337V38.1941C59.485 38.3085 59.886 38.3657 60.2756 38.3657C60.7492 38.3657 61.07 38.1979 61.2381 37.8622C61.4061 37.5265 61.4902 36.8588 61.4902 35.8593V27.7905ZM77.9457 27.5158C79.6798 27.5158 81.0624 28.069 82.0938 29.1753C83.1327 30.2817 83.6521 31.8459 83.6521 33.8678C83.6521 35.8822 83.1327 37.4464 82.0938 38.5604C81.0624 39.6667 79.6798 40.2199 77.9457 40.2199C76.2193 40.2199 74.8366 39.6667 73.7977 38.5604C72.7664 37.4464 72.2508 35.8822 72.2508 33.8678C72.2508 31.8459 72.7664 30.2817 73.7977 29.1753C74.8366 28.069 76.2193 27.5158 77.9457 27.5158ZM77.9457 38.526C78.977 38.526 79.8134 38.1369 80.4551 37.3586C81.0968 36.5727 81.4177 35.4091 81.4177 33.8678C81.4177 32.3189 81.0968 31.1554 80.4551 30.3771C79.8134 29.5912 78.977 29.1983 77.9457 29.1983C76.9144 29.1983 76.078 29.5912 75.4363 30.3771C74.7946 31.1554 74.4738 32.3189 74.4738 33.8678C74.4738 35.4091 74.7946 36.5727 75.4363 37.3586C76.078 38.1369 76.9144 38.526 77.9457 38.526ZM87.3087 29.4844V39.9337H85.1427V27.7905H92.3046V29.4844H87.3087Z" fill="#281F1A"/>
<path d="M23.9398 54.5127H23.2752V52.9561H18.8789V47.3633H19.6199V52.2924H22.5304V47.3633H23.2752V52.2924H23.9398V54.5127ZM26.3576 53.0515C25.7617 53.0515 25.283 52.8658 24.9215 52.4945C24.5598 52.1206 24.379 51.6005 24.379 50.9342C24.379 50.2729 24.5535 49.7553 24.9024 49.3814C25.2538 49.005 25.7121 48.8168 26.2774 48.8168C26.8554 48.8168 27.3163 49.0012 27.66 49.37C28.0064 49.7388 28.1795 50.2602 28.1795 50.9342V51.1059H25.1277C25.1582 51.5738 25.2869 51.921 25.5135 52.1474C25.7427 52.3737 26.024 52.4869 26.3576 52.4869C26.6096 52.4869 26.8363 52.4233 27.0374 52.2961C27.2412 52.1664 27.3481 51.9833 27.3583 51.7467H28.1031C28.0471 52.1639 27.8574 52.4856 27.534 52.712C27.2132 52.9383 26.821 53.0515 26.3576 53.0515ZM27.4194 50.5413C27.3609 50.1521 27.2297 49.8609 27.026 49.6676C26.8223 49.4743 26.5728 49.3776 26.2774 49.3776C25.9897 49.3776 25.7427 49.4743 25.5364 49.6676C25.3302 49.8583 25.199 50.1496 25.1429 50.5413H27.4194ZM28.9892 52.9561V48.9084H29.7111V50.587H31.556V48.9084H32.274V52.9561H31.556V51.1516H29.7111V52.9561H28.9892ZM32.954 49.473V48.9084H36.254V49.473H34.963V52.9561H34.2449V49.473H32.954ZM37.6481 49.3929C37.969 49.0088 38.3548 48.8168 38.8055 48.8168C39.3351 48.8168 39.7451 49.005 40.0354 49.3814C40.3257 49.7553 40.4708 50.2615 40.4708 50.8998C40.4708 51.5637 40.3078 52.0889 39.9819 52.4755C39.6585 52.8595 39.2498 53.0515 38.7558 53.0515C38.3178 53.0515 37.9486 52.9154 37.6481 52.6433V54.5127H36.9263V48.9084H37.6481V49.3929ZM37.6481 51.9948C37.9562 52.3228 38.3102 52.4869 38.71 52.4869C39.0206 52.4869 39.2676 52.3546 39.4509 52.0901C39.6343 51.823 39.726 51.4263 39.726 50.8998C39.726 50.4013 39.6394 50.0237 39.4662 49.7668C39.2931 49.5073 39.0512 49.3776 38.7406 49.3776C38.3408 49.3776 37.9767 49.6091 37.6481 50.0719V51.9948ZM44.0803 49.473V52.9561H43.3584V48.9084H45.7456V49.473H44.0803ZM48.0755 53.0515C47.4797 53.0515 47.001 52.8658 46.6394 52.4945C46.2777 52.1206 46.097 51.6005 46.097 50.9342C46.097 50.2729 46.2714 49.7553 46.6203 49.3814C46.9717 49.005 47.43 48.8168 47.9953 48.8168C48.5734 48.8168 49.0342 49.0012 49.378 49.37C49.7243 49.7388 49.8974 50.2602 49.8974 50.9342V51.1059H46.8457C46.8762 51.5738 47.0048 51.921 47.2314 52.1474C47.4606 52.3737 47.7419 52.4869 48.0755 52.4869C48.3276 52.4869 48.5543 52.4233 48.7554 52.2961C48.9591 52.1664 49.066 51.9833 49.0763 51.7467H49.8211C49.765 52.1639 49.5753 52.4856 49.2519 52.712C48.9311 52.9383 48.539 53.0515 48.0755 53.0515ZM49.1374 50.5413C49.0788 50.1521 48.9476 49.8609 48.7439 49.6676C48.5403 49.4743 48.2907 49.3776 47.9953 49.3776C47.7076 49.3776 47.4606 49.4743 47.2543 49.6676C47.0481 49.8583 46.9169 50.1496 46.8609 50.5413H49.1374ZM50.7072 52.9561V48.9084H51.7575L52.9684 52.0558L54.183 48.9084H55.2296V52.9561H54.5115V49.7858L53.2892 52.9561H52.6476L51.4291 49.7858V52.9561H50.7072ZM57.9338 48.8168C58.5118 48.8168 58.9727 49.0012 59.3164 49.37C59.6627 49.7388 59.8359 50.2602 59.8359 50.9342C59.8359 51.6056 59.6627 52.127 59.3164 52.4984C58.9727 52.8672 58.5118 53.0515 57.9338 53.0515C57.3583 53.0515 56.8974 52.8672 56.5511 52.4984C56.2074 52.127 56.0354 51.6056 56.0354 50.9342C56.0354 50.2602 56.2074 49.7388 56.5511 49.37C56.8974 49.0012 57.3583 48.8168 57.9338 48.8168ZM57.9338 52.4869C58.2775 52.4869 58.5564 52.3572 58.7703 52.0977C58.9842 51.8358 59.0911 51.4479 59.0911 50.9342C59.0911 50.4179 58.9842 50.03 58.7703 49.7706C58.5564 49.5086 58.2775 49.3776 57.9338 49.3776C57.59 49.3776 57.3112 49.5086 57.0973 49.7706C56.8834 50.03 56.7764 50.4179 56.7764 50.9342C56.7764 51.4479 56.8834 51.8358 57.0973 52.0977C57.3112 52.3572 57.59 52.4869 57.9338 52.4869ZM64.003 52.3953H64.5874V54.0434H63.8694V52.9561H60.8328V54.0434H60.1148V52.3953H60.4737C60.9448 51.7289 61.1803 50.6315 61.1803 49.1029V48.9084H64.003V52.3953ZM63.2811 49.473H61.8984C61.845 50.7803 61.6387 51.7544 61.2797 52.3953H63.2811V49.473ZM65.2062 52.9561V48.9084H65.928V51.9871L67.7423 48.9084H68.5177V52.9561H67.7959V49.8774L65.9816 52.9561H65.2062ZM72.1501 51.8917V50.9952H71.6574C70.6134 50.9952 70.0914 51.2788 70.0914 51.846C70.0914 52.052 70.1678 52.2109 70.3205 52.3228C70.4733 52.4322 70.6796 52.4869 70.9394 52.4869C71.1761 52.4869 71.4053 52.4334 71.6269 52.3267C71.8484 52.2199 72.0228 52.0749 72.1501 51.8917ZM72.1501 52.5403C71.7835 52.8811 71.3111 53.0515 70.7331 53.0515C70.3308 53.0515 69.9997 52.9435 69.74 52.7272C69.4803 52.5085 69.3504 52.2274 69.3504 51.8841C69.3504 50.938 70.1665 50.4649 71.7987 50.4649H72.1501C72.1501 50.175 72.1349 49.9652 72.1043 49.8355C72.0737 49.7032 71.9884 49.5939 71.8484 49.5073C71.7083 49.4208 71.4855 49.3776 71.1799 49.3776C70.5382 49.3776 70.2073 49.6065 70.1868 50.0643H69.4688C69.5223 49.2326 70.1054 48.8168 71.2182 48.8168C71.7376 48.8168 72.1424 48.9198 72.4327 49.1258C72.723 49.3319 72.8682 49.7362 72.8682 50.3391V52.9561H72.1501V52.5403ZM74.2508 48.9084H77.3409V52.9561H76.6228V49.473H74.9728V51.5828C74.9728 52.1601 74.8811 52.5403 74.6978 52.7234C74.5144 52.904 74.2585 52.9942 73.93 52.9942C73.734 52.9942 73.5723 52.9816 73.445 52.9561V52.3762C73.5825 52.4144 73.7161 52.4334 73.846 52.4334C74.0038 52.4334 74.1108 52.3775 74.1668 52.2656C74.2229 52.1537 74.2508 51.9311 74.2508 51.5979V48.9084ZM78.4066 52.9561V48.9084H79.1284V51.9871L80.9427 48.9084H81.718V52.9561H80.9962V49.8774L79.1819 52.9561H78.4066ZM85.1404 50.8464C85.6394 51.0728 85.8891 51.4034 85.8891 51.8383C85.8891 52.1868 85.7363 52.4768 85.4307 52.7082C85.1277 52.937 84.6999 53.0515 84.1473 53.0515C83.6405 53.0515 83.228 52.9422 82.9098 52.7234C82.5915 52.5022 82.417 52.2287 82.3865 51.9032H83.1275C83.1275 52.0482 83.2179 52.1817 83.3987 52.3037C83.5794 52.4259 83.8239 52.4869 84.132 52.4869C84.4478 52.4869 84.6961 52.4271 84.8768 52.3076C85.0576 52.1855 85.148 52.0265 85.148 51.8307C85.148 51.6654 85.1009 51.5281 85.0067 51.4187C84.9125 51.3093 84.7954 51.2368 84.6553 51.2012C84.5178 51.1631 84.2988 51.144 83.9984 51.144H83.7386V50.5985H83.9984C84.4465 50.5985 84.7317 50.5386 84.8539 50.4191C84.9762 50.297 85.0373 50.1584 85.0373 50.0033C85.0373 49.5862 84.7508 49.3776 84.1779 49.3776C83.6151 49.3776 83.3146 49.5315 83.2765 49.8393H82.5355C82.5355 49.5417 82.6819 49.2975 82.9747 49.1068C83.2675 48.9135 83.6584 48.8168 84.1473 48.8168C84.6616 48.8168 85.0627 48.9262 85.3504 49.145C85.6382 49.3636 85.7821 49.6446 85.7821 49.9881C85.7821 50.3747 85.5682 50.6608 85.1404 50.8464ZM89.2619 51.8917V50.9952H88.7691C87.7252 50.9952 87.2029 51.2788 87.2029 51.846C87.2029 52.052 87.2794 52.2109 87.4323 52.3228C87.5853 52.4322 87.7913 52.4869 88.0512 52.4869C88.2876 52.4869 88.517 52.4334 88.7387 52.3267C88.9603 52.2199 89.1341 52.0749 89.2619 51.8917ZM89.2619 52.5403C88.8951 52.8811 88.4223 53.0515 87.8443 53.0515C87.4419 53.0515 87.1116 52.9435 86.8516 52.7272C86.5919 52.5085 86.4619 52.2274 86.4619 51.8841C86.4619 50.938 87.2785 50.4649 88.9099 50.4649H89.2619C89.2619 50.175 89.2463 49.9652 89.2159 49.8355C89.1854 49.7032 89.1003 49.5939 88.9603 49.5073C88.8195 49.4208 88.597 49.3776 88.2919 49.3776C87.6496 49.3776 87.3185 49.6065 87.2985 50.0643H86.5804C86.6338 49.2326 87.2168 48.8168 88.3293 48.8168C88.8491 48.8168 89.2541 48.9198 89.5444 49.1258C89.8347 49.3319 89.9798 49.7362 89.9798 50.3391V52.9561H89.2619V52.5403Z" fill="#281F1A"/>
<defs>
<linearGradient id="paint0_linear" x1="26.5829" y1="2.15341e-07" x2="37.3488" y2="79.0034" gradientUnits="userSpaceOnUse">
<stop offset="0.443436" stop-color="#00B1FE"/>
<stop offset="1" stop-color="#00B319"/>
</linearGradient>
</defs>
</svg>
