<svg width="184" height="22" viewBox="0 0 184 22" fill="none" xmlns="http://www.w3.org/2000/svg">
<g clip-path="url(#clip0)">
<path d="M14.3977 15.6069H15.6023C15.6023 15.914 15.5928 16.2883 15.5737 16.7299C15.5545 17.1523 15.5163 17.6129 15.459 18.1121C15.4016 18.592 15.3346 19.072 15.2581 19.5519C15.1816 20.0318 15.0956 20.4637 15.0001 20.8477C14.5985 21.0589 14.1492 21.2412 13.652 21.3948C13.1741 21.5292 12.6865 21.6444 12.1893 21.7404C11.6922 21.8364 11.2142 21.9036 10.7553 21.9419C10.2964 21.9804 9.89487 21.9995 9.5507 21.9995C7.79158 21.9995 6.30977 21.7596 5.10518 21.2797C3.90058 20.7997 2.91588 20.1758 2.15106 19.4079C1.38623 18.64 0.831742 17.7762 0.487573 16.8163C0.162524 15.8564 0 14.887 0 13.9079C0 12.0074 0.277247 10.2797 0.831742 8.72467C1.38623 7.1505 2.1893 5.80669 3.24093 4.69325C4.31168 3.56062 5.61187 2.68715 7.14153 2.07284C8.69029 1.45852 10.4398 1.15137 12.3901 1.15137C13.652 1.15137 14.7801 1.24736 15.7744 1.43933C16.7878 1.6121 17.61 1.85207 18.2409 2.15922C18.1836 2.46638 18.088 2.85992 17.9541 3.33985C17.8203 3.81978 17.6674 4.32851 17.4952 4.86603C17.3232 5.38435 17.1415 5.90268 16.9503 6.421C16.7591 6.92012 16.5774 7.34245 16.4054 7.68799H15.2008L14.5412 3.33985C14.369 3.24386 14.0822 3.16708 13.6807 3.10948C13.2792 3.05189 12.8777 3.0231 12.4761 3.0231C11.3671 3.0231 10.3442 3.29186 9.40727 3.82938C8.48947 4.3669 7.68646 5.12519 6.99811 6.10425C6.32889 7.08333 5.80307 8.27353 5.42066 9.67493C5.05737 11.0571 4.87573 12.6025 4.87573 14.3111C4.87573 15.3861 5.02869 16.298 5.33462 17.0466C5.64055 17.7762 6.03252 18.3713 6.51053 18.832C7.00765 19.2927 7.54304 19.6287 8.11667 19.8398C8.70938 20.0318 9.28301 20.1278 9.83748 20.1278C10.392 20.1278 10.87 20.0798 11.2715 19.9839C11.6731 19.8686 11.9694 19.7535 12.1606 19.6383L14.3977 15.6069Z" fill="#FF5251"/>
<path d="M19.5991 2.01571V1.09424C19.8859 0.979055 20.2492 0.863871 20.6889 0.748694C21.1478 0.614311 21.6354 0.499128 22.1517 0.403142C22.687 0.287959 23.232 0.191972 23.7864 0.115183C24.3409 0.0383942 24.8668 0 25.3639 0L25.9662 0.259162L23.557 11.4608H23.7004C24.0637 10.8464 24.4653 10.2609 24.905 9.7042C25.3639 9.14746 25.8419 8.66752 26.339 8.26437C26.8362 7.84204 27.362 7.51568 27.9165 7.28537C28.471 7.03581 29.035 6.91102 29.6087 6.91102C30.4882 6.91102 31.167 7.17014 31.645 7.68845C32.123 8.18758 32.362 8.81155 32.362 9.56024C32.362 10.0785 32.3142 10.6353 32.2186 11.2304C32.123 11.8255 32.0083 12.4014 31.8744 12.9581L30.2396 19.6675H32.362V20.6466C31.9796 20.9538 31.4155 21.2417 30.6698 21.5105C29.9432 21.7792 29.1115 21.9136 28.1746 21.9136C27.5436 21.9136 27.0847 21.7888 26.7979 21.5392C26.5112 21.2705 26.3677 20.9538 26.3677 20.589C26.3677 20.2434 26.406 19.8883 26.4825 19.5236C26.578 19.1588 26.6737 18.7365 26.7692 18.2566L27.8305 13.4476C27.9643 12.8525 28.079 12.315 28.1746 11.8351C28.2894 11.336 28.3467 10.8656 28.3467 10.4241C28.3467 10.0785 28.2702 9.79055 28.1172 9.56024C27.9834 9.32986 27.7731 9.21463 27.4863 9.21463C27.0465 9.21463 26.6067 9.37784 26.167 9.7042C25.7272 10.0114 25.3161 10.3857 24.9337 10.8272C24.5513 11.2687 24.2071 11.7295 23.9012 12.2094C23.6144 12.6893 23.404 13.0925 23.2702 13.4188L21.578 21.6545H17.6201L21.492 2.39005L19.5991 2.01571Z" fill="#FF5251"/>
<path d="M39.8486 19.6965C40.2119 19.6965 40.5848 19.5334 40.9672 19.207C41.3687 18.8807 41.7415 18.4775 42.0857 17.9976C42.449 17.4984 42.7741 16.9609 43.0609 16.385C43.3668 15.7899 43.6249 15.2427 43.8352 14.7436L44.8965 9.04204C44.667 8.88846 44.4471 8.78293 44.2368 8.72531C44.0456 8.64852 43.7875 8.61016 43.4624 8.61016C42.6976 8.61016 42.0092 8.86928 41.3974 9.38765C40.7855 9.88678 40.2693 10.549 39.8486 11.3745C39.428 12.1808 39.1029 13.0927 38.8735 14.1102C38.6632 15.1276 38.558 16.145 38.558 17.1625C38.558 18.0455 38.6632 18.6886 38.8735 19.0918C39.0838 19.4949 39.4089 19.6965 39.8486 19.6965ZM43.405 17.0761C43.1565 17.6904 42.841 18.2951 42.4586 18.8902C42.0953 19.4661 41.6746 19.9845 41.1966 20.4452C40.7186 20.906 40.1928 21.2803 39.6192 21.5682C39.0455 21.8562 38.4241 22.0002 37.7549 22.0002C36.7606 22.0002 35.9672 21.6355 35.3744 20.906C34.7817 20.1765 34.4854 19.0918 34.4854 17.652C34.4854 16.1546 34.6861 14.7628 35.0876 13.4766C35.5083 12.1712 36.0914 11.0385 36.8371 10.0787C37.602 9.09966 38.5198 8.34134 39.5905 7.80386C40.6612 7.24712 41.8563 6.96875 43.1756 6.96875C43.6727 6.96875 44.0934 7.02636 44.4376 7.14152C44.8008 7.25674 45.1832 7.40071 45.5847 7.57348C46.0819 7.38153 46.6173 7.23756 47.1909 7.14152C47.7645 7.04554 48.4529 6.99756 49.2559 6.99756L46.8467 19.6677H48.8544V20.6468C48.6632 20.8004 48.405 20.9539 48.08 21.1075C47.7741 21.2611 47.4299 21.3955 47.0475 21.5107C46.6842 21.6258 46.3018 21.7218 45.9003 21.7986C45.5179 21.8754 45.1545 21.9138 44.8104 21.9138C44.1412 21.9138 43.6632 21.7698 43.3763 21.4819C43.0896 21.1939 42.9461 20.8963 42.9461 20.5892C42.9461 20.2436 42.9939 19.7925 43.0896 19.2358C43.1851 18.6599 43.3286 17.9399 43.5198 17.0761H43.405Z" fill="#FF5251"/>
<path d="M51.5354 8.92638V7.94732C51.8222 7.83216 52.2046 7.71693 52.6827 7.60178C53.1607 7.46737 53.6674 7.35222 54.2028 7.25624C54.7381 7.16027 55.2639 7.08347 55.7802 7.02586C56.3155 6.94907 56.784 6.9107 57.1856 6.9107L57.7018 7.25624L55.1206 19.6672H57.1282V20.6463C56.8796 20.819 56.5832 20.9822 56.2391 21.1358C55.914 21.2894 55.5603 21.4238 55.1779 21.5389C54.8146 21.6541 54.4418 21.7405 54.0593 21.7981C53.6769 21.8749 53.3137 21.9133 52.9695 21.9133C52.2429 21.9133 51.7362 21.7789 51.4494 21.5102C51.1817 21.2222 51.0479 20.915 51.0479 20.5887C51.0479 20.2048 51.0766 19.8304 51.134 19.4656C51.1913 19.1009 51.2678 18.6978 51.3633 18.2562L53.3137 9.32953L51.5354 8.92638ZM53.9446 2.44732C53.9446 1.79462 54.1645 1.28589 54.6043 0.921141C55.0441 0.556397 55.5986 0.374023 56.2677 0.374023C56.9943 0.374023 57.568 0.556397 57.9886 0.921141C58.4284 1.28589 58.6483 1.79462 58.6483 2.44732C58.6483 3.06163 58.4284 3.55116 57.9886 3.9159C57.568 4.28066 56.9943 4.46303 56.2677 4.46303C55.5986 4.46303 55.0441 4.28066 54.6043 3.9159C54.1645 3.55116 53.9446 3.06163 53.9446 2.44732Z" fill="#FF5251"/>
<path d="M67.5884 20.3587C67.053 19.4372 66.6228 18.5253 66.2978 17.623C65.9918 16.7208 65.6955 15.8665 65.4087 15.0602L64.4622 14.7722L63.1716 21.6545H59.1562L62.9708 2.39005L61.0492 2.01571V1.03665C61.3169 0.921463 61.6706 0.806279 62.1104 0.691103C62.5502 0.55672 63.0281 0.441536 63.5444 0.345551C64.0607 0.249563 64.5961 0.172774 65.1505 0.115183C65.7242 0.0383942 66.2786 0 66.814 0L67.4163 0.316753L64.749 13.5052H65.6668C65.9919 13.2557 66.3265 12.9581 66.6707 12.6125C67.0148 12.267 67.3399 11.9215 67.6458 11.5759C67.9517 11.2304 68.2194 10.8944 68.4489 10.568C68.6977 10.2225 68.8885 9.93458 69.0224 9.7042C69.0416 9.56979 69.0513 9.38747 69.0513 9.15709C69.0705 8.92671 69.0705 8.69633 69.0513 8.46594C69.0513 8.21638 69.0416 7.98607 69.0224 7.77487C69.0224 7.54449 69.0128 7.37172 68.9936 7.25656C69.319 7.14134 69.7296 7.05499 70.2274 6.99738C70.7244 6.92058 71.2311 6.88222 71.7474 6.88222C72.2637 6.88222 72.7416 6.92058 73.181 6.99738C73.6403 7.05499 73.9746 7.14134 74.1847 7.25656C73.9362 7.89003 73.5634 8.51393 73.0663 9.12828C72.5885 9.74256 72.0625 10.3185 71.4893 10.856C70.9345 11.3935 70.3798 11.8831 69.8257 12.3246C69.2902 12.7469 68.8501 13.0829 68.5062 13.3325C68.64 13.6972 68.8405 14.158 69.1082 14.7146C69.3952 15.2714 69.7111 15.8569 70.055 16.4712C70.399 17.0663 70.7622 17.6518 71.1446 18.2278C71.527 18.7845 71.8813 19.2644 72.206 19.6675H73.7549V20.6466C73.5634 20.8002 73.3148 20.9538 73.0093 21.1073C72.7223 21.2609 72.4065 21.3953 72.0625 21.5105C71.7186 21.6257 71.365 21.7216 71.0011 21.7984C70.6379 21.8752 70.2843 21.9136 69.9404 21.9136C69.4811 21.9136 69.0513 21.8081 68.6496 21.5969C68.2672 21.3857 67.9135 20.9729 67.5884 20.3587Z" fill="#FF5251"/>
<path d="M80.1818 19.6965C80.545 19.6965 80.9178 19.5334 81.3002 19.207C81.7019 18.8807 82.0747 18.4775 82.4187 17.9976C82.7818 17.4984 83.1073 16.9609 83.3936 16.385C83.6998 15.7899 83.9579 15.2427 84.168 14.7436L85.2295 9.04204C85.0001 8.88846 84.7804 8.78293 84.5697 8.72531C84.3788 8.64852 84.1207 8.61016 83.7952 8.61016C83.0304 8.61016 82.3424 8.86928 81.7307 9.38765C81.1183 9.88678 80.602 10.549 80.1818 11.3745C79.761 12.1808 79.4362 13.0927 79.2062 14.1102C78.9961 15.1276 78.8911 16.145 78.8911 17.1625C78.8911 18.0455 78.9961 18.6886 79.2062 19.0918C79.417 19.4949 79.7417 19.6965 80.1818 19.6965ZM83.7382 17.0761C83.4897 17.6904 83.1739 18.2951 82.7915 18.8902C82.4283 19.4661 82.0074 19.9845 81.5296 20.4452C81.0517 20.906 80.5258 21.2803 79.9525 21.5682C79.3785 21.8562 78.7572 22.0002 78.0878 22.0002C77.0936 22.0002 76.3 21.6355 75.7075 20.906C75.115 20.1765 74.8184 19.0918 74.8184 17.652C74.8184 16.1546 75.0188 14.7628 75.4205 13.4766C75.8413 12.1712 76.4242 11.0385 77.1705 10.0787C77.9347 9.09966 78.8526 8.34134 79.9237 7.80386C80.994 7.24712 82.1893 6.96875 83.5089 6.96875C84.006 6.96875 84.4262 7.02636 84.7708 7.14152C85.134 7.25674 85.5164 7.40071 85.9181 7.57348C86.4152 7.38153 86.95 7.23756 87.524 7.14152C88.0973 7.04554 88.7859 6.99756 89.5892 6.99756L87.18 19.6677H89.1875V20.6468C88.996 20.8004 88.7378 20.9539 88.4131 21.1075C88.1069 21.2611 87.7629 21.3955 87.3805 21.5107C87.0173 21.6258 86.6349 21.7218 86.2332 21.7986C85.8508 21.8754 85.4876 21.9138 85.1436 21.9138C84.4742 21.9138 83.9964 21.7698 83.7094 21.4819C83.4224 21.1939 83.2789 20.8963 83.2789 20.5892C83.2789 20.2436 83.327 19.7925 83.4224 19.2358C83.5185 18.6599 83.6613 17.9399 83.8529 17.0761H83.7382Z" fill="#FF5251"/>
<path d="M105.908 21.6542H97.2178L97.4182 20.5599C97.8007 20.3679 98.2119 20.2048 98.652 20.0704C99.1106 19.9168 99.5507 19.8016 99.9709 19.7248L103.413 3.42639C102.973 3.3496 102.562 3.23442 102.18 3.08084C101.797 2.92726 101.481 2.76408 101.233 2.59131L101.463 1.49707H110.153L109.923 2.59131C109.636 2.80248 109.292 2.97526 108.891 3.10964C108.489 3.24401 108.097 3.3496 107.715 3.42639L106.223 10.395H113.824L115.315 3.42639C114.493 3.21522 113.872 2.93686 113.451 2.59131L113.68 1.49707H122.371L122.142 2.59131C121.778 2.80248 121.367 2.98485 120.908 3.13844C120.468 3.27281 120.038 3.3688 119.618 3.42639L116.176 19.7248C116.596 19.8016 116.988 19.9168 117.351 20.0704C117.734 20.2239 118.059 20.3872 118.327 20.5599L118.126 21.6542H109.436L109.636 20.5599C109.962 20.3872 110.315 20.2239 110.698 20.0704C111.08 19.9168 111.472 19.8016 111.874 19.7248L113.422 12.2667H105.822L104.273 19.7248C104.923 19.8592 105.535 20.1376 106.109 20.5599L105.908 21.6542Z" fill="#FF5251"/>
<path d="M132.169 18.5158C131.959 18.8998 131.653 19.3029 131.251 19.7252C130.85 20.1284 130.381 20.5027 129.846 20.8483C129.31 21.1746 128.718 21.4434 128.068 21.6546C127.417 21.885 126.739 22.0001 126.031 22.0001C124.33 22.0001 123.001 21.5393 122.045 20.6179C121.108 19.6773 120.64 18.3526 120.64 16.6441C120.64 15.3195 120.85 14.0717 121.271 12.9006C121.691 11.7296 122.274 10.7026 123.02 9.81946C123.785 8.91719 124.684 8.20693 125.716 7.68856C126.767 7.17025 127.915 6.91113 129.158 6.91113C130.305 6.91113 131.251 7.17988 131.997 7.71736C132.742 8.23574 133.115 8.95562 133.115 9.87708C133.115 11.1825 132.466 12.2575 131.165 13.1022C129.884 13.9469 127.8 14.4748 124.913 14.686C124.856 14.9547 124.808 15.2331 124.769 15.521C124.75 15.7898 124.741 16.049 124.741 16.2985C124.741 17.3928 125.018 18.2375 125.573 18.8326C126.127 19.4085 126.835 19.6964 127.695 19.6964C128.058 19.6964 128.421 19.6388 128.785 19.5237C129.148 19.4085 129.492 19.2549 129.817 19.063C130.162 18.871 130.467 18.6694 130.735 18.4582C131.022 18.2279 131.27 18.0071 131.481 17.7959L132.169 18.5158ZM128.498 8.55247C127.848 8.55247 127.217 8.90763 126.605 9.61789C126.012 10.3282 125.515 11.528 125.114 13.2174C126.528 13.179 127.666 12.8623 128.527 12.2671C129.406 11.672 129.846 10.8945 129.846 9.93469C129.846 9.55072 129.741 9.22436 129.531 8.95562C129.339 8.68688 128.995 8.55247 128.498 8.55247Z" fill="#FF5251"/>
<path d="M139.559 19.6965C139.922 19.6965 140.295 19.5334 140.677 19.207C141.079 18.8807 141.452 18.4775 141.797 17.9976C142.16 17.4984 142.485 16.9609 142.771 16.385C143.078 15.7899 143.336 15.2427 143.546 14.7436L144.607 9.04204C144.377 8.88846 144.158 8.78293 143.948 8.72531C143.756 8.64852 143.498 8.61016 143.173 8.61016C142.408 8.61016 141.72 8.86928 141.108 9.38765C140.496 9.88678 139.98 10.549 139.559 11.3745C139.139 12.1808 138.813 13.0927 138.584 14.1102C138.374 15.1276 138.268 16.145 138.268 17.1625C138.268 18.0455 138.374 18.6886 138.584 19.0918C138.794 19.4949 139.12 19.6965 139.559 19.6965ZM143.115 17.0761C142.867 17.6904 142.552 18.2951 142.169 18.8902C141.806 19.4661 141.385 19.9845 140.907 20.4452C140.429 20.906 139.904 21.2803 139.33 21.5682C138.756 21.8562 138.135 22.0002 137.466 22.0002C136.472 22.0002 135.678 21.6355 135.085 20.906C134.492 20.1765 134.196 19.0918 134.196 17.652C134.196 16.1546 134.397 14.7628 134.798 13.4766C135.219 12.1712 135.802 11.0385 136.548 10.0787C137.313 9.09966 138.231 8.34134 139.301 7.80386C140.372 7.24712 141.567 6.96875 142.886 6.96875C143.383 6.96875 143.804 7.02636 144.148 7.14152C144.511 7.25674 144.894 7.40071 145.295 7.57348C145.792 7.38153 146.328 7.23756 146.901 7.14152C147.475 7.04554 148.164 6.99756 148.966 6.99756L146.557 19.6677H148.565V20.6468C148.374 20.8004 148.116 20.9539 147.79 21.1075C147.485 21.2611 147.141 21.3955 146.758 21.5107C146.395 21.6258 146.012 21.7218 145.611 21.7986C145.229 21.8754 144.866 21.9138 144.521 21.9138C143.851 21.9138 143.374 21.7698 143.087 21.4819C142.8 21.1939 142.657 20.8963 142.657 20.5892C142.657 20.2436 142.705 19.7925 142.8 19.2358C142.896 18.6599 143.039 17.9399 143.23 17.0761H143.115Z" fill="#FF5251"/>
<path d="M153.942 2.39005L151.991 2.01571V1.03665C152.259 0.921463 152.622 0.806279 153.081 0.691103C153.54 0.575916 154.037 0.470332 154.573 0.374346C155.108 0.259161 155.653 0.172774 156.207 0.115183C156.781 0.0383942 157.307 0 157.785 0L158.358 0.316753L154.602 19.6675H156.638V20.6466C156.446 20.8002 156.188 20.9538 155.863 21.1073C155.538 21.2609 155.175 21.3953 154.773 21.5105C154.391 21.6257 153.99 21.7216 153.569 21.7984C153.148 21.8752 152.746 21.9136 152.364 21.9136C151.715 21.9136 151.236 21.7792 150.93 21.5105C150.643 21.2225 150.5 20.9153 150.5 20.589C150.5 20.2051 150.529 19.8307 150.586 19.4659C150.643 19.1012 150.72 18.6981 150.816 18.2566L153.942 2.39005Z" fill="#FF5251"/>
<path d="M159.415 7.94734C159.778 7.71696 160.18 7.52501 160.619 7.37142C161.059 7.19866 161.489 7.06425 161.91 6.96827L162.369 4.77981C162.503 4.66463 162.713 4.55904 163 4.46306C163.287 4.34788 163.602 4.25189 163.946 4.1751C164.29 4.07911 164.635 3.99273 164.979 3.91593C165.342 3.83915 165.667 3.78155 165.954 3.74316L166.556 4.08871L165.868 7.25627H169.223C169.262 7.48665 169.243 7.79376 169.166 8.17772C169.109 8.54244 169.004 8.83999 168.851 9.07037H165.495L163.832 16.5285C163.756 16.8932 163.698 17.2196 163.659 17.5076C163.622 17.7763 163.602 18.0259 163.602 18.2563C163.602 18.7554 163.727 19.1201 163.975 19.3505C164.224 19.5809 164.558 19.696 164.979 19.696C165.457 19.696 165.907 19.6384 166.327 19.5233C166.748 19.4081 167.149 19.2449 167.532 19.0338L167.904 19.7824C167.675 20.032 167.369 20.2911 166.987 20.5599C166.604 20.8095 166.174 21.0494 165.696 21.2798C165.218 21.491 164.702 21.6637 164.147 21.7981C163.593 21.9325 163.028 21.9997 162.455 21.9997C161.461 21.9997 160.715 21.7693 160.218 21.3086C159.721 20.8479 159.472 20.2143 159.472 19.4081C159.472 18.9665 159.51 18.4962 159.587 17.9971C159.664 17.498 159.74 17.0756 159.817 16.7301L161.48 9.07037H159.415V7.94734Z" fill="#FF5251"/>
<path d="M171.237 2.01571V1.09424C171.523 0.979055 171.887 0.863871 172.327 0.748694C172.785 0.614311 173.273 0.499128 173.789 0.403142C174.325 0.287959 174.87 0.191972 175.425 0.115183C175.979 0.0383942 176.505 0 177.002 0L177.604 0.259162L175.195 11.4608H175.338C175.701 10.8464 176.103 10.2609 176.543 9.7042C177.002 9.14746 177.479 8.66752 177.977 8.26437C178.474 7.84204 178.999 7.51568 179.554 7.28537C180.109 7.03581 180.673 6.91102 181.247 6.91102C182.126 6.91102 182.804 7.17014 183.283 7.68845C183.761 8.18758 184 8.81155 184 9.56024C184 10.0785 183.952 10.6353 183.856 11.2304C183.761 11.8255 183.646 12.4014 183.512 12.9581L181.878 19.6675H184V20.6466C183.617 20.9538 183.053 21.2417 182.307 21.5105C181.581 21.7792 180.75 21.9136 179.812 21.9136C179.181 21.9136 178.723 21.7888 178.436 21.5392C178.149 21.2705 178.005 20.9538 178.005 20.589C178.005 20.2434 178.044 19.8883 178.12 19.5236C178.216 19.1588 178.312 18.7365 178.407 18.2566L179.468 13.4476C179.602 12.8525 179.717 12.315 179.812 11.8351C179.927 11.336 179.985 10.8656 179.985 10.4241C179.985 10.0785 179.908 9.79055 179.755 9.56024C179.621 9.32986 179.411 9.21463 179.124 9.21463C178.684 9.21463 178.244 9.37784 177.805 9.7042C177.365 10.0114 176.954 10.3857 176.572 10.8272C176.189 11.2687 175.845 11.7295 175.539 12.2094C175.252 12.6893 175.042 13.0925 174.908 13.4188L173.216 21.6545H169.258L173.13 2.39005L171.237 2.01571Z" fill="#FF5251"/>
</g>
<defs>
<clipPath id="clip0">
<rect width="184" height="22" fill="white"/>
</clipPath>
</defs>
</svg>
