<svg width="197" height="38" viewBox="0 0 197 38" fill="none" xmlns="http://www.w3.org/2000/svg">
<g clip-path="url(#clip0)">
<path d="M47.3502 25.859C44.2831 22.9143 41.5038 17.9409 40.5504 13.736C40.1951 12.1676 40.0197 10.2372 41.306 9.07091C42.4438 8.0387 43.721 8.13703 44.9442 8.62407C43.4733 6.54472 41.8177 4.60059 39.9973 2.81505C30.4901 -5.93868 20.4028 7.77506 16.5487 16.006C14.3045 20.7918 9.70386 31.2793 13.7199 36.1679C16.5936 39.6577 21.8509 37.4414 24.8775 35.4707C30.3597 31.896 33.7416 30.4347 39.561 34.2017C43.1588 36.5387 48.0248 39.8767 52.0229 36.2617C54.5863 33.9425 54.24 30.0907 53.5294 26.9672C53.4845 26.7751 53.4305 26.5785 53.3855 26.3863C51.5012 27.5481 49.3965 27.7268 47.3502 25.859Z" fill="#FFA046"/>
<path d="M60.5325 9.1203C59.0888 7.36867 56.4534 8.48132 54.9333 9.46886C52.181 11.2562 50.4855 11.9936 47.5623 10.1078C46.7451 9.53381 45.8748 9.03854 44.9629 8.62877C48.817 13.991 51.9696 20.5194 53.4043 26.3865C55.9047 24.8449 58.0275 21.5963 59.1292 19.2369C60.2309 16.8776 62.5608 11.5646 60.5458 9.11581" fill="#82C832"/>
<path d="M41.3055 9.07522C40.0193 10.237 40.1902 12.1719 40.55 13.7403C41.5034 17.9452 44.2827 22.9186 47.3498 25.8633C49.396 27.7535 51.5008 27.5524 53.3896 26.3906C51.9505 20.5145 48.7979 13.9816 44.9618 8.62838C43.7385 8.14128 42.4613 8.043 41.3235 9.07522" fill="#FFA046"/>
<path d="M41.3055 9.07522C40.0193 10.237 40.1902 12.1719 40.55 13.7403C41.5034 17.9452 44.2827 22.9186 47.3498 25.8633C49.396 27.7535 51.5008 27.5524 53.3896 26.3906C51.9505 20.5145 48.7979 13.9816 44.9618 8.62838C43.7385 8.14128 42.4613 8.043 41.3235 9.07522" fill="#507800"/>
<path d="M76.0293 32.7627H76.8566V35.98H76.0293V32.7627ZM77.8508 34.2954L79.2448 35.9845H78.1657L76.893 34.3579L78.0576 32.7627H79.101L77.8508 34.2954Z" fill="#78A0BE"/>
<path d="M82.0417 33.5853H81.1827V33.9293C81.0255 35.681 80.5934 36.0474 79.7211 36.0474L79.6494 35.2475C79.9279 35.2744 80.3103 35.0107 80.3825 33.7685L80.4316 32.7676H82.8875V35.9849H82.0596L82.0417 33.5853Z" fill="#78A0BE"/>
<path d="M83.8096 35.98V32.7627H84.6415V34.8003L86.1528 32.7627H86.9801V35.98H86.1528V33.9424L84.6415 35.98H83.8096Z" fill="#78A0BE"/>
<path d="M90.1638 34.7511H88.7472V35.98H87.9199V32.7627H88.7472V33.9781H90.1638V32.7627H90.991V35.98H90.1638V34.7511Z" fill="#78A0BE"/>
<path d="M91.9316 35.98V32.7627H92.7641V34.8003L94.2748 32.7627H95.1027V35.98H94.2748V33.9424L92.7641 35.98H91.9316Z" fill="#78A0BE"/>
<path d="M96.042 32.7627H96.8693V35.98H96.042V32.7627ZM97.863 34.2954L99.2576 35.9845H98.1778L96.8964 34.3624L98.0611 32.7671H99.1045L97.863 34.2954Z" fill="#78A0BE"/>
<path d="M99.7885 32.9909C100.139 32.7944 100.533 32.6883 100.935 32.6826C101.893 32.6826 102.23 33.1697 102.23 34.0232V35.9848H101.511V35.614C101.396 35.7534 101.248 35.8637 101.082 35.936C100.916 36.0082 100.734 36.0403 100.553 36.0295C100.419 36.0399 100.284 36.0217 100.157 35.9761C100.031 35.9304 99.9156 35.8584 99.8191 35.7649C99.7232 35.6714 99.6481 35.5585 99.599 35.4338C99.5505 35.3091 99.5291 35.1755 99.5366 35.042C99.5366 34.336 100.063 33.9964 100.719 33.9964C100.979 33.9935 101.233 34.0648 101.452 34.2019C101.452 33.6657 101.331 33.3708 100.845 33.3708C100.548 33.3762 100.256 33.4529 99.9953 33.5942L99.7885 32.9909ZM101.452 35.0375V34.7069C101.285 34.5921 101.084 34.537 100.882 34.5504C100.607 34.5504 100.364 34.68 100.364 34.9526C100.364 35.2252 100.567 35.3324 100.814 35.3324C100.935 35.3403 101.055 35.3173 101.165 35.2657C101.274 35.2141 101.369 35.1355 101.439 35.0375" fill="#78A0BE"/>
<path d="M104.601 32.7623C104.879 32.7623 105.37 32.7266 105.873 32.7266C106.817 32.7266 107.344 32.9858 107.344 33.5711C107.346 33.7429 107.286 33.9097 107.174 34.041C107.063 34.1722 106.907 34.2593 106.736 34.2861C107.186 34.3933 107.429 34.657 107.429 35.0323C107.429 35.6668 106.935 36.0065 105.887 36.0065C105.482 36.0065 104.893 35.9707 104.601 35.9707V32.7623ZM105.428 33.4058V34.1118H105.967C106.242 34.1118 106.467 33.9912 106.467 33.7409C106.467 33.4907 106.26 33.3924 105.95 33.3924C105.756 33.3924 105.5 33.3924 105.432 33.3924L105.428 33.4058ZM105.432 34.5989V35.3138C105.554 35.3138 105.779 35.3407 105.981 35.3407C106.35 35.3407 106.565 35.1887 106.565 34.9698C106.565 34.7508 106.341 34.5989 105.954 34.5989H105.432Z" fill="#78A0BE"/>
<path d="M110.469 34.7511H109.049V35.98H108.221V32.7627H109.049V33.9781H110.469V32.7627H111.297V35.98H110.469V34.7511Z" fill="#78A0BE"/>
<path d="M112.236 35.98V32.7627H113.064V34.8003L114.575 32.7627H115.402V35.98H114.575V33.9424L113.064 35.98H112.236Z" fill="#78A0BE"/>
<path d="M116.343 32.7627H117.094L118.196 34.1077L119.239 32.7627H119.968V35.98H119.14V34.0139L118.182 35.2159H118.16L117.171 34.0139V35.98H116.343V32.7627Z" fill="#78A0BE"/>
<path d="M120.966 32.9909C121.316 32.7944 121.711 32.6883 122.113 32.6826C123.071 32.6826 123.408 33.1697 123.408 34.0232V35.9848H122.688V35.614C122.573 35.7534 122.426 35.8637 122.26 35.936C122.093 36.0082 121.912 36.0403 121.731 36.0295C121.597 36.0399 121.461 36.0217 121.335 35.9761C121.208 35.9304 121.093 35.8584 120.997 35.7649C120.9 35.6714 120.826 35.5585 120.777 35.4338C120.728 35.3091 120.707 35.1755 120.714 35.042C120.714 34.336 121.241 33.9964 121.897 33.9964C122.156 33.9935 122.411 34.0648 122.63 34.2019C122.63 33.6657 122.509 33.3708 122.023 33.3708C121.725 33.3762 121.434 33.4529 121.173 33.5942L120.966 32.9909ZM122.63 35.0375V34.7069C122.463 34.5921 122.261 34.537 122.059 34.5504C121.784 34.5504 121.542 34.68 121.542 34.9526C121.542 35.2252 121.744 35.3324 121.992 35.3324C122.112 35.3403 122.233 35.3173 122.342 35.2657C122.452 35.2141 122.546 35.1355 122.617 35.0375" fill="#78A0BE"/>
<path d="M123.943 32.7627H126.894V33.5849H125.837V35.98H125.009V33.5849H123.943V32.7627Z" fill="#78A0BE"/>
<path d="M130.316 35.6587C129.962 35.9303 129.525 36.0723 129.079 36.0608C128.855 36.0626 128.634 36.0206 128.427 35.9374C128.22 35.8541 128.032 35.7311 127.873 35.5756C127.714 35.42 127.587 35.2347 127.5 35.0305C127.413 34.8262 127.367 34.6069 127.365 34.3851C127.364 34.1633 127.406 33.9433 127.489 33.7377C127.573 33.5321 127.697 33.3449 127.853 33.1868C128.01 33.0287 128.197 32.9029 128.402 32.8163C128.608 32.7298 128.829 32.6844 129.052 32.6826C129.253 32.6753 129.453 32.7088 129.641 32.7811C129.829 32.8534 129.999 32.9629 130.143 33.103C130.286 33.2432 130.399 33.4109 130.476 33.596C130.552 33.7811 130.589 33.9797 130.585 34.1796C130.591 34.3302 130.575 34.4808 130.536 34.6264H128.197C128.233 34.8508 128.353 35.0533 128.533 35.1927C128.714 35.3321 128.941 35.3981 129.169 35.3771C129.492 35.3781 129.808 35.2746 130.068 35.0822L130.316 35.6587ZM128.161 34.0723H129.754C129.758 33.976 129.741 33.8799 129.704 33.7904C129.669 33.7009 129.613 33.6202 129.543 33.5537C129.473 33.4872 129.389 33.4365 129.297 33.405C129.205 33.3734 129.108 33.3617 129.011 33.3708C128.806 33.3568 128.603 33.4218 128.445 33.5525C128.287 33.6831 128.185 33.8693 128.161 34.0723Z" fill="#78A0BE"/>
<path d="M133.347 33.5853H132.488V33.9293C132.33 35.681 131.899 36.0474 131.026 36.0474L130.954 35.2475C131.233 35.2744 131.616 35.0107 131.687 33.7685L131.737 32.7676H134.192V35.9849H133.365L133.347 33.5853Z" fill="#78A0BE"/>
<path d="M135.114 32.7627H135.942V33.6564H136.392C137.493 33.6564 137.817 34.2015 137.817 34.7735C137.817 35.3454 137.43 35.9979 136.329 35.9979H135.119L135.114 32.7627ZM135.942 34.2999V35.265H136.311C136.76 35.265 136.936 35.0774 136.936 34.7869C136.936 34.4964 136.76 34.2999 136.315 34.2999H135.942Z" fill="#78A0BE"/>
<path d="M140.713 34.7511H139.296V35.98H138.469V32.7627H139.296V33.9781H140.713V32.7627H141.54V35.98H140.713V34.7511Z" fill="#78A0BE"/>
<path d="M144.055 32.6823C144.388 32.6946 144.71 32.804 144.982 32.9968C145.253 33.1897 145.461 33.4576 145.58 33.7672C145.699 34.0767 145.723 34.4141 145.651 34.7376C145.578 35.061 145.412 35.3561 145.172 35.5861C144.932 35.8161 144.629 35.9709 144.301 36.0311C143.973 36.0914 143.634 36.0545 143.328 35.925C143.02 35.7955 142.759 35.5792 142.574 35.3029C142.391 35.0267 142.292 34.7027 142.292 34.3714C142.285 34.1424 142.326 33.9145 142.414 33.7023C142.5 33.4902 142.631 33.2984 142.797 33.1394C142.963 32.9804 143.161 32.8576 143.377 32.7789C143.594 32.7002 143.824 32.6672 144.055 32.6823ZM144.055 35.2919C144.239 35.2972 144.421 35.2478 144.577 35.1499C144.733 35.0521 144.855 34.9103 144.93 34.7426C145.004 34.5749 145.026 34.3891 144.994 34.2088C144.961 34.0285 144.875 33.862 144.746 33.7305C144.618 33.5991 144.453 33.5088 144.273 33.471C144.092 33.4333 143.905 33.4498 143.734 33.5187C143.563 33.5875 143.417 33.7054 143.313 33.8573C143.21 34.0092 143.155 34.1882 143.155 34.3714C143.151 34.4909 143.172 34.6101 143.216 34.7216C143.259 34.8332 143.325 34.9348 143.409 35.0207C143.493 35.1065 143.593 35.1748 143.704 35.2213C143.815 35.2679 143.934 35.2919 144.055 35.2919Z" fill="#78A0BE"/>
<path d="M146.555 35.9802V32.763H147.382V34.8006L148.893 32.763H149.721V35.9802H148.893V33.9605L147.382 35.9981L146.555 35.9802ZM147.791 31.1543C147.791 31.4179 147.89 31.6771 148.165 31.6771C148.439 31.6771 148.511 31.4179 148.511 31.1543H149.266C149.277 31.3015 149.257 31.4494 149.206 31.5881C149.154 31.7267 149.074 31.8527 148.97 31.9578C148.865 32.0628 148.739 32.1444 148.6 32.1969C148.461 32.2495 148.313 32.2718 148.165 32.2625C148.014 32.2779 147.863 32.2598 147.72 32.2095C147.578 32.1593 147.448 32.0782 147.342 31.972C147.235 31.8659 147.153 31.7374 147.102 31.596C147.052 31.4545 147.034 31.3036 147.049 31.1543H147.791Z" fill="#78A0BE"/>
<path d="M152.168 32.7627H152.914L154.016 34.1077L155.059 32.7627H155.789V35.98H154.961V34.0139L154.003 35.2159H153.98L152.995 34.0139V35.98H152.168V32.7627Z" fill="#78A0BE"/>
<path d="M159.516 35.6587C159.163 35.9303 158.726 36.0723 158.279 36.0608C158.056 36.0626 157.835 36.0206 157.627 35.9374C157.42 35.8541 157.232 35.7311 157.073 35.5756C156.914 35.42 156.787 35.2347 156.7 35.0305C156.613 34.8262 156.567 34.6069 156.565 34.3851C156.564 34.1633 156.606 33.9433 156.69 33.7377C156.773 33.5321 156.898 33.3449 157.054 33.1868C157.211 33.0287 157.397 32.9029 157.602 32.8163C157.808 32.7298 158.029 32.6844 158.252 32.6826C158.453 32.6753 158.654 32.7088 158.841 32.7811C159.029 32.8534 159.2 32.9629 159.343 33.103C159.487 33.2432 159.6 33.4109 159.676 33.596C159.752 33.7811 159.79 33.9797 159.786 34.1796C159.792 34.3302 159.775 34.4808 159.736 34.6264H157.393C157.429 34.8508 157.549 35.0533 157.73 35.1927C157.91 35.3321 158.137 35.3981 158.364 35.3771C158.689 35.3781 159.004 35.2746 159.264 35.0822L159.516 35.6587ZM157.362 34.0723H158.954C158.958 33.976 158.942 33.8799 158.905 33.7904C158.869 33.7009 158.814 33.6202 158.743 33.5537C158.673 33.4872 158.589 33.4365 158.497 33.405C158.406 33.3734 158.308 33.3617 158.212 33.3708C158.006 33.3568 157.804 33.4218 157.645 33.5525C157.487 33.6831 157.385 33.8693 157.362 34.0723Z" fill="#78A0BE"/>
<path d="M160.092 35.2159H160.501C160.793 34.7033 160.949 34.1248 160.951 33.5357L161.001 32.7627H163.388V35.2159H163.928V36.7307H163.15V35.98H160.852V36.7307H160.092V35.2159ZM161.365 35.2159H162.566V33.5134H161.774V33.844C161.752 34.3146 161.619 34.7736 161.387 35.1846" fill="#78A0BE"/>
<path d="M164.58 35.98V32.7627H165.403V34.8003L166.919 32.7627H167.747V35.98H166.919V33.9424L165.403 35.98H164.58Z" fill="#78A0BE"/>
<path d="M168.687 32.7627H169.514V35.2159H170.845V32.7627H171.673V35.2159H172.212V36.7307H171.434V35.98H168.687V32.7627Z" fill="#78A0BE"/>
<path d="M172.851 35.98V32.7627H173.678V34.8003L175.189 32.7627H176.017V35.98H175.189V33.9424L173.678 35.98H172.851Z" fill="#78A0BE"/>
<path d="M179.205 34.7511H177.789V35.98H176.957V32.7627H177.789V33.9781H179.205V32.7627H180.033V35.98H179.205V34.7511Z" fill="#78A0BE"/>
<path d="M180.973 32.7627H181.8V33.6564H182.205C183.307 33.6564 183.631 34.2015 183.631 34.7735C183.631 35.3454 183.244 35.9979 182.142 35.9979H180.977L180.973 32.7627ZM181.8 34.2999V35.265H182.128C182.578 35.265 182.754 35.0774 182.754 34.7869C182.754 34.4964 182.578 34.2999 182.128 34.2999H181.8ZM184.089 32.7627H184.917V35.98H184.089V32.7627Z" fill="#78A0BE"/>
<path d="M83.675 10.456C82.9748 11.073 82.0701 11.4119 81.1342 11.4078C80.6206 11.4256 80.1087 11.3416 79.6287 11.1605C79.148 10.9794 78.7089 10.7049 78.3369 10.3532C77.9683 9.99411 77.6795 9.56171 77.4905 9.08429C77.3016 8.60693 77.2161 8.09526 77.2392 7.58272C77.2208 7.07836 77.3068 6.57555 77.4923 6.10579C77.6783 5.63598 77.9596 5.20933 78.319 4.85249C78.6523 4.50246 79.055 4.22457 79.5016 4.0362C79.9481 3.84782 80.4288 3.75302 80.9135 3.75771C81.8032 3.71346 82.6848 3.93947 83.441 4.40564C83.6103 4.5187 83.8148 4.56656 84.017 4.54023C84.2192 4.5139 84.4046 4.4152 84.5386 4.26265C84.6051 4.18646 84.6548 4.09747 84.6854 4.00122C84.7154 3.90498 84.7252 3.80357 84.7143 3.70333C84.7033 3.60308 84.6721 3.50617 84.6212 3.41865C84.571 3.33113 84.5028 3.25488 84.4214 3.19468C83.322 2.50679 82.036 2.1714 80.7384 2.23396C80.0492 2.21881 79.3652 2.34784 78.7297 2.61268C78.0943 2.8775 77.5223 3.2722 77.0503 3.77112C76.5633 4.28063 76.1826 4.88096 75.9301 5.53748C75.6777 6.19399 75.5587 6.89365 75.5801 7.59613C75.5454 8.31503 75.6656 9.03294 75.9313 9.70237C76.197 10.3718 76.6032 10.9775 77.1225 11.4793C77.6454 11.9715 78.2624 12.3548 78.9366 12.6065C79.6107 12.8583 80.3288 12.9733 81.0487 12.9449C81.7327 12.9666 82.4138 12.8497 83.051 12.6017C83.6877 12.3535 84.2677 11.9793 84.7541 11.5016C84.8258 11.4292 84.8818 11.3432 84.9188 11.2487C84.9557 11.1543 84.9736 11.0533 84.9702 10.952C84.969 10.8606 84.9488 10.7703 84.9118 10.6867C84.8749 10.603 84.8211 10.5276 84.7541 10.4649C84.6103 10.3265 84.4173 10.2491 84.2168 10.2491C84.0164 10.2491 83.824 10.3265 83.6796 10.4649" fill="#82C832"/>
<path d="M90.3525 7.36404L94.2203 3.64628C94.296 3.57487 94.3566 3.48899 94.3982 3.3938C94.4404 3.2986 94.4623 3.19602 94.4629 3.09219C94.4635 2.90875 94.3913 2.73248 94.263 2.6007C94.1348 2.46892 93.9597 2.39198 93.7749 2.38617C93.6252 2.39586 93.4791 2.43572 93.3456 2.50332C93.2116 2.57092 93.0932 2.66485 92.9973 2.7794L89.0082 6.74297H88.2028V3.16816C88.2028 2.9578 88.1191 2.75606 87.9694 2.60731C87.8192 2.45857 87.6165 2.375 87.405 2.375C87.193 2.375 86.9902 2.45857 86.8406 2.60731C86.6904 2.75606 86.6066 2.9578 86.6066 3.16816V12.0649C86.6043 12.1742 86.6268 12.2825 86.6719 12.3821C86.717 12.4818 86.784 12.5703 86.8672 12.6413C86.9827 12.7418 87.1248 12.8077 87.2768 12.8314C87.4281 12.8552 87.5835 12.8358 87.7245 12.7755C87.866 12.7152 87.9868 12.6165 88.074 12.4908C88.1607 12.365 88.2103 12.2174 88.2167 12.0649V8.26222H89.1745L93.3479 12.409C93.5594 12.6401 93.8494 12.7849 94.1619 12.8156C94.3503 12.8157 94.5311 12.7422 94.6657 12.611C94.8003 12.4798 94.8777 12.3013 94.8812 12.114C94.8835 11.9957 94.8581 11.8785 94.8084 11.771C94.7587 11.6635 94.6853 11.5685 94.5935 11.493L90.3525 7.36404Z" fill="#82C832"/>
<path d="M104.946 3.12767C103.804 2.51534 102.52 2.20745 101.223 2.23397C100.473 2.20771 99.7249 2.32923 99.0224 2.59152C98.3205 2.85382 97.6769 3.25169 97.1304 3.7622C96.6035 4.25215 96.187 4.84678 95.9074 5.50736C95.6277 6.16795 95.4914 6.87965 95.5064 7.59618C95.4481 9.02613 95.9623 10.421 96.9369 11.4748C97.421 11.9655 98.0033 12.3499 98.6463 12.6031C99.2893 12.8563 99.9785 12.9728 100.669 12.9449C101.814 12.9212 102.917 12.5098 103.795 11.7787V12.0646C103.793 12.1735 103.815 12.2816 103.858 12.3812C103.903 12.4809 103.969 12.5696 104.051 12.6411C104.167 12.7415 104.309 12.8074 104.46 12.8312C104.612 12.8549 104.768 12.8355 104.909 12.7752C105.05 12.7149 105.171 12.6163 105.258 12.4905C105.345 12.3648 105.395 12.2171 105.4 12.0646V3.90072C105.402 3.74562 105.36 3.59319 105.281 3.45951C105.202 3.32582 105.088 3.21581 104.951 3.14107L104.946 3.12767ZM103.795 4.38332V10.0404C103.42 10.4525 102.966 10.7858 102.459 11.0207C101.953 11.2555 101.404 11.3871 100.845 11.4077C98.596 11.4077 97.1708 9.96001 97.1708 7.62295C97.1558 7.11018 97.25 6.6 97.4464 6.12569C97.6434 5.65143 97.9386 5.22369 98.313 4.87038C98.6919 4.50496 99.1408 4.21805 99.6325 4.02627C100.124 3.8345 100.649 3.7417 101.178 3.75326C102.082 3.74389 102.975 3.96055 103.772 4.38332" fill="#82C832"/>
<path d="M116.5 2.38632C116.394 2.3802 116.288 2.3957 116.189 2.43186C116.09 2.46802 115.998 2.52406 115.921 2.59653C115.845 2.669 115.784 2.75634 115.742 2.85315C115.701 2.94997 115.681 3.05418 115.681 3.15936V6.73414H109.695V3.15936C109.695 2.94901 109.611 2.74726 109.461 2.59852C109.312 2.44978 109.108 2.36621 108.897 2.36621C108.686 2.36621 108.482 2.44978 108.333 2.59852C108.183 2.74726 108.099 2.94901 108.099 3.15936V12.0651C108.099 12.2754 108.183 12.4771 108.333 12.6259C108.482 12.7746 108.686 12.8582 108.897 12.8582C109.108 12.8582 109.312 12.7746 109.461 12.6259C109.611 12.4771 109.695 12.2754 109.695 12.0651V8.26237H115.681V12.0651C115.679 12.1743 115.701 12.2826 115.746 12.3823C115.791 12.4819 115.858 12.5704 115.942 12.6415C116.058 12.7419 116.199 12.8079 116.351 12.8316C116.503 12.8553 116.658 12.836 116.8 12.7757C116.941 12.7154 117.061 12.6167 117.149 12.4909C117.236 12.3652 117.285 12.2175 117.291 12.0651V3.15936C117.292 3.05789 117.273 2.9572 117.235 2.86317C117.196 2.76913 117.139 2.68364 117.068 2.61167C116.995 2.53971 116.91 2.48272 116.815 2.44403C116.721 2.40533 116.62 2.38572 116.518 2.38632" fill="#82C832"/>
<path d="M129.331 11.2116H128.476V3.22191C128.473 3.01322 128.388 2.81404 128.239 2.66646C128.09 2.51887 127.89 2.43443 127.68 2.43098H122.504C122.399 2.42801 122.293 2.44583 122.195 2.48341C122.097 2.52099 122.007 2.57758 121.931 2.6499C121.855 2.72222 121.794 2.80883 121.752 2.90472C121.709 3.0006 121.687 3.10386 121.685 3.2085L121.555 5.4204C121.379 8.24004 120.687 10.3357 120.057 11.2294H119.508C119.302 11.2338 119.106 11.3163 118.958 11.46C118.811 11.6036 118.725 11.7977 118.717 12.0025V14.4959C118.717 15.4164 120.246 15.4164 120.246 14.4959V12.7085H128.611V14.4959C128.631 14.6832 128.72 14.8563 128.862 14.9821C129.003 15.1079 129.186 15.1775 129.376 15.1775C129.565 15.1775 129.748 15.1079 129.889 14.9821C130.03 14.8563 130.12 14.6832 130.14 14.4959V12.0025C130.138 11.793 130.053 11.5927 129.904 11.4442C129.756 11.2956 129.555 11.2105 129.344 11.2071L129.331 11.2116ZM126.884 3.95027V11.2116H121.788C122.086 10.642 122.323 10.0429 122.494 9.42414C122.808 8.26911 123.01 7.08708 123.097 5.89406L123.214 3.95027H126.884Z" fill="#82C832"/>
<path d="M140.069 2.38632C139.868 2.40209 139.672 2.46291 139.496 2.56425C139.321 2.66559 139.172 2.80486 139.058 2.97169L133.158 10.233V3.15936C133.158 2.94901 133.073 2.74726 132.924 2.59852C132.774 2.44978 132.571 2.36621 132.359 2.36621C132.147 2.36621 131.944 2.44978 131.795 2.59852C131.645 2.74726 131.561 2.94901 131.561 3.15936V11.9623C131.55 12.0775 131.566 12.1936 131.605 12.3023C131.645 12.4111 131.709 12.5099 131.791 12.5917C131.873 12.6735 131.973 12.7364 132.082 12.7758C132.192 12.8153 132.308 12.8305 132.424 12.8202C132.623 12.814 132.817 12.7594 132.989 12.6613C133.162 12.5631 133.308 12.4243 133.413 12.2572L139.314 5.00038V12.0651C139.314 12.2754 139.398 12.4771 139.548 12.6259C139.698 12.7746 139.901 12.8582 140.112 12.8582C140.324 12.8582 140.527 12.7746 140.676 12.6259C140.827 12.4771 140.91 12.2754 140.91 12.0651V3.20405C140.921 3.09278 140.906 2.98066 140.867 2.87587C140.828 2.77109 140.765 2.67627 140.685 2.59835C140.604 2.52042 140.507 2.46135 140.401 2.42544C140.295 2.38953 140.181 2.3777 140.069 2.39078" fill="#82C832"/>
<path d="M151.997 2.38632C151.891 2.3802 151.786 2.3957 151.686 2.43186C151.587 2.46802 151.496 2.52406 151.419 2.59653C151.343 2.669 151.282 2.75634 151.24 2.85315C151.199 2.94997 151.178 3.05418 151.179 3.15936V6.73414H145.215V3.15936C145.215 2.94901 145.132 2.74726 144.981 2.59852C144.832 2.44978 144.629 2.36621 144.417 2.36621C144.206 2.36621 144.003 2.44978 143.853 2.59852C143.703 2.74726 143.619 2.94901 143.619 3.15936V12.0651C143.619 12.2754 143.703 12.4771 143.853 12.6259C144.003 12.7746 144.206 12.8582 144.417 12.8582C144.629 12.8582 144.832 12.7746 144.981 12.6259C145.132 12.4771 145.215 12.2754 145.215 12.0651V8.26237H151.201V12.0651C151.199 12.1743 151.222 12.2826 151.267 12.3823C151.312 12.4819 151.378 12.5704 151.462 12.6415C151.578 12.7419 151.72 12.8079 151.871 12.8316C152.023 12.8553 152.179 12.836 152.319 12.7757C152.46 12.7154 152.582 12.6167 152.668 12.4909C152.756 12.3652 152.805 12.2175 152.811 12.0651V3.15936C152.813 3.0544 152.793 2.95027 152.752 2.85347C152.711 2.75667 152.65 2.66927 152.574 2.59674C152.497 2.5242 152.407 2.46809 152.307 2.43188C152.209 2.39568 152.103 2.38017 151.997 2.38632Z" fill="#82C832"/>
<path d="M164.274 3.12821C163.129 2.51418 161.843 2.20623 160.542 2.23451C159.794 2.21003 159.049 2.33243 158.349 2.59467C157.649 2.85691 157.008 3.25386 156.463 3.76274C155.936 4.25229 155.518 4.84674 155.237 5.50734C154.957 6.16793 154.82 6.87986 154.835 7.59668C154.776 9.02663 155.29 10.4212 156.265 11.4753C156.749 11.966 157.331 12.3504 157.974 12.6036C158.617 12.8569 159.307 12.9733 159.998 12.9455C161.143 12.9218 162.245 12.5104 163.123 11.7792V12.0652C163.121 12.1741 163.142 12.2822 163.187 12.3818C163.231 12.4814 163.297 12.5701 163.379 12.6416C163.495 12.7421 163.637 12.808 163.789 12.8317C163.94 12.8555 164.096 12.8361 164.237 12.7758C164.378 12.7155 164.499 12.6168 164.586 12.491C164.673 12.3653 164.722 12.2177 164.728 12.0652V3.90126C164.729 3.74615 164.688 3.59373 164.609 3.46004C164.53 3.32636 164.415 3.21635 164.279 3.14161L164.274 3.12821ZM163.123 4.38385V10.0409C162.748 10.4531 162.294 10.7863 161.787 11.0212C161.281 11.256 160.732 11.3876 160.173 11.4083C157.924 11.4083 156.498 9.96051 156.498 7.62351C156.484 7.11068 156.578 6.6005 156.775 6.12625C156.972 5.65197 157.267 5.22423 157.641 4.87092C158.025 4.50115 158.479 4.21171 158.977 4.01981C159.475 3.82791 160.007 3.73744 160.542 3.75379C161.446 3.74443 162.338 3.96109 163.136 4.38385" fill="#82C832"/>
<path d="M173.777 7.38153C174.2 7.18042 174.557 6.86323 174.805 6.46734C175.052 6.07145 175.181 5.61343 175.175 5.14727C175.175 3.28837 173.763 2.38574 170.854 2.38574C170.557 2.38574 169.675 2.40808 168.231 2.45277C168.127 2.45095 168.022 2.47017 167.925 2.50928C167.828 2.54838 167.739 2.60657 167.665 2.68038C167.591 2.75419 167.532 2.84211 167.492 2.93888C167.453 3.03566 167.434 3.13933 167.436 3.24369V11.9572C167.433 12.0614 167.452 12.165 167.491 12.2617C167.529 12.3585 167.588 12.4464 167.662 12.5203C167.736 12.5942 167.824 12.6525 167.921 12.6916C168.018 12.7308 168.122 12.75 168.227 12.7482C169.806 12.7928 170.655 12.8152 170.899 12.8152C173.988 12.8152 175.553 11.8053 175.553 9.81238C175.582 9.26973 175.42 8.73392 175.098 8.29526C174.775 7.85659 174.31 7.54182 173.781 7.40387L173.777 7.38153ZM171.429 6.83191H169.032V3.9229C169.648 3.9229 170.332 3.88715 170.988 3.88715C173.52 3.88715 173.52 4.95512 173.52 5.30813C173.52 6.23756 172.72 6.814 171.429 6.814V6.83191ZM173.893 9.68726C173.893 10.7463 172.931 11.2825 171.033 11.2825C170.489 11.2825 169.886 11.2825 169.19 11.2512H169.032V8.21263H171.186C173.885 8.21263 173.885 9.32978 173.885 9.69619" fill="#82C832"/>
<path d="M186.243 2.38632C186.041 2.40209 185.845 2.46291 185.67 2.56425C185.495 2.66559 185.345 2.80486 185.232 2.97169L179.331 10.233V3.15936C179.331 2.94901 179.247 2.74726 179.097 2.59852C178.948 2.44978 178.744 2.36621 178.533 2.36621C178.321 2.36621 178.118 2.44978 177.969 2.59852C177.819 2.74726 177.735 2.94901 177.735 3.15936V11.9623C177.724 12.0775 177.739 12.1936 177.779 12.3023C177.819 12.4111 177.883 12.5099 177.965 12.5917C178.047 12.6735 178.147 12.7364 178.256 12.7759C178.366 12.8153 178.482 12.8305 178.598 12.8202C178.797 12.814 178.991 12.7594 179.163 12.6613C179.336 12.5631 179.482 12.4244 179.587 12.2572L185.488 5.00038V12.0651C185.503 12.264 185.593 12.4499 185.74 12.5856C185.887 12.7212 186.081 12.7966 186.281 12.7966C186.482 12.7966 186.676 12.7212 186.823 12.5856C186.97 12.4499 187.06 12.264 187.075 12.0651V3.20405C187.086 3.09278 187.07 2.98066 187.032 2.87587C186.992 2.77109 186.931 2.67627 186.85 2.59835C186.769 2.52042 186.672 2.46135 186.566 2.42544C186.459 2.38953 186.346 2.3777 186.235 2.39078" fill="#82C832"/>
<path d="M196.201 2.43066H193.822C191.033 2.43066 189.432 3.64609 189.432 5.76416C189.426 6.42674 189.639 7.07308 190.038 7.60411C190.436 8.13518 191 8.52169 191.64 8.70443L189.324 11.5821C189.219 11.7292 189.164 11.9063 189.167 12.0871C189.166 12.1846 189.184 12.2813 189.222 12.3715C189.26 12.4616 189.315 12.5432 189.386 12.6114C189.455 12.6795 189.539 12.7327 189.63 12.7678C189.722 12.8029 189.82 12.8191 189.918 12.8154C190.08 12.8047 190.237 12.7552 190.376 12.6712C190.514 12.5871 190.63 12.471 190.714 12.3328L193.246 9.04851H195.378V12.0647C195.378 12.2751 195.462 12.4768 195.612 12.6256C195.761 12.7743 195.964 12.8579 196.176 12.8579C196.387 12.8579 196.591 12.7743 196.74 12.6256C196.89 12.4768 196.974 12.2751 196.974 12.0647V3.22158C196.971 3.01289 196.886 2.81372 196.738 2.66613C196.588 2.51855 196.388 2.43411 196.178 2.43066H196.201ZM195.382 3.94994V7.52471H192.985C192.502 7.51935 192.037 7.34352 191.672 7.02875C191.479 6.8832 191.323 6.69354 191.219 6.47579C191.115 6.25798 191.065 6.01853 191.074 5.77757C191.074 4.59341 191.973 3.94101 193.606 3.94101L195.382 3.94994Z" fill="#82C832"/>
<path d="M85.01 18.7679C83.8673 18.1555 82.5842 17.8476 81.2861 17.8742C80.5385 17.8496 79.7932 17.972 79.0936 18.2343C78.3934 18.4966 77.7522 18.8935 77.2074 19.4023C76.6817 19.8895 76.2646 20.4809 75.9832 21.1383C75.7019 21.7956 75.5627 22.5043 75.5748 23.2185C75.5164 24.6484 76.0306 26.043 77.0046 27.0971C77.4888 27.5878 78.0711 27.9722 78.7141 28.2254C79.3571 28.4786 80.0463 28.5951 80.7372 28.5673C81.8828 28.5435 82.9851 28.1321 83.8632 27.4009V27.6914C83.8603 27.8003 83.8817 27.9085 83.9262 28.0082C83.9707 28.1079 84.0365 28.1966 84.1191 28.2679C84.2353 28.3683 84.3768 28.4342 84.5287 28.4579C84.6801 28.4817 84.8355 28.4623 84.977 28.402C85.118 28.3417 85.2388 28.243 85.326 28.1172C85.4132 27.9916 85.4623 27.8439 85.4687 27.6914V19.523C85.4698 19.3672 85.4288 19.2138 85.3497 19.0793C85.2705 18.9447 85.1561 18.834 85.0186 18.7589L85.01 18.7679ZM83.8719 20.0056V25.6582C83.497 26.0704 83.0429 26.4036 82.5362 26.6385C82.0296 26.8733 81.4807 27.0049 80.9221 27.0256C78.6731 27.0256 77.2478 25.5778 77.2478 23.2408C77.2328 22.728 77.327 22.2178 77.5234 21.7435C77.7204 21.2692 78.0156 20.8415 78.39 20.4882C78.7707 20.1198 79.2225 19.8308 79.7176 19.6382C80.2127 19.4456 80.7413 19.3533 81.2728 19.3666C82.1769 19.3573 83.0694 19.5739 83.8678 19.9967" fill="#82C832"/>
<path d="M94.5218 22.9987C94.9453 22.7976 95.3017 22.4804 95.5496 22.0845C95.7974 21.6886 95.9262 21.2306 95.9205 20.7644C95.9205 18.9055 94.5085 18.0029 91.5986 18.0029C91.3109 18.0029 90.4253 18.0029 88.9769 18.0699C88.8718 18.0681 88.7678 18.0873 88.6702 18.1264C88.5725 18.1656 88.4842 18.2237 88.4102 18.2975C88.3357 18.3714 88.2773 18.4593 88.238 18.5561C88.1982 18.6528 88.1791 18.7565 88.1809 18.8609V27.5744C88.1785 27.6786 88.197 27.7821 88.2363 27.8789C88.275 27.9756 88.3334 28.0636 88.4067 28.1375C88.4807 28.2113 88.5691 28.2696 88.6661 28.3088C88.7632 28.3479 88.8678 28.3672 88.9723 28.3654C90.5287 28.41 91.401 28.4324 91.6437 28.4324C94.7333 28.4324 96.2983 27.4225 96.2983 25.4296C96.3278 24.8862 96.1677 24.3493 95.8448 23.9097C95.5219 23.4701 95.0562 23.1546 94.5265 23.0166L94.5218 22.9987ZM92.1833 22.4312H89.7863V19.5401C90.4293 19.5401 91.0862 19.5043 91.7425 19.5043C94.2746 19.5043 94.2746 20.5723 94.2746 20.9253C94.2746 21.8547 93.4744 22.4312 92.1833 22.4312ZM94.6478 25.3044C94.6478 25.6976 94.6478 26.8996 91.7875 26.8996C91.2433 26.8996 90.6408 26.8996 89.944 26.864H89.7863V23.8164H91.9406C94.6391 23.8164 94.6391 24.9336 94.6391 25.3" fill="#82C832"/>
<path d="M107.186 18.7677C106.043 18.1554 104.761 17.8474 103.463 17.874C102.716 17.8465 101.97 17.9658 101.27 18.225C100.569 18.4841 99.9264 18.8781 99.3793 19.3843C98.853 19.8715 98.4364 20.4628 98.1551 21.1202C97.8738 21.7776 97.7345 22.4863 97.7467 23.2004C97.6883 24.6303 98.2025 26.0249 99.1765 27.0791C99.6606 27.5697 100.243 27.9541 100.886 28.2073C101.529 28.4605 102.218 28.577 102.909 28.5492C104.055 28.5255 105.157 28.1141 106.035 27.3829V27.6734C106.032 27.7823 106.054 27.8905 106.098 27.9902C106.143 28.0898 106.208 28.1785 106.291 28.2498C106.407 28.3502 106.549 28.4162 106.701 28.4399C106.852 28.4637 107.007 28.4443 107.148 28.384C107.29 28.3237 107.411 28.2249 107.498 28.0992C107.585 27.9735 107.634 27.8258 107.641 27.6734V19.5228C107.642 19.367 107.601 19.2137 107.522 19.0791C107.442 18.9445 107.328 18.8338 107.191 18.7587L107.186 18.7677ZM106.044 20.0054V25.6581C105.669 26.0702 105.215 26.4035 104.708 26.6383C104.201 26.8731 103.653 27.0048 103.094 27.0254C100.845 27.0254 99.4197 25.5777 99.4197 23.2406C99.4047 22.7278 99.4983 22.2177 99.6953 21.7434C99.8923 21.2691 100.187 20.8414 100.562 20.488C100.941 20.1234 101.39 19.8373 101.882 19.6463C102.374 19.4554 102.899 19.3632 103.427 19.3754C104.331 19.3661 105.223 19.5827 106.021 20.0054" fill="#82C832"/>
<path d="M114.634 22.4854H110.559C110.371 22.4854 110.19 22.5597 110.057 22.6922C109.924 22.8245 109.849 23.0041 109.849 23.1914V23.3031C109.849 23.4903 109.924 23.6699 110.057 23.8023C110.19 23.9347 110.371 24.0091 110.559 24.0091H114.634C114.727 24.0091 114.819 23.9908 114.906 23.9554C114.992 23.9199 115.07 23.8679 115.136 23.8023C115.202 23.7368 115.254 23.6589 115.29 23.5732C115.326 23.4876 115.344 23.3958 115.344 23.3031V23.1914C115.344 23.0986 115.326 23.0069 115.29 22.9212C115.254 22.8355 115.202 22.7577 115.136 22.6922C115.07 22.6266 114.992 22.5746 114.906 22.5391C114.819 22.5036 114.727 22.4854 114.634 22.4854Z" fill="#82C832"/>
<path d="M125.805 18.0527H118.335C118.125 18.0562 117.924 18.1407 117.776 18.2882C117.627 18.4358 117.543 18.635 117.539 18.8437V27.6689C117.539 27.8793 117.623 28.081 117.772 28.2298C117.922 28.3785 118.125 28.4621 118.337 28.4621C118.549 28.4621 118.752 28.3785 118.901 28.2298C119.052 28.081 119.135 27.8793 119.135 27.6689V19.572H125.013V27.6689C125.011 27.7778 125.033 27.8859 125.076 27.9855C125.121 28.0852 125.187 28.1739 125.269 28.2454C125.385 28.3458 125.527 28.4117 125.679 28.4355C125.83 28.4592 125.986 28.4398 126.127 28.3795C126.268 28.3192 126.389 28.2206 126.476 28.0948C126.563 27.9691 126.613 27.8214 126.619 27.6689V18.8437C126.608 18.6374 126.521 18.4424 126.373 18.2963C126.227 18.1503 126.03 18.0635 125.823 18.0527" fill="#82C832"/>
<path d="M133.932 17.8741C133.218 17.8359 132.506 17.9515 131.842 18.213C131.178 18.4745 130.579 18.8757 130.087 19.3889C129.135 20.4355 128.632 21.8092 128.683 23.2184C128.65 23.9353 128.768 24.6511 129.029 25.3199C129.291 25.9887 129.691 26.5956 130.203 27.1015C130.734 27.5966 131.358 27.9813 132.04 28.233C132.722 28.4847 133.448 28.5983 134.174 28.5672C135.479 28.5779 136.748 28.1461 137.772 27.3428C137.848 27.2767 137.909 27.1948 137.95 27.103C137.991 27.0112 138.012 26.9116 138.01 26.811C138.002 26.6496 137.945 26.4942 137.849 26.3642C137.775 26.2724 137.682 26.1979 137.577 26.1462C137.471 26.0944 137.355 26.0666 137.237 26.0648C137.075 26.0704 136.919 26.1233 136.787 26.2167C136.046 26.753 135.15 27.0381 134.233 27.03C132.034 27.03 130.59 25.7476 130.415 23.6652H137.934C138.107 23.6578 138.271 23.5893 138.397 23.4721C138.523 23.3549 138.603 23.1968 138.622 23.0262C138.644 22.8588 138.651 22.6899 138.645 22.5213C138.671 21.895 138.565 21.2701 138.332 20.6873C138.1 20.1046 137.746 19.5769 137.295 19.1387C136.848 18.7124 136.318 18.3791 135.739 18.1582C135.16 17.9372 134.542 17.8331 133.923 17.8517L133.932 17.8741ZM137.017 22.2756H130.374C130.464 21.444 130.872 20.6786 131.515 20.138C132.157 19.5973 132.983 19.3227 133.824 19.371C135.735 19.371 136.918 20.4524 137.03 22.2756" fill="#82C832"/>
<path d="M147.913 18.0527H139.985C139.773 18.0527 139.57 18.1363 139.42 18.2851C139.27 18.4338 139.187 18.6356 139.187 18.8459C139.187 19.0563 139.27 19.258 139.42 19.4067C139.57 19.5555 139.773 19.6391 139.985 19.6391H143.133V27.6823C143.128 27.7848 143.145 27.8871 143.183 27.9827C143.221 28.0783 143.278 28.1651 143.351 28.2374C143.424 28.3097 143.512 28.3661 143.608 28.4028C143.705 28.4396 143.808 28.456 143.91 28.4509C144.016 28.4583 144.123 28.4439 144.222 28.4085C144.322 28.3731 144.413 28.3175 144.49 28.2453C144.567 28.1731 144.628 28.0857 144.669 27.9888C144.71 27.8919 144.731 27.7875 144.729 27.6823V19.6391H147.877C148.089 19.6391 148.292 19.5555 148.441 19.4067C148.592 19.258 148.675 19.0563 148.675 18.8459C148.675 18.6356 148.592 18.4338 148.441 18.2851C148.292 18.1363 148.089 18.0527 147.877 18.0527" fill="#82C832"/>
<path d="M154.344 17.8743C153.63 17.8361 152.918 17.9517 152.254 18.2133C151.591 18.4748 150.991 18.8759 150.499 19.3891C149.547 20.4357 149.044 21.8094 149.095 23.2187C149.062 23.9355 149.18 24.6513 149.441 25.3201C149.703 25.9889 150.104 26.5958 150.615 27.1017C151.146 27.5966 151.77 27.9812 152.452 28.2329C153.134 28.4845 153.86 28.5983 154.587 28.5674C155.891 28.5778 157.16 28.1459 158.185 27.343C158.254 27.2778 158.31 27.1989 158.348 27.1112C158.386 27.0236 158.405 26.9291 158.405 26.8336C158.395 26.6717 158.337 26.5161 158.238 26.3868C158.165 26.295 158.072 26.2205 157.966 26.1687C157.86 26.117 157.744 26.0892 157.627 26.0874C157.465 26.093 157.309 26.1459 157.177 26.2393C156.435 26.7759 155.54 27.061 154.622 27.0526C152.424 27.0526 150.98 25.7701 150.809 23.6878H158.328C158.501 23.6794 158.664 23.6106 158.79 23.4936C158.916 23.3766 158.996 23.219 159.016 23.0488C159.037 22.8814 159.045 22.7125 159.039 22.5439C159.065 21.9176 158.959 21.2928 158.726 20.71C158.494 20.1272 158.141 19.5995 157.689 19.1612C157.242 18.735 156.713 18.4017 156.134 18.1808C155.554 17.9598 154.937 17.8557 154.317 17.8743H154.344ZM157.411 22.2981H150.786C150.876 21.4666 151.284 20.7012 151.927 20.1605C152.569 19.6198 153.395 19.3453 154.236 19.3936C156.147 19.3936 157.334 20.475 157.442 22.2981" fill="#82C832"/>
<path d="M164.544 18.0527H162.16C161.949 18.0562 161.748 18.1413 161.6 18.2898C161.451 18.4384 161.367 18.6387 161.364 18.8481V27.6689C161.364 27.8793 161.449 28.081 161.598 28.2298C161.748 28.3785 161.951 28.4621 162.163 28.4621C162.375 28.4621 162.577 28.3785 162.727 28.2298C162.877 28.081 162.961 27.8793 162.961 27.6689V24.675H165.21C167.787 24.675 168.938 23.0217 168.938 21.3863C168.938 19.2682 167.337 18.0527 164.549 18.0527H164.544ZM167.288 21.4041C167.282 21.6451 167.229 21.8827 167.129 22.1024C167.029 22.3221 166.885 22.5196 166.707 22.6828C166.528 22.846 166.318 22.9717 166.089 23.0522C165.861 23.1327 165.618 23.1664 165.376 23.1513H162.979V19.5765H164.778C166.411 19.5765 167.31 20.2289 167.31 21.4086" fill="#82C832"/>
<path d="M47.3503 25.859C44.2831 22.9143 41.5038 17.9409 40.5504 13.736C40.1951 12.1676 40.0197 10.2372 41.306 9.07091C42.4438 8.0387 43.721 8.13703 44.9442 8.62407C43.4733 6.54472 41.8177 4.60059 39.9973 2.81505C30.4901 -5.93868 20.4028 7.77506 16.5487 16.006C14.3045 20.7918 9.70386 31.2793 13.7199 36.1679C16.5936 39.6577 21.8509 37.4414 24.8775 35.4707C30.3597 31.896 33.7416 30.4347 39.561 34.2017C43.1588 36.5387 48.0248 39.8767 52.0229 36.2617C54.5863 33.9425 54.24 30.0907 53.5294 26.9672C53.4845 26.7751 53.4305 26.5784 53.3855 26.3863C51.5012 27.5481 49.3965 27.7268 47.3503 25.859Z" fill="#FFA046"/>
<path d="M60.5312 9.12033C59.0875 7.36864 56.4524 8.48135 54.9323 9.46883C52.18 11.2563 50.4846 11.9935 47.5613 10.1079C46.7442 9.53383 45.8738 9.03857 44.9619 8.6288C48.8161 13.9909 51.9686 20.5194 53.4033 26.3865C55.9037 24.8449 58.0263 21.5963 59.1285 19.237C60.2302 16.8776 62.5596 11.5646 60.5451 9.11583" fill="#82C832"/>
<path d="M0 30.6666L1.94214 35.8124C1.94214 35.8124 4.54745 32.555 7.5317 29.2504C10.516 25.9457 14.2581 21.5081 17.0055 17.7786C19.753 14.0491 20.1319 11.4054 19.5635 9.89466C18.9951 8.38399 17.574 5.88192 16.8161 4.37124C16.1055 2.81334 14.4002 1.72754 12.2687 1.72754C10.137 1.72754 10.6581 4.1352 10.6581 4.1352C10.6581 4.1352 10.9423 5.12658 12.2687 5.12658C13.595 5.12658 15.1581 5.221 17.1003 6.54283C17.1003 6.54283 16.9582 8.90332 15.8687 10.7916C14.7792 12.68 13.0266 15.2293 10.7054 17.9674C8.38434 20.6583 5.96852 23.2548 3.97901 25.5208C1.94214 27.7868 0.663168 29.6752 0 30.6666Z" fill="#E25383"/>
<path d="M24.4897 30.6666L22.5476 35.8124C22.5476 35.8124 19.9422 32.555 16.958 29.2504C13.9737 25.9457 10.1842 21.5081 7.43679 17.7786C4.68937 14.0491 4.31042 11.4054 4.87885 9.89466C5.44728 8.38399 6.86838 5.88192 7.62628 4.37124C8.38418 2.81334 10.0895 1.72754 12.2211 1.72754C14.3527 1.72754 13.8316 4.1352 13.8316 4.1352C13.8316 4.1352 13.5474 5.12658 12.2211 5.12658C10.8947 5.12658 9.33157 5.221 7.38942 6.54283C7.38942 6.54283 7.53154 8.90332 8.62104 10.7916C9.71049 12.68 11.4632 15.2293 13.7843 17.9674C16.1054 20.7055 18.5212 23.2548 20.5107 25.5208C22.5476 27.7868 23.7792 29.6752 24.4897 30.6666Z" fill="#FF6699"/>
<path d="M7.38917 6.54283C9.33132 5.17379 10.8945 5.12658 12.2208 5.12658C12.2208 5.12658 12.2208 5.12658 12.2682 5.12658C12.2682 5.12658 12.2682 5.12658 12.3156 5.12658C13.6419 5.12658 15.2051 5.221 17.1472 6.54283C17.1472 6.54283 17.2419 5.03216 16.9104 4.37124C16.0577 2.81334 14.3998 1.72754 12.2682 1.72754C12.2682 1.72754 12.2682 1.72754 12.2208 1.72754C12.2208 1.72754 12.2208 1.72754 12.1734 1.72754C10.0419 1.72754 8.38393 2.81334 7.57866 4.37124C7.19968 5.17379 7.38917 6.54283 7.38917 6.54283Z" fill="#D24574"/>
</g>
<defs>
<clipPath id="clip0">
<rect width="197" height="38" fill="white"/>
</clipPath>
</defs>
</svg>
