<svg width="164" height="40" viewBox="0 0 164 40" fill="none" xmlns="http://www.w3.org/2000/svg">
<path fill-rule="evenodd" clip-rule="evenodd" d="M18.0754 0.37145C17.7952 0.684425 17.7559 1.36169 17.7545 5.88365C17.7538 8.71897 17.6635 11.5984 17.5537 12.2821C17.0763 15.2571 15.0846 17.2774 12.155 17.758C11.4683 17.8708 8.59752 17.9635 5.77537 17.9642C-0.246527 17.966 0.00545407 17.8796 0.00545407 19.944C0.00545407 22.1001 -0.442941 21.9668 6.79159 21.9592C12.1918 21.9536 13.1973 21.9056 14.2831 21.6014C17.9639 20.5703 20.3823 18.0835 21.3212 14.3638C21.5542 13.4411 21.6148 11.9022 21.6148 6.91155C21.6148 0.633303 21.614 0.621596 21.1859 0.318376C20.5509 -0.13138 18.4939 -0.0964537 18.0754 0.37145ZM25.2043 18.2766C21.6335 19.1504 18.9648 21.8336 18.049 25.4702C17.817 26.3912 17.7561 27.938 17.7561 32.9034C17.7561 40.225 17.6411 39.8195 19.719 39.8195C21.6607 39.8195 21.5639 40.1506 21.6592 33.1854C21.7352 27.6193 21.7682 27.1629 22.1664 26.1323C22.5975 25.0176 23.3648 24.0098 24.3013 23.2948C24.8875 22.8476 25.5992 22.6193 26.3122 22.4425C27.0372 22.2628 27.7795 22.1641 28.5258 22.1485L32.58 22.0634C39.8217 21.9502 39.3654 22.096 39.3654 19.8937C39.3654 17.8446 39.7878 17.9631 32.5505 17.982C27.88 17.9943 26.06 18.0673 25.2043 18.2766Z" fill="url(#paint0_radial)"/>
<path d="M61.1378 8.01543C61.1378 9.24238 60.7076 10.2561 59.8472 11.0567C58.9941 11.8503 57.8408 12.3575 56.3874 12.5782C56.3656 12.5815 56.3494 12.6001 56.3494 12.6221C56.3494 12.6448 56.3668 12.6639 56.3895 12.6663C58.0994 12.8437 59.4112 13.3253 60.3248 14.111C61.254 14.9028 61.7186 15.934 61.7186 17.2045C61.7186 18.9622 61.013 20.35 59.602 21.3682C58.1993 22.3863 56.2549 22.8954 53.768 22.8954C51.3305 22.8954 49.3159 22.6293 47.7243 22.0973C47.3393 21.9686 47.0954 21.5991 47.0954 21.1932V20.0658C47.0954 19.3279 47.8756 18.8306 48.5801 19.0496C49.0049 19.1816 49.4565 19.2975 49.9349 19.3973C51.0275 19.6148 52.0472 19.7237 52.9938 19.7237C56.1688 19.7237 57.7563 18.7882 57.7563 16.9173C57.7563 16.0732 57.2443 15.425 56.2203 14.9725C55.2051 14.52 53.6994 14.2937 51.703 14.2937H50.9349C50.3826 14.2937 49.9349 13.846 49.9349 13.2937V12.135C49.9349 11.5827 50.3826 11.135 50.9349 11.135H51.5224C53.5186 11.135 54.9728 10.9436 55.8848 10.5607C56.7968 10.1778 57.2529 9.54259 57.2529 8.65502C57.2529 8.00238 56.9647 7.48462 56.3882 7.10175C55.8204 6.71018 54.9641 6.5144 53.8197 6.5144C52.3521 6.5144 50.9257 6.86935 49.5407 7.57928C49.0536 7.82891 48.4444 7.69791 48.1478 7.23799L47.4725 6.19073C47.177 5.73266 47.3009 5.1181 47.7762 4.85127C48.6019 4.38767 49.4634 4.03272 50.3607 3.7864C51.5654 3.44702 52.9033 3.27734 54.3746 3.27734C56.4312 3.27734 58.0702 3.71243 59.2921 4.58261C60.5225 5.45278 61.1378 6.59705 61.1378 8.01543ZM70.8524 19.7237C71.4047 19.7237 71.8524 19.276 71.8524 18.7237V12.0306C71.8524 11.4783 71.4047 11.0306 70.8524 11.0306H69.7726C69.2713 11.0306 68.8488 11.4021 68.7725 11.8976C68.572 13.2 68.3167 14.4469 68.0063 15.6381C67.7775 16.5365 67.4929 17.4 67.1523 18.2286C66.8668 18.9231 67.3558 19.7237 68.1067 19.7237H70.8524ZM77.9058 26.8685C77.9058 27.4208 77.458 27.8685 76.9058 27.8685H75.3693C74.8171 27.8685 74.3693 27.4208 74.3693 26.8685V23.6343C74.3693 23.0821 73.9216 22.6343 73.3693 22.6343H65.6634C65.1111 22.6343 64.6634 23.0821 64.6634 23.6343V26.8685C64.6634 27.4208 64.2157 27.8685 63.6634 27.8685H62.127C61.5747 27.8685 61.127 27.4208 61.127 26.8685V20.5071C61.127 20.0744 61.4778 19.7237 61.9104 19.7237C62.1781 19.7237 62.4288 19.5879 62.5648 19.3573C63.2925 18.1232 63.9103 16.6094 64.4182 14.8158C64.9097 13.08 65.2716 11.1258 65.5039 8.95316C65.559 8.43779 65.9902 8.04154 66.5085 8.04154H74.789C75.3413 8.04154 75.789 8.48925 75.789 9.04154V18.7237C75.789 19.276 76.2367 19.7237 76.789 19.7237H76.9058C77.458 19.7237 77.9058 20.1714 77.9058 20.7237V26.8685ZM81.3926 15.3118C81.3926 16.7563 81.6249 17.8484 82.0895 18.588C82.5628 19.3277 83.3286 19.6976 84.387 19.6976C85.4366 19.6976 86.1895 19.332 86.6456 18.6011C87.1102 17.8614 87.3425 16.765 87.3425 15.3118C87.3425 13.8674 87.1102 12.784 86.6456 12.0617C86.181 11.3395 85.4195 10.9784 84.3612 10.9784C83.3114 10.9784 82.5543 11.3395 82.0895 12.0617C81.6249 12.7753 81.3926 13.8587 81.3926 15.3118ZM91.3694 15.3118C91.3694 17.6874 90.75 19.5452 89.511 20.8853C88.2719 22.2254 86.5466 22.8954 84.3353 22.8954C82.95 22.8954 81.7281 22.5908 80.6698 21.9817C79.6115 21.3639 78.7983 20.4806 78.2305 19.332C77.6625 18.1834 77.3786 16.8433 77.3786 15.3118C77.3786 12.9276 77.9937 11.0741 79.2243 9.75143C80.4547 8.42878 82.1842 7.76743 84.4127 7.76743C85.798 7.76743 87.0199 8.072 88.0782 8.68111C89.1367 9.29024 89.9497 10.1648 90.5175 11.3047C91.0856 12.4446 91.3694 13.7803 91.3694 15.3118ZM100.432 22.8954C98.7597 22.8954 97.4434 22.2897 96.4829 21.0786C96.4582 21.0475 96.4207 21.0289 96.381 21.0289C96.3044 21.0289 96.2449 21.0958 96.2534 21.172C96.3804 22.3024 96.4439 22.9596 96.4439 23.1434V28.0562C96.4439 28.6085 95.9962 29.0562 95.4439 29.0562H93.5073C92.9551 29.0562 92.5074 28.6085 92.5074 28.0562V9.04154C92.5074 8.48925 92.9551 8.04154 93.5074 8.04154H94.9593C95.4033 8.04154 95.794 8.3342 95.9189 8.76019L96.2338 9.83402C96.2512 9.89338 96.3056 9.93416 96.3675 9.93416C96.4151 9.93416 96.4595 9.90957 96.4856 9.86977C97.4056 8.46821 98.7554 7.76743 100.535 7.76743C102.239 7.76743 103.573 8.43313 104.536 9.76449C105.5 11.0958 105.982 12.945 105.982 15.3118C105.982 16.8694 105.754 18.2226 105.298 19.3712C104.85 20.5198 104.209 21.3943 103.375 21.9947C102.54 22.5951 101.559 22.8954 100.432 22.8954ZM99.2705 10.9523C98.2981 10.9523 97.5883 11.2568 97.1408 11.866C96.6934 12.4664 96.4611 13.4627 96.4439 14.855V15.2857C96.4439 16.852 96.672 17.9746 97.1279 18.6533C97.5925 19.332 98.3239 19.6714 99.322 19.6714C101.086 19.6714 101.968 18.2008 101.968 15.2596C101.968 13.8238 101.748 12.7492 101.31 12.0356C100.879 11.3134 100.2 10.9523 99.2705 10.9523ZM110.256 15.3118C110.256 16.7563 110.488 17.8484 110.953 18.588C111.426 19.3277 112.192 19.6976 113.25 19.6976C114.3 19.6976 115.053 19.332 115.509 18.6011C115.974 17.8614 116.206 16.765 116.206 15.3118C116.206 13.8674 115.974 12.784 115.509 12.0617C115.044 11.3395 114.283 10.9784 113.225 10.9784C112.175 10.9784 111.418 11.3395 110.953 12.0617C110.488 12.7753 110.256 13.8587 110.256 15.3118ZM120.233 15.3118C120.233 17.6874 119.613 19.5452 118.374 20.8853C117.135 22.2254 115.41 22.8954 113.199 22.8954C111.814 22.8954 110.592 22.5908 109.533 21.9817C108.475 21.3639 107.662 20.4806 107.094 19.332C106.526 18.1834 106.242 16.8433 106.242 15.3118C106.242 12.9276 106.857 11.0741 108.088 9.75143C109.318 8.42878 111.048 7.76743 113.276 7.76743C114.662 7.76743 115.884 8.072 116.942 8.68111C118 9.29024 118.813 10.1648 119.381 11.3047C119.949 12.4446 120.233 13.7803 120.233 15.3118ZM134.691 11.866C134.691 12.6491 134.445 13.3191 133.955 13.8761C133.482 14.4145 132.784 14.764 131.863 14.9247C131.834 14.9298 131.812 14.9549 131.812 14.9843C131.812 15.0148 131.835 15.0404 131.866 15.0443C132.864 15.172 133.655 15.5266 134.239 16.108C134.841 16.6911 135.142 17.4133 135.142 18.2748C135.142 19.6931 134.592 20.7766 133.49 21.5249C132.389 22.2646 130.814 22.6343 128.766 22.6343H122.371C121.818 22.6343 121.371 22.1866 121.371 21.6343V9.04154C121.371 8.48925 121.818 8.04154 122.371 8.04154H128.766C130.745 8.04154 132.225 8.36786 133.206 9.02049C134.196 9.66441 134.691 10.6129 134.691 11.866ZM131.064 18.0659C131.064 17.4916 130.844 17.0783 130.406 16.8259C129.967 16.5649 129.309 16.4344 128.431 16.4344H126.307C125.755 16.4344 125.307 16.8821 125.307 17.4344V18.8802C125.307 19.4325 125.755 19.8802 126.307 19.8802H128.508C129.343 19.8802 129.975 19.7237 130.406 19.4104C130.844 19.0884 131.064 18.6403 131.064 18.0659ZM130.702 12.1792C130.702 11.2916 130.005 10.8478 128.611 10.8478H126.307C125.755 10.8478 125.307 11.2956 125.307 11.8478V12.7325C125.307 13.2848 125.755 13.7325 126.307 13.7325H128.16C128.994 13.7325 129.627 13.6107 130.057 13.367C130.487 13.1234 130.702 12.7274 130.702 12.1792ZM140.101 12.6803C140.101 13.2326 140.548 13.6803 141.101 13.6803H142.875C145.095 13.6803 146.739 14.037 147.806 14.7506C148.873 15.4641 149.406 16.5431 149.406 17.9876C149.406 21.0855 147.281 22.6343 143.03 22.6343H137.164C136.612 22.6343 136.164 22.1866 136.164 21.6343V9.04154C136.164 8.48925 136.612 8.04154 137.164 8.04154H139.101C139.653 8.04154 140.101 8.48925 140.101 9.04154V12.6803ZM145.47 18.0398C145.47 17.4742 145.246 17.0652 144.799 16.8129C144.351 16.5605 143.684 16.4344 142.798 16.4344H141.101C140.548 16.4344 140.101 16.8821 140.101 17.4344V18.8802C140.101 19.4325 140.548 19.8802 141.101 19.8802H142.85C144.596 19.8802 145.47 19.2668 145.47 18.0398ZM156.262 10.5998C155.427 10.5998 154.773 10.8696 154.3 11.4091C154.013 11.7309 153.8 12.1359 153.662 12.624C153.504 13.1818 153.979 13.6803 154.559 13.6803H157.993C158.552 13.6803 159.022 13.2154 158.892 12.6716C158.771 12.1621 158.556 11.7413 158.25 11.4091C157.759 10.8696 157.097 10.5998 156.262 10.5998ZM156.817 22.8954C154.494 22.8954 152.678 22.247 151.37 20.9506C150.062 19.654 149.408 17.8179 149.408 15.4424C149.408 12.9972 150.011 11.1089 151.215 9.77754C152.429 8.43746 154.102 7.76743 156.236 7.76743C158.275 7.76743 159.863 8.35481 160.999 9.52954C162.134 10.7043 162.702 12.3271 162.702 14.3982V15.3299C162.702 15.8822 162.255 16.3299 161.702 16.3299H154.435C153.868 16.3299 153.399 16.8067 153.531 17.3584C153.687 18.0114 153.973 18.5517 154.39 18.9796C155.01 19.6148 155.879 19.9325 156.998 19.9325C157.867 19.9325 158.688 19.8412 159.463 19.6583C159.778 19.5839 160.099 19.4915 160.426 19.381C161.121 19.1458 161.889 19.6309 161.889 20.3654V21.2493C161.889 21.6264 161.679 21.976 161.331 22.1221C160.807 22.3421 160.257 22.5129 159.682 22.6343C158.899 22.8084 157.944 22.8954 156.817 22.8954Z" fill="black"/>
<path d="M50.0054 36.2928C49.7243 36.2928 49.4763 36.1089 49.3947 35.8399L48.3752 32.4797C48.373 32.4727 48.3666 32.468 48.3593 32.468C48.3499 32.468 48.3423 32.4761 48.3428 32.4855C48.3839 33.2539 48.4044 33.7671 48.4044 34.0252V35.8362C48.4044 36.0883 48.2 36.2928 47.9478 36.2928C47.6956 36.2928 47.4912 36.0883 47.4912 35.8362V32.2174C47.4912 31.7757 47.8493 31.4176 48.2909 31.4176C48.6425 31.4176 48.9528 31.6472 49.0556 31.9833L50.0207 35.1361C50.0224 35.1418 50.0276 35.1456 50.0335 35.1456C50.0393 35.1456 50.0445 35.1419 50.0463 35.1364L51.0726 31.9747C51.1804 31.6425 51.4898 31.4176 51.839 31.4176C52.2841 31.4176 52.6449 31.7784 52.6449 32.2235V35.8163C52.6449 36.0794 52.4315 36.2928 52.1684 36.2928C51.9052 36.2928 51.6919 36.0794 51.6919 35.8163V33.9852C51.6919 33.8764 51.6931 33.7507 51.6952 33.6085C51.6996 33.4676 51.7148 33.0955 51.7406 32.4921C51.741 32.4827 51.7334 32.4746 51.7239 32.4746C51.7167 32.4746 51.7103 32.4793 51.708 32.4861L50.6121 35.8522C50.5266 36.1149 50.2817 36.2928 50.0054 36.2928ZM54.9715 33.2182C54.7581 33.2182 54.5913 33.2871 54.4703 33.425C54.2444 33.6782 54.5507 34.0051 54.89 34.0051H55.048C55.3918 34.0051 55.7126 33.6775 55.4792 33.425C55.3539 33.2871 55.1847 33.2182 54.9715 33.2182ZM55.1132 36.3595C54.5197 36.3595 54.0558 36.1938 53.7219 35.8625C53.3877 35.5314 53.2206 35.0623 53.2206 34.4553C53.2206 33.8307 53.3744 33.3484 53.6821 33.0083C53.9922 32.6658 54.4197 32.4947 54.9648 32.4947C55.4859 32.4947 55.8915 32.6447 56.1817 32.9448C56.4717 33.2449 56.6167 33.6596 56.6167 34.1886C56.6167 34.4612 56.3957 34.6822 56.1231 34.6822H54.9795C54.5755 34.6822 54.2112 35.0699 54.4934 35.3591C54.6516 35.5214 54.8737 35.6024 55.1595 35.6024C55.3813 35.6024 55.5913 35.5792 55.7892 35.5326C55.8192 35.5255 55.8494 35.5177 55.8798 35.5093C56.1335 35.4395 56.4091 35.6126 56.4091 35.8756C56.4091 36.0108 56.3339 36.1368 56.2078 36.1856C56.0917 36.2305 55.9708 36.2663 55.8452 36.2928C55.6453 36.3372 55.4012 36.3595 55.1132 36.3595ZM58.8849 35.5491C59.1722 35.5491 59.4051 35.3162 59.4051 35.0289V33.7308C59.4051 33.5085 59.2249 33.3283 59.0026 33.3283C58.8007 33.3283 58.631 33.4779 58.5978 33.677C58.55 33.9639 58.4916 34.24 58.4225 34.5054C58.4009 34.5903 58.3773 34.6739 58.3518 34.7563C58.2363 35.1295 58.4942 35.5491 58.8849 35.5491ZM60.9516 37.1782C60.9516 37.4277 60.7493 37.6299 60.4998 37.6299C60.2503 37.6299 60.048 37.4277 60.048 37.1782V36.9613C60.048 36.5921 59.7487 36.2928 59.3794 36.2928H58.2371C57.8679 36.2928 57.5685 36.5921 57.5685 36.9613V37.1781C57.5685 37.4277 57.3663 37.6299 57.1168 37.6299C56.8672 37.6299 56.665 37.4277 56.665 37.1781V35.7492C56.665 35.6387 56.7546 35.5491 56.8651 35.5491C56.9335 35.5491 56.9975 35.5145 57.0322 35.4556C57.2182 35.1402 57.376 34.7535 57.5058 34.2953C57.5781 34.0397 57.6395 33.7656 57.6899 33.473C57.7778 32.9622 58.2034 32.5647 58.7217 32.5647H59.4107C59.963 32.5647 60.4107 33.0125 60.4107 33.5647V35.2787C60.4107 35.4281 60.5318 35.5491 60.6812 35.5491C60.8305 35.5491 60.9516 35.6702 60.9516 35.8195V37.1782ZM61.73 32.5647C61.9986 32.5647 62.2163 32.7825 62.2163 33.0511V34.0385C62.2163 34.3378 62.6008 34.4717 62.7641 34.2209L63.6375 32.879C63.7651 32.683 63.9831 32.5647 64.2169 32.5647H64.2675C64.7008 32.5647 65.0521 32.916 65.0521 33.3494V35.8063C65.0521 36.075 64.8344 36.2928 64.5657 36.2928C64.2971 36.2928 64.0793 36.075 64.0793 35.8063V34.8055C64.0793 34.5155 63.6916 34.3833 63.5335 34.6265L62.6513 35.9839C62.5261 36.1765 62.3119 36.2928 62.0822 36.2928H62.026C61.5939 36.2928 61.2437 35.9425 61.2437 35.5105V33.0511C61.2437 32.7825 61.4614 32.5647 61.73 32.5647ZM69.2581 35.2804C69.2581 35.4288 69.3784 35.5491 69.5268 35.5491C69.6753 35.5491 69.7956 35.6695 69.7956 35.8179V37.1781C69.7956 37.4277 69.5933 37.6299 69.3438 37.6299C69.0943 37.6299 68.8921 37.4277 68.8921 37.1781V36.9613C68.8921 36.5921 68.5927 36.2928 68.2235 36.2928H66.7728C66.2205 36.2928 65.7728 35.845 65.7728 35.2928V33.0676C65.7728 32.7899 65.9979 32.5647 66.2757 32.5647C66.5534 32.5647 66.7786 32.7899 66.7786 33.0676V34.7937C66.7786 35.1998 67.1078 35.529 67.5139 35.529C67.92 35.529 68.2492 35.1998 68.2492 34.7937V33.0692C68.2492 32.7906 68.475 32.5647 68.7536 32.5647C69.0322 32.5647 69.2581 32.7906 69.2581 33.0692V35.2804ZM70.5708 32.5647C70.8395 32.5647 71.0572 32.7825 71.0572 33.0512V34.0385C71.0572 34.3377 71.4418 34.4716 71.605 34.2209L72.4783 32.879C72.6058 32.683 72.8238 32.5647 73.0577 32.5647H73.1083C73.5416 32.5647 73.8929 32.916 73.8929 33.3494V35.8063C73.8929 36.075 73.6751 36.2928 73.4065 36.2928C73.1379 36.2928 72.9201 36.075 72.9201 35.8063V34.8055C72.9201 34.5155 72.5323 34.3833 72.3743 34.6265L71.492 35.9839C71.3668 36.1765 71.1527 36.2928 70.9229 36.2928H70.8667C70.4347 36.2928 70.0844 35.9425 70.0844 35.5105V33.0512C70.0844 32.7825 70.3022 32.5647 70.5708 32.5647ZM75.1165 32.5647C75.3942 32.5647 75.6193 32.7899 75.6193 33.0676V33.2962C75.6193 33.6841 75.9338 33.9985 76.3216 33.9985C76.7095 33.9985 77.024 33.6841 77.024 33.2962V33.0677C77.024 32.7899 77.2491 32.5647 77.5269 32.5647C77.8046 32.5647 78.0298 32.7899 78.0298 33.0677V35.7898C78.0298 36.0676 77.8046 36.2928 77.5269 36.2928C77.2491 36.2928 77.024 36.0676 77.024 35.7898V35.4579C77.024 35.07 76.7095 34.7556 76.3216 34.7556C75.9338 34.7556 75.6193 35.07 75.6193 35.4579V35.7899C75.6193 36.0676 75.3942 36.2928 75.1165 36.2928C74.8388 36.2928 74.6137 36.0676 74.6137 35.7899V33.0676C74.6137 32.7899 74.8388 32.5647 75.1165 32.5647ZM80.2441 36.3595C79.0967 36.3595 78.5229 35.7226 78.5229 34.4487C78.5229 33.8151 78.679 33.3316 78.9912 32.9981C79.3034 32.6625 79.7508 32.4947 80.3333 32.4947C80.6128 32.4947 80.8735 32.531 81.1152 32.6036C81.3293 32.6678 81.4207 32.907 81.3419 33.1161C81.2554 33.3457 80.9974 33.4551 80.7625 33.3843C80.7557 33.3822 80.7489 33.3802 80.7421 33.3782C80.6059 33.3361 80.4695 33.315 80.3333 33.315C79.81 33.315 79.5484 33.6906 79.5484 34.442C79.5484 35.1712 79.81 35.5359 80.3333 35.5359C80.5266 35.5359 80.7058 35.5103 80.8706 35.4592C81.0954 35.3863 81.3653 35.5307 81.3653 35.767V35.8868C81.3653 36.0088 81.3045 36.1251 81.1954 36.1797C81.0881 36.2334 80.9798 36.2732 80.8706 36.2994C80.7058 36.3394 80.4971 36.3595 80.2441 36.3595ZM84.1738 32.7291C84.2546 32.6254 84.3788 32.5647 84.5103 32.5647C84.87 32.5647 85.0682 32.9827 84.8406 33.2613L84.3574 33.8525C84.1199 34.1431 84.1202 34.5608 84.358 34.8512L84.9499 35.5741C85.1851 35.8613 84.9808 36.2928 84.6095 36.2928C84.4756 36.2928 84.349 36.2317 84.2655 36.127L83.7638 35.4975C83.4749 35.135 82.8907 35.3393 82.8907 35.8028C82.8907 36.0734 82.6714 36.2928 82.4008 36.2928H82.3878C82.1101 36.2928 81.8849 36.0676 81.8849 35.7898V33.0677C81.8849 32.7899 82.1101 32.5647 82.3878 32.5647H82.4276C82.6834 32.5647 82.8907 32.7721 82.8907 33.0278C82.8907 33.4685 83.4481 33.6601 83.7191 33.3125L84.1738 32.7291ZM86.4636 34.4221C86.4636 34.7911 86.523 35.0701 86.6417 35.259C86.7627 35.4481 86.9583 35.5425 87.2286 35.5425C87.4968 35.5425 87.6892 35.449 87.8057 35.2623C87.9244 35.0734 87.9838 34.7932 87.9838 34.4221C87.9838 34.0529 87.9244 33.7763 87.8057 33.5917C87.687 33.4073 87.4924 33.315 87.222 33.315C86.9539 33.315 86.7603 33.4073 86.6417 33.5917C86.523 33.7739 86.4636 34.0508 86.4636 34.4221ZM89.0125 34.4221C89.0125 35.0289 88.8541 35.5035 88.5377 35.8459C88.2211 36.1884 87.7804 36.3595 87.2155 36.3595C86.8614 36.3595 86.5495 36.2816 86.279 36.1261C86.0086 35.9683 85.8008 35.7425 85.6558 35.449C85.5107 35.1556 85.4381 34.8133 85.4381 34.4221C85.4381 33.8129 85.5954 33.3394 85.9097 33.0014C86.224 32.6637 86.6658 32.4947 87.2352 32.4947C87.5892 32.4947 87.9012 32.5724 88.1717 32.7281C88.442 32.8836 88.6498 33.1072 88.7949 33.3983C88.94 33.6896 89.0125 34.0307 89.0125 34.4221ZM91.0324 33.2182C90.8192 33.2182 90.6522 33.2871 90.5312 33.425C90.3056 33.6783 90.6118 34.0051 90.951 34.0051H91.109C91.4528 34.0051 91.7735 33.6776 91.5403 33.425C91.4149 33.2871 91.2457 33.2182 91.0324 33.2182ZM91.1743 36.3595C90.5808 36.3595 90.1169 36.1938 89.7828 35.8625C89.4486 35.5314 89.2815 35.0623 89.2815 34.4553C89.2815 33.8307 89.4355 33.3484 89.7432 33.0083C90.0531 32.6658 90.4806 32.4947 91.0259 32.4947C91.5468 32.4947 91.9524 32.6447 92.2426 32.9448C92.5328 33.2449 92.6778 33.6596 92.6778 34.1886C92.6778 34.4612 92.4568 34.6822 92.1842 34.6822H91.0404C90.6364 34.6822 90.2723 35.0697 90.5543 35.3591C90.7126 35.5214 90.9346 35.6024 91.2204 35.6024C91.4425 35.6024 91.6524 35.5792 91.8501 35.5326C91.8801 35.5255 91.9102 35.5178 91.9406 35.5094C92.1943 35.4396 92.4701 35.6127 92.4701 35.8758C92.4701 36.0109 92.3948 36.1368 92.2689 36.1856C92.1528 36.2305 92.0319 36.2663 91.9063 36.2928C91.7062 36.3372 91.4621 36.3595 91.1743 36.3595ZM96.6472 34.4221C96.6472 34.7911 96.7065 35.0701 96.8251 35.259C96.9461 35.4481 97.1417 35.5425 97.4121 35.5425C97.6802 35.5425 97.8726 35.449 97.9891 35.2623C98.1078 35.0734 98.1672 34.7932 98.1672 34.4221C98.1672 34.0529 98.1078 33.7763 97.9891 33.5917C97.8705 33.4073 97.676 33.315 97.4055 33.315C97.1373 33.315 96.944 33.4073 96.8251 33.5917C96.7065 33.7739 96.6472 34.0508 96.6472 34.4221ZM99.196 34.4221C99.196 35.0289 99.0378 35.5035 98.7212 35.8459C98.4045 36.1884 97.9639 36.3595 97.3989 36.3595C97.0451 36.3595 96.7329 36.2816 96.4624 36.1261C96.1921 35.9683 95.9843 35.7425 95.8392 35.449C95.6943 35.1556 95.6217 34.8133 95.6217 34.4221C95.6217 33.8129 95.7788 33.3394 96.0931 33.0014C96.4076 32.6637 96.8494 32.4947 97.4188 32.4947C97.7727 32.4947 98.0848 32.5724 98.3552 32.7281C98.6255 32.8836 98.8333 33.1072 98.9783 33.3983C99.1234 33.6896 99.196 34.0307 99.196 34.4221ZM99.4649 34.0586C99.4649 33.2026 99.6255 32.5536 99.9465 32.1111C100.27 31.6666 100.773 31.3852 101.457 31.2676C101.696 31.2252 101.937 31.1909 102.179 31.1642C102.284 31.1517 102.391 31.1386 102.501 31.1249C102.745 31.0943 102.969 31.2661 103.001 31.5105C103.033 31.7565 102.857 31.9809 102.611 32.0102C102.267 32.0512 101.99 32.0859 101.78 32.1144C101.487 32.1546 101.272 32.1989 101.133 32.2479C100.995 32.2945 100.881 32.3624 100.791 32.4512C100.703 32.5402 100.635 32.658 100.586 32.8047C100.54 32.9428 100.509 33.1252 100.493 33.3523C100.491 33.37 100.505 33.385 100.523 33.385C100.534 33.385 100.543 33.3797 100.549 33.3709C100.665 33.1954 100.815 33.0602 101.002 32.9647C101.193 32.867 101.398 32.818 101.618 32.818C102.073 32.818 102.427 32.9593 102.68 33.2416C102.933 33.5216 103.059 33.9242 103.059 34.4487C103.059 35.0533 102.899 35.5236 102.578 35.8592C102.259 36.1927 101.818 36.3595 101.255 36.3595C100.693 36.3595 100.253 36.156 99.9365 35.7491C99.6222 35.3402 99.4649 34.7767 99.4649 34.0586ZM101.315 35.5359C101.792 35.5359 102.03 35.2034 102.03 34.5388C102.03 33.8918 101.815 33.5685 101.384 33.5685C101.265 33.5685 101.147 33.5962 101.028 33.6518C100.911 33.7074 100.804 33.7808 100.705 33.8719C100.677 33.897 100.652 33.9222 100.629 33.9475C100.522 34.0633 100.488 34.2242 100.498 34.3813C100.519 34.7174 100.588 34.9833 100.705 35.179C100.848 35.4169 101.051 35.5359 101.315 35.5359ZM104.487 32.5647C104.885 32.5647 105.208 32.8929 105.208 33.2907C105.208 33.6822 105.525 34.0051 105.917 34.0051C106.484 34.0051 106.902 34.0963 107.173 34.2787C107.445 34.4609 107.582 34.7367 107.582 35.1056C107.582 35.897 107.04 36.2928 105.956 36.2928H105.199C104.646 36.2928 104.199 35.845 104.199 35.2928V33.9152C104.199 33.591 103.936 33.3283 103.612 33.3283H103.407C103.196 33.3283 103.025 33.1573 103.025 32.9465C103.025 32.7357 103.196 32.5647 103.407 32.5647H104.487ZM106.576 35.1189C106.576 34.9745 106.519 34.8699 106.405 34.8055C106.293 34.7411 106.122 34.7088 105.894 34.7088H105.648C105.405 34.7088 105.208 34.9058 105.208 35.1489C105.208 35.3921 105.405 35.5891 105.648 35.5891H105.907C106.353 35.5891 106.576 35.4325 106.576 35.1189ZM109.536 33.2182C109.322 33.2182 109.155 33.2871 109.035 33.425C108.809 33.6782 109.115 34.0051 109.454 34.0051H109.612C109.956 34.0051 110.277 33.6775 110.044 33.425C109.918 33.2871 109.749 33.2182 109.536 33.2182ZM109.678 36.3595C109.084 36.3595 108.62 36.1938 108.286 35.8625C107.952 35.5314 107.785 35.0623 107.785 34.4553C107.785 33.8307 107.939 33.3484 108.246 33.0083C108.557 32.6658 108.984 32.4947 109.529 32.4947C110.05 32.4947 110.456 32.6447 110.746 32.9448C111.036 33.2449 111.181 33.6596 111.181 34.1886C111.181 34.4612 110.96 34.6822 110.687 34.6822H109.544C109.14 34.6822 108.776 35.0697 109.058 35.3591C109.216 35.5214 109.438 35.6024 109.724 35.6024C109.946 35.6024 110.156 35.5792 110.354 35.5326C110.383 35.5255 110.414 35.5178 110.444 35.5094C110.698 35.4396 110.973 35.6127 110.973 35.8758C110.973 36.0109 110.898 36.1368 110.772 36.1856C110.656 36.2305 110.535 36.2663 110.41 36.2928C110.209 36.3372 109.966 36.3595 109.678 36.3595ZM113.449 35.5491C113.736 35.5491 113.969 35.3162 113.969 35.0289V33.7307C113.969 33.5085 113.789 33.3283 113.567 33.3283C113.365 33.3283 113.195 33.4778 113.162 33.6769C113.114 33.9638 113.056 34.24 112.987 34.5054C112.965 34.5903 112.942 34.674 112.916 34.7564C112.801 35.1295 113.058 35.5491 113.449 35.5491ZM115.516 37.1782C115.516 37.4277 115.313 37.6299 115.064 37.6299C114.815 37.6299 114.612 37.4277 114.612 37.1782V36.9613C114.612 36.5921 114.313 36.2928 113.944 36.2928H112.801C112.432 36.2928 112.133 36.5921 112.133 36.9613V37.1782C112.133 37.4277 111.93 37.6299 111.681 37.6299C111.432 37.6299 111.229 37.4277 111.229 37.1782V35.7492C111.229 35.6387 111.319 35.5491 111.429 35.5491C111.498 35.5491 111.562 35.5145 111.597 35.4556C111.783 35.1402 111.94 34.7535 112.07 34.2953C112.143 34.0397 112.204 33.7655 112.254 33.4727C112.342 32.962 112.768 32.5647 113.286 32.5647H113.975C114.527 32.5647 114.975 33.0125 114.975 33.5647V35.2788C114.975 35.4281 115.096 35.5491 115.245 35.5491C115.395 35.5491 115.516 35.6702 115.516 35.8195V37.1782ZM116.294 32.5647C116.563 32.5647 116.781 32.7825 116.781 33.0511V34.0385C116.781 34.3377 117.165 34.4716 117.328 34.2209L118.202 32.879C118.329 32.683 118.547 32.5647 118.781 32.5647H118.832C119.265 32.5647 119.616 32.916 119.616 33.3494V35.8064C119.616 36.075 119.399 36.2928 119.13 36.2928C118.861 36.2928 118.644 36.075 118.644 35.8064V34.8055C118.644 34.5155 118.256 34.3832 118.098 34.6264L117.215 35.9839C117.09 36.1765 116.876 36.2928 116.646 36.2928H116.59C116.158 36.2928 115.808 35.9426 115.808 35.5106V33.0511C115.808 32.7825 116.026 32.5647 116.294 32.5647ZM120.84 32.5647C121.118 32.5647 121.343 32.7899 121.343 33.0677V33.2962C121.343 33.6841 121.657 33.9985 122.045 33.9985C122.433 33.9985 122.748 33.6841 122.748 33.2962V33.0676C122.748 32.7899 122.973 32.5647 123.25 32.5647C123.528 32.5647 123.753 32.7899 123.753 33.0676V35.7899C123.753 36.0676 123.528 36.2928 123.25 36.2928C122.973 36.2928 122.748 36.0676 122.748 35.7899V35.4579C122.748 35.07 122.433 34.7556 122.045 34.7556C121.657 34.7556 121.343 35.07 121.343 35.4579V35.7898C121.343 36.0676 121.118 36.2928 120.84 36.2928C120.562 36.2928 120.337 36.0676 120.337 35.7898V33.0677C120.337 32.7899 120.562 32.5647 120.84 32.5647ZM125.997 33.2182C125.784 33.2182 125.617 33.2871 125.496 33.425C125.27 33.6782 125.577 34.0051 125.916 34.0051H126.074C126.418 34.0051 126.739 33.6775 126.505 33.425C126.38 33.2871 126.211 33.2182 125.997 33.2182ZM126.139 36.3595C125.546 36.3595 125.082 36.1938 124.748 35.8625C124.414 35.5314 124.246 35.0623 124.246 34.4553C124.246 33.8307 124.4 33.3484 124.708 33.0083C125.018 32.6658 125.446 32.4947 125.991 32.4947C126.512 32.4947 126.917 32.6447 127.208 32.9448C127.498 33.2449 127.643 33.6596 127.643 34.1886C127.643 34.4612 127.422 34.6822 127.149 34.6822H126.005C125.601 34.6822 125.237 35.0699 125.519 35.3591C125.678 35.5214 125.9 35.6024 126.185 35.6024C126.407 35.6024 126.617 35.5792 126.815 35.5326C126.845 35.5255 126.875 35.5177 126.906 35.5094C127.159 35.4395 127.435 35.6126 127.435 35.8756C127.435 36.0108 127.36 36.1368 127.234 36.1856C127.118 36.2305 126.997 36.2663 126.871 36.2928C126.671 36.3372 126.427 36.3595 126.139 36.3595ZM128.626 32.5647C128.903 32.5647 129.129 32.7899 129.129 33.0676V33.2962C129.129 33.6841 129.443 33.9985 129.831 33.9985C130.219 33.9985 130.533 33.6841 130.533 33.2962V33.0677C130.533 32.7899 130.758 32.5647 131.036 32.5647C131.314 32.5647 131.539 32.7899 131.539 33.0677V35.7898C131.539 36.0676 131.314 36.2928 131.036 36.2928C130.758 36.2928 130.533 36.0676 130.533 35.7898V35.4579C130.533 35.07 130.219 34.7556 129.831 34.7556C129.443 34.7556 129.129 35.07 129.129 35.4579V35.7899C129.129 36.0676 128.903 36.2928 128.626 36.2928C128.348 36.2928 128.123 36.0676 128.123 35.7899V33.0676C128.123 32.7899 128.348 32.5647 128.626 32.5647ZM132.743 32.5647C133.011 32.5647 133.229 32.7825 133.229 33.0511V34.0385C133.229 34.3377 133.614 34.4716 133.777 34.2209L134.65 32.879C134.778 32.683 134.996 32.5647 135.229 32.5647H135.28C135.713 32.5647 136.065 32.916 136.065 33.3494V35.8064C136.065 36.075 135.847 36.2928 135.578 36.2928C135.31 36.2928 135.092 36.075 135.092 35.8064V34.8055C135.092 34.5155 134.704 34.3832 134.546 34.6264L133.664 35.9839C133.539 36.1765 133.324 36.2928 133.095 36.2928H133.039C132.607 36.2928 132.256 35.9426 132.256 35.5106V33.0511C132.256 32.7825 132.474 32.5647 132.743 32.5647ZM138.312 33.2182C138.099 33.2182 137.932 33.2871 137.811 33.425C137.585 33.6781 137.892 34.0051 138.231 34.0051H138.389C138.733 34.0051 139.053 33.6776 138.82 33.425C138.695 33.2871 138.526 33.2182 138.312 33.2182ZM138.454 36.3595C137.86 36.3595 137.397 36.1938 137.063 35.8625C136.728 35.5314 136.561 35.0623 136.561 34.4553C136.561 33.8307 136.715 33.3484 137.023 33.0083C137.333 32.6658 137.76 32.4947 138.306 32.4947C138.827 32.4947 139.232 32.6447 139.522 32.9448C139.813 33.2449 139.958 33.6596 139.958 34.1886C139.958 34.4612 139.737 34.6822 139.464 34.6822H138.32C137.916 34.6822 137.552 35.0699 137.834 35.3591C137.992 35.5214 138.214 35.6024 138.5 35.6024C138.722 35.6024 138.932 35.5792 139.13 35.5326C139.16 35.5255 139.19 35.5177 139.221 35.5093C139.474 35.4395 139.75 35.6126 139.75 35.8756C139.75 36.0108 139.675 36.1368 139.549 36.1856C139.432 36.2305 139.312 36.2663 139.186 36.2928C138.986 36.3372 138.742 36.3595 138.454 36.3595Z" fill="black"/>
<defs>
<radialGradient id="paint0_radial" cx="0" cy="0" r="1" gradientUnits="userSpaceOnUse" gradientTransform="translate(19.5889 19.9229) rotate(90) scale(19.9118 19.6856)">
<stop stop-color="#448EBD"/>
<stop offset="1" stop-color="#59BCBA"/>
</radialGradient>
</defs>
</svg>
