<svg width="124" height="54" viewBox="0 0 124 54" fill="none" xmlns="http://www.w3.org/2000/svg">
<g clip-path="url(#clip0)">
<path d="M62.7683 14.5236V13.5626C61.9519 14.376 61.2114 14.6403 59.8612 14.6403C58.4696 14.6403 57.6498 14.376 57.0161 13.7205C56.5235 13.2331 56.2617 12.4814 56.2617 11.6817C56.2617 9.92789 57.4879 8.78496 59.7406 8.78496H62.7683V7.82738C62.7683 6.35497 62.0312 5.62391 60.1884 5.62391C58.9002 5.62391 58.2457 5.92937 57.6533 6.76683L56.6475 5.847C57.5499 4.68348 58.5729 4.35742 60.2091 4.35742C62.9095 4.35742 64.2391 5.52094 64.2391 7.70725V14.5202H62.7683V14.5236ZM62.7683 9.89014H59.9438C58.4317 9.89014 57.6946 10.5011 57.6946 11.6646C57.6946 12.8281 58.4076 13.3773 60.0024 13.3773C60.8635 13.3773 61.6213 13.3189 62.2551 12.7045C62.6029 12.3785 62.7648 11.8053 62.7648 10.9713V9.89014H62.7683Z" fill="#775BA7"/>
<path d="M70.6526 14.5256C68.9339 14.5256 68.0693 13.3209 68.0693 11.8313V5.67053H66.8018V4.5482H68.0693V1.4043H69.5435V4.5482H71.6963V5.67053H69.5435V11.7901C69.5435 12.71 69.9741 13.2591 70.9144 13.2591H71.6963V14.5256H70.6526Z" fill="#775BA7"/>
<path d="M77.1383 14.5251C75.3782 14.5251 74.5791 13.3822 74.5791 11.8514V0H76.0568V11.7896C76.0568 12.7678 76.384 13.2586 77.407 13.2586H78.2061V14.5251H77.1383Z" fill="#775BA7"/>
<path d="M86.4113 14.5236V13.5626C85.595 14.376 84.8579 14.6403 83.5042 14.6403C82.1127 14.6403 81.2929 14.376 80.6591 13.7205C80.1666 13.2331 79.9014 12.4814 79.9014 11.6817C79.9014 9.92789 81.1276 8.78496 83.3802 8.78496H86.4113V7.82738C86.4113 6.35497 85.6742 5.62391 83.8349 5.62391C82.5467 5.62391 81.8888 5.92937 81.2964 6.76683L80.294 5.847C81.1965 4.68348 82.2195 4.35742 83.8521 4.35742C86.5526 4.35742 87.8856 5.52094 87.8856 7.70725V14.5202H86.4113V14.5236ZM86.4113 9.89014H83.5869C82.0748 9.89014 81.3377 10.5011 81.3377 11.6646C81.3377 12.8281 82.0507 13.3773 83.6524 13.3773C84.51 13.3773 85.2678 13.3189 85.9016 12.7045C86.2495 12.3785 86.4113 11.8053 86.4113 10.9713V9.89014Z" fill="#775BA7"/>
<path d="M94.6402 14.6462C92.9421 14.6462 91.6125 14.2583 90.5068 13.1978L91.4885 12.2196C92.2876 13.0571 93.3692 13.3797 94.623 13.3797C96.2797 13.3797 97.3027 12.7893 97.3027 11.6052C97.3027 10.73 96.7895 10.2392 95.6218 10.1362L93.9651 9.99209C92.0052 9.83078 90.9581 8.95214 90.9581 7.29781C90.9581 5.46502 92.5115 4.36328 94.6643 4.36328C96.0972 4.36328 97.3854 4.71336 98.2878 5.44442L97.3268 6.40201C96.6069 5.85286 95.6873 5.60917 94.6436 5.60917C93.1728 5.60917 92.3944 6.24413 92.3944 7.26006C92.3944 8.11811 92.8904 8.62951 94.1545 8.72905L95.7734 8.8732C97.5335 9.03794 98.7391 9.70722 98.7391 11.5881C98.7322 13.5238 97.0754 14.6462 94.6402 14.6462Z" fill="#775BA7"/>
<path d="M63.8328 32.0263C63.2989 32.5549 62.3999 32.905 61.3769 32.905C60.2713 32.905 59.3516 32.6373 58.5318 31.5767V32.778H57.0576V18.2598H58.5318V23.9092C59.3516 22.8658 60.2713 22.6221 61.3769 22.6221C62.3999 22.6221 63.2989 22.9687 63.8328 23.4973C64.8558 24.5201 65.0625 26.1916 65.0625 27.7635C65.0625 29.3321 64.8558 31.007 63.8328 32.0263ZM61.0704 23.9263C58.8797 23.9263 58.5318 25.8003 58.5318 27.7601C58.5318 29.7165 58.8797 31.5939 61.0704 31.5939C63.2611 31.5939 63.5848 29.7165 63.5848 27.7601C63.5848 25.8038 63.2611 23.9263 61.0704 23.9263Z" fill="#775BA7"/>
<path d="M68.1318 19.8848V18.2305H69.7852V19.8848H68.1318ZM68.2145 32.7727V22.7404H69.6887V32.7727H68.2145Z" fill="#775BA7"/>
<path d="M79.8634 31.7576C79.1676 32.4509 78.2066 32.9006 76.9769 32.9006C75.7473 32.9006 74.7863 32.4509 74.0905 31.7576C73.0675 30.7142 72.8643 29.3071 72.8643 27.7591C72.8643 26.2078 73.0709 24.8006 74.0905 23.7572C74.7863 23.0673 75.7473 22.6143 76.9769 22.6143C78.2066 22.6143 79.1676 23.0639 79.8634 23.7572C80.8864 24.8006 81.0896 26.2043 81.0896 27.7591C81.0896 29.3105 80.8829 30.7177 79.8634 31.7576ZM78.8197 24.6564C78.3478 24.1896 77.6899 23.9254 76.9769 23.9254C76.2605 23.9254 75.6233 24.1896 75.1548 24.6564C74.4177 25.3943 74.3385 26.6368 74.3385 27.7591C74.3385 28.8815 74.4177 30.1239 75.1548 30.8584C75.6267 31.3286 76.2605 31.5929 76.9769 31.5929C77.6899 31.5929 78.3478 31.3286 78.8197 30.8584C79.5568 30.1239 79.6154 28.878 79.6154 27.7591C79.6154 26.6368 79.5568 25.3943 78.8197 24.6564Z" fill="#775BA7"/>
<path d="M97.1751 32.7741V26.5995C97.1751 24.8251 96.2175 23.9258 94.6985 23.9258C93.2243 23.9258 92.1841 24.8457 92.1841 26.4313V32.7741H90.7099V26.5995C90.7099 24.8251 89.7489 23.9258 88.2333 23.9258C86.7178 23.9258 85.7154 24.8457 85.7154 26.5995V32.7741H84.2412V22.7417H85.7154V23.84C86.4319 23.0266 87.4342 22.6182 88.5605 22.6182C89.9487 22.6182 91.0371 23.1879 91.6502 24.2897C92.4321 23.1879 93.555 22.6182 94.9638 22.6182C96.0488 22.6182 96.9512 22.9648 97.5678 23.5552C98.2842 24.2519 98.6528 25.1889 98.6528 26.349V32.7741H97.1751Z" fill="#775BA7"/>
<path d="M103.154 28.144C103.154 30.3509 104.201 31.6105 106.12 31.6105C107.288 31.6105 107.963 31.2673 108.762 30.4745L109.768 31.3497C108.745 32.3691 107.804 32.901 106.086 32.901C103.426 32.901 101.684 31.3051 101.684 27.7596C101.684 24.5162 103.261 22.6182 105.817 22.6182C108.417 22.6182 109.95 24.4956 109.95 27.4747V28.144H103.154ZM108.169 25.3742C107.78 24.4544 106.881 23.8641 105.813 23.8641C104.749 23.8641 103.847 24.4544 103.461 25.3742C103.237 25.9234 103.192 26.2323 103.151 27.0457H108.473C108.438 26.2323 108.397 25.9234 108.169 25.3742Z" fill="#775BA7"/>
<path d="M119.103 32.7751V31.5738C118.283 32.6343 117.342 32.9021 116.237 32.9021C115.214 32.9021 114.311 32.552 113.777 32.0234C112.758 31.004 112.555 29.3291 112.555 27.7606C112.555 26.1887 112.761 24.5172 113.777 23.4944C114.311 22.9658 115.214 22.6192 116.237 22.6192C117.342 22.6192 118.266 22.8629 119.082 23.9062V18.2568H120.556V32.7751H119.103ZM116.564 23.9268C114.373 23.9268 114.029 25.8008 114.029 27.7606C114.029 29.717 114.377 31.5944 116.564 31.5944C118.751 31.5944 119.082 29.717 119.082 27.7606C119.082 25.8043 118.755 23.9268 116.564 23.9268Z" fill="#775BA7"/>
<path d="M60.2921 54.2126C58.7766 54.2126 57.9361 53.8282 56.8718 52.8672L57.8328 51.9302C58.5699 52.5823 59.0797 52.929 60.2508 52.929C62.1935 52.929 63.0132 51.5629 63.0132 49.8503V48.2818C62.1935 49.3217 61.2738 49.586 60.1888 49.586C59.1658 49.586 58.2875 49.2222 57.7536 48.6902C56.7512 47.6914 56.5273 46.1401 56.5273 44.5063C56.5273 42.8726 56.7512 41.3247 57.7536 40.3225C58.2875 39.7939 59.1899 39.4473 60.2095 39.4473C61.3151 39.4473 62.2176 39.691 63.0339 40.7515V39.5708H64.484V49.9086C64.4875 52.397 62.9306 54.2126 60.2921 54.2126ZM60.5195 40.7549C58.3288 40.7549 58.0016 42.6324 58.0016 44.5098C58.0016 46.3837 58.3288 48.2646 60.5195 48.2646C62.7067 48.2646 63.0167 46.3837 63.0167 44.5098C63.0132 42.6289 62.7067 40.7549 60.5195 40.7549Z" fill="#775BA7"/>
<path d="M73.8045 41.489C73.25 40.9364 72.8401 40.751 72.0616 40.751C70.5874 40.751 69.6505 41.9145 69.6505 43.4419V49.6061H68.1729V39.5704H69.6505V40.7888C70.2016 39.9548 71.3039 39.4434 72.4715 39.4434C73.4325 39.4434 74.1696 39.6665 74.8861 40.3804L73.8045 41.489Z" fill="#775BA7"/>
<path d="M82.5636 48.5867C81.8678 49.28 80.9068 49.7296 79.6771 49.7296C78.4475 49.7296 77.4865 49.28 76.7907 48.5867C75.7642 47.5468 75.5645 46.1396 75.5645 44.5882C75.5645 43.0403 75.7677 41.6331 76.7907 40.5931C77.4865 39.8998 78.4475 39.4502 79.6771 39.4502C80.9068 39.4502 81.8678 39.8998 82.5636 40.5931C83.5866 41.6331 83.7898 43.0403 83.7898 44.5882C83.7898 46.1396 83.5866 47.5468 82.5636 48.5867ZM81.5164 41.4889C81.0446 41.0187 80.3936 40.751 79.6771 40.751C78.9607 40.751 78.3235 41.0187 77.855 41.4889C77.1179 42.2234 77.0387 43.4624 77.0387 44.5848C77.0387 45.7071 77.1179 46.953 77.855 47.6875C78.3269 48.1543 78.9607 48.4185 79.6771 48.4185C80.3936 48.4185 81.0446 48.1543 81.5164 47.6875C82.2536 46.953 82.3156 45.7071 82.3156 44.5848C82.3156 43.4624 82.2536 42.2234 81.5164 41.4889Z" fill="#775BA7"/>
<path d="M93.31 49.6095V48.4837C92.5936 49.3006 91.5878 49.7296 90.4649 49.7296C89.3799 49.7296 88.4809 49.4035 87.8678 48.7926C87.1479 48.0993 86.8379 47.1417 86.8379 45.9782V39.5771H88.3156V45.7585C88.3156 47.5296 89.2559 48.4254 90.7715 48.4254C92.287 48.4254 93.2893 47.509 93.2893 45.7585V39.5771H94.7636V49.6129H93.31V49.6095Z" fill="#775BA7"/>
<path d="M105.221 48.8476C104.694 49.3796 103.791 49.7296 102.768 49.7296C101.666 49.7296 100.739 49.4654 99.9195 48.422V54.092H98.4453V39.5738H99.9195V40.7544C100.739 39.6939 101.666 39.4502 102.768 39.4502C103.791 39.4502 104.694 39.7968 105.221 40.3254C106.247 41.3448 106.45 43.0197 106.45 44.5882C106.45 46.1602 106.247 47.8316 105.221 48.8476ZM102.458 40.7544C100.267 40.7544 99.9195 42.6318 99.9195 44.5882C99.9195 46.5446 100.271 48.422 102.458 48.422C104.645 48.422 104.976 46.5446 104.976 44.5882C104.976 42.6318 104.649 40.7544 102.458 40.7544Z" fill="#775BA7"/>
<path d="M48.1424 4.36719H39.2041V13.2738H48.1424V4.36719Z" fill="#775BA7"/>
<path d="M3.44434 4.36719V13.2738V22.1803V31.0903H12.3827V22.1803V13.2738H21.3244V4.36719H3.44434Z" fill="#775BA7"/>
<path d="M21.3244 31.0908H12.3827V39.9974H3.44434V48.9074H12.3827H21.3244V39.9974H30.2628V31.0908H21.3244Z" fill="#775BA7"/>
<path d="M39.2043 22.18V13.2734H30.2626H21.3242V22.18H30.2626V31.09H39.2043V39.9966H30.2626V48.9066H39.2043H48.1427V39.9966V31.09V22.18H39.2043Z" fill="#775BA7"/>
</g>
<defs>
<clipPath id="clip0">
<rect width="124" height="54" fill="white"/>
</clipPath>
</defs>
</svg>
