<svg width="53" height="55" viewBox="0 0 53 55" fill="none" xmlns="http://www.w3.org/2000/svg">
<g clip-path="url(#clip0)">
<path d="M16.715 0.410645H1.22266V20.933H16.715V0.410645Z" stroke="#314A96"/>
<path d="M33.838 0.410645H18.3457V20.933H33.838V0.410645Z" stroke="#314A96"/>
<path d="M50.9611 0.410645H35.4688V20.933H50.9611V0.410645Z" stroke="#314A96"/>
<path d="M16.715 34.0674H1.22266V54.5898H16.715V34.0674Z" stroke="#314A96"/>
<path d="M33.838 34.0674H18.3457V54.5898H33.838V34.0674Z" stroke="#314A96"/>
<path d="M50.9611 34.0674H35.4688V54.5898H50.9611V34.0674Z" stroke="#314A96"/>
<path d="M4.96288 30.1146H6.26587L8.19262 25.9978L8.81639 24.5186V32.8359H10.1194V23.0672H8.28965L5.6421 28.7191L2.96682 23.0672H1.10938V32.8359H2.41236V24.5325L3.02227 25.9978L4.96288 30.1146ZM16.1571 32.8359H17.46V23.0672H16.1571V27.2119H11.1392V23.0672H9.83619V32.8359H11.1392V28.4121H16.1571V32.8359ZM23.5031 32.8359H24.8061V23.0672H23.0318L19.206 29.9053L18.4852 31.3427V23.0672H17.1822V32.8359H18.9565L22.7823 25.9978L23.5031 24.5604V32.8359ZM30.8492 32.8359H32.1522V23.0672H30.3779L26.5521 29.9053L25.8313 31.3427V23.0672H24.5284V32.8359H26.3026L30.1284 25.9978L30.8492 24.5604V32.8359ZM31.0427 24.2674H34.1338V32.8359H35.4368V24.2674H38.5279V23.0672H31.0427V24.2674ZM39.0137 28.4818H42.9226C42.8533 30.6449 41.7583 31.6915 40.1919 31.6915C38.9028 31.6915 38.0711 30.8542 37.7939 29.6959H36.38C36.6572 31.5241 38.0711 32.9475 40.1919 32.9475C42.5761 32.9475 44.2811 31.231 44.2811 28.2865V27.4771C44.2811 24.6721 42.5761 22.9556 40.1919 22.9556C38.0572 22.9556 36.6572 24.365 36.38 25.928H37.7939C38.0711 25.0488 38.8889 24.2115 40.1919 24.2115C41.7583 24.2115 42.8533 25.2582 42.9226 27.2817H39.0137V28.4818ZM49.8384 32.8359H51.1414V23.0672H43.6561V32.8359H44.9591V24.2674H49.8384V32.8359Z" fill="#314A96"/>
</g>
<defs>
<clipPath id="clip0">
<rect width="53" height="55" fill="white"/>
</clipPath>
</defs>
</svg>
