<svg width="155" height="63" viewBox="0 0 155 63" fill="none" xmlns="http://www.w3.org/2000/svg">
<path d="M0 0H155V63H0V0Z" fill="white"/>
<path d="M20.7491 14.9654H8.87688C4.06523 14.9654 0.15332 18.88 0.15332 23.6909V35.5687C0.15332 40.3791 4.06523 44.2939 8.87688 44.2939H20.7491C25.5566 44.2939 29.47 40.3791 29.47 35.5687V23.6909C29.47 18.88 25.5566 14.9654 20.7491 14.9654Z" fill="#DD1731"/>
<path d="M16.0002 35.0214C15.2709 36.0902 14.3186 36.6539 13.2448 36.6539C11.9948 36.6539 11.0494 36.0934 10.3529 34.9354C9.62334 33.7228 9.25284 31.9054 9.25284 29.533C9.25284 27.3578 9.64508 25.6292 10.4176 24.3949C11.1436 23.2357 12.0527 22.6951 13.2794 22.6951C14.3711 22.6951 15.2235 23.1489 15.9649 24.1269C16.7593 25.1763 17.43 26.9096 17.9111 29.1377C17.3077 32.151 16.7171 33.9723 16.0002 35.0214ZM24.0674 33.234L24.0571 33.3647C24.0151 33.8737 23.6962 34.3884 23.1672 34.3884C22.7626 34.3884 22.4373 34.2386 22.1721 33.931C21.8531 33.5634 21.566 33.1226 21.276 32.3228C22.0985 29.5313 24.6345 20.5907 24.6345 20.5907H19.8214C19.8214 20.5907 19.3767 22.6872 18.9754 24.5946C18.9556 24.5484 18.9351 24.5017 18.9142 24.4582C18.5132 23.6008 17.873 22.6474 17.1608 21.9774C15.9207 20.811 14.463 20.2433 12.7023 20.2433C10.2722 20.2433 8.21649 21.1426 6.5916 22.9163C4.97464 24.6795 4.12109 26.9423 4.12109 29.458C4.12109 32.2606 4.93233 34.5623 6.5313 36.2965C8.20014 38.1085 10.1945 38.9521 12.8076 38.9521C14.3297 38.9521 15.7829 38.4998 17.1299 37.6087C18.0003 37.0341 18.7948 36.2377 19.5447 35.2034C19.8603 36.224 20.1777 36.9219 20.5571 37.4436C21.1719 38.2863 22.0927 38.7701 23.0826 38.7701C24.113 38.7701 25.0518 38.2417 25.5342 37.3923C25.9613 36.6389 26.1355 35.7042 26.1355 34.167V33.234H24.0674Z" fill="white"/>
<path d="M39.0846 23.8554L39.6147 21.4528C39.7009 21.0639 40.0029 20.4706 40.7961 20.4706C41.5888 20.4706 41.8908 21.0639 41.977 21.4528L42.5071 23.8554H39.0846ZM44.1466 21.015C43.8145 19.5164 42.869 18.47 40.7961 18.47C38.8456 18.47 37.7768 19.5164 37.4438 21.015L35.9385 27.7998H37.5478C37.9152 27.7998 38.281 27.5062 38.3586 27.148L38.6632 25.7678H42.9281L43.2331 27.148C43.312 27.5062 43.6765 27.7998 44.0435 27.7998H45.6532L44.1466 21.015Z" fill="#DD1731"/>
<path d="M49.6199 20.7351H53.2102V27.7993H55.4328V18.69H48.73C47.9972 18.69 47.3968 19.2897 47.3968 20.0241V24.6274C47.3968 25.243 47.1126 25.6349 46.62 25.7338L46.1641 25.8424L46.5768 27.7993H47C48.5204 27.7993 49.6199 26.6676 49.6199 24.7419V20.7351Z" fill="#DD1731"/>
<path d="M74.7494 25.7879H73.9402V20.7023H74.7494C76.272 20.7023 76.9906 21.6655 76.9906 23.244C76.9906 24.8247 76.272 25.7879 74.7494 25.7879ZM70.9071 25.7879C69.3859 25.7879 68.666 24.8247 68.666 23.244C68.666 21.6655 69.3859 20.7023 70.9071 20.7023H71.7167V25.7879H70.9071ZM74.7494 18.69H73.9402V17.6316H72.384C72.0169 17.6316 71.7167 17.9297 71.7167 18.2974V18.69H70.9071C68.16 18.69 66.4434 20.5636 66.4434 23.244C66.4434 25.9257 68.16 27.7994 70.9071 27.7994H71.7167V28.9038H73.273C73.6405 28.9038 73.9402 28.6033 73.9402 28.238V27.7994H74.7494C77.4969 27.7994 79.214 25.9257 79.214 23.244C79.214 20.5636 77.4969 18.69 74.7494 18.69Z" fill="#DD1731"/>
<path d="M62.3311 25.7549H59.141V23.0457H62.3311C62.8733 23.0457 63.5061 23.5311 63.5061 24.3995C63.5061 25.2678 62.8733 25.7549 62.3311 25.7549ZM62.3311 20.9997H59.141V18.6906H56.918V27.1327C56.918 27.4996 57.2186 27.7993 57.5852 27.7993H62.3311C64.2691 27.7993 65.7278 26.3393 65.7278 24.3995C65.7278 22.4613 64.5037 20.9997 62.3311 20.9997Z" fill="#DD1731"/>
<path d="M82.4413 23.8554L82.9697 21.4528C83.0573 21.0639 83.3592 20.4706 84.152 20.4706C84.9456 20.4706 85.2463 21.0639 85.3338 21.4528L85.8626 23.8554H82.4413ZM87.5038 21.015C87.1704 19.5164 86.2262 18.47 84.152 18.47C82.2037 18.47 81.1331 19.5164 80.8001 21.015L79.2939 27.7998H80.9045C81.2711 27.7998 81.6373 27.5062 81.715 27.148L82.0199 25.7678H86.2849L86.589 27.148C86.6679 27.5062 87.0332 27.7998 87.3994 27.7998H89.0083L87.5038 21.015Z" fill="#DD1731"/>
<path d="M98.344 38.6922H94.2456V36.8952H98.344C98.6408 36.9314 99.0436 37.2222 99.0436 37.7938C99.0436 38.3596 98.6408 38.6922 98.344 38.6922ZM98.1663 33.3622C98.4613 33.3622 98.8655 33.6945 98.8655 34.2608C98.8655 34.8312 98.4613 35.1221 98.1663 35.1582H94.2456V33.3622H98.1663ZM100.389 35.856C100.781 35.4702 101.033 34.9441 101.033 34.2153C101.033 32.6003 99.7833 31.4722 98.168 31.4722H92.7342C92.3676 31.4722 92.0674 31.771 92.0674 32.1382V39.9151C92.0674 40.2817 92.3676 40.5815 92.7342 40.5815L98.5114 40.5825C100.213 40.5825 101.345 39.3637 101.345 37.7498C101.345 36.9365 100.959 36.3002 100.389 35.856Z" fill="#DD1731"/>
<path d="M83.4383 36.0266C83.4383 34.3931 84.3079 33.1443 85.8395 33.1443H86.3334C87.8646 33.1443 88.7341 34.3931 88.7341 36.0266C88.7341 37.6608 87.8646 38.9106 86.3334 38.9106H85.8395C84.3079 38.9106 83.4383 37.6608 83.4383 36.0266ZM85.7062 31.2621C82.9582 31.2621 81.0371 33.2201 81.0371 36.0266C81.0371 38.832 82.9582 40.7915 85.7062 40.7915H86.4662C89.2155 40.7915 91.1357 38.832 91.1357 36.0266C91.1357 33.2201 89.2155 31.2621 86.4662 31.2621H85.7062Z" fill="#DD1731"/>
<path d="M44.2227 31.4721L44.5164 32.8498C44.5936 33.2175 44.9581 33.5166 45.3251 33.5166H47.3968V40.5815H49.6207V33.5166H51.6277C51.9939 33.5166 52.357 33.2175 52.4347 32.8498L52.7284 31.4721H44.2227Z" fill="#DD1731"/>
<path d="M119.1 31.4721V35.0893H114.775V31.4721H112.552V40.5815H114.775V37.0427H119.1V40.5815H121.323V31.4721H119.1Z" fill="#DD1731"/>
<path d="M65.0329 36.6375L65.5626 34.2345C65.648 33.847 65.9495 33.2527 66.7431 33.2527C67.5368 33.2527 67.8383 33.847 67.9254 34.2362L68.4546 36.6375H65.0329ZM70.0941 33.7981C69.7607 32.2988 68.8178 31.2526 66.7431 31.2526C64.7957 31.2526 63.726 32.2988 63.3939 33.7981L61.8877 40.5815H63.497C63.8645 40.5815 64.2294 40.2893 64.3083 39.9311L64.612 38.5496H68.8765L69.1806 39.9311C69.2582 40.2893 69.6248 40.5815 69.9919 40.5815H71.6012L70.0941 33.7981Z" fill="#DD1731"/>
<path d="M105.001 36.6375L105.531 34.2345C105.619 33.847 105.919 33.2527 106.712 33.2527C107.505 33.2527 107.807 33.847 107.894 34.2362L108.423 36.6375H105.001ZM110.064 33.7981C109.731 32.2988 108.787 31.2526 106.712 31.2526C104.762 31.2526 103.694 32.2988 103.36 33.7981L101.855 40.5815H103.466C103.833 40.5815 104.198 40.2893 104.275 39.9311L104.58 38.5496H108.845L109.15 39.9311C109.229 40.2893 109.594 40.5815 109.959 40.5815H111.571L110.064 33.7981Z" fill="#DD1731"/>
<path d="M44.915 40.5562V40.5825H40.5724C37.943 40.5825 36.1064 38.7097 36.1064 36.0265C36.1064 33.3445 37.943 31.4717 40.5724 31.4717H43.8664L43.5442 32.8675C43.4623 33.2257 43.0944 33.5166 42.7277 33.5166H40.5724C39.1671 33.5166 38.3295 34.5659 38.3295 36.0265C38.3295 37.4868 39.1671 38.5369 40.5724 38.5369H43.7823C44.1485 38.5369 44.5164 38.8285 44.5988 39.1869L44.915 40.5562Z" fill="#DD1731"/>
<path d="M58.6857 36.226H55.4969V33.519H58.6857C59.2279 33.519 59.862 34.0038 59.862 34.8725C59.862 35.7406 59.2279 36.226 58.6857 36.226ZM58.6857 31.4717L53.9407 31.4725C53.5728 31.4725 53.2734 31.7731 53.2734 32.1393V40.5825H55.4969V38.2716H58.6857C60.8609 38.2716 62.0842 36.8102 62.0842 34.8725C62.0842 32.9341 60.6237 31.4717 58.6857 31.4717Z" fill="#DD1731"/>
<path d="M140.168 38.6585H135.38V36.9095H140.585V35.1525H135.38V33.3943H140.168C140.562 33.3943 140.874 33.2217 140.983 32.7446L141.279 31.4722H133.824C133.457 31.4722 133.156 31.771 133.156 32.1387V39.9151C133.156 40.2817 133.457 40.5825 133.824 40.5825H141.279L140.983 39.3097C140.874 38.8329 140.562 38.6585 140.168 38.6585Z" fill="#DD1731"/>
<path d="M122.848 40.5815V31.4722H125.071V37.4818L128.922 32.0087C129.14 31.7137 129.616 31.4722 129.985 31.4722H131.632V40.5815H129.409V34.5718L125.557 40.0438C125.341 40.3398 124.864 40.5815 124.496 40.5815H122.848Z" fill="#DD1731"/>
<path d="M78.3059 35.9782L81.4084 31.4722H79.3665C78.9248 31.4722 78.6151 31.6059 78.3421 32.034L76.6888 34.6308H76.3938L74.7393 32.034C74.4675 31.6059 74.1583 31.4722 73.7144 31.4722H71.6074L74.7764 36.0745L71.6738 40.5815H73.7144C74.1583 40.5815 74.4675 40.4484 74.7393 40.0196L76.3938 37.4219H76.6888L78.3421 40.0196C78.6151 40.4484 78.9248 40.5815 79.3665 40.5815H81.4744L78.3059 35.9782Z" fill="#DD1731"/>
</svg>
