<svg width="219" height="24" viewBox="0 0 219 24" fill="none" xmlns="http://www.w3.org/2000/svg">
<path d="M89.6576 17.578C89.4021 17.8344 89.0949 17.959 88.7287 17.959C88.3708 17.959 88.0664 17.8344 87.8137 17.578C87.5637 17.3124 87.4374 17.0061 87.4374 16.6446C87.4374 16.2848 87.5637 15.9749 87.8137 15.7129C88.0664 15.4528 88.3708 15.3209 88.7287 15.3209C89.0949 15.3209 89.4021 15.4528 89.6576 15.7129C89.9131 15.9749 90.0422 16.2848 90.0422 16.6446C90.0422 17.0061 89.9131 17.3124 89.6576 17.578ZM79.954 18.2827C78.42 18.2827 77.1877 17.6131 76.353 16.2691H76.3068V23.5145H74.3901V6.17078H76.353V8.11979H76.4C77.3353 6.52497 78.7014 5.73633 80.5056 5.73633C82.0294 5.73633 83.2285 6.26855 84.0928 7.34221C84.9451 8.42049 85.3721 9.85574 85.3721 11.6553C85.3721 13.6634 84.8934 15.2665 83.9221 16.4758C82.9555 17.6776 81.6327 18.2827 79.954 18.2827ZM82.5081 8.48229C81.9002 7.72316 81.0682 7.34498 80.0278 7.34498C78.9218 7.34498 78.0336 7.73792 77.3611 8.51734C76.6896 9.28939 76.353 10.2671 76.353 11.4321V13.109C76.353 14.0987 76.6721 14.9427 77.3095 15.6299C77.9487 16.3226 78.7567 16.6731 79.7409 16.6731C80.893 16.6731 81.7932 16.2212 82.4444 15.3329C83.0975 14.4465 83.4259 13.2068 83.4259 11.6203C83.4259 10.2874 83.1187 9.23681 82.5081 8.48229ZM63.2015 23.6427C62.7154 23.6427 62.2938 23.5939 61.9692 23.4915V21.8708C62.375 22.0073 62.7532 21.9815 63.0889 21.9815C64.0501 21.9815 64.7649 21.4069 65.2492 20.252L66.1956 17.9793L61.5587 6.17078H63.6664L66.8791 15.2333C66.9224 15.3615 67.0008 15.6613 67.1226 16.1492H67.1908C67.2323 15.9666 67.3126 15.6687 67.426 15.2665L70.7983 6.17078H72.7713L67.3126 19.919C66.3395 22.4012 64.9688 23.6427 63.2015 23.6427ZM56.2632 18.0014H54.3649V7.65306H50.7916V6.17078H59.8283V7.65306H56.2632V18.0014ZM46.7395 12.5602H40.9672V18.0014H39.1067V6.17078H40.9672V10.9276H46.7395V6.17078H48.6443V18.0014H46.7395V12.5602ZM7.18913 18.0014L1.94717 12.2429H1.90198V18.0014H0V6.17078H1.90198V11.5059H1.94717L6.94009 6.17078H9.42963L3.92294 11.7965L9.85946 18.0014H7.18913Z" fill="#333333"/>
<path d="M216.505 18.0715V13.0546H214.902C214.125 13.0546 213.423 13.6846 212.793 14.9492L211.23 18.0715H209.006L211.025 14.3294C211.49 13.466 212.058 12.8914 212.724 12.6202C211.784 12.4929 211.067 12.147 210.578 11.577C210.087 11.0097 209.838 10.2994 209.838 9.45269C209.838 8.3781 210.224 7.678 210.993 7.0517C211.764 6.42539 212.84 6.10993 214.231 6.10993H218.424V18.0715H216.505ZM216.505 7.6162H214.231C212.617 7.6162 211.806 8.23328 211.806 9.47298C211.806 10.78 212.591 11.4395 214.163 11.4395H216.505V7.6162ZM205.225 8.40854C205.057 8.74613 204.794 9.22301 204.445 9.83825L198.903 18.0715H196.91V6.10993H198.666V15.5045C198.761 15.2739 198.967 14.8856 199.279 14.3294L204.973 6.10993H206.96V18.0715H205.225V8.40854ZM188.842 18.3547C187.292 18.3547 186.088 17.6777 185.248 16.3199H185.198V23.6456H183.279V6.10993H185.198V8.08939H185.248C186.193 6.48258 187.573 5.67918 189.391 5.67918C190.942 5.67918 192.143 6.21878 193.014 7.30167C193.883 8.38732 194.311 9.83825 194.311 11.66C194.311 13.6846 193.826 15.3117 192.849 16.5284C191.871 17.7459 190.541 18.3547 188.842 18.3547ZM191.421 8.45558C190.798 7.69184 189.966 7.30812 188.917 7.30812C187.797 7.30812 186.898 7.69922 186.217 8.48694C185.54 9.27005 185.198 10.2533 185.198 11.4395V13.134C185.198 14.1311 185.518 14.9778 186.165 15.6788C186.811 16.3762 187.629 16.7239 188.617 16.7239C189.781 16.7239 190.693 16.271 191.352 15.3745C192.012 14.476 192.344 13.2244 192.344 11.6249C192.344 10.2755 192.032 9.22117 191.421 8.45558ZM173.092 15.6226C173.779 16.3559 174.724 16.7239 175.924 16.7239C177.279 16.7239 178.52 16.271 179.65 15.3745V17.1971C178.599 17.9673 177.204 18.3547 175.468 18.3547C173.772 18.3547 172.442 17.8031 171.473 16.7027C170.508 15.6051 170.022 14.0591 170.022 12.0631C170.022 10.1795 170.552 8.64283 171.61 7.45478C172.667 6.26766 173.98 5.67918 175.549 5.67918C177.12 5.67918 178.336 6.19203 179.195 7.21219C180.054 8.23697 180.484 9.66207 180.484 11.4829V12.5058H172.016C172.046 13.846 172.406 14.8893 173.092 15.6226ZM178.515 10.8556C178.51 9.73863 178.243 8.86881 177.713 8.24158C177.189 7.62081 176.456 7.30812 175.517 7.30812C174.61 7.30812 173.844 7.63557 173.211 8.29047C172.577 8.94629 172.187 9.79951 172.037 10.8556H178.515ZM165.467 18.0715H163.548V7.6162H159.938V6.10993H169.064V7.6162H165.467V18.0715ZM155.856 7.60513H153.072C152.746 11.5216 152.201 14.2768 151.422 15.8596C150.644 17.4452 149.603 18.2394 148.29 18.2394C147.891 18.2394 147.545 18.1813 147.262 18.0715V16.4038C147.532 16.545 147.827 16.6151 148.15 16.6151C149.866 16.6151 150.975 13.2161 151.464 6.10993H157.767V18.0715H155.856V7.60513ZM143.705 16.1779H143.657C142.821 17.626 141.589 18.3547 139.965 18.3547C138.772 18.3547 137.832 18.0337 137.157 17.3982C136.482 16.758 136.145 15.9104 136.145 14.8505C136.145 12.5925 137.463 11.2726 140.105 10.9027L143.705 10.3954C143.705 8.33751 142.879 7.30812 141.23 7.30812C139.786 7.30812 138.483 7.80621 137.316 8.80332V6.80911C138.497 6.05736 139.854 5.67918 141.392 5.67918C144.213 5.67918 145.625 7.17991 145.625 10.1934V18.0715H143.705V16.1779ZM143.705 11.9459L140.81 12.349C139.915 12.4698 139.246 12.6967 138.793 13.0177C138.341 13.335 138.114 13.8986 138.114 14.7122C138.114 15.3044 138.32 15.7886 138.743 16.1613C139.161 16.5367 139.718 16.7239 140.41 16.7239C141.362 16.7239 142.149 16.3845 142.769 15.713C143.394 15.0369 143.705 14.1864 143.705 13.1496V11.9459ZM130.677 18.0715H128.758V6.10993H135.423V7.6162H130.677V18.0715ZM126.379 18.0715H124.141L121.786 14.144C121.636 13.8986 121.465 13.5905 121.262 13.2244H121.215C121.172 13.2935 120.991 13.6016 120.663 14.144L118.259 18.0715H116.048L120.137 12.1322L116.223 6.10993H118.46L120.779 10.0974C120.954 10.4074 121.117 10.7247 121.283 11.0447H121.331L124.328 6.10993H126.452L122.422 12.0889L126.379 18.0715ZM105.505 23.771C105.005 23.771 104.588 23.7212 104.253 23.6133V21.881C104.669 22.0203 105.043 22.0904 105.387 22.0904C106.358 22.0904 107.081 21.5074 107.568 20.3425L108.527 18.0485L103.841 6.10993H105.972L109.22 15.2813C109.257 15.4012 109.337 15.7084 109.463 16.2H109.534C109.574 16.0127 109.656 15.713 109.77 15.3043L113.178 6.10993H115.17L109.656 20.0104C108.667 22.5184 107.283 23.771 105.505 23.771ZM97.3965 18.3547C95.5499 18.3547 94.134 17.6933 93.1388 16.3762C92.1389 15.0535 91.6436 13.1681 91.6436 10.7154C91.6436 8.80978 91.8207 7.19098 92.1841 5.86181C92.5401 4.52895 93.0391 3.53184 93.6765 2.86126C94.3111 2.19345 95.0195 1.72857 95.7962 1.47491C96.5765 1.22494 97.9048 0.929773 99.7994 0.594944C100.548 0.417844 101.106 0.224142 101.471 0V1.8208C101.149 2.05417 100.637 2.23311 99.9294 2.35395C98.1658 2.6196 96.9418 2.88156 96.2408 3.12507C95.5434 3.37504 94.9669 3.90634 94.5177 4.72173C94.0695 5.53067 93.7826 6.71595 93.6608 8.27571H93.7042C94.6423 6.90688 95.976 6.22062 97.7138 6.22062C99.2976 6.22062 100.578 6.76945 101.543 7.86064C102.508 8.96197 102.993 10.4074 102.993 12.2033C102.993 14.0591 102.488 15.5442 101.479 16.6695C100.466 17.793 99.1039 18.3547 97.3965 18.3547ZM100.012 9.09941C99.3354 8.28494 98.4268 7.87539 97.2775 7.87539C95.668 7.87539 94.4559 8.64744 93.6341 10.1934V11.8749C93.6452 12.5077 93.7374 13.121 93.9173 13.728C94.0971 14.3368 94.3517 14.8717 94.6893 15.3394C95.0223 15.8034 95.4208 16.1493 95.8783 16.3789C96.3349 16.6105 96.8569 16.7239 97.4426 16.7239C98.5163 16.7239 99.3787 16.3199 100.035 15.5119C100.697 14.7002 101.026 13.6653 101.026 12.4016C101.026 11.018 100.689 9.92034 100.012 9.09941Z" fill="#A23A99"/>
<path d="M22.5756 2.02052C24.5772 2.02052 26.4155 2.9383 27.6146 4.53496L28.1293 5.21476L28.9659 5.27103C32.0264 5.46935 34.4237 8.06496 34.4237 11.1734C34.4237 14.4332 31.8088 17.0933 28.5868 17.0933H17.317C14.56 17.0933 12.3103 14.816 12.3103 12.0091C12.3103 9.91344 13.6201 8.00593 15.5562 7.25971L16.3365 6.95901L16.6372 6.16852C17.5735 3.68636 19.9588 2.02052 22.5756 2.02052ZM22.5756 0.141602C19.077 0.141602 16.0884 2.36734 14.9041 5.50163C12.3094 6.49412 10.46 9.03993 10.46 12.0091C10.46 15.849 13.5361 18.9676 17.317 18.9676H28.5868C32.8234 18.9676 36.275 15.4745 36.275 11.1734C36.275 7.04664 33.0909 3.66145 29.0877 3.39488C27.5731 1.37853 25.2035 0.141602 22.5756 0.141602Z" fill="#A23A99"/>
</svg>
