<svg width="184" height="147" viewBox="0 0 184 147" fill="none" xmlns="http://www.w3.org/2000/svg">
<g clip-path="url(#clip0)">
<path d="M0.217773 -0.289062H1.91528V146.859H0.217773V-0.289062ZM35.3346 37.3011H28.7458V35.867L30.7824 35.3889V22.4792L28.7458 22.0012V20.6865L33.2981 20.567H35.8138C39.4088 20.567 41.3256 22.4792 41.3256 25.4682C41.3256 29.1743 38.9297 31.0865 34.8554 31.0865H33.2981V35.3901L35.3346 35.8682V37.3011ZM33.2969 29.1731H34.8542C37.4909 29.1731 38.8087 27.978 38.8087 25.8256C38.8087 23.9134 37.7305 22.478 35.6928 22.478H33.2969V29.1731ZM42.8757 31.0853C42.8757 27.2597 45.2716 24.3914 48.7469 24.3914C52.2222 24.3914 53.7795 26.4231 53.7795 30.0097C53.7795 30.6072 53.6597 31.2777 53.6597 31.2777L45.3926 31.3255C45.3926 33.956 46.8062 35.6291 48.8679 35.6291C51.2638 35.6291 52.893 34.3145 52.893 34.3145L53.7316 35.5574C53.7316 35.5574 51.5046 37.5413 48.6271 37.5413C44.7924 37.5401 42.8757 35.0304 42.8757 31.0853ZM45.4872 29.5316H51.2398C51.2398 27.7389 50.545 26.2558 48.6271 26.2558C46.7104 26.2558 45.631 27.7377 45.4872 29.5316ZM61.3218 35.9865L59.7633 35.3889V27.5238L60.3143 28.8863L63.2865 34.9109L64.6761 34.7914L67.5763 28.5277L68.2699 27.0458V35.3889L66.7126 35.9865V37.3011H72.4652V35.9865L70.4274 35.3889V26.5438L72.4652 26.0658V24.6316L67.7668 24.7511L64.2196 32.4011L60.4341 24.6316L55.81 24.7511V26.0658L57.8465 26.5438V35.3889L55.81 35.9865V37.3011H61.3218V35.9865ZM74.3723 31.0853C74.3723 27.2597 76.7682 24.3914 80.2435 24.3914C83.7188 24.3914 85.2761 26.4231 85.2761 30.0097C85.2761 30.6072 85.1563 31.2777 85.1563 31.2777L76.8892 31.3255C76.8892 33.956 78.3028 35.6291 80.3645 35.6291C82.7604 35.6291 84.3896 34.3145 84.3896 34.3145L85.2282 35.5574C85.2282 35.5574 83.0012 37.5413 80.1237 37.5413C76.289 37.5401 74.3723 35.0304 74.3723 31.0853ZM76.9839 29.5316H82.7364C82.7364 27.7389 82.0416 26.2558 80.1237 26.2558C78.2069 26.2558 77.1276 27.7377 76.9839 29.5316ZM91.6911 35.6996C90.8274 35.6996 89.9421 35.5562 89.2473 35.4128L89.1994 33.8114H87.7606L87.4252 36.7035C88.4554 37.1577 90.1098 37.5401 91.7391 37.5401C94.3985 37.5401 97.0352 36.5601 97.0352 33.4755C97.0352 32.0414 95.9091 30.9658 93.9445 30.606C95.7893 30.1997 96.6531 29.1719 96.6531 27.6182C96.6531 25.4658 94.6884 24.3902 91.8109 24.3902C89.8463 24.3902 87.6888 24.9878 87.6888 24.9878L87.7858 27.88H89.2221L89.3911 26.4458C89.3911 26.4458 90.5172 26.1829 91.7151 26.1829C93.2724 26.1829 94.2548 26.7087 94.2548 27.7844C94.2548 29.2197 93.2724 29.7683 91.3557 29.7683H89.7504V31.4426H91.2587C93.2964 31.4426 94.5183 32.1597 94.5183 33.5938C94.5171 34.9587 93.4629 35.6996 91.6911 35.6996ZM35.5742 64.5403L33.2969 64.0623V51.1526H40.9171V64.0623L38.6421 64.5403V65.9745H45.4717V64.5403L43.4339 64.0623V51.1526L45.4717 50.6745V49.2404H33.2969L28.7446 49.3599V50.6745L30.7812 51.1526V64.0623L28.7446 64.5403V65.9745H35.5742V64.5403ZM47.3788 59.7586C47.3788 55.9331 49.7747 53.0648 53.25 53.0648C56.7252 53.0648 58.2826 55.0965 58.2826 58.683C58.2826 59.2806 58.1628 59.9511 58.1628 59.9511L49.8957 59.9989C49.8957 62.6293 51.3093 64.3025 53.371 64.3025C55.7669 64.3025 57.3961 62.9867 57.3961 62.9867L58.2347 64.2308C58.2347 64.2308 56.0065 66.2147 53.1302 66.2147C49.2943 66.2135 47.3788 63.7037 47.3788 59.7586ZM49.9892 58.205H55.7417C55.7417 56.4123 55.0469 54.9292 53.129 54.9292C51.2123 54.9292 50.1329 56.4123 49.9892 58.205ZM73.614 54.7379V53.3038L67.623 53.4233V54.7379L69.1804 55.216V59.2794C69.1804 59.2794 67.9106 59.6391 66.352 59.6391C64.5563 59.6391 64.028 58.8025 64.028 57.0087V55.216L65.5853 54.7379V53.3038L59.9549 53.4233V54.7379L61.6321 55.216V57.3672C61.6321 59.9965 62.83 61.6696 65.8261 61.6696C67.4805 61.6696 68.3418 61.2872 69.1804 61.0721V64.0611L66.7845 64.6586V65.9733H73.614V64.6586L71.5763 64.0611V55.216L73.614 54.7379ZM86.3039 59.9499L78.0368 59.9977C78.0368 62.6281 79.4504 64.3013 81.5121 64.3013C83.908 64.3013 85.5372 62.9855 85.5372 62.9855L86.3758 64.2296C86.3758 64.2296 84.1488 66.2135 81.2713 66.2135C77.4367 66.2135 75.5211 63.7037 75.5211 59.7586C75.5211 55.9331 77.9171 53.0648 81.3923 53.0648C84.8676 53.0648 86.4249 55.0965 86.4249 58.683C86.4249 59.2806 86.3039 59.9499 86.3039 59.9499ZM83.8853 58.205C83.8853 56.4123 83.1904 54.9292 81.2725 54.9292C79.3558 54.9292 78.2764 56.4123 78.1339 58.205H83.8853ZM96.1236 53.0648C99.5988 53.0648 101.276 55.5745 101.276 59.2806C101.276 63.3452 99.2382 66.2147 94.8046 66.2147C94.0128 66.2147 93.294 66.0713 92.6483 65.8801V69.6817L95.164 70.1598V71.4744H88.3345V70.1598L90.2524 69.6817V55.2172L88.2147 54.7391V53.4245L92.2901 53.305L92.4806 54.6435C93.1993 53.9731 94.4692 53.0648 96.1236 53.0648ZM95.6432 54.977C93.4869 54.977 92.6471 56.6501 92.6471 56.6501V63.8221C92.6471 63.8221 93.3659 64.3001 95.1628 64.3001C97.9433 64.3001 98.7578 62.1477 98.7578 59.5184C98.7602 56.8904 97.8007 54.977 95.6432 54.977ZM103.305 59.7586C103.305 55.9331 105.701 53.0648 109.176 53.0648C112.652 53.0648 114.209 55.0965 114.209 58.683C114.209 59.2806 114.089 59.9511 114.089 59.9511L105.822 59.9989C105.822 62.6293 107.236 64.3025 109.297 64.3025C111.693 64.3025 113.323 62.9867 113.323 62.9867L114.161 64.2308C114.161 64.2308 111.934 66.2147 109.057 66.2147C105.222 66.2135 103.305 63.7037 103.305 59.7586ZM105.917 58.205H111.669C111.669 56.4123 110.975 54.9292 109.057 54.9292C107.14 54.9292 106.061 56.4123 105.917 58.205ZM123.692 51.2709C126.111 51.2709 127.933 50.0758 127.933 47.7094L125.896 47.8289C125.896 49.097 125.178 49.7662 124.075 49.7662C122.783 49.7662 121.847 49.097 121.847 47.7106L119.282 47.8301C119.306 50.1475 121.463 51.2709 123.692 51.2709ZM122.11 64.6598L120.552 64.0623V63.4647L126.662 57.966V64.0623L125.104 64.6598V65.9745H130.976V64.6598L128.939 64.0623V55.2172L130.976 54.7391V53.305L125.104 53.4245V54.7391L126.662 55.2172V55.8148L120.552 61.3135V55.2172L122.11 54.7391V53.305L116.238 53.4245V54.7391L118.275 55.2172V64.0623L116.238 64.6598V65.9745H122.11V64.6598ZM42.8841 86.2808L40.9662 86.7589V89.6283C40.9662 92.9759 38.6889 94.8881 35.095 94.8881C31.1406 94.8881 29.4634 92.8552 29.4634 89.9869C29.4634 87.1174 32.6979 85.5637 32.6979 85.5637C32.6979 85.5637 29.8707 84.8216 29.8707 81.9772C29.8707 79.0121 32.051 77.6735 35.4544 77.6735C37.5628 77.6735 40.0066 78.6296 40.0066 78.6296L39.888 81.9772H38.3546L37.8503 80.065C37.8503 80.065 36.8931 79.7052 35.216 79.7052C33.2981 79.7052 32.3385 80.6625 32.3385 82.0967C32.3385 83.7698 33.7773 84.8455 35.4544 84.8455H42.8841V86.2808ZM38.5703 86.7589H35.3346C33.5364 86.7589 31.9803 88.0735 31.9803 89.8662C31.9803 91.8991 33.2981 92.854 35.3346 92.854C37.3723 92.854 38.5703 91.7795 38.5703 89.7467V86.7589ZM50.3006 78.0333V79.3479L52.3372 79.8259V92.7357L50.3006 93.2137V94.6479H57.1302V93.2137L54.8529 92.7357V79.8259H62.473V92.7357L60.1969 93.2137V94.6479H67.0264V93.2137L64.9887 92.7357V79.8259L67.0264 79.3479V77.9137H54.8517L50.3006 78.0333ZM76.5789 92.9759C75.7655 93.7886 74.3268 94.8881 72.6497 94.8881C70.3723 94.8881 69.0546 93.5734 69.0546 91.3015C69.0546 88.5527 71.2109 87.5954 74.5676 87.5954H76.4843V85.6832C76.4843 84.2491 75.6457 83.5308 74.207 83.5308C72.7707 83.5308 71.7883 83.8906 71.7883 83.8906L71.4529 85.6832H69.8956L69.7758 82.6954C69.7758 82.6954 72.4125 81.7393 74.449 81.7393C77.2294 81.7393 78.8814 82.6954 78.8814 85.4442V92.7368L80.7993 93.2149V94.5295L77.0857 94.649L76.5789 92.9759ZM76.4843 89.1503H74.8072C72.4113 89.1503 71.5008 89.7478 71.5008 91.182C71.5008 92.2576 72.1705 92.9759 73.2498 92.9759C75.0456 92.9759 76.4843 91.0637 76.4843 91.0637V89.1503ZM86.3016 81.9784L86.492 83.3169C87.212 82.6476 88.4818 81.7393 90.1362 81.7393C93.6114 81.7393 95.2886 84.2491 95.2886 87.9552C95.2886 92.0186 93.2509 94.8881 88.8172 94.8881C88.0254 94.8881 87.3066 94.7447 86.6609 94.5534V98.3551L89.1766 98.8332V100.148H82.3471V98.8332L84.265 98.3551V83.8906L82.2273 83.4125V82.0979L86.3016 81.9784ZM86.6597 92.4966C86.6597 92.4966 87.3785 92.9747 89.1754 92.9747C91.9559 92.9747 92.7705 90.8223 92.7705 88.193C92.7705 85.5637 91.8109 83.6503 89.6546 83.6503C87.4983 83.6503 86.6585 85.3235 86.6585 85.3235L86.6597 92.4966ZM109.18 81.9784H96.9585L97.0771 86.4015H98.7543L99.1148 83.8917H101.87V92.7368L99.4743 93.3344V94.649H106.663V93.3344L104.266 92.7368V83.8917H107.023L107.382 86.4015H109.059L109.18 81.9784ZM125.348 83.4125V81.9784L119.358 82.0979V83.4125L120.915 83.8906V87.1174H115.163V83.8906L116.721 83.4125V81.9784L110.73 82.0979V83.4125L112.767 83.8906V92.7357L110.73 93.3332V94.6479H116.721V93.3332L115.163 92.7357V88.9101H120.915V92.7357L119.358 93.3332V94.6479H125.348V93.3332L123.311 92.7357V83.8906L125.348 83.4125ZM133.126 81.7393C136.601 81.7393 138.159 83.771 138.159 87.3576C138.159 87.9564 138.039 88.6256 138.039 88.6256L129.772 88.6734C129.772 91.3039 131.185 92.9771 133.247 92.9771C135.643 92.9771 137.272 91.6624 137.272 91.6624L138.111 92.9054C138.111 92.9054 135.882 94.8893 133.006 94.8893C129.172 94.8893 127.256 92.3795 127.256 88.4332C127.256 84.6076 129.651 81.7393 133.126 81.7393ZM129.866 86.8796H135.619C135.619 85.0869 134.924 83.6037 133.006 83.6037C131.089 83.6037 130.01 85.0857 129.866 86.8796ZM153.011 87.9552C153.011 92.0186 150.973 94.8881 146.541 94.8881C145.749 94.8881 145.03 94.7447 144.384 94.5534V98.3551L146.9 98.8332V100.148H140.071V98.8332L141.988 98.3551V83.8906L139.951 83.4125V82.0979L144.026 81.9784L144.217 83.3169C144.937 82.6476 146.206 81.7393 147.861 81.7393C151.334 81.7393 153.011 84.2491 153.011 87.9552ZM150.495 88.1942C150.495 85.5649 149.537 83.6515 147.379 83.6515C145.223 83.6515 144.383 85.3247 144.383 85.3247V92.4966C144.383 92.4966 145.102 92.9747 146.899 92.9747C149.68 92.9759 150.495 90.8235 150.495 88.1942ZM166.902 83.4125L168.7 83.8906V92.7357L166.902 93.3332V94.6479H172.893V93.3332L171.095 92.7357V83.8906L172.893 83.4125V81.9784L166.902 82.0979V83.4125ZM166.422 90.5844C166.422 93.3332 164.433 94.649 160.959 94.649H155.04V93.3344L157.077 92.8086V83.8917L155.04 83.4137V82.0991L161.75 81.9796V83.4137L159.473 83.9157V86.4505H161.582C164.337 86.4481 166.422 87.7161 166.422 90.5844ZM163.906 90.8235C163.906 88.9113 163.068 88.242 161.103 88.242H159.473V92.8552H161.078C162.875 92.8552 163.906 92.1393 163.906 90.8235ZM180.543 81.8851L181.103 82.0238V82.5819H179.901L179.343 81.3975C179.035 80.7426 178.937 80.6733 178.574 80.6733H178.308V81.8851L178.866 82.0238V82.5819H176.842V82.0238L177.401 81.8851V78.6523L176.842 78.5412V78.0249L178.937 77.9831C179.846 77.9831 180.571 78.4288 180.571 79.2654C180.571 79.8917 180.263 80.2825 179.706 80.4916C179.719 80.506 179.888 80.6028 180.097 81.0079L180.543 81.8851ZM179.637 79.3348C179.637 78.932 179.357 78.681 178.867 78.681H178.309V80.0315H178.799C179.287 80.0315 179.637 79.7817 179.637 79.3348ZM183.127 80.2825C183.127 82.7217 181.172 84.5335 178.728 84.5335C176.285 84.5335 174.609 82.8604 174.609 80.4235C174.609 77.9855 176.424 76.1737 178.867 76.1737C181.311 76.1737 183.127 77.8444 183.127 80.2825ZM182.08 80.3518C182.08 78.4014 180.754 77.0772 178.799 77.0772C176.843 77.0772 175.657 78.4002 175.657 80.3518C175.657 82.3034 176.843 83.6264 178.799 83.6264C180.754 83.6264 182.08 82.3034 182.08 80.3518ZM39.319 117.305C39.4759 117.775 39.5562 118.316 39.5562 118.929V119.694C39.5562 120.363 39.4759 120.949 39.319 121.45C39.1585 121.952 38.9344 122.368 38.6469 122.699C38.3594 123.03 38.012 123.278 37.6047 123.446C37.1974 123.613 36.7494 123.696 36.2654 123.696C35.7706 123.696 35.3202 123.615 34.9189 123.451C34.514 123.289 34.1702 123.04 33.8803 122.705C33.5928 122.37 33.3723 121.952 33.2118 121.45C33.0513 120.948 32.971 120.363 32.971 119.694H31.4137V123.613H30.5751V115.249H31.4137V118.929H32.971C32.971 118.324 33.0513 117.787 33.2118 117.317C33.3723 116.847 33.5928 116.453 33.8803 116.134C34.1714 115.816 34.5152 115.573 34.9189 115.411C35.3202 115.248 35.7706 115.166 36.2654 115.166C36.7602 115.166 37.2082 115.248 37.6119 115.411C38.0156 115.574 38.3606 115.813 38.6481 116.128C38.9344 116.442 39.1585 116.834 39.319 117.305ZM38.6936 118.929C38.6936 118.444 38.6338 118.016 38.5104 117.644C38.387 117.274 38.2169 116.963 37.9989 116.712C37.7844 116.461 37.528 116.272 37.2333 116.145C36.9398 116.017 36.6152 115.953 36.2642 115.953C35.9132 115.953 35.5862 116.017 35.2879 116.145C34.9872 116.272 34.7296 116.459 34.5128 116.706C34.2984 116.954 34.1319 117.264 34.0121 117.638C33.8923 118.012 33.8312 118.443 33.8312 118.929V119.694C33.8312 120.243 33.8946 120.719 34.018 121.122C34.1414 121.525 34.3115 121.857 34.526 122.119C34.7428 122.382 34.9968 122.579 35.2915 122.711C35.5886 122.842 35.9132 122.908 36.2642 122.908C36.6152 122.908 36.9387 122.844 37.2394 122.716C37.5364 122.589 37.794 122.391 38.0108 122.125C38.2241 121.858 38.3954 121.524 38.5152 121.122C38.6326 120.719 38.6925 120.244 38.6925 119.694L38.6936 118.929ZM46.1258 119.144C46.2396 119.494 46.2994 119.901 46.2994 120.363V120.888C46.2994 121.342 46.2396 121.745 46.1258 122.095C46.0084 122.445 45.8478 122.74 45.6418 122.979C45.431 123.218 45.1842 123.398 44.8967 123.517C44.6091 123.638 44.2953 123.696 43.9515 123.696C43.537 123.696 43.1692 123.619 42.8494 123.465C42.5319 123.309 42.2683 123.068 42.0611 122.742V126.004H41.2693V117.641H41.8802L41.9772 118.645C42.1845 118.279 42.4552 118.005 42.7859 117.826C43.1165 117.647 43.5046 117.557 43.9515 117.557C44.2953 117.557 44.6091 117.616 44.8967 117.736C45.1842 117.856 45.431 118.033 45.6418 118.268C45.8478 118.501 46.0084 118.794 46.1258 119.144ZM45.4837 120.363C45.4837 119.67 45.3267 119.153 45.0093 118.81C44.6954 118.467 44.2809 118.296 43.7694 118.296C43.2914 118.296 42.8901 118.463 42.5666 118.798C42.242 119.132 42.0755 119.622 42.0587 120.266V120.888C42.0587 121.557 42.2192 122.069 42.5367 122.424C42.8577 122.777 43.2686 122.956 43.7694 122.956C44.2905 122.956 44.705 122.786 45.0153 122.448C45.3255 122.109 45.4837 121.589 45.4837 120.888V120.363ZM49.4237 121.463L48.6822 122.716V117.638H47.8903V123.613H48.8727L51.2686 119.79L52.0101 118.548V123.613H52.802V117.638H51.8196L49.4237 121.463ZM59.2434 122.896H60.0819V125.166H59.2901V123.613H54.7055V125.166H53.9137V122.896H54.5486C54.6923 122.681 54.8097 122.473 54.896 122.274C54.9834 122.076 55.0493 121.846 55.0996 121.587C55.1463 121.329 55.1799 121.028 55.2003 120.686C55.2206 120.344 55.2302 119.925 55.2302 119.431V117.64H59.2434V122.896ZM58.4515 118.355H56.0221V119.43C56.0221 119.925 56.0125 120.349 55.9921 120.703C55.9717 121.058 55.9382 121.366 55.8951 121.629C55.852 121.892 55.7944 122.12 55.7214 122.316C55.6507 122.511 55.568 122.703 55.471 122.895H58.4515V118.355ZM62.7893 121.463L62.0478 122.716V117.638H61.2559V123.613H62.2382L64.6342 119.79L65.3757 118.548V123.613H66.1675V117.638H65.1852L62.7893 121.463ZM71.52 120.686C71.3427 120.725 71.1295 120.765 70.8719 120.805C70.6179 120.845 70.3376 120.865 70.0333 120.865C69.4823 120.865 69.0977 120.758 68.8773 120.543C68.6605 120.327 68.5503 119.957 68.5503 119.431V117.64H67.7584V119.431C67.7584 120.172 67.9393 120.716 68.2999 121.062C68.6569 121.409 69.2355 121.582 70.0345 121.582C70.3388 121.582 70.6191 121.562 70.8731 121.523C71.1306 121.483 71.3439 121.444 71.5212 121.403V123.613H72.3094V117.638H71.5212L71.52 120.686ZM78.3507 118.284C78.8191 118.769 79.0527 119.463 79.0527 120.363V120.852H74.7185V120.888C74.7185 121.581 74.8755 122.099 75.1965 122.442C75.514 122.785 75.9416 122.956 76.4759 122.956C76.9743 122.956 77.348 122.852 77.6092 122.645C77.8703 122.437 78.0608 122.179 78.177 121.868H78.9928C78.9293 122.122 78.8323 122.362 78.7053 122.585C78.5783 122.809 78.4118 123.002 78.2046 123.165C77.9937 123.328 77.7469 123.459 77.4594 123.553C77.1719 123.649 76.8449 123.696 76.4771 123.696C75.6889 123.696 75.0599 123.456 74.5987 122.975C74.1339 122.493 73.9039 121.797 73.9039 120.889V120.364C73.9039 119.465 74.1375 118.771 74.6059 118.285C75.0707 117.8 75.6949 117.557 76.4771 117.557C77.2606 117.556 77.8859 117.799 78.3507 118.284ZM78.2261 120.16C78.1926 119.539 78.0189 119.073 77.705 118.763C77.3876 118.452 76.9803 118.296 76.4759 118.296C75.9584 118.296 75.5439 118.457 75.236 118.78C74.9282 119.102 74.7581 119.563 74.7185 120.16H78.2261ZM81.5948 118.828C81.9254 118.474 82.3471 118.296 82.8574 118.296C83.2815 118.296 83.6061 118.388 83.8361 118.571C84.0637 118.755 84.2375 118.982 84.3537 119.252H85.1922C85.1287 119.021 85.0353 118.802 84.9119 118.596C84.7885 118.388 84.628 118.207 84.4339 118.052C84.2363 117.897 84.0098 117.776 83.7487 117.687C83.4911 117.6 83.1941 117.557 82.8562 117.557C82.4753 117.557 82.1243 117.62 81.8104 117.748C81.493 117.876 81.2222 118.06 80.9946 118.304C80.767 118.547 80.5909 118.842 80.4663 119.188C80.3429 119.535 80.283 119.927 80.283 120.366V120.89C80.283 121.337 80.3429 121.733 80.4663 122.079C80.5897 122.426 80.767 122.719 80.9946 122.958C81.2222 123.196 81.493 123.38 81.8104 123.506C82.1243 123.634 82.4753 123.698 82.8562 123.698C83.5283 123.698 84.0554 123.527 84.4399 123.185C84.8209 122.842 85.0712 122.408 85.1922 121.882H84.3537C84.2363 122.217 84.0626 122.48 83.8386 122.671C83.6145 122.862 83.2875 122.958 82.8562 122.958C82.6023 122.958 82.3687 122.912 82.1578 122.82C81.9434 122.728 81.7601 122.596 81.5996 122.42C81.439 122.246 81.3157 122.028 81.2282 121.769C81.1408 121.511 81.0976 121.218 81.0976 120.89V120.366C81.1 119.694 81.2641 119.183 81.5948 118.828ZM91.158 117.638H90.1757L88.465 120.148H87.3989V117.638H86.607V123.613H87.3989V120.865H88.465L90.4165 123.613H91.3988L89.1838 120.519L91.158 117.638ZM96.2206 118.081C96.5812 118.432 96.7657 118.922 96.7657 119.551V123.613H96.1547L96.0349 122.489C95.8277 122.872 95.5437 123.168 95.1796 123.38C94.8154 123.591 94.4081 123.696 93.9493 123.696C93.3515 123.696 92.8939 123.544 92.5728 123.236C92.2554 122.93 92.0948 122.506 92.0948 121.965C92.0948 121.678 92.1416 121.417 92.2314 121.182C92.3249 120.947 92.4722 120.749 92.6758 120.59C92.8795 120.431 93.1407 120.308 93.4605 120.22C93.778 120.133 94.1625 120.088 94.6105 120.088H95.9738V119.551C95.9738 119.12 95.8672 118.804 95.6564 118.6C95.4455 118.397 95.0945 118.296 94.6105 118.296C94.1697 118.296 93.8415 118.382 93.621 118.553C93.4006 118.724 93.2772 118.957 93.2437 119.251H92.3955C92.4087 119.004 92.4662 118.777 92.5621 118.569C92.6555 118.363 92.7957 118.183 92.9801 118.032C93.1634 117.881 93.391 117.763 93.6618 117.679C93.9361 117.595 94.25 117.555 94.6105 117.555C95.3185 117.556 95.8564 117.73 96.2206 118.081ZM95.9726 120.804H94.6094C93.9948 120.804 93.5563 120.912 93.2964 121.127C93.0352 121.342 92.9083 121.621 92.9083 121.964C92.9083 122.266 93.0017 122.507 93.1886 122.687C93.3755 122.866 93.6498 122.956 94.0068 122.956C94.2811 122.956 94.5351 122.905 94.7759 122.806C95.0131 122.707 95.2239 122.572 95.4036 122.4C95.5845 122.228 95.721 122.029 95.8217 121.802C95.9223 121.575 95.9726 121.335 95.9726 121.08V120.804ZM100.751 117.638H102.725V123.613H101.937V121.391H100.751C100.648 121.391 100.548 121.391 100.451 121.391C100.357 121.391 100.264 121.383 100.176 121.367L98.9663 123.613H98.0571L99.3976 121.199C99.007 121.055 98.7255 120.84 98.5518 120.553C98.3817 120.266 98.2942 119.92 98.2942 119.515C98.2942 118.926 98.4847 118.465 98.8657 118.134C99.2442 117.803 99.872 117.638 100.751 117.638ZM101.937 118.355H100.751C100.137 118.355 99.709 118.455 99.4718 118.654C99.231 118.854 99.1113 119.139 99.1113 119.515C99.1113 119.889 99.231 120.176 99.4718 120.374C99.709 120.574 100.137 120.673 100.751 120.673H101.937V118.355ZM107.588 123.613H108.38V118.355H111.42V117.638H107.588V123.613ZM117.512 119.144C117.626 119.494 117.686 119.901 117.686 120.363V120.888C117.686 121.342 117.626 121.745 117.512 122.095C117.394 122.445 117.234 122.74 117.028 122.979C116.817 123.218 116.57 123.398 116.283 123.517C115.995 123.638 115.681 123.696 115.338 123.696C114.923 123.696 114.555 123.619 114.235 123.465C113.918 123.309 113.654 123.068 113.447 122.742V126.004H112.655V117.641H113.266L113.363 118.645C113.571 118.279 113.841 118.005 114.172 117.826C114.503 117.647 114.891 117.557 115.339 117.557C115.683 117.557 115.996 117.616 116.284 117.736C116.571 117.856 116.818 118.033 117.029 118.268C117.235 118.501 117.394 118.794 117.512 119.144ZM116.87 120.363C116.87 119.67 116.713 119.153 116.395 118.81C116.081 118.467 115.667 118.296 115.155 118.296C114.677 118.296 114.276 118.463 113.953 118.798C113.628 119.132 113.462 119.622 113.445 120.266V120.888C113.445 121.557 113.605 122.069 113.923 122.424C114.244 122.777 114.655 122.956 115.155 122.956C115.677 122.956 116.091 122.786 116.401 122.448C116.712 122.109 116.87 121.589 116.87 120.888V120.363ZM121.231 122.633L119.207 117.64H118.322L120.801 123.614L119.879 126.004H120.718L123.948 117.641H123.11L121.231 122.633ZM125.18 123.613H125.972V118.355H129.063V123.613H129.851V117.638H125.18V123.613ZM131.803 123.613H132.595V118.355H135.686V123.613H136.474V117.638H131.803V123.613ZM142.135 118.081C142.495 118.432 142.68 118.922 142.68 119.551V123.613H142.069L141.949 122.489C141.742 122.872 141.458 123.168 141.094 123.38C140.729 123.591 140.322 123.696 139.864 123.696C139.267 123.696 138.809 123.544 138.488 123.236C138.171 122.93 138.01 122.506 138.01 121.965C138.01 121.678 138.057 121.417 138.147 121.182C138.24 120.947 138.387 120.749 138.591 120.59C138.795 120.431 139.056 120.308 139.377 120.22C139.694 120.133 140.079 120.088 140.526 120.088H141.889V119.551C141.889 119.12 141.782 118.804 141.572 118.6C141.361 118.397 141.01 118.296 140.526 118.296C140.085 118.296 139.757 118.382 139.536 118.553C139.316 118.724 139.192 118.957 139.159 119.251H138.311C138.324 119.004 138.381 118.777 138.477 118.569C138.571 118.363 138.711 118.183 138.895 118.032C139.079 117.881 139.306 117.763 139.577 117.679C139.851 117.595 140.165 117.555 140.526 117.555C141.233 117.556 141.77 117.73 142.135 118.081ZM141.888 120.804H140.525C139.91 120.804 139.472 120.912 139.212 121.127C138.95 121.342 138.823 121.621 138.823 121.964C138.823 122.266 138.917 122.507 139.104 122.687C139.291 122.866 139.565 122.956 139.922 122.956C140.196 122.956 140.45 122.905 140.691 122.806C140.928 122.707 141.139 122.572 141.319 122.4C141.498 122.228 141.636 122.029 141.737 121.802C141.837 121.575 141.888 121.335 141.888 121.08V120.804Z" fill="white"/>
</g>
<defs>
<clipPath id="clip0">
<rect width="183" height="147" fill="white" transform="translate(0.5)"/>
</clipPath>
</defs>
</svg>
