<svg width="41" height="40" viewBox="0 0 41 40" fill="none" xmlns="http://www.w3.org/2000/svg">
<g clip-path="url(#clip0)">
<path d="M24.3281 20C24.3281 22.1143 22.6143 23.8281 20.5 23.8281C18.3857 23.8281 16.6719 22.1143 16.6719 20C16.6719 17.8857 18.3857 16.1719 20.5 16.1719C22.6143 16.1719 24.3281 17.8857 24.3281 20Z" fill="white"/>
<path d="M29.4529 13.2269C29.2689 12.7282 28.9753 12.2769 28.5938 11.9064C28.2233 11.5249 27.7723 11.2313 27.2733 11.0473C26.8687 10.8901 26.2607 10.7031 25.1411 10.6521C23.9298 10.5969 23.5667 10.585 20.5002 10.585C17.4335 10.585 17.0704 10.5966 15.8594 10.6518C14.7397 10.7031 14.1315 10.8901 13.7272 11.0473C13.2282 11.2313 12.7769 11.5249 12.4067 11.9064C12.0252 12.2769 11.7316 12.7279 11.5473 13.2269C11.3901 13.6315 11.2031 14.2397 11.1521 15.3594C11.0969 16.5704 11.085 16.9335 11.085 20.0002C11.085 23.0667 11.0969 23.4298 11.1521 24.6411C11.2031 25.7607 11.3901 26.3687 11.5473 26.7733C11.7316 27.2723 12.0249 27.7233 12.4064 28.0938C12.7769 28.4753 13.2279 28.7689 13.7269 28.9529C14.1315 29.1104 14.7397 29.2974 15.8594 29.3484C17.0704 29.4036 17.4332 29.4152 20.4999 29.4152C23.567 29.4152 23.9301 29.4036 25.1407 29.3484C26.2604 29.2974 26.8687 29.1104 27.2733 28.9529C28.2749 28.5665 29.0665 27.7749 29.4529 26.7733C29.61 26.3687 29.7971 25.7607 29.8484 24.6411C29.9036 23.4298 29.9152 23.0667 29.9152 20.0002C29.9152 16.9335 29.9036 16.5704 29.8484 15.3594C29.7974 14.2397 29.6104 13.6315 29.4529 13.2269ZM20.5002 25.8972C17.2431 25.8972 14.6027 23.2571 14.6027 19.9999C14.6027 16.7428 17.2431 14.1027 20.5002 14.1027C23.7571 14.1027 26.3975 16.7428 26.3975 19.9999C26.3975 23.2571 23.7571 25.8972 20.5002 25.8972ZM26.6306 15.2477C25.8695 15.2477 25.2524 14.6307 25.2524 13.8696C25.2524 13.1085 25.8695 12.4914 26.6306 12.4914C27.3917 12.4914 28.0088 13.1085 28.0088 13.8696C28.0085 14.6307 27.3917 15.2477 26.6306 15.2477Z" fill="white"/>
<path d="M20.5 0C9.45599 0 0.5 8.95599 0.5 20C0.5 31.044 9.45599 40 20.5 40C31.544 40 40.5 31.044 40.5 20C40.5 8.95599 31.544 0 20.5 0ZM31.9151 24.7348C31.8596 25.9573 31.6652 26.792 31.3813 27.5226C30.7847 29.0652 29.5652 30.2847 28.0226 30.8813C27.2923 31.1652 26.4573 31.3593 25.2351 31.4151C24.0104 31.4709 23.6192 31.4844 20.5003 31.4844C17.3811 31.4844 16.9902 31.4709 15.7652 31.4151C14.543 31.3593 13.708 31.1652 12.9777 30.8813C12.2111 30.593 11.5172 30.141 10.9434 29.5566C10.3593 28.9832 9.90735 28.2889 9.61896 27.5226C9.33514 26.7923 9.14075 25.9573 9.08521 24.7351C9.02875 23.5101 9.01562 23.1189 9.01562 20C9.01562 16.8811 9.02875 16.4899 9.0849 15.2652C9.14044 14.0427 9.33453 13.208 9.61835 12.4774C9.90674 11.7111 10.359 11.0168 10.9434 10.4434C11.5168 9.85901 12.2111 9.40704 12.9774 9.11865C13.708 8.83484 14.5427 8.64075 15.7652 8.5849C16.9899 8.52905 17.3811 8.51562 20.5 8.51562C23.6189 8.51562 24.0101 8.52905 25.2348 8.58521C26.4573 8.64075 27.292 8.83484 28.0226 9.11835C28.7889 9.40674 29.4832 9.85901 30.0569 10.4434C30.641 11.0172 31.0933 11.7111 31.3813 12.4774C31.6655 13.208 31.8596 14.0427 31.9154 15.2652C31.9713 16.4899 31.9844 16.8811 31.9844 20C31.9844 23.1189 31.9713 23.5101 31.9151 24.7348Z" fill="white"/>
</g>
<defs>
<clipPath id="clip0">
<rect width="40" height="40" fill="white" transform="translate(0.5)"/>
</clipPath>
</defs>
</svg>
