<svg width="169" height="35" viewBox="0 0 169 35" fill="none" xmlns="http://www.w3.org/2000/svg">
<g clip-path="url(#clip0)">
<path d="M163.204 6.78174L157.437 13.3168V6.78174H153.265V23.2793H157.437V16.3347L163.61 23.2793H169L161.407 14.6352L168.449 6.78174H163.204Z" fill="#EF3124"/>
<path d="M145.906 12.9352H140.14V6.78223H135.967V23.2788H140.14V16.774H145.906V23.2788H150.08V6.78223H145.906V12.9352Z" fill="#EF3124"/>
<path d="M24.7769 15.7186C24.6772 18.7951 24.284 19.4108 22.5742 19.4108V23.2788H23.2121C27.4769 23.2788 28.5026 21.0516 28.6602 16.0997L28.8333 10.6201H32.8326V23.2788H37.006V6.78223H25.0668L24.7769 15.7186Z" fill="#EF3124"/>
<path d="M47.0594 19.6457H44.3647V15.4561H47.0594C48.5081 15.4561 49.378 16.1001 49.378 17.4771C49.378 18.9714 48.5371 19.6457 47.0594 19.6457ZM47.3783 11.7932H44.3647V6.78174H40.1914V23.2793H47.4363C51.9856 23.2793 53.6084 20.2907 53.6084 17.4771C53.6084 13.8445 51.3486 11.7932 47.3783 11.7932Z" fill="#EF3124"/>
<path d="M67.1994 19.6745V10.357C69.5171 10.6786 70.9659 12.4367 70.9659 15.0158C70.9659 17.5939 69.5171 19.352 67.1994 19.6745ZM63.0261 19.6745C60.7075 19.352 59.2587 17.5939 59.2587 15.0158C59.2587 12.4367 60.7075 10.6786 63.0261 10.357V19.6745ZM67.1994 6.40099V0.276367H63.0261V6.40099C58.2448 6.81052 55.0283 10.2398 55.0283 15.0158C55.0283 19.8211 58.2448 23.2494 63.0261 23.6599V29.8724H67.1994V23.6599C71.9807 23.2787 75.1972 19.8211 75.1972 15.0158C75.1972 10.2104 71.9807 6.7812 67.1994 6.40099Z" fill="#EF3124"/>
<path d="M86.6736 17.1249C86.6736 19.0296 85.3398 20.1144 83.6011 20.1144C82.0943 20.1144 80.9065 19.5574 80.9065 17.9165C80.9065 16.3049 82.2103 16.0411 83.3402 16.0411H86.6736V17.1249ZM90.846 18.2097V12.6714C90.846 8.62832 88.2963 6.07861 84.007 6.07861C79.5737 6.07861 77.2261 8.774 77.0231 11.5876H81.2544C81.3985 10.9719 82.0363 9.91738 84.007 9.91738C85.6298 9.91738 86.6736 10.6787 86.6736 12.6714H82.5292C78.8198 12.6714 76.6172 14.6348 76.6172 17.9165C76.6172 21.3448 79.0264 23.6893 82.5002 23.6893C85.0472 23.6893 86.4615 22.4717 87.0786 21.55C87.6295 22.6632 88.8463 23.2789 90.4401 23.2789H91.8889V19.4694C91.1359 19.4694 90.846 19.1176 90.846 18.2097Z" fill="#EF3124"/>
<path d="M108.523 19.1175H104.061V13.1404H108.523C110.842 13.1404 112.146 14.2242 112.146 16.1289C112.146 18.0923 110.842 19.1175 108.523 19.1175ZM108.726 9.12569H104.061V4.46694H114.869V0.276367H99.6846V23.2787H108.726C113.739 23.2787 116.608 20.7583 116.608 16.1289C116.608 11.7634 113.739 9.12569 108.726 9.12569Z" fill="#EF3124"/>
<path d="M128.403 17.1249C128.403 19.0296 127.069 20.1144 125.331 20.1144C123.824 20.1144 122.636 19.5574 122.636 17.9165C122.636 16.3049 123.94 16.0411 125.07 16.0411H128.403V17.1249ZM132.575 18.2097V12.6714C132.575 8.62832 130.026 6.07861 125.737 6.07861C121.303 6.07861 118.956 8.774 118.753 11.5876H122.984C123.128 10.9719 123.766 9.91738 125.737 9.91738C127.359 9.91738 128.403 10.6787 128.403 12.6714H124.259C120.549 12.6714 118.347 14.6348 118.347 17.9165C118.347 21.3448 120.756 23.6893 124.23 23.6893C126.777 23.6893 128.191 22.4717 128.808 21.55C129.359 22.6632 130.576 23.2789 132.17 23.2789H133.619V19.4694C132.865 19.4694 132.575 19.1176 132.575 18.2097Z" fill="#EF3124"/>
<path d="M22.3136 34.9996H0V30.3115H22.3136V34.9996Z" fill="#EF3124"/>
<path d="M7.96877 14.5763L11.0992 5.16997H11.2143L14.1708 14.5763H7.96877ZM15.2127 3.43382C14.5767 1.51535 13.8437 0 11.3303 0C8.81775 0 8.03763 1.50894 7.36805 3.43382L0.463867 23.2791H5.04219L6.63596 18.5617H15.4456L16.9234 23.2791H21.7916L15.2127 3.43382Z" fill="#EF3124"/>
</g>
<defs>
<clipPath id="clip0">
<rect width="169" height="35" fill="white"/>
</clipPath>
</defs>
</svg>
