<svg width="78" height="59" viewBox="0 0 78 59" fill="none" xmlns="http://www.w3.org/2000/svg">
<g clip-path="url(#clip0)">
<path d="M5.91602 1.14209H15.7659V4.43142H9.61919V9.04903H13.9397V12.3389H9.61919V17.822H15.7659V21.1113H5.91602" fill="#EF4044"/>
<path d="M30.5904 1.14209V21.1113H27.3192L23.4312 10.8955V21.1113H19.7275V1.14209H23.0299L26.8872 11.2713V1.14209" fill="#EF4044"/>
<path d="M37.6069 1.14209H41.3101V15.9174C41.3101 17.5141 40.852 18.7786 39.9369 19.7115C39.0212 20.6454 37.7196 21.1113 36.0325 21.1113H34.5518V17.822H35.5084C36.9073 17.822 37.6069 17.1866 37.6069 15.9174" fill="#EF4044"/>
<path d="M49.4725 17.3744C49.8016 17.8268 50.2541 18.0528 50.8299 18.0528C51.4267 18.0528 51.8843 17.8268 52.2037 17.3744C52.522 16.9225 52.6817 16.3213 52.6817 15.5709V6.68288C52.6817 5.93245 52.522 5.33128 52.2037 4.87885C51.8843 4.42746 51.4267 4.20098 50.8299 4.20098C50.2541 4.20098 49.8016 4.42746 49.4725 4.87885C49.1429 5.33128 48.9786 5.93245 48.9786 6.68288V15.5709C48.9786 16.3213 49.1429 16.9225 49.4725 17.3744ZM45.2754 6.59581C45.2754 5.51889 45.5067 4.54717 45.97 3.6817C46.4327 2.8157 47.0858 2.13731 47.9298 1.64705C48.7728 1.15627 49.7397 0.911133 50.8299 0.911133C51.9206 0.911133 52.8875 1.15627 53.731 1.64705C54.5745 2.13731 55.2282 2.8157 55.6909 3.6817C56.1536 4.54717 56.3849 5.51889 56.3849 6.59581V15.6574C56.3849 16.7354 56.1536 17.7066 55.6909 18.572C55.2282 19.4375 54.5745 20.1159 53.731 20.6067C52.8875 21.097 51.9206 21.3426 50.8299 21.3426C49.7397 21.3426 48.7728 21.097 47.9298 20.6067C47.0858 20.1159 46.4327 19.4375 45.97 18.572C45.5067 17.7066 45.2754 16.7354 45.2754 15.6574" fill="#EF4044"/>
<path d="M70.4789 1.14209L66.0044 12.4254V21.1113H62.3007V12.4254L57.8262 1.14209H61.9306L64.1531 7.98091L66.375 1.14209" fill="#EF4044"/>
<path d="M10.4525 34.8594C11.0078 34.8594 11.4193 34.7009 11.687 34.3832C11.9542 34.066 12.0883 33.6473 12.0883 33.128V30.1268C12.0883 29.6075 11.9542 29.1888 11.687 28.8716C11.4193 28.5539 11.0078 28.3953 10.4525 28.3953H9.6192V34.8594H10.4525ZM5.91602 25.1055H10.5451C11.5944 25.1055 12.5203 25.3268 13.3224 25.7693C14.1249 26.2119 14.7371 26.8084 15.1589 27.5583C15.5801 28.3088 15.7915 29.1364 15.7915 30.0402V33.2145C15.7915 34.1189 15.5801 34.946 15.1589 35.6964C14.7371 36.4463 14.1249 37.0434 13.3224 37.4859C12.5203 37.9285 11.5944 38.1493 10.5451 38.1493H9.6192V45.0752H5.91602" fill="#231F20"/>
<path d="M23.4307 34.5713H24.4181C24.9734 34.5713 25.3849 34.4122 25.6526 34.095C25.9198 33.7773 26.0534 33.3591 26.0534 32.8393V30.1273C26.0534 29.6075 25.9198 29.1892 25.6526 28.8716C25.3849 28.5544 24.9734 28.3953 24.4181 28.3953H23.4307V34.5713ZM26.5473 45.0752L23.9554 37.8606H23.4307V45.0752H19.7275V25.106H24.5107C25.56 25.106 26.4854 25.3272 27.288 25.7693C28.0905 26.2119 28.7022 26.8084 29.1239 27.5588C29.5457 28.3087 29.7566 29.1364 29.7566 30.0402V32.9263C29.7566 33.8499 29.5355 34.6962 29.0932 35.4658C28.6505 36.2354 28.0286 36.8319 27.226 37.2548L30.6211 45.0752" fill="#231F20"/>
<path d="M33.708 45.0752H37.4112V25.1055H33.708V45.0752Z" fill="#231F20"/>
<path d="M52.2144 25.1055V45.0752H48.9432L45.0553 34.8594V45.0752H41.3516V25.1055H44.654L48.5112 35.2347V25.1055" fill="#231F20"/>
<path d="M56.2188 25.1055H72.0853V28.3953H66.0036V45.0752H62.3005V28.3953H56.2188" fill="#231F20"/>
<path d="M6.91564 58.0203C7.0175 58.166 7.15775 58.239 7.33433 58.239C7.51143 58.239 7.65116 58.166 7.75353 58.0203C7.8559 57.8742 7.90708 57.6757 7.90708 57.4243V54.6289C7.90708 54.377 7.8559 54.178 7.75353 54.0329C7.65116 53.8868 7.51143 53.8142 7.33433 53.8142C7.15775 53.8142 7.0175 53.8868 6.91564 54.0329C6.81328 54.178 6.76209 54.377 6.76209 54.6289V57.4243C6.76209 57.6757 6.81328 57.8742 6.91564 58.0203ZM5.91602 54.603C5.91602 54.2941 5.97539 54.0174 6.09465 53.7712C6.2134 53.5256 6.38026 53.3338 6.59625 53.1965C6.81225 53.0591 7.05794 52.9907 7.33433 52.9907C7.61073 52.9907 7.85743 53.0591 8.07292 53.1965C8.28892 53.3338 8.45578 53.5256 8.57504 53.7712C8.69378 54.0174 8.75316 54.2941 8.75316 54.603V57.4497C8.75316 57.7586 8.69378 58.0359 8.57504 58.282C8.45578 58.5277 8.28892 58.7194 8.07292 58.8563C7.85743 58.9936 7.61073 59.0625 7.33433 59.0625C7.05794 59.0625 6.81225 58.9936 6.59625 58.8563C6.38026 58.7194 6.2134 58.5277 6.09465 58.282C5.97539 58.0359 5.91602 57.7586 5.91602 57.4497" fill="#231F20"/>
<path d="M10.2295 53.0591H11.0756V55.486H12.0711V53.0591H12.9172V58.9936H12.0711V56.309H11.0756V58.9936H10.2295" fill="#231F20"/>
<path d="M17.1404 58.9936H16.2944V53.8826H15.672C15.6387 54.6029 15.5947 55.3176 15.5394 56.0266C15.4841 56.7355 15.4314 57.2787 15.3817 57.656C15.3147 58.1073 15.1688 58.4437 14.9421 58.6634C14.7153 58.8837 14.4277 58.9936 14.0791 58.9936V58.1706C14.3611 58.1706 14.5352 57.9472 14.6017 57.5015C14.6733 56.9988 14.7399 56.3127 14.8008 55.4435C14.8617 54.5744 14.8945 53.78 14.9006 53.0591H17.1404" fill="#231F20"/>
<path d="M20.1432 56.8413L19.8197 54.903L19.4962 56.8413H20.1432ZM19.4466 53.0591H20.1929L21.3875 58.9936H20.5L20.2758 57.6642H19.3632L19.1395 58.9936H18.252" fill="#231F20"/>
<path d="M23.1542 52.4286C22.9663 52.2431 22.8722 51.9954 22.8722 51.687H23.5939C23.5939 51.7958 23.6215 51.8829 23.6768 51.9487C23.7321 52.0145 23.8068 52.0472 23.901 52.0472C23.9951 52.0472 24.0694 52.0145 24.1246 51.9487C24.1799 51.8829 24.2081 51.7958 24.2081 51.687H24.9298C24.9298 51.9954 24.8356 52.2431 24.6477 52.4286C24.4594 52.6147 24.2106 52.7074 23.901 52.7074C23.5913 52.7074 23.3425 52.6147 23.1542 52.4286ZM25.3029 53.0593V58.9933H24.4568V55.5376L23.254 58.9933H22.499V53.0593H23.3451V56.5321L24.5479 53.0593" fill="#231F20"/>
<path d="M26.9209 53.0591H27.767V55.486H28.7625V53.0591H29.6091V58.9936H28.7625V56.309H27.767V58.9936H26.9209" fill="#231F20"/>
<path d="M32.5371 53.0532H35.2965V53.8783H34.3408V58.9991H33.4927V53.8783H32.5371" fill="#231F20"/>
<path d="M39.3193 53.0532V58.9991H38.4717V55.5367L37.2663 58.9991H36.5098V53.0532H37.3579V56.5333L38.5628 53.0532" fill="#231F20"/>
<path d="M43.5836 58.9991H42.736V53.8783H41.7886V58.9991H40.9404V53.0532H43.5836" fill="#231F20"/>
<path d="M46.0652 58.0243C46.1675 58.1705 46.3078 58.2431 46.4854 58.2431C46.6625 58.2431 46.8022 58.1705 46.9051 58.0243C47.0075 57.8777 47.0586 57.6792 47.0586 57.4268V54.6257C47.0586 54.3738 47.0075 54.1748 46.9051 54.0286C46.8022 53.8825 46.6625 53.8094 46.4854 53.8094C46.3078 53.8094 46.1675 53.8825 46.0652 54.0286C45.9628 54.1748 45.9116 54.3738 45.9116 54.6257V57.4268C45.9116 57.6792 45.9628 57.8777 46.0652 58.0243ZM45.0635 54.6003C45.0635 54.2904 45.1234 54.0131 45.2426 53.7664C45.3614 53.5202 45.5293 53.328 45.7452 53.1906C45.9612 53.0533 46.208 52.9844 46.4854 52.9844C46.7618 52.9844 47.009 53.0533 47.2245 53.1906C47.441 53.328 47.6084 53.5202 47.7276 53.7664C47.8469 54.0131 47.9068 54.2904 47.9068 54.6003V57.4522C47.9068 57.7621 47.8469 58.0399 47.7276 58.2861C47.6084 58.5322 47.441 58.7245 47.2245 58.8618C47.009 58.9997 46.7618 59.0681 46.4854 59.0681C46.208 59.0681 45.9612 58.9997 45.7452 58.8618C45.5293 58.7245 45.3614 58.5322 45.2426 58.2861C45.1234 58.0399 45.0635 57.7621 45.0635 57.4522" fill="#231F20"/>
<path d="M49.3857 53.0532H51.6133V53.8783H50.2334V58.9991H49.3857" fill="#231F20"/>
<path d="M53.9566 56.0352C54.123 56.0352 54.2504 55.9819 54.339 55.8761C54.428 55.7699 54.4725 55.6253 54.4725 55.4418V54.4712C54.4725 54.2877 54.428 54.1431 54.339 54.0369C54.2504 53.9311 54.123 53.8783 53.9566 53.8783H53.6577V56.0352H53.9566ZM52.8096 53.0532H53.9817C54.2478 53.0532 54.4818 53.1149 54.6839 53.2382C54.8861 53.3611 55.0427 53.5285 55.1538 53.7409C55.2644 53.9529 55.3196 54.1877 55.3196 54.4452V55.4677C55.3196 55.7253 55.2644 55.9606 55.1538 56.1726C55.0427 56.3845 54.8861 56.5519 54.6839 56.6753C54.4818 56.7981 54.2478 56.8598 53.9817 56.8598H53.6577V58.9996H52.8096" fill="#231F20"/>
<path d="M57.8885 56.8427L57.564 54.9008L57.24 56.8427H57.8885ZM57.1899 53.0532H57.9382L59.1354 58.9991H58.2458L58.0216 57.6677H57.1069L56.8822 58.9991H55.9932" fill="#231F20"/>
<path d="M62.967 55.3647C62.967 55.073 62.9086 54.8335 62.7924 54.6475C62.6757 54.4609 62.5068 54.3334 62.2857 54.265V57.6243C62.5068 57.5559 62.6757 57.4284 62.7924 57.2424C62.9086 57.0558 62.967 56.8169 62.967 56.5246V55.3647ZM60.9304 57.2424C61.0471 57.4284 61.216 57.5559 61.4376 57.6243V54.265C61.216 54.3334 61.0471 54.4609 60.9304 54.6475C60.8142 54.8335 60.7558 55.073 60.7558 55.3647V56.5246C60.7558 56.8169 60.8142 57.0558 60.9304 57.2424ZM63.4031 54.0458C63.6774 54.3868 63.8151 54.818 63.8151 55.3393V56.5505C63.8151 57.0718 63.6774 57.5025 63.4031 57.844C63.1292 58.1845 62.7561 58.3949 62.2857 58.4753V59.0075H61.4376V58.4753C60.9662 58.3949 60.5941 58.1845 60.3197 57.844C60.0449 57.5025 59.9082 57.0718 59.9082 56.5505V55.3393C59.9082 54.818 60.0449 54.3868 60.3197 54.0458C60.5941 53.7048 60.9662 53.4949 61.4376 53.4146V52.9331H62.2857V53.4146C62.7561 53.4949 63.1292 53.7048 63.4031 54.0458Z" fill="#231F20"/>
<path d="M68.0458 53.0532V58.9991H67.1977V55.5367L65.9928 58.9991H65.2363V53.0532H66.0839V56.5333L67.2893 53.0532" fill="#231F20"/>
<path d="M71.2376 53.8783H70.8967C70.7303 53.8783 70.6029 53.9311 70.5149 54.0369C70.4258 54.1431 70.3818 54.2877 70.3818 54.4712V55.3563C70.3818 55.5393 70.4258 55.6839 70.5149 55.7901C70.6029 55.8958 70.7303 55.9487 70.8967 55.9487H71.2376V53.8783ZM72.0852 53.0532V58.9991H71.2376V56.7737H71.0047L70.2405 58.9991H69.3008L70.2405 56.6276C70.0184 56.5188 69.8454 56.3529 69.7205 56.1295C69.5961 55.9057 69.5337 55.6569 69.5337 55.3817V54.4452C69.5337 54.1877 69.5889 53.9529 69.7 53.7409C69.8106 53.529 69.9672 53.3611 70.1694 53.2377C70.3716 53.1149 70.606 53.0532 70.8721 53.0532" fill="#231F20"/>
</g>
<defs>
<clipPath id="clip0">
<rect width="78" height="59" fill="white"/>
</clipPath>
</defs>
</svg>
