<svg width="263" height="59" viewBox="0 0 263 59" fill="none" xmlns="http://www.w3.org/2000/svg">
<path d="M4.06558 15.6947C4.06558 14.5262 5.02167 13.5763 6.19617 13.5763C7.37177 13.5763 8.32772 14.5262 8.32772 15.6947C8.32772 16.8632 7.37177 17.8136 6.19617 17.8136C5.02167 17.8136 4.06558 16.8632 4.06558 15.6947ZM10.2698 15.6947C10.2698 13.4616 8.44275 11.6453 6.19617 11.6453C3.95055 11.6453 2.12305 13.4616 2.12305 15.6947C2.12305 17.9279 3.95055 19.7446 6.19617 19.7446C8.44275 19.7446 10.2698 17.9279 10.2698 15.6947Z" fill="#00ADEF"/>
<path d="M105.964 42.4113V42.1185C105.964 41.3791 105.361 40.7801 104.617 40.7801H91.9318C91.1886 40.7801 90.5855 41.3791 90.5855 42.1185V42.4113H14.9619C14.144 42.4113 11.6548 42.4113 9.72136 40.7244C7.55899 38.8619 7.55899 36.2028 7.55899 35.3294V21.6343C7.55899 21.6343 7.23064 21.6985 6.34317 21.717C6.05006 21.7231 5.61575 21.6891 5.33398 21.6494V35.3294C5.33398 38.3435 6.31719 40.7181 8.25488 42.3877C10.8166 44.6231 13.9365 44.6231 14.9619 44.6231H90.5855V45.0184C90.5855 45.7577 91.1886 46.3569 91.9318 46.3569H104.617C105.361 46.3569 105.964 45.7577 105.964 45.0184V44.6231H113.882V42.4113H105.964Z" fill="#00ADEF"/>
<path d="M32.1311 14.5586L32.7874 12.7503H11.4785C11.7921 13.3051 12.0193 13.9132 12.143 14.5586H32.1311Z" fill="#00ADEF"/>
<path d="M17.2884 38.321C18.0112 38.9512 18.9638 39.1878 19.7424 39.2656C18.6247 38.0123 18.481 36.4458 18.481 35.3291V18.2036H18.4874V17.2986C18.4874 16.7995 18.0802 16.3944 17.578 16.3944H16.5362H12.3164C12.2418 17.0337 12.0644 17.6404 11.8047 18.2027H16.1898V35.4117C16.1898 36.5638 16.3896 37.5462 17.2884 38.321Z" fill="#00ADEF"/>
<path d="M30.808 18.2028L31.4647 16.3946H21.1401C20.6377 16.3946 20.2305 16.7996 20.2305 17.2987V35.3288C20.2305 36.4808 20.4305 37.6129 21.3293 38.3877C22.3078 39.2412 23.6862 39.3008 24.5052 39.3008H28.4377V39.2975H37.9824V39.2527C37.3982 38.586 37.0853 37.8296 36.919 37.1441H24.0151C24.0151 37.1441 23.4966 37.198 23.1071 36.7786C22.6353 36.2707 22.5681 35.5077 22.5681 34.7136V18.2028H30.808Z" fill="#00ADEF"/>
<path d="M46.5961 35.4409H51.8182V33.6087H47.9273C46.9243 33.6087 45.7365 33.5067 45.2041 32.4685C44.9168 31.8986 44.8555 30.86 44.8555 30.2287C44.8555 29.9034 44.876 28.7632 45.0398 28.1929C45.3062 27.277 46.0841 26.4829 47.7022 26.4829H51.5727V24.6505H46.9243C44.9785 24.6505 44.0572 25.3635 43.6061 25.811C42.3984 27.0532 42.3779 28.9058 42.3779 30.1886C42.3779 31.715 42.4596 33.0591 43.361 34.1177C44.3436 35.2781 45.7773 35.4409 46.5961 35.4409Z" fill="#00ADEF"/>
<path d="M56.6279 35.4409H59.0239V26.4829H63.0991V24.6505H52.5527V26.4829H56.6279V35.4409Z" fill="#00ADEF"/>
<path d="M66.9928 27.2167C67.6686 26.4429 68.8359 26.3612 69.6138 26.3612C70.4743 26.3612 71.5187 26.4429 72.2149 27.2167C72.9728 28.051 72.9111 29.2728 72.9111 30.067C72.9111 31.0032 72.9111 32.0414 72.1945 32.8355C71.4773 33.6296 70.5152 33.7312 69.6138 33.7312C68.7542 33.7312 67.7099 33.6296 67.0132 32.8355C66.3374 32.0617 66.317 30.9626 66.317 30.067C66.317 29.3744 66.317 27.9901 66.9928 27.2167ZM69.6138 35.5635C70.8633 35.5635 72.8294 35.4818 73.9967 34.4029C74.7951 33.6499 75.3887 32.286 75.3887 30.0056C75.3887 28.8659 75.2458 26.8296 73.9967 25.6691C72.8085 24.57 70.9041 24.5289 69.6138 24.5289C68.3235 24.5289 66.4195 24.57 65.2318 25.6691C63.9823 26.8296 63.8389 28.8659 63.8389 30.0873C63.8389 31.1864 63.9414 33.2222 65.2318 34.4029C66.4195 35.4818 68.3235 35.5635 69.6138 35.5635Z" fill="#00ADEF"/>
<path d="M79.3369 24.6505H76.9404V35.4409H79.3369V24.6505Z" fill="#00ADEF"/>
<path d="M32.4901 32.3265L32.5927 24.6511H30.1963V34.0366C30.1963 34.6068 30.3605 35.5634 31.7731 35.5634C32.5927 35.5634 32.9406 35.2787 33.3296 34.7084L38.1015 27.7662C38.2654 27.5217 38.3466 27.4811 38.3879 27.4811C38.5517 27.4811 38.5109 27.6033 38.5109 27.7662L38.48 32.3086V35.3288C38.48 36.4808 38.6795 37.6129 39.5785 38.3877C40.5573 39.2412 41.9355 39.3008 42.7547 39.3008H46.687V39.2975H77.485V39.3008H86.6399C88.2574 39.3008 88.6164 38.3306 88.6544 37.8414C88.6919 37.3542 88.6088 36.7801 87.9383 36.0907L82.6373 30.6368C82.473 30.4739 82.2483 30.1075 82.2483 29.8832C82.2483 29.5376 82.5756 29.1911 82.7603 29.0084L86.8764 24.6511H84.0297L80.5691 28.4787C80.2618 28.8247 79.8111 29.3337 79.8111 29.8832C79.8111 30.4333 80.1796 30.8808 80.4256 31.1457L85.4094 36.5936C85.6364 36.8693 85.6482 36.925 85.6482 36.9662C85.6482 37.1285 85.5499 37.214 85.2887 37.1989L42.2641 37.1441C42.2641 37.1441 41.746 37.198 41.3561 36.7786C40.884 36.2707 40.8171 35.5077 40.8171 34.7136L40.8247 26.178C40.8247 24.5699 39.5756 24.5288 39.248 24.5288C38.7569 24.5288 38.2036 24.6511 37.7734 25.2621L32.9406 32.3265C32.8587 32.4488 32.7768 32.6112 32.654 32.6112C32.4901 32.6112 32.4901 32.5102 32.4901 32.3265Z" fill="#00ADEF"/>
</svg>
