<svg width="127" height="49" viewBox="0 0 127 49" fill="none" xmlns="http://www.w3.org/2000/svg">
<g clip-path="url(#clip0)">
<path d="M75.4973 25.2004C76.3345 25.8781 77.6911 25.6395 79.0866 24.8418C80.4822 24.0442 97.8312 11.2819 97.8312 11.2819L97.313 11.0024L75.3779 24.5623L75.4973 25.2004Z" fill="#E9E8E0"/>
<path d="M74.9241 23.5789L69.3145 16.6918L70.0323 16.187L75.7753 22.3288L74.9241 23.5789Z" fill="#E9E8E0"/>
<path d="M37.0479 27.5646H41.3979C41.3979 27.5646 65.5664 -3.43487 104.97 4.22247C103.215 1.90932 103.215 1.90932 103.215 1.90932L91.8087 0.952148L78.9667 2.3879L67.6402 6.21657L50.6505 15.868L44.5087 20.4943L40.4407 24.9611L37.0479 27.5646Z" fill="#E9E8E0"/>
<path d="M35.7971 31.665V44.5307C35.7977 45.1426 35.6822 45.5727 35.4959 45.8299C35.3109 46.0838 35.0665 46.2134 34.6593 46.2306L34.3945 46.2382V48.6561L34.6861 48.6375C35.8182 48.5693 36.7256 48.1673 37.3337 47.4264C37.9424 46.6875 38.2398 45.6467 38.2698 44.3341V31.665H35.7971Z" fill="#023060"/>
<path d="M62.2494 40.513C61.938 40.8065 61.5775 41.0681 61.1627 41.2947C60.7715 41.5135 60.3714 41.6182 59.942 41.6195C58.8821 41.6035 58.0481 41.2455 57.3755 40.5264C56.6978 39.8359 56.352 38.9521 56.3373 37.8055C56.3526 36.4176 56.715 35.4298 57.3851 34.7904C58.0787 34.1235 58.8508 33.8045 59.7544 33.8019C60.6362 33.8045 61.423 34.1472 62.162 34.8721L62.3738 35.0814L62.5652 34.8523L64.0399 33.0879L63.8542 32.9099C63.419 32.4951 62.8511 32.1454 62.1581 31.8557C61.4498 31.5679 60.6445 31.416 59.7467 31.3931H59.7378H59.732C58.0219 31.4275 56.5817 32.0548 55.4828 33.2551C54.3342 34.4541 53.7465 35.9722 53.7363 37.7468C53.7472 39.4467 54.3068 40.9194 55.3986 42.121C56.4547 43.3526 57.9192 43.9939 59.711 44.0277H59.7218C61.289 44.0277 62.6539 43.4662 63.7643 42.3712L63.9372 42.1989L62.4695 40.3043L62.2494 40.513Z" fill="#023060"/>
<path d="M20.1771 31.4076C19.8472 31.3483 19.5052 31.3145 19.1529 31.3145C17.8314 31.3125 16.7032 31.7069 15.8213 32.4975C14.9057 33.3118 14.4539 34.5401 14.4424 36.1092V43.6772H16.9163V36.3332C16.9317 35.3633 17.1697 34.7124 17.5742 34.3302C18.0209 33.9243 18.5467 33.7246 19.2053 33.7221C19.5167 33.7221 19.8013 33.7584 20.061 33.8254L20.4043 33.9141V31.4478L20.1771 31.4076Z" fill="#023060"/>
<path d="M31.6923 33.2747C30.5392 32.0578 29.0001 31.4274 27.14 31.3936H27.1279C25.2831 31.428 23.7529 32.0591 22.6056 33.2747C21.4289 34.4699 20.824 35.9726 20.8125 37.7204L21.0875 37.7224L20.8125 37.7249C20.824 39.4663 21.4136 40.9601 22.5667 42.1483C23.6827 43.3645 25.2289 43.995 27.1279 44.0288H27.1394C29.0582 43.9944 30.6145 43.3665 31.7383 42.1451C32.8728 40.962 33.4554 39.4695 33.4675 37.73C33.4567 35.9771 32.8594 34.4737 31.6923 33.2747ZM30.864 37.7217C30.8481 38.7937 30.4888 39.6794 29.7652 40.4362C29.0416 41.2205 28.1891 41.6027 27.1368 41.6193C26.1139 41.6034 25.2723 41.2218 24.5512 40.4413L24.5474 40.4362L24.5448 40.435C23.8078 39.6775 23.4383 38.7925 23.416 37.7217C23.4383 36.5527 23.8123 35.6293 24.5435 34.8923C25.2601 34.1751 26.1069 33.8197 27.1407 33.8018C28.1974 33.8197 29.0524 34.1757 29.769 34.8923C30.4844 35.6268 30.8481 36.5514 30.864 37.7217Z" fill="#023060"/>
<path d="M70.8105 41.329C70.4078 41.3667 70.0454 41.3954 69.7302 41.3954C69.6766 41.3954 69.6242 41.3947 69.5732 41.3922V41.3762L69.3077 41.366C69.2452 41.3647 69.182 41.3545 69.1035 41.3411C68.9574 41.3086 68.8343 41.2652 68.7373 41.2065L68.7047 41.188C68.6671 41.1631 68.6288 41.1325 68.5899 41.0961C68.556 41.0642 68.5235 41.0297 68.4941 40.9915C68.4769 40.9672 68.4546 40.9296 68.4291 40.8913C68.4291 40.8894 68.4227 40.8785 68.4144 40.8638C68.3697 40.7777 68.327 40.6794 68.2925 40.5722C68.274 40.5161 68.2587 40.4586 68.244 40.4018C68.2044 40.2212 68.1776 40.0139 68.1719 39.7835V33.8944H71.0983V31.6457H68.1719V28.8979H65.6992V39.4657C65.7005 39.5455 65.7062 39.6067 65.7094 39.6616C65.7292 40.5716 65.9111 41.329 66.2289 41.9359C66.2423 41.9639 66.255 41.9837 66.2608 41.9958C66.3054 42.0782 66.3514 42.1617 66.4069 42.2479C66.5639 42.4948 66.7527 42.7124 66.9646 42.9007L66.9946 42.9275L66.9959 42.9281C67.0941 43.0136 67.1975 43.0915 67.3041 43.1623C67.3111 43.1674 67.3181 43.1725 67.3283 43.1783C67.4362 43.2491 67.5414 43.3091 67.6506 43.364C67.6665 43.3716 67.6927 43.3856 67.7252 43.4035C67.8063 43.4405 67.8771 43.4667 67.9422 43.4922C68.3282 43.6454 68.7449 43.7341 69.182 43.7647C69.1954 43.7653 69.2293 43.7704 69.2778 43.7749L69.5732 43.7966V43.7755C70.0058 43.7723 70.4493 43.7187 70.8992 43.6147L71.1098 43.565V41.3028L70.8105 41.329Z" fill="#023060"/>
<path d="M112.927 41.4197C112.524 41.4573 112.161 41.4854 111.847 41.4854C111.792 41.4854 111.741 41.4841 111.688 41.4829V41.4637L111.422 41.4573C111.359 41.4554 111.296 41.4452 111.216 41.4305C111.076 41.4012 110.953 41.3565 110.853 41.2965L110.839 41.2882C110.794 41.2614 110.749 41.227 110.706 41.1861C110.673 41.1555 110.639 41.121 110.613 41.084C110.594 41.0579 110.57 41.0215 110.547 40.9819C110.545 40.9775 110.539 40.9673 110.53 40.9513C110.487 40.869 110.443 40.7688 110.408 40.6629C110.391 40.6067 110.375 40.5487 110.36 40.49C110.321 40.3151 110.3 40.1064 110.294 39.8735V39.0842L110.288 36.3671V33.9857H113.215V31.7363H110.288V28.9893H107.814V39.5628C107.817 39.6349 107.823 39.6961 107.825 39.7529C107.846 40.6667 108.028 41.4216 108.344 42.0265C108.359 42.054 108.37 42.0737 108.375 42.0852L108.378 42.0865L108.379 42.0916C108.421 42.1688 108.467 42.2524 108.521 42.3373C108.68 42.5849 108.869 42.8025 109.081 42.9914L109.085 42.9952L109.086 42.9958C109.192 43.0903 109.304 43.1758 109.42 43.253C109.424 43.2555 109.437 43.2657 109.458 43.2779C109.551 43.3391 109.657 43.3997 109.769 43.4546C109.786 43.4636 109.81 43.4776 109.841 43.4923C109.922 43.5306 109.993 43.5574 110.058 43.5835C110.445 43.7379 110.863 43.8254 111.299 43.856C111.313 43.8566 111.346 43.8617 111.396 43.8656L111.689 43.886V43.8668C112.122 43.863 112.566 43.8094 113.016 43.7048L113.228 43.6563V41.3942L112.927 41.4197Z" fill="#023060"/>
<path d="M89.6409 32.6953C88.7596 31.9028 87.6321 31.5078 86.3093 31.5091C85.5104 31.5091 84.7491 31.6648 84.037 31.9743C83.9272 32.0228 83.8213 32.0777 83.7192 32.1364C83.7192 32.1364 83.0709 32.5288 82.6772 33.015C82.5648 33.1388 82.4525 33.262 82.353 33.3864C82.3294 33.3564 82.3032 33.3252 82.2796 33.2933C82.1335 33.1197 81.9695 32.9461 81.8361 32.8083C81.7525 32.7177 81.6664 32.6347 81.5809 32.5556L81.5732 32.5499L81.5681 32.5441C81.3065 32.3125 81.0149 32.1217 80.6894 31.9736C79.9728 31.6642 79.2128 31.5078 78.4139 31.5078C77.0905 31.5065 75.9623 31.9015 75.0811 32.6941C74.1635 33.5051 73.7136 34.7354 73.7002 36.3039V43.8732H76.1767V36.5291C76.1907 35.5592 76.43 34.9102 76.8359 34.5274C77.2806 34.1196 77.8064 33.9192 78.465 33.918C79.269 33.9192 79.8835 34.1413 80.3608 34.5733C80.8305 35.004 81.0851 35.6051 81.1195 36.4417V43.8744H83.5948V36.6127C83.5986 35.6874 83.8589 35.0334 84.3599 34.5733C84.8384 34.1407 85.4542 33.9192 86.2582 33.918C86.9161 33.9192 87.4413 34.1196 87.8912 34.5299C88.2938 34.9102 88.5318 35.5592 88.5465 36.5336V43.8751H91.0205V36.3077C91.009 34.7373 90.5585 33.507 89.6409 32.6953Z" fill="#023060"/>
<path d="M102.907 31.8321V33.1874C102.474 32.7306 101.966 32.3681 101.389 32.1001C100.591 31.7415 99.7572 31.5603 98.8938 31.5615C97.1952 31.58 95.7396 32.1831 94.5904 33.3521C93.4303 34.509 92.8305 35.9958 92.8018 37.748V37.7563C92.8292 39.6573 93.4399 41.2219 94.6363 42.3852C95.8226 43.5695 97.2909 44.1808 98.9749 44.1942C99.9869 44.1789 100.862 43.9754 101.594 43.5753C102.098 43.313 102.538 42.9863 102.908 42.5996V43.9722H105.38V31.8321H102.907ZM95.4052 37.7633C95.4065 36.8151 95.7294 35.9626 96.3988 35.172C97.058 34.4018 97.9768 34.0004 99.2352 33.9698C100.249 33.9851 101.077 34.352 101.775 35.0967L101.777 35.0999L101.781 35.1043C102.519 35.8414 102.889 36.75 102.907 37.8871C102.89 39.0045 102.525 39.9029 101.8 40.6419C101.088 41.3955 100.231 41.7681 99.1618 41.7847C98.1644 41.7815 97.317 41.4312 96.5685 40.7031L96.5672 40.7006L96.5634 40.6967C95.8251 40.0172 95.434 39.0632 95.4052 37.7633Z" fill="#023060"/>
<path d="M11.1012 33.0942C9.91754 31.8926 8.42308 31.2717 6.67721 31.252C5.78513 31.252 4.9275 31.4376 4.11008 31.8046C3.50515 32.084 2.97807 32.4637 2.52948 32.9404V31.5302H0V48.9991H2.53011V42.5963C2.91234 43.0015 3.37115 43.3429 3.90078 43.6192C4.64865 44.0289 5.54775 44.2369 6.58277 44.2516C8.32354 44.2375 9.83203 43.6109 11.0572 42.3896C12.2862 41.1931 12.9148 39.5831 12.9416 37.6286V37.6184C12.9148 35.8151 12.2971 34.2855 11.1012 33.0942ZM10.2768 37.635C10.2462 38.9769 9.84352 39.9622 9.08098 40.6647L9.07778 40.6673L9.07459 40.6711C8.30184 41.4222 7.42699 41.7834 6.39261 41.7865C5.29314 41.7706 4.40936 41.3865 3.67744 40.6124C2.92255 39.8435 2.54671 38.9157 2.52948 37.7633C2.54734 36.5891 2.92957 35.6498 3.69148 34.8879L3.69339 34.886L3.69786 34.8809C4.41701 34.1139 5.27208 33.7355 6.32433 33.7176C7.62289 33.7502 8.57112 34.1649 9.25071 34.9594C9.94115 35.7736 10.2749 36.6529 10.2768 37.635Z" fill="#023060"/>
<path d="M123.556 40.9304C122.836 41.4632 122.046 41.7255 121.164 41.7369C120.131 41.7216 119.316 41.4121 118.667 40.8072L118.662 40.8021L118.659 40.7989C118.063 40.2871 117.677 39.6567 117.484 38.8737H126.998L126.995 38.5981C126.983 36.4808 126.422 34.7579 125.294 33.4785C124.193 32.1921 122.691 31.5284 120.867 31.5093C119.043 31.545 117.558 32.1678 116.48 33.377C115.388 34.5792 114.83 36.0769 114.816 37.8202C114.815 39.4627 115.368 40.9278 116.456 42.1689C117.553 43.4541 119.156 44.1107 121.185 44.1458H121.249C122.784 44.1458 124.188 43.599 125.436 42.5397L123.556 40.9304ZM118.401 34.8702C118.93 34.2595 119.718 33.936 120.846 33.9188C121.816 33.9354 122.587 34.2142 123.201 34.7528C123.749 35.2646 124.09 35.8957 124.223 36.6837H117.467C117.6 36.029 117.907 35.4286 118.401 34.8702Z" fill="#023060"/>
<path d="M48.9548 41.0009C48.2605 41.4845 47.5025 41.7258 46.6627 41.736C45.629 41.7206 44.8141 41.4112 44.1645 40.8062L44.1594 40.8011L44.1562 40.7979C43.5615 40.2862 43.1748 39.6557 42.9808 38.8728H52.4957L52.4944 38.5971C52.481 36.4798 51.9207 34.7569 50.7919 33.4775C49.6912 32.1911 48.1878 31.5274 46.3666 31.5083C44.5403 31.544 43.0548 32.1668 41.9777 33.3761C40.8846 34.5783 40.3282 36.0759 40.3135 37.8192C40.3122 39.4617 40.8654 40.9268 41.9528 42.168C43.0497 43.4531 44.6526 44.1097 46.6818 44.1448H46.7463C48.2439 44.1448 49.6172 43.6241 50.8417 42.6172L48.9548 41.0009ZM43.8997 34.8699C44.4293 34.2592 45.2167 33.9357 46.3443 33.9185C47.3148 33.935 48.0857 34.2139 48.6996 34.7525C49.2471 35.2642 49.5872 35.8953 49.7218 36.6834H42.9661C43.0988 36.0287 43.4058 35.4282 43.8997 34.8699Z" fill="#023060"/>
<path d="M78.0739 20.7513L70.0477 15.0415L69.4473 15.5494C69.4473 15.5494 74.0264 21.8936 75.6127 24.0331C77.1991 26.1727 80.7782 23.4869 78.0739 20.7513Z" fill="#E31B1C"/>
<path d="M78.3699 20.3877C76.134 21.6895 74.1999 23.4054 75.0288 24.9088C75.7875 26.2833 78.4714 24.3555 80.0488 23.2854C86.1345 19.1594 97.9198 10.0305 97.9198 10.0305L97.5382 9.44092C97.5382 9.44092 83.8462 17.1984 78.3699 20.3877Z" fill="#E31B1C"/>
<path d="M92.0388 5.70453C91.5251 6.56662 90.2891 7.25451 89.2783 7.23919C88.2675 7.22452 87.8687 6.51175 88.3849 5.64966C88.8973 4.78757 90.1359 4.09968 91.1416 4.115C92.1524 4.13031 92.5525 4.84244 92.0388 5.70453Z" fill="#E31B1C"/>
<path d="M107.539 9.79618C107.027 10.6589 105.791 11.3455 104.78 11.3289C103.771 11.3162 103.369 10.604 103.885 9.7413C104.4 8.87921 105.634 8.19197 106.646 8.20728C107.653 8.22196 108.055 8.93218 107.539 9.79618Z" fill="#E31B1C"/>
<path d="M114.757 21.1947C114.244 22.0561 113.006 22.744 111.998 22.7287C110.989 22.714 110.587 22.0025 111.103 21.1404C111.618 20.2777 112.851 19.5892 113.863 19.6058C114.87 19.6211 115.272 20.3313 114.757 21.1947Z" fill="#E31B1C"/>
<path d="M51.3973 21.7819C50.8798 22.6459 49.6476 23.3312 48.6381 23.3185C47.628 23.3032 47.2266 22.5917 47.7428 21.7289C48.2552 20.8669 49.4906 20.1802 50.502 20.1956C51.5096 20.209 51.911 20.9205 51.3973 21.7819Z" fill="#E31B1C"/>
<path d="M71.7724 9.90672C71.2562 10.7701 70.0227 11.458 69.012 11.4414C68.0025 11.4267 67.5998 10.7146 68.1148 9.85312C68.631 8.99039 69.8645 8.30378 70.8753 8.3191C71.886 8.33314 72.2861 9.04527 71.7724 9.90672Z" fill="#E31B1C"/>
<path d="M114.307 4.42212C109.717 1.63548 103.603 0 96.198 0C70.1387 0 49.6662 13.2944 37.0469 27.5645H38.7379C53.2294 11.3801 72.7448 2.23084 92.9257 2.23084C111.624 2.23084 120.808 13.81 116.229 27.5645H124.91C124.91 27.5645 127.864 12.1573 114.307 4.42212Z" fill="#E31B1C"/>
<path d="M96.9941 0.274414C109.437 1.55064 122.917 7.45318 120.724 26.7956C122.478 26.7956 124.034 26.7956 124.034 26.7956C124.034 26.7956 128.062 1.39111 96.9941 0.274414Z" fill="#E64430"/>
<path d="M76.0431 24.8014C75.405 23.924 77.2932 22.2228 82.0254 19.6703C86.7576 17.1179 97.4722 9.67236 97.4722 9.67236C97.4722 9.67236 79.286 19.9626 76.9728 21.6644C74.6597 23.3656 75.0598 24.9347 76.0431 24.8014Z" fill="#E64430"/>
<path d="M70.0332 15.3096L75.7239 21.6109C75.7239 21.6109 76.5751 20.8931 77.3989 20.7074C70.1927 15.4161 70.0332 15.3096 70.0332 15.3096Z" fill="#E64430"/>
<path d="M117.413 8.23682C119.766 10.0714 123.635 18.7133 122.039 26.7555C123.316 26.7555 123.635 26.7555 123.635 26.7555C124.219 24.0837 123.848 13.2894 117.413 8.23682Z" fill="#EC7873"/>
</g>
<defs>
<clipPath id="clip0">
<rect width="126.998" height="49" fill="white"/>
</clipPath>
</defs>
</svg>
