<svg width="107" height="24" viewBox="0 0 107 24" fill="none" xmlns="http://www.w3.org/2000/svg">
<g clip-path="url(#clip0)">
<path d="M26.0333 7.54646C25.4771 7.69297 25.02 7.85585 24.662 8.03487C24.3041 8.2139 23.9654 8.41474 23.6461 8.6373C23.3268 8.85986 23.1174 9.02042 23.0184 9.11817L22.8036 9.32982V7.66905H19.417V23.6745H22.8036V15.0124C22.8036 13.5361 23.1863 12.3877 23.9518 11.5682C24.7172 10.7486 25.7442 10.3394 27.0327 10.3394C28.0758 10.3394 28.5519 10.3394 29.0286 10.3394V7.32715H27.71C27.1484 7.32715 26.5895 7.39994 26.0333 7.54646Z" fill="#0000FF"/>
<path d="M56.4464 7.32715C55.8847 7.32715 55.3258 7.39983 54.7696 7.54646C54.2134 7.69297 53.7564 7.85585 53.3984 8.03487C53.0404 8.2139 52.7018 8.41474 52.3824 8.6373C52.0631 8.85986 51.8538 9.02042 51.7547 9.11817L51.54 9.32982V7.66905H48.1533V23.6745H51.54V15.0124C51.54 13.5361 51.9227 12.3877 52.6881 11.5682C53.4535 10.7486 54.4805 10.3394 55.7691 10.3394C56.8704 10.3394 57.7927 10.7193 58.5361 11.4791C59.2795 12.239 59.6513 13.1942 59.6513 14.3447V23.6745H63.0379V14.3447C63.0379 12.2063 62.4294 10.5022 61.2125 9.23206C59.9953 7.9622 58.4067 7.32715 56.4464 7.32715Z" fill="#0000FF"/>
<path d="M78.391 9.50883L78.1598 9.26456C78.0276 9.1343 77.8018 8.95737 77.4824 8.73481C77.1631 8.51225 76.8024 8.29515 76.4004 8.08351C75.9984 7.87186 75.5084 7.69272 74.9301 7.54621C74.3519 7.3997 73.76 7.3269 73.1542 7.3269C71.0066 7.3269 69.1453 8.13772 67.5703 9.76052C65.9954 11.3833 65.208 13.3513 65.208 15.6634C65.208 17.9754 65.9954 19.9423 67.5703 21.5651C69.1452 23.1879 71.0065 23.9999 73.1542 23.9999C74.1013 23.9999 75.0319 23.8013 75.9461 23.405C76.8602 23.0088 77.4577 22.6864 77.7385 22.4368C78.0193 22.1872 78.2369 21.9863 78.3911 21.8344L78.9576 23.6743H81.7777V0.325684H78.391V9.50883ZM76.9042 19.441C75.913 20.4831 74.7759 21.0042 73.4928 21.0042C72.2097 21.0042 71.0698 20.4831 70.0732 19.441C69.0765 18.3989 68.5782 17.142 68.5782 15.6711C68.5782 14.2003 69.0765 12.9444 70.0732 11.9023C71.0699 10.8602 72.2098 10.3392 73.4928 10.3392C74.7758 10.3392 75.913 10.8602 76.9042 11.9023C77.8954 12.9444 78.391 14.2003 78.391 15.6711C78.391 17.142 77.8954 18.3989 76.9042 19.441Z" fill="#0000FF"/>
<path d="M88.5361 0.325684H85.166V23.6744H88.5361V0.325684Z" fill="#0000FF"/>
<path d="M95.3241 7.66895H91.9375V23.6744H95.3241V7.66895Z" fill="#0000FF"/>
<path d="M95.6714 0.325684H91.6074V4.33114H95.6714V0.325684Z" fill="#0000FF"/>
<path d="M103.346 3.5658C103.731 3.18593 104.216 2.99588 104.799 2.99588H107V0H103.928V0.00325071C100.908 0.0715156 99.3975 1.73588 99.3975 4.99866V7.66889H97.0186V10.6648H99.3975V23.6742H102.768V10.6649H106.501V7.66889H102.768V5.03117C102.768 4.4342 102.96 3.94578 103.346 3.5658Z" fill="#0000FF"/>
<path d="M16.5575 13.1704C16.2541 12.7572 15.8928 12.3799 15.4736 12.0373C15.0543 11.6947 14.7647 11.4719 14.6047 11.3685C14.4448 11.2652 14.3206 11.1913 14.2324 11.1478L14.8447 10.6749C15.2308 10.3703 15.6197 9.82667 16.0114 9.04383C16.4031 8.26087 16.5989 7.40187 16.5989 6.46671C16.5989 4.84646 15.9205 3.41116 14.5634 2.16056C13.2063 0.909965 11.5679 0.284668 9.64814 0.284668H0V23.6746H10.1612C12.3347 23.6746 14.1496 23.0004 15.606 21.6521C17.0622 20.3037 17.7904 18.6944 17.7904 16.8241C17.7904 16.1173 17.6608 15.4354 17.4016 14.7776C17.1422 14.1196 16.8608 13.5836 16.5575 13.1704ZM3.72354 3.46526H9.64814C10.5749 3.46526 11.3445 3.76757 11.9568 4.37104C12.569 4.97452 12.8752 5.73031 12.8752 6.6383C12.8752 7.54629 12.569 8.30197 11.9568 8.90555C11.3445 9.50903 10.5749 9.8103 9.64814 9.8103H3.72354V3.46526ZM12.9415 19.3935C12.1913 20.1275 11.2645 20.494 10.1612 20.494H3.72354V12.8115H10.1611C11.2754 12.8115 12.2049 13.1813 12.9496 13.9207C13.6943 14.6601 14.0666 15.5736 14.0666 16.6609C14.0668 17.7483 13.6917 18.6595 12.9415 19.3935Z" fill="#0000FF"/>
<path d="M42.865 9.06071C41.5985 7.90461 39.9741 7.32715 37.9916 7.32715C34.7785 7.32715 31.9267 7.83612 31.9267 7.83612V11.2185C31.9267 11.2185 34.7785 10.3393 37.9916 10.3393C38.9828 10.3393 39.795 10.627 40.4283 11.2022C41.0615 11.7775 41.3782 12.4886 41.3782 13.3352L35.4474 14.3446C33.9827 14.5834 32.829 15.1479 31.9864 16.038C31.1439 16.9281 30.7227 18.0299 30.7227 19.3433C30.7227 20.5591 31.2678 21.6391 32.3581 22.5834C33.4484 23.5278 34.8196 23.9999 36.4716 23.9999C37.0333 23.9999 37.5895 23.9293 38.1402 23.7883C38.6908 23.6472 39.1479 23.4865 39.5114 23.3074C39.8748 23.1283 40.2135 22.9275 40.5273 22.705C40.8413 22.4824 41.0505 22.3229 41.1551 22.2252C41.2597 22.1274 41.334 22.0569 41.378 22.0135L41.9445 23.6743H44.7647V13.335C44.7648 11.642 44.1316 10.2167 42.865 9.06071ZM41.3782 16.3313C41.3782 17.8293 40.9899 18.982 40.2135 19.7907C39.4371 20.5995 38.3606 21.0043 36.9839 21.0043C36.1028 21.0043 35.4008 20.8034 34.8775 20.4019C34.3544 20.0003 34.0928 19.5335 34.0928 19.0016C34.0928 18.4264 34.28 17.9487 34.6544 17.5687C35.0289 17.1889 35.519 16.9446 36.1247 16.8361L41.3782 16.0056V16.3313Z" fill="#0000FF"/>
</g>
<defs>
<clipPath id="clip0">
<rect width="107" height="24" fill="white"/>
</clipPath>
</defs>
</svg>
