<svg width="51" height="59" viewBox="0 0 51 59" fill="none" xmlns="http://www.w3.org/2000/svg">
<g clip-path="url(#clip0)">
<path d="M13.237 45.0278L11.8048 49.2656H11.3194L9.50688 43.9337C9.32666 43.4123 9.2692 43.1309 8.60156 43.0436V42.6758C8.99182 42.6958 9.41176 42.7059 9.87926 42.7059H10.3665C10.832 42.7059 11.2719 42.6958 11.767 42.6758V43.0436C10.9469 43.0053 10.9568 43.4022 10.9568 43.5671C10.9568 43.8766 11.0816 44.0211 11.137 44.2051L12.0522 47.1851L13.4467 42.6759H13.8844L15.4097 47.1177L15.4951 46.8655C15.705 46.2455 16.3447 44.1859 16.3447 43.6535C16.3447 43.3731 16.2398 43.111 15.7544 43.0627L15.5623 43.0436V42.6758C15.8 42.686 16.0496 42.686 16.2872 42.6959C16.3923 42.6959 16.4893 42.7059 16.5924 42.7059H16.8797L17.68 42.6758V43.0436C17.1371 43.1027 17.0323 43.4022 16.9173 43.7698L16.3924 45.4629C16.0874 46.4585 15.8299 47.2813 15.1326 49.2656H14.6671L13.237 45.0278Z" fill="black"/>
<path d="M21.3527 49.2656C19.4728 49.2656 17.7949 47.9193 17.7949 45.9079C17.7949 43.9237 19.4054 42.5693 21.4476 42.5693C23.7256 42.5693 25.0608 44.1766 25.0608 45.9753C25.0608 48.0641 23.2404 49.2656 21.3527 49.2656ZM21.4081 43.0154C20.788 43.0154 19.4926 43.334 19.4926 45.8487C19.4926 48.4429 20.7307 48.8197 21.4081 48.8197C22.4203 48.8197 23.3652 48.2098 23.3652 45.898C23.3652 43.3248 22.0578 43.0154 21.4081 43.0154Z" fill="black"/>
<path d="M26.1387 42.6759C27.1685 42.6861 27.339 42.7141 27.7412 42.706L29.3151 42.6759C30.5352 42.6578 31.4424 42.7835 31.8506 43.6535C31.9457 43.8564 31.9969 44.0693 31.9969 44.2914C31.9969 45.0851 31.4505 45.7823 30.4798 45.918C30.8679 46.3328 31.2127 46.7499 31.803 47.5908C32.2823 48.2679 32.4884 48.6458 33.0826 48.7915V49.1572L32.0409 49.129L31.1572 49.1572L30.2699 47.852C29.1606 46.2175 28.9813 46.2455 28.7336 46.2455H28.6189V47.8822C28.6189 48.4318 28.6086 48.703 29.3983 48.7796L29.612 48.7995V49.1572C29.3902 49.1572 29.1724 49.1572 28.9514 49.1492C28.7237 49.1409 28.484 49.129 28.2561 49.129H27.4936C27.2636 49.129 27.0264 49.1411 26.7963 49.1492C26.5787 49.1572 26.3585 49.1572 26.1387 49.1572V48.7915L26.3487 48.7713C27.141 48.695 27.1313 48.4237 27.1313 47.8711V43.9628C27.1313 43.4123 27.141 43.1411 26.3487 43.0627L26.1387 43.0436V42.6759ZM28.9812 45.8006C29.525 45.8006 30.3925 45.7243 30.3925 44.4664C30.3925 43.2567 29.6595 43.1413 28.9911 43.1211C28.9435 43.1211 28.9038 43.1211 28.8563 43.1211C28.7615 43.1211 28.6189 43.1512 28.6189 43.3925V45.8007H28.9812V45.8006Z" fill="black"/>
<path d="M36.1604 47.8711C36.1604 48.6649 36.3706 48.7231 36.8934 48.7713L37.1036 48.7915V49.1572C36.8934 49.1572 36.6756 49.1572 36.4657 49.1492C36.2477 49.1409 36.018 49.129 35.8 49.129H35.0356C34.8055 49.129 34.5678 49.1411 34.3383 49.1492C34.1202 49.1572 33.8984 49.1572 33.6807 49.1572V48.7915L33.8906 48.7713C34.683 48.695 34.6749 48.4237 34.6749 47.8711V43.9628C34.6749 43.4123 34.6831 43.1411 33.8906 43.0627L33.6807 43.0436V42.6758C33.8983 42.6758 34.1201 42.6758 34.3383 42.686C34.5678 42.6959 34.8055 42.7059 35.0356 42.7059H35.8C36.018 42.7059 36.2477 42.6959 36.4657 42.686C36.6756 42.6758 36.8934 42.6758 37.1036 42.6758V43.0436L36.8934 43.0627C36.3706 43.111 36.1604 43.1691 36.1604 43.9628V46.2175L36.8934 45.3946C37.1709 45.0851 38.2486 43.7698 38.2486 43.4022C38.2486 43.111 37.9551 43.1027 37.7529 43.0726L37.5234 43.0436V42.6758C38.1452 42.686 38.3632 42.7059 38.6326 42.7059H38.9931L40.0113 42.6758V43.0436L39.7579 43.0726C39.2585 43.1309 38.9535 43.537 38.6486 43.9236L37.6501 45.1635L39.9756 48.1704C40.1938 48.4618 40.3561 48.713 40.7759 48.7915V49.1572C40.1462 49.1492 39.8252 49.129 39.5202 49.129H38.8979C38.3277 49.129 38.7437 49.1492 37.6025 49.1572V48.7915L37.8205 48.7796C38.0701 48.7713 38.1731 48.7231 38.2207 48.675C38.2958 48.6065 38.3632 48.4708 38.2604 48.2589C38.2128 48.1616 38.1333 48.0458 37.955 47.813L36.7427 46.2175L36.1602 46.8565V47.8711H36.1604Z" fill="black"/>
<path d="M14.8221 54.1608C14.6299 53.2808 14.002 52.7502 13.2868 52.7502C12.6766 52.7502 12.3241 53.1362 12.3241 53.5541C12.3241 54.4341 13.3918 54.5687 14.3347 55.1012C15.0042 55.479 15.6243 55.9733 15.6243 56.9498C15.6243 58.1274 14.6971 58.9996 13.3146 58.9996C12.8847 58.9996 12.227 58.9031 11.6466 58.3325L11.5119 58.8751H11.084L11.0918 57.782L11.084 56.8313H11.5119C11.6942 57.5688 12.2567 58.5533 13.267 58.5533C14.0019 58.5533 14.3643 58.023 14.3643 57.5085C14.3643 56.8234 13.8116 56.5801 12.9995 56.2044C12.0744 55.7684 11.1769 55.3705 11.1769 54.1529C11.1769 53.1842 11.8446 52.3042 13.2768 52.3042C13.7342 52.3042 14.2196 52.4106 14.6694 52.7784L14.7921 52.3924H15.2022C15.2022 52.8267 15.2121 53.3006 15.2595 54.1607H14.8221V54.1608Z" fill="black"/>
<path d="M16.6523 52.4111C16.8723 52.4111 17.0902 52.4111 17.31 52.421C17.5398 52.4312 17.7775 52.4412 18.0054 52.4412H18.77C18.9978 52.4412 19.2375 52.4312 19.4653 52.421C19.6851 52.4111 19.905 52.4111 20.1229 52.4111V52.779L19.9149 52.7989C19.1226 52.8752 19.1325 53.1465 19.1325 53.6991V55.3527H21.9929V53.6991C21.9929 53.1464 22.0028 52.8752 21.2104 52.7989L21.0004 52.779V52.4111C21.2203 52.4111 21.4401 52.4111 21.6581 52.421C21.8878 52.4312 22.1275 52.4412 22.3553 52.4412H23.1179C23.3477 52.4412 23.5854 52.4312 23.8152 52.421C24.0352 52.4111 24.2531 52.4111 24.4728 52.4111V52.779L24.2629 52.7989C23.4705 52.8752 23.4804 53.1465 23.4804 53.6991V57.6054C23.4804 58.1581 23.4704 58.4291 24.2629 58.5054L24.4728 58.5256V58.8935C24.2531 58.8935 24.0352 58.8935 23.8152 58.8834C23.5854 58.8753 23.3477 58.8634 23.1179 58.8634H22.3553C22.1275 58.8634 21.8878 58.8755 21.6581 58.8834C21.4401 58.8935 21.2203 58.8935 21.0004 58.8935V58.5256L21.2104 58.5054C22.0028 58.4291 21.9929 58.1581 21.9929 57.6054V55.837H19.1325V57.6054C19.1325 58.1581 19.1226 58.4291 19.9149 58.5054L20.1229 58.5256V58.8935C19.905 58.8935 19.6851 58.8935 19.4653 58.8834C19.2375 58.8753 18.9978 58.8634 18.77 58.8634H18.0054C17.7776 58.8634 17.5399 58.8755 17.31 58.8834C17.0902 58.8935 16.8723 58.8935 16.6523 58.8935V58.5256L16.8624 58.5054C17.6528 58.4291 17.6449 58.1581 17.6449 57.6054V53.6991C17.6449 53.1464 17.6528 52.8752 16.8624 52.7989L16.6523 52.779V52.4111Z" fill="black"/>
<path d="M29.1053 58.9995C27.2284 58.9995 25.5488 57.6531 25.5488 55.6439C25.5488 53.6584 27.1611 52.3042 29.2045 52.3042C31.4825 52.3042 32.8178 53.9115 32.8178 55.712C32.8178 57.7997 30.9951 58.9995 29.1053 58.9995ZM29.1648 52.7502C28.5439 52.7502 27.2485 53.0698 27.2485 55.5837C27.2485 58.1757 28.4866 58.5533 29.1648 58.5533C30.1753 58.5533 31.1222 57.9465 31.1222 55.6319C31.1222 53.0597 29.8109 52.7502 29.1648 52.7502Z" fill="black"/>
<path d="M36.3708 57.605C36.3708 58.0611 36.2758 58.4187 37.2502 58.5051L37.4601 58.5253V58.8931C37.2224 58.8931 36.9929 58.8931 36.7551 58.8831C36.5053 58.875 36.2598 58.863 36.0102 58.863H35.2496C35.0196 58.863 34.7782 58.8751 34.5523 58.8831C34.3306 58.8931 34.1126 58.8931 33.8945 58.8931V58.5253L34.1047 58.5051C34.897 58.4288 34.8852 58.1577 34.8852 57.605V53.6987C34.8852 53.146 34.8971 52.8748 34.1047 52.7985L33.8945 52.7786V52.4108C34.7782 52.4207 35.1228 52.4508 35.503 52.4409L37.2383 52.4108C39.1202 52.3826 39.6631 53.3291 39.6631 54.0946C39.6631 54.617 39.4449 55.9132 36.9648 55.9132H36.3708V57.605ZM36.3708 55.4589C36.4697 55.4669 36.5647 55.4788 36.6598 55.4788C37.2025 55.4788 38.0504 55.2839 38.0504 54.1445C38.0504 53.7547 37.9671 52.8546 36.7827 52.8546C36.4221 52.8546 36.3708 52.8946 36.3708 53.2042V55.4589Z" fill="black"/>
<path d="M7.34782 38.6033L7.37167 39.9457H6.88235L6.6585 39.2915C5.88001 39.9677 5.01439 40.1365 4.28144 40.1365C2.00153 40.1365 0.367188 38.6374 0.367188 36.2915C0.367188 33.9807 2.10235 32.335 4.35868 32.335C4.92523 32.335 5.6819 32.4244 6.49413 33.0444L6.6585 32.3902H7.14971L7.24876 34.7926H6.74956C6.6585 34.4096 6.51377 34.082 6.30387 33.7887C5.82648 33.1016 5.2144 32.8864 4.61424 32.8864C3.40389 32.8864 2.34613 33.9806 2.34613 36.3255C2.34613 39.0543 3.88128 39.5277 4.76885 39.5277C6.10387 39.5277 6.73777 38.3552 6.88249 37.3746H7.3718L7.34782 38.6033Z" fill="black"/>
<path d="M12.9282 40.1366C10.7373 40.1366 8.78223 38.5704 8.78223 36.2243C8.78223 33.9124 10.6602 32.335 13.0392 32.335C15.6955 32.335 17.2525 34.2058 17.2525 36.3035C17.2523 38.7391 15.129 40.1366 12.9282 40.1366ZM12.9954 32.8536C12.2723 32.8536 10.759 33.2251 10.759 36.157C10.759 39.1791 12.205 39.6181 12.9954 39.6181C14.174 39.6181 15.2734 38.9077 15.2734 36.2132C15.2735 33.2141 13.7502 32.8536 12.9954 32.8536Z" fill="black"/>
<path d="M18.7517 39.5619C19.6727 39.4724 19.6628 39.156 19.6628 38.5129V33.9576C19.6628 33.3146 19.6727 32.9991 18.7517 32.9088L18.506 32.8865V32.4585C20.0531 32.4687 19.54 32.4918 20.0848 32.4918L24.7201 32.4585C24.7538 33.5968 24.7419 32.9319 24.8191 34.4096H24.3753C24.0862 32.966 22.8204 33.0211 21.9845 33.0211H21.7962C21.6179 33.0211 21.5071 33.0332 21.4515 33.0786C21.3961 33.1349 21.3961 33.2694 21.3961 33.3718V35.9428H21.6733C22.3746 35.9428 22.9529 35.5138 22.9411 34.679H23.375L23.3414 36.202L23.375 37.7231H22.9411C22.9531 36.8891 22.3746 36.4612 21.6733 36.4612H21.3961V38.5128C21.3961 38.7841 21.3862 39.1106 21.5961 39.3247C21.7962 39.5276 22.1746 39.5388 22.4201 39.5619L22.6637 39.584V40.0129C22.3845 40.0129 22.119 40.0129 21.8397 40.0008C21.5525 39.9909 21.2633 39.9786 20.974 39.9786H20.0846C19.8172 39.9786 19.5399 39.9907 19.2745 40.0008C19.019 40.0129 18.7635 40.0129 18.5059 40.0129V39.584L18.7517 39.5619Z" fill="black"/>
<path d="M28.8387 32.4826L32.1915 32.4585C32.223 33.5968 32.2111 32.9319 32.2902 34.4096H31.8427C31.5536 32.966 30.2896 33.0211 29.4538 33.0211H29.2676C29.0893 33.0211 28.9774 33.0332 28.9219 33.0786C28.8646 33.1349 28.8646 33.2694 28.8646 33.3718V35.9428H29.1448C29.8462 35.9428 30.4206 35.5138 30.4087 34.679H30.8445L30.8089 36.202L30.8445 37.7231H30.4087C30.4206 36.8891 29.8462 36.4612 29.1448 36.4612H28.8646V38.5128C28.8646 38.7841 28.8547 39.1106 29.0657 39.3247C29.2678 39.5276 29.6442 39.5388 29.8897 39.5619L30.1353 39.584V40.0129C29.854 40.0129 29.5884 40.0129 29.3113 40.0008C29.0211 39.9909 28.7337 39.9786 28.4444 39.9786H27.5552C27.2875 39.9786 27.0083 39.9907 26.7431 40.0008C26.4874 40.0129 26.232 40.0129 25.9766 40.0129V39.584L26.2201 39.5619C27.1433 39.4724 27.1314 39.156 27.1314 38.5129V33.9576C27.1314 33.3146 27.1433 32.9991 26.2201 32.9088L25.9766 32.8865V32.4585C26.7391 32.4636 26.9986 32.4727 27.1334 32.4786L28.8387 32.4826Z" fill="black"/>
<path d="M36.3356 35.8634H36.6127C37.31 35.8634 37.8926 35.4354 37.8807 34.6006H38.3124L38.2808 36.1216L38.3124 37.6458H37.8807C37.8926 36.8109 37.31 36.3819 36.6127 36.3819H36.3356V37.8709C36.3356 39.2685 36.7477 39.4826 37.7023 39.4826C38.2926 39.4826 39.5483 39.347 39.6791 37.8137H40.1149C40.0714 38.1975 40.0238 38.7722 40.0477 39.3138L40.0714 40.0129L35.0242 39.9788C34.4457 39.9788 34.9885 40.0009 33.4434 40.0129V39.584L33.6889 39.5619C34.6121 39.4724 34.6002 39.156 34.6002 38.5129V33.9576C34.6002 33.3146 34.6121 32.9991 33.6889 32.9088L33.4434 32.8865V32.4585C34.9807 32.4687 34.4774 32.4918 35.0242 32.4918L39.604 32.4585C39.6357 33.4843 39.6475 33.8672 39.6912 34.4538H39.2119C39.0573 33.0552 37.8369 33.01 37.0806 33.01H36.8347C36.3238 33.01 36.3357 33.0443 36.3357 33.5968V35.8634H36.3356Z" fill="black"/>
<path d="M44.1801 35.8634H44.4573C45.1587 35.8634 45.737 35.4354 45.7252 34.6006H46.161L46.1253 36.1216L46.161 37.6458H45.7252C45.7372 36.8109 45.1587 36.3819 44.4573 36.3819H44.1801V37.8709C44.1801 39.2685 44.592 39.4826 45.551 39.4826C46.1372 39.4826 47.3932 39.347 47.5277 37.8137H47.9597C47.916 38.1975 47.8725 38.7722 47.8963 39.3138L47.916 40.0129L42.8688 39.9788C42.2903 39.9788 42.8372 40.0009 41.292 40.0129V39.584L41.5375 39.5619C42.4607 39.4724 42.4488 39.156 42.4488 38.5129V33.9576C42.4488 33.3146 42.4607 32.9991 41.5375 32.9088L41.292 32.8865V32.4585C42.8251 32.4687 42.3259 32.4918 42.8688 32.4918L47.4486 32.4585C47.4843 33.4843 47.4962 33.8672 47.5359 34.4538H47.0603C46.9058 33.0552 45.6816 33.01 44.9249 33.01H44.6832C44.1722 33.01 44.1801 33.0443 44.1801 33.5968V35.8634Z" fill="black"/>
<path d="M23.7829 28.6083C23.868 26.1146 23.7512 23.834 22.1565 21.8416C20.4154 19.6695 17.444 18.489 14.8233 17.9403C12.2659 17.4049 9.70262 17.6872 7.11959 17.6771C5.56262 17.6691 1.50772 16.3982 0.738986 14.3555C0.679634 14.1969 0.592367 13.8652 0.408214 13.8652C0.164573 13.9165 -0.00386236 14.4861 6.73387e-05 15.6787C0.289239 21.0046 3.03881 25.0777 8.01475 27.049C10.3442 27.9714 12.0993 28.3852 14.5855 28.3682C17.1131 28.3521 20.0942 26.6221 22.289 28.9047C22.9309 29.5818 23.7648 31.2186 23.735 30.4882C23.7493 30.2701 23.7551 28.9932 23.7829 28.6083Z" fill="black"/>
<path d="M27.4868 8.09028C26.3618 5.61977 24.5712 3.44547 22.2852 2.02994C19.4209 0.257708 14.0645 -1.57295 11.9488 2.24602C11.8221 2.47599 12.6401 2.4419 13.0423 2.21688C13.0244 2.2309 13.0086 2.24602 12.9948 2.26004C9.96795 5.872 13.2147 12.2317 16.1128 14.9615C18.995 17.6772 25.003 19.4647 28.0653 16.1421C28.729 15.4206 28.6974 14.2743 28.7371 13.348C28.8199 11.5285 28.226 9.71998 27.4868 8.09028ZM27.0174 16.2144C24.1928 15.7521 21.7543 13.1501 20.8391 10.5076C19.7278 7.2896 17.7073 2.98637 13.7257 3.20245C13.6682 3.20245 13.6108 3.20245 13.5554 3.20149C13.4345 3.20149 13.4722 3.11104 13.5574 3.07695C16.3426 1.95063 18.995 4.54472 20.3182 6.69578C21.4176 8.47805 21.5939 10.7216 22.7924 12.4306C23.3887 13.2816 24.078 14.0774 24.9061 14.7043C25.6213 15.2457 26.5502 15.5483 27.2316 16.0888C27.3146 16.1541 27.053 16.2205 27.0174 16.2144Z" fill="black"/>
<path d="M28.9287 28.1873C31.6831 27.9673 35.7203 27.4218 37.4831 27.1445C41.1438 26.5689 43.4179 24.5724 44.2262 23.5526C46.4408 20.7566 46.829 18.1584 47.0905 16.576C47.5619 13.7157 48.1838 10.0386 50.9176 7.61106C51.2702 7.29862 50.3787 7.36089 50.2679 7.35484C45.8742 7.07759 39.2741 7.91456 34.6029 11.6831C30.4627 15.0237 28.5188 19.9768 28.8098 25.2254C28.8434 25.7126 28.788 27.5613 28.7803 28.0456C28.7783 28.1873 28.9287 28.1873 28.9287 28.1873Z" fill="black"/>
</g>
<defs>
<clipPath id="clip0">
<rect width="51" height="59" fill="white"/>
</clipPath>
</defs>
</svg>
