<svg width="88" height="76" viewBox="0 0 88 76" fill="none" xmlns="http://www.w3.org/2000/svg">
<g clip-path="url(#clip0)">
<path d="M54.2302 46.173C53.8328 42.3141 53.9811 39.8083 54.6435 39.1875C54.8152 39.0263 55.0819 38.8945 55.236 38.8945C56.0295 38.8945 56.2878 39.4405 56.7638 42.1211C56.8953 42.8639 57.2667 44.5261 57.5886 45.8146C59.1092 51.8997 58.9865 52.9046 56.2772 56.5515C55.5318 57.5551 54.8143 58.5852 54.6832 58.8404C54.4231 59.3464 54.1436 59.4284 53.8575 59.0814C53.6023 58.7722 54.0072 58.03 55.5235 56.0278C56.1902 55.1474 56.9426 53.9879 57.1956 53.4513C57.5969 52.5993 57.653 52.3242 57.6393 51.2754C57.6226 50.0166 57.3285 48.2918 56.807 46.3981C56.6366 45.7791 56.2551 44.0699 55.9593 42.6001C55.6639 41.1301 55.3596 39.9146 55.2837 39.8988C54.8421 39.8069 54.7636 42.7451 55.1181 46.0764C55.244 47.2616 55.3473 48.6343 55.3473 49.1265C55.3473 50.1066 54.8642 51.7522 54.1962 53.0472C53.9714 53.4828 53.7582 54.1904 53.7131 54.6507C53.6491 55.3007 53.5727 55.4859 53.3515 55.5284C53.1974 55.5577 53.0137 55.4908 52.9435 55.3796C52.7709 55.1053 52.7806 53.3539 52.9687 50.8527C53.1108 48.9652 53.1007 48.73 52.8565 48.2346C52.4053 47.3201 52.2684 47.469 52.1695 48.9821C51.9951 51.6436 51.5782 53.1022 50.1838 55.9277C49.121 58.081 48.9034 58.972 49.1131 60.3163C49.4968 62.7811 50.8731 63.6708 57.1373 65.5024C59.175 66.0984 59.3 66.1564 59.3 66.5086C59.3 66.8418 59.2426 66.8799 58.7781 66.8538C58.4906 66.8374 57.249 66.5188 56.0184 66.1458C51.5844 64.801 49.9803 63.9769 49.0327 62.5578C48.2901 61.4448 48.1452 60.8475 48.2132 59.1758C48.2715 57.7363 48.2773 57.7181 49.2526 55.7775C50.6806 52.936 51.0506 51.644 51.308 48.5913C51.3994 47.512 51.5204 46.8828 51.6648 46.7375C52.2167 46.1819 53.5409 47.1393 53.8504 48.3175C53.9493 48.6945 53.9869 49.5018 53.941 50.2683L53.8619 51.5758L54.148 50.7504C54.496 49.7468 54.511 48.9032 54.2302 46.173Z" fill="url(#paint0_linear)"/>
<path fill-rule="evenodd" clip-rule="evenodd" d="M46.1682 28.5125C45.0149 28.9448 44.757 29.1146 43.703 30.1363L42.7241 31.0852L42.1452 30.4887C41.0196 29.3291 39.7876 29.5476 39.3262 30.9884C39.1596 31.5092 39.5803 32.634 40.2994 33.5898C40.8693 34.3474 40.9601 34.5419 40.7437 34.5419C40.5942 34.5419 39.837 34.9576 39.0607 35.4658L37.6496 36.3897L36.2063 39.0637C35.4125 40.5344 34.7647 41.8575 34.7668 42.0042C34.7691 42.1506 34.8908 42.5396 35.0376 42.8684C35.2956 43.4465 35.295 43.4909 35.0181 44.2191C34.8038 44.782 34.7489 45.2189 34.7997 45.9522L34.8677 46.9323L34.3948 46.8769C34.0464 46.8357 33.7965 46.9274 33.4442 47.226C32.7078 47.8494 32.6058 48.1485 32.5245 49.9243L32.4489 51.5752L32.2407 50.8995C31.9754 50.0386 31.9892 48.8525 32.3054 45.3501C32.727 40.6825 32.2869 38.8828 30.8152 39.2544C30.3509 39.3717 30.0857 40.0896 29.6977 42.2793C29.5231 43.2649 29.1515 44.9495 28.8718 46.0222C28.1138 48.9318 27.8669 50.4755 27.9251 51.9425C27.9869 53.499 28.4244 54.5052 29.8543 56.3772C30.3586 57.0378 31.071 58.0374 31.4373 58.5992C32.1039 59.6214 32.2924 59.7299 32.5873 59.2594C32.7978 58.924 32.5377 58.4574 30.9468 56.3183C29.2332 54.0148 28.9135 53.3546 28.8304 51.9501C28.7553 50.6851 28.9913 49.2159 29.7704 46.0975C30.0487 44.9832 30.4143 43.2948 30.5825 42.3456C30.9322 40.3742 31.0061 40.0945 31.177 40.0945C31.6219 40.0945 31.6888 42.5543 31.3435 46.2052C30.9776 50.0723 31.0413 50.6962 32.0138 52.7755C32.346 53.4857 32.6109 54.3134 32.6624 54.8017C32.7421 55.5584 32.7802 55.6271 33.1222 55.6271H33.4951V51.9944C33.4951 48.7542 33.523 48.3337 33.7526 48.1015C33.8943 47.9584 34.0427 47.8738 34.0825 47.9141C34.1223 47.954 34.2251 48.7342 34.3107 49.6479C34.5389 52.0825 34.9263 53.3878 36.219 56.0773L37.3732 58.4783L37.366 59.7539C37.36 60.8305 37.2976 61.1487 36.9654 61.7933C36.4748 62.7459 35.7062 63.4349 34.5437 63.9639C33.7619 64.3197 30.8665 65.2887 27.9763 66.162C25.8652 67.2174 28.7871 66.7424 30.5119 66.3734C33.3883 65.4965 35.3503 64.699 36.233 64.0468C37.5769 63.0543 38.3427 61.4783 38.3427 59.7047V58.8097L38.7155 59.2147C39.2127 59.7543 39.8273 59.9945 41.3141 60.2297L42.5545 60.426L42.9157 61.2479C43.4458 62.4539 43.8504 62.5736 44.164 61.6165C44.2563 61.3348 44.3928 61.1048 44.4661 61.1048C44.7093 61.1048 45.1129 61.8828 45.1964 62.5124C45.2613 63.0011 45.3403 63.1305 45.5748 63.1305C45.7377 63.1305 45.8927 63.0175 45.9192 62.8793C46.0097 62.407 45.6392 61.4012 45.1818 60.8771C44.878 60.5292 44.7575 60.2656 44.8219 60.091C44.8754 59.9471 45.2984 58.9049 45.7615 57.7751C46.5691 55.8052 46.6283 55.7104 47.2045 55.449C47.9816 55.0967 48.5874 54.5784 48.8744 54.0201C49.1712 53.4423 49.1672 52.1703 48.866 51.4131L48.6285 50.8162L49.882 47.744C50.5717 46.0541 51.3506 44.1243 51.6129 43.4551L52.0902 42.2385L51.5559 41.1702C51.2619 40.5827 51.0212 40.0453 51.0212 39.9758C51.0212 39.9065 51.3065 39.6884 51.6549 39.4912C52.5923 38.9615 53.5915 37.8835 54.0878 36.866L54.5262 34.1523C54.5262 32.3735 54.5156 32.3161 54.0043 31.3085C53.3853 30.089 52.3816 29.1907 51.0725 28.6839C49.8304 28.2032 47.2359 28.1126 46.1682 28.5125ZM44.98 29.6486V29.4075C46.0459 29.1332 48.9976 29.3411 50.0516 29.7453C51.2367 30.1997 52.6505 31.5907 53.0091 32.6551L53.1071 34.7841C53.1084 34.8012 53.1093 34.818 53.1093 34.8345C53.1093 34.8431 53.1089 34.8772 53.1071 34.8851L52.9499 36.2603C52.6298 37.1211 51.6429 38.2675 50.8808 38.6642L50.475 38.8753L49.8918 37.6716C49.3191 36.489 49.2829 36.4509 47.8478 35.5048C46.502 34.6176 46.3227 34.5419 45.5717 34.5419C45.1231 34.5419 44.7597 34.4913 44.7637 34.4293C44.7676 34.3673 45.1491 34.0128 45.611 33.6414C47.541 32.0903 47.8783 31.2871 47.0111 30.3106C46.6596 29.9144 46.4353 29.8101 45.7805 29.7374L44.98 29.6486ZM38.6379 36.6892L39.6464 36.0004C40.9158 35.133 41.5581 35.071 42.3182 35.7424C42.5985 35.99 42.8969 36.1926 42.9814 36.1926C43.0659 36.1926 43.3044 35.99 43.5115 35.7424C43.8681 35.316 43.9471 35.2922 45.0047 35.2922C46.0742 35.2922 46.1647 35.3206 47.1542 35.9645C47.7224 36.3343 48.187 36.6697 48.187 36.7098C48.187 36.75 47.741 37.1228 47.1952 37.5382L46.2035 38.2937H43.6117H41.0198L39.8288 37.4913L38.6379 36.6892ZM35.8212 42.1181C35.5365 41.8232 35.546 41.7981 36.7986 39.5407L38.0636 37.2611L39.2845 38.0704C39.956 38.5153 40.4964 38.9334 40.4852 38.9993C40.474 39.0652 40.3578 39.4963 40.227 39.9573L39.9893 40.7958L39.2034 40.9736C38.4826 41.1368 37.271 41.6764 36.4426 42.2033C36.1444 42.393 36.0779 42.3839 35.8212 42.1181ZM46.7162 38.8316C46.7458 38.8063 47.197 38.4722 47.7189 38.0894C48.2404 37.7065 48.7133 37.3932 48.7689 37.3932C48.8824 37.3932 49.6785 38.969 49.6785 39.1931C49.6785 39.3359 47.9852 39.8927 47.2994 39.9753C46.9864 40.0132 46.914 39.9372 46.7979 39.4486C46.7232 39.1345 46.6866 38.8568 46.7162 38.8316ZM40.9788 40.6501C40.8142 40.7524 40.9117 40.1179 41.1621 39.4567L41.3184 39.044H43.6273H45.936L46.0353 39.5763C46.0901 39.869 46.1033 40.1401 46.0649 40.1788C46.0265 40.2176 44.8992 40.3189 43.5602 40.404C42.2214 40.489 41.0596 40.5998 40.9788 40.6501ZM47.4628 40.9858C47.6558 40.9807 48.3176 40.8201 48.9327 40.629C49.5482 40.4379 50.1024 40.2731 50.1646 40.263C50.2975 40.2414 51.2619 42.1572 51.1625 42.2455C50.8199 42.5506 48.1847 44.2965 48.0669 44.2965C47.9825 44.2965 47.7644 43.6382 47.5829 42.8333C47.401 42.0285 47.2204 41.2858 47.1816 41.1825C47.1383 41.0667 47.2456 40.9915 47.4628 40.9858ZM43.7092 41.4315C44.9791 41.3461 46.049 41.2454 46.0865 41.2076C46.3024 40.99 46.502 41.4158 46.8716 42.881C47.0985 43.7834 47.2862 44.572 47.2884 44.6341C47.2902 44.6961 45.5805 44.7466 43.4886 44.7466C39.1056 44.7466 39.4741 44.9331 40.0571 43.0101C40.4976 41.5571 40.2506 41.664 43.7092 41.4315ZM37.1494 43.0988C37.1494 43.0026 38.4288 42.3217 38.9394 42.1462C39.282 42.0282 39.536 42.0333 39.5364 42.158C39.5367 42.22 39.3934 42.758 39.2178 43.3538L38.8986 44.4373L38.0241 43.8197C37.5431 43.4803 37.1494 43.1558 37.1494 43.0988ZM48.1989 45.2739C48.2814 45.1906 48.8665 44.74 49.4988 44.2728C50.1311 43.8059 50.6967 43.4176 50.7563 43.4099C50.8901 43.3928 50.872 43.4387 49.4171 46.8476C48.7649 48.3749 47.7428 50.806 47.1453 52.2505C46.0936 54.7928 45.8004 55.3843 45.8004 54.9647C45.8004 54.5385 48.058 45.4165 48.1989 45.2739ZM37.1038 45.802C36.649 44.7732 36.3094 43.8784 36.3491 43.8138C36.4846 43.593 36.6954 43.6966 37.711 44.4834L38.7271 45.2703L40.0494 50.2234C40.7767 52.9479 41.4004 55.3116 41.4356 55.4769C41.4709 55.6422 40.6966 53.9536 39.7152 51.725C38.7338 49.4963 37.5587 46.8312 37.1038 45.802ZM36.036 47.2978C35.7393 46.7214 35.6189 45.9783 35.7277 45.3953C35.7818 45.1042 35.8472 44.8897 35.8727 44.919C36.0323 45.1011 37.4309 48.5654 37.3696 48.6275C37.2613 48.736 36.265 47.7426 36.036 47.2978ZM41.5693 52.7006C41.1102 51.0085 40.4746 48.6957 40.1572 47.5605L39.5798 45.4972H43.4227H47.2659L46.0296 50.359C45.3496 53.0329 44.7544 55.2842 44.7067 55.3613C44.6215 55.4999 42.5443 55.9319 42.452 55.83C42.4258 55.8008 42.0285 54.3927 41.5693 52.7006ZM36.959 55.5518C35.8311 53.4569 35.3424 51.6115 35.1315 48.6487L35.0407 47.3731L35.328 47.8233C35.7302 48.4538 36.148 48.8042 37.1186 49.3249L37.9594 49.7755L39.3443 52.9868C40.1061 54.7534 40.7293 56.2128 40.7293 56.231C40.7293 56.2487 40.4208 56.3502 40.0438 56.4565C39.0487 56.7366 38.3436 57.4565 38.3396 58.196C38.3364 58.7618 38.3265 58.7508 37.9911 57.803C37.8011 57.2665 37.3366 56.2536 36.959 55.5518ZM47.1599 54.4259C47.1917 54.3431 47.3842 53.8557 47.5878 53.3426C47.7913 52.8296 48.0143 52.4667 48.0836 52.5362C48.2934 52.7476 47.9167 53.8229 47.4973 54.211C47.2796 54.4118 47.1281 54.5088 47.1599 54.4259ZM42.7694 56.8354C42.7473 56.5926 42.8932 56.5137 43.6378 56.367C44.13 56.27 44.5407 56.1823 44.5504 56.1712C44.5601 56.161 44.361 56.9953 44.1081 58.0259C43.8551 59.0565 43.6059 59.85 43.5541 59.7893C43.4445 59.6608 42.8085 57.2669 42.7694 56.8354ZM39.0117 57.9603C39.1124 57.6413 39.4414 57.4043 40.2072 57.0999C40.4533 57.002 40.7476 56.9342 40.8612 56.9497C41.0101 56.9696 42.2208 59.4083 42.2208 59.6879C42.2208 59.7543 40.1852 59.3205 39.8047 59.173C39.2851 58.9714 38.8855 58.3604 39.0117 57.9603Z" fill="url(#paint1_linear)"/>
<path d="M54.5054 36.9363C54.4241 37.3434 54.4533 37.3933 54.7685 37.3926C55.9068 37.3267 58.2329 36.6506 58.432 34.4732C58.5102 33.9883 58.4868 33.9422 58.1627 33.9476C57.0014 34.1375 54.6445 35.001 54.5054 36.9363Z" fill="url(#paint2_linear)"/>
<path d="M50.1373 32.404C49.8256 32.4122 49.7933 32.441 49.8432 32.6659C50.0693 33.4676 50.9299 35.0183 52.5614 34.8079C52.9301 34.7852 52.9601 34.7609 52.9058 34.5305C52.5848 33.7325 51.582 32.1899 50.1373 32.404Z" fill="#457842"/>
<path d="M45.525 29.3472C46.4624 29.2265 48.7523 29.1601 50.4125 29.8603C50.9635 30.2224 52.1477 31.0886 52.4723 31.6559C52.8785 32.3651 53.1342 32.6216 53.1192 34.7493C53.1041 36.8769 51.8108 38.1444 50.5326 38.8687C49.6804 39.2912 47.549 40.1513 45.8407 40.2117C43.7055 40.2871 40.0213 40.5889 39.1491 40.9812C38.2769 41.3736 36.4724 41.5999 35.2694 43.5616C34.0664 45.5233 34.4574 48.6164 38.0063 49.7635L37.3897 48.6164C36.6078 48.2243 35.2063 46.9354 35.8559 44.9198C36.6679 42.3996 38.6679 42.3544 39.5251 42.0074C40.3822 41.6603 47.2545 41.4189 50.1868 40.2117C54.0813 38.6083 54.223 37.0278 54.5325 34.2061C54.8783 31.0523 52.8034 29.217 50.5326 28.5475C46.8483 27.4611 44.5324 29.2114 44.4273 29.4679C44.343 29.6732 45.1241 29.4729 45.525 29.3472Z" fill="#262424" stroke="#262424"/>
<path d="M42.7101 36.2134C42.8822 36.374 43.1496 36.3713 43.3183 36.2072L45.8885 33.7071C46.4929 33.1899 47.7319 31.9693 47.8529 31.2245C48.0039 30.2935 47.2484 29.2074 45.133 29.3626C43.0173 29.5177 42.8662 31.3796 42.7151 30.9142C42.5639 30.4487 41.8084 29.2074 40.4484 29.3626C39.8477 29.4311 38.9373 30.4487 39.2395 31.8451C39.539 33.2287 39.6835 33.3877 42.7101 36.2134Z" fill="#457842" stroke="#457842"/>
<path d="M48.0212 52.5251L48.6075 50.8955C49.2641 52.0373 49.8227 54.5801 46.8029 55.6182C46.6585 55.8114 42.4721 56.6244 40.3969 57.0068C39.3643 57.3989 37.9187 58.4162 40.3969 59.3453C43.7653 59.9492 44.2464 59.9944 45.0884 60.749C45.7622 61.3524 45.9609 62.4588 45.9759 62.9368C45.8103 63.2133 45.4403 63.6006 45.284 62.9368C45.0884 62.107 45.1489 60.7038 42.6074 60.4322C40.066 60.1606 38.6375 59.6626 38.3217 58.6967C38.0059 57.7308 38.5022 56.6444 40.7127 56.2221C42.9232 55.7994 46.5773 55.196 47.0286 54.5925C47.4794 53.9886 48.1413 53.5814 48.0212 52.5251Z" fill="#262424" stroke="#262424"/>
<path d="M54.496 36.9677C54.4138 37.3848 54.4434 37.436 54.7631 37.4352C55.9173 37.3677 58.2769 36.6748 58.4792 34.4433C58.5582 33.9463 58.5344 33.8991 58.2058 33.9047C57.0282 34.0992 54.6373 34.9842 54.496 36.9677Z" fill="#457842"/>
<path fill-rule="evenodd" clip-rule="evenodd" d="M20.0726 41.0794C16.8372 46.6354 0 75.8891 0 75.9543C0 75.999 9.63673 76.0358 21.415 76.0358H42.8299V74.7327V73.3898H35.7046L28.5793 73.3499L22.5982 62.9896C19.3086 57.2912 16.6163 52.5481 16.6154 52.4489C16.6145 52.3496 18.1984 49.522 20.1351 46.1657C22.0719 42.8087 23.7793 39.9477 23.8214 39.8369C23.8214 39.8369 23.4587 39.8591 22.3201 39.8591H20.6864L20.0726 41.0794ZM4.5726 73.2852C4.5726 73.1731 8.66705 66.018 14.3598 56.1827C14.6943 55.6045 15.0249 55.1902 15.0946 55.262L25.2385 73.2852L15.0133 73.4265C8.75863 73.4265 4.5726 73.3698 4.5726 73.2852Z" fill="#538D4B"/>
<path fill-rule="evenodd" clip-rule="evenodd" d="M47.309 76.028C53.722 76.0617 87.9215 76.0019 87.9775 75.9691C88.0164 75.9465 82.6958 67.6185 76.8069 57.3831L67.0483 39.9031L63.9354 39.8145L67.3781 46.2882L70.9065 52.5005L64.9558 62.8781C61.6826 68.5857 58.7221 73.2123 58.6368 73.2628C58.5516 73.3133 55.4816 73.3151 51.6163 73.3107C47.751 73.3058 45.2139 73.3107 45.2139 73.3107C45.2139 76.028 45.2139 76.028 45.2139 76.028L45.6704 76.0192L47.309 76.028ZM83.2972 73.3771C83.2 73.4334 75.182 73.4064 63.8471 73.3771C63.8471 73.3771 62.0111 73.359 62.0381 73.2628L72.5212 55.4358L77.7558 64.2507C80.8828 69.6863 83.37 73.3346 83.2972 73.3771Z" fill="#323A8A"/>
<path fill-rule="evenodd" clip-rule="evenodd" d="M65.5478 37.2224C62.3912 31.6209 43.8878 0.0387287 43.8317 0.00590266C43.7931 -0.0166507 38.8005 8.77659 32.8734 18.99L22.3867 37.0451H25.4996L33.1825 23.6644H43.9149C50.4774 23.6793 54.4014 23.6153 54.4871 23.6644C54.5732 23.7135 60.4749 33.8539 62.3907 37.2224H65.5478ZM43.9149 5.36959C44.0116 5.42612 47.1155 10.7214 52.7209 20.6072H35.3019L38.7746 14.7292C41.9221 9.30548 43.842 5.32705 43.9149 5.36959Z" fill="#C4242B"/>
</g>
<defs>
<linearGradient id="paint0_linear" x1="43.27" y1="28.2614" x2="43.27" y2="66.8604" gradientUnits="userSpaceOnUse">
<stop offset="0.221516" stop-color="#00ACEC"/>
<stop offset="0.559898" stop-color="#475E76"/>
<stop offset="0.736605" stop-color="#161C32"/>
</linearGradient>
<linearGradient id="paint1_linear" x1="43.2693" y1="28.2607" x2="43.2693" y2="66.8599" gradientUnits="userSpaceOnUse">
<stop offset="0.221516" stop-color="#00ACEC"/>
<stop offset="0.559898" stop-color="#475E76"/>
<stop offset="0.736605" stop-color="#161C32"/>
</linearGradient>
<linearGradient id="paint2_linear" x1="43.2692" y1="28.261" x2="43.2692" y2="66.8602" gradientUnits="userSpaceOnUse">
<stop offset="0.221516" stop-color="#00ACEC"/>
<stop offset="0.559898" stop-color="#475E76"/>
<stop offset="0.736605" stop-color="#161C32"/>
</linearGradient>
<clipPath id="clip0">
<rect width="88" height="76" fill="white"/>
</clipPath>
</defs>
</svg>
