<svg width="128" height="66" viewBox="0 0 128 66" fill="none" xmlns="http://www.w3.org/2000/svg">
<g clip-path="url(#clip0)">
<path d="M52.6303 27.9541V28.1031H51.5859L50.7762 26.1135H50.4281V28.1031H49.4141V23.2148H50.4281V25.2119H50.7762L51.5557 23.2148H52.5773V23.3639L51.6616 25.6515L52.6303 27.9541ZM56.4458 28.1031H55.4318V24.1314H54.5388L54.501 26.6649C54.4908 27.1567 54.3823 27.5193 54.1756 27.7529C53.9686 27.9864 53.6508 28.1031 53.2221 28.1031H52.8966V27.194H53.0783C53.2448 27.194 53.3658 27.1444 53.4415 27.045C53.5222 26.9406 53.565 26.7793 53.5702 26.5606L53.6004 24.1314H53.5929V23.2148H56.4458V28.1031ZM58.176 23.2148V26.0763L59.3111 23.2148H60.3328V28.1031H59.3414V25.2417L58.2138 28.1031H57.1846V23.2148H58.176ZM62.0878 23.2148V25.2119H63.1699V23.2148H64.184V28.1031H63.1699V26.1135H62.0878V28.1031H61.0737V23.2148H62.0878ZM65.9172 23.2148V26.0763L67.0523 23.2148H68.0739V28.1031H67.0826V25.2417L65.955 28.1031H64.9258V23.2148H65.9172ZM72.0311 27.9541V28.1031H70.9868L70.1771 26.1135H69.829V28.1031H68.8149V23.2148H69.829V25.2119H70.1771L70.9565 23.2148H71.9782V23.3639L71.0625 25.6515L72.0311 27.9541ZM75.9676 27.9541V28.1031H74.9232L74.7416 27.2462H73.5989L73.4173 28.1031H72.3805V27.9541L73.5762 23.2148H74.7795L75.9676 27.9541ZM74.56 26.3892L74.174 24.5859L73.7881 26.3892H74.56ZM52.5622 30.4536V35.3418H51.5481V31.3701H50.4281V35.3418H49.4141V30.4536H52.5622ZM54.915 30.4536C55.4145 30.4536 55.7952 30.5777 56.0577 30.8261C56.32 31.0695 56.4512 31.4272 56.4512 31.8992V32.0482C56.4512 32.5251 56.32 32.8853 56.0577 33.1287C55.8004 33.372 55.4195 33.4938 54.915 33.4938H54.3172V35.3418H53.3031V30.4536H54.915ZM54.8394 32.5847C55.0361 32.5847 55.1849 32.5426 55.2858 32.458C55.3866 32.3735 55.4372 32.237 55.4372 32.0482V31.8992C55.4372 31.5415 55.2378 31.3626 54.8394 31.3626H54.3172V32.5847H54.8394ZM58.6337 35.4312C58.1343 35.4312 57.7384 35.302 57.4456 35.0437C57.1531 34.7804 57.0067 34.4278 57.0067 33.9856V31.8097C57.0067 31.3675 57.1531 31.0173 57.4456 30.7591C57.7384 30.4957 58.1343 30.3641 58.6337 30.3641C59.1332 30.3641 59.5293 30.4957 59.8218 30.7591C60.1146 31.0173 60.2608 31.3675 60.2608 31.8097V33.9856C60.2608 34.4278 60.1146 34.7804 59.8218 35.0437C59.5293 35.302 59.1332 35.4312 58.6337 35.4312ZM58.6337 34.5221C58.8305 34.5221 58.9818 34.47 59.0878 34.3656C59.1989 34.2613 59.2543 34.1097 59.2543 33.9111V31.8917C59.2543 31.6931 59.2013 31.5415 59.0954 31.4372C58.9894 31.3279 58.8357 31.2732 58.6337 31.2732C58.437 31.2732 58.2856 31.3279 58.1797 31.4372C58.0737 31.5415 58.0208 31.6931 58.0208 31.8917V33.9111C58.0208 34.1097 58.0737 34.2613 58.1797 34.3656C58.2856 34.47 58.437 34.5221 58.6337 34.5221ZM63.5583 30.8336C64.1081 30.8336 64.5243 30.9726 64.8069 31.2509C65.0893 31.524 65.2307 31.9315 65.2307 32.4729V33.3224C65.2307 33.8638 65.0893 34.2713 64.8069 34.5445C64.5293 34.8176 64.1131 34.9543 63.5583 34.9543H63.528V35.4312H62.5139V34.9543H62.4837C61.9286 34.9543 61.5098 34.8176 61.2275 34.5445C60.9498 34.2713 60.8112 33.8638 60.8112 33.3224V32.4729C60.8112 31.9315 60.9524 31.524 61.235 31.2509C61.5174 30.9726 61.9336 30.8336 62.4837 30.8336H62.5139V30.3641H63.528V30.8336H63.5583ZM61.795 33.2852C61.795 33.5485 61.8504 33.7423 61.9615 33.8664C62.0724 33.9856 62.2465 34.0452 62.4837 34.0452H62.5518V31.7501H62.4837C62.2415 31.7501 62.0649 31.8123 61.9539 31.9364C61.848 32.0557 61.795 32.2468 61.795 32.5102V33.2852ZM64.2469 32.5102C64.2469 32.2468 64.1914 32.0557 64.0804 31.9364C63.9693 31.8123 63.7952 31.7501 63.5583 31.7501H63.4902V34.0452H63.5583C63.7952 34.0452 63.9693 33.9856 64.0804 33.8664C64.1914 33.7423 64.2469 33.5485 64.2469 33.2852V32.5102ZM68.5219 30.4536V31.3626H66.8192V32.4506H68.3857V33.3522H66.8192V34.4327H68.5219V35.3418H65.8052V30.4536H68.5219ZM70.7371 35.4312C70.2326 35.4312 69.8339 35.302 69.5414 35.0437C69.2489 34.7855 69.1025 34.4327 69.1025 33.9856V31.8097C69.1025 31.3675 69.2489 31.0173 69.5414 30.7591C69.8339 30.4957 70.2326 30.3641 70.7371 30.3641C71.277 30.3641 71.678 30.5008 71.9403 30.774C72.2078 31.0422 72.3414 31.4521 72.3414 32.0035V32.4804H71.3273V31.9737C71.3273 31.7303 71.2793 31.5538 71.1836 31.4446C71.0878 31.3303 70.9364 31.2732 70.7295 31.2732C70.5278 31.2732 70.3738 31.3254 70.2679 31.4297C70.1669 31.534 70.1165 31.688 70.1165 31.8917V33.9111C70.1165 34.1097 70.1669 34.2613 70.2679 34.3656C70.3738 34.47 70.5278 34.5221 70.7295 34.5221C70.9312 34.5221 71.0802 34.4674 71.176 34.3582C71.277 34.249 71.3273 34.0776 71.3273 33.844V33.3671H72.3414V33.8217C72.3414 34.8947 71.8067 35.4312 70.7371 35.4312ZM74.6112 35.4312C74.1068 35.4312 73.7083 35.302 73.4156 35.0437C73.123 34.7855 72.9766 34.4327 72.9766 33.9856V31.8097C72.9766 31.3675 73.123 31.0173 73.4156 30.7591C73.7083 30.4957 74.1068 30.3641 74.6112 30.3641C75.1511 30.3641 75.5522 30.5008 75.8145 30.774C76.0819 31.0422 76.2156 31.4521 76.2156 32.0035V32.4804H75.2015V31.9737C75.2015 31.7303 75.1537 31.5538 75.0577 31.4446C74.9619 31.3303 74.8106 31.2732 74.6037 31.2732C74.4019 31.2732 74.248 31.3254 74.1421 31.4297C74.0413 31.534 73.9907 31.688 73.9907 31.8917V33.9111C73.9907 34.1097 74.0413 34.2613 74.1421 34.3656C74.248 34.47 74.4019 34.5221 74.6037 34.5221C74.8056 34.5221 74.9544 34.4674 75.0502 34.3582C75.1511 34.249 75.2015 34.0776 75.2015 33.844V33.3671H76.2156V33.8217C76.2156 34.8947 75.6809 35.4312 74.6112 35.4312ZM78.478 35.4312C77.9786 35.4312 77.5825 35.302 77.2899 35.0437C76.9972 34.7804 76.851 34.4278 76.851 33.9856V31.8097C76.851 31.3675 76.9972 31.0173 77.2899 30.7591C77.5825 30.4957 77.9786 30.3641 78.478 30.3641C78.9775 30.3641 79.3734 30.4957 79.6662 30.7591C79.9587 31.0173 80.1051 31.3675 80.1051 31.8097V33.9856C80.1051 34.4278 79.9587 34.7804 79.6662 35.0437C79.3734 35.302 78.9775 35.4312 78.478 35.4312ZM78.478 34.5221C78.6748 34.5221 78.8262 34.47 78.9321 34.3656C79.043 34.2613 79.0986 34.1097 79.0986 33.9111V31.8917C79.0986 31.6931 79.0456 31.5415 78.9397 31.4372C78.8337 31.3279 78.6798 31.2732 78.478 31.2732C78.2813 31.2732 78.1299 31.3279 78.024 31.4372C77.918 31.5415 77.8651 31.6931 77.8651 31.8917V33.9111C77.8651 34.1097 77.918 34.2613 78.024 34.3656C78.1299 34.47 78.2813 34.5221 78.478 34.5221ZM82.4337 30.4536C82.9332 30.4536 83.3142 30.5777 83.5764 30.8261C83.8387 31.0695 83.9699 31.4272 83.9699 31.8992V32.0482C83.9699 32.5251 83.8387 32.8853 83.5764 33.1287C83.3191 33.372 82.9382 33.4938 82.4337 33.4938H81.8359V35.3418H80.8218V30.4536H82.4337ZM82.358 32.5847C82.5548 32.5847 82.7036 32.5426 82.8045 32.458C82.9055 32.3735 82.9559 32.237 82.9559 32.0482V31.8992C82.9559 31.5415 82.7565 31.3626 82.358 31.3626H81.8359V32.5847H82.358ZM87.435 35.1928V35.3418H86.3907L86.2091 34.4849H85.0664L84.8848 35.3418H83.848V35.1928L85.0437 30.4536H86.2469L87.435 35.1928ZM86.0275 33.6279L85.6415 31.8246L85.2556 33.6279H86.0275ZM51.9643 40.114C52.1459 40.2184 52.2871 40.3525 52.3881 40.5164C52.4891 40.6804 52.5395 40.8692 52.5395 41.0827V41.3361C52.5395 41.5995 52.4714 41.8328 52.3351 42.0366C52.2039 42.2403 52.0173 42.3968 51.7751 42.506C51.533 42.6152 51.253 42.6699 50.9351 42.6699C50.4054 42.6699 50.0043 42.5407 49.7319 42.2825C49.4595 42.0191 49.3232 41.6367 49.3232 41.1349V40.9039H50.3373V41.1424C50.3373 41.3559 50.3877 41.5124 50.4886 41.6118C50.5896 41.7112 50.7485 41.7608 50.9654 41.7608C51.1369 41.7608 51.2731 41.7112 51.3741 41.6118C51.48 41.5124 51.533 41.3808 51.533 41.2169V41.0678C51.533 40.74 51.3412 40.576 50.9578 40.576H50.5265V39.6893H50.9881C51.1395 39.6893 51.2579 39.6471 51.3438 39.5626C51.4296 39.4732 51.4724 39.3514 51.4724 39.1975V39.0559C51.4724 38.8871 51.4244 38.7553 51.3286 38.661C51.2329 38.5615 51.1016 38.5119 50.9351 38.5119C50.7535 38.5119 50.6123 38.5667 50.5114 38.6759C50.4156 38.7802 50.3676 38.9341 50.3676 39.1379V39.3689H49.3535V39.1379C49.3535 38.651 49.4897 38.2735 49.7622 38.0052C50.0346 37.737 50.4231 37.6028 50.9276 37.6028C51.2303 37.6028 51.5001 37.6599 51.7373 37.7742C51.9745 37.8835 52.1585 38.0399 52.2897 38.2437C52.421 38.4474 52.4865 38.6808 52.4865 38.9441V39.1975C52.4865 39.3912 52.4411 39.5675 52.3503 39.7266C52.2595 39.8805 52.1308 40.0097 51.9643 40.114ZM56.2011 42.4315V42.5805H55.1568L54.9751 41.7236H53.8324L53.6508 42.5805H52.6141V42.4315L53.8097 37.6923H55.013L56.2011 42.4315ZM54.7935 40.8666L54.4076 39.0634L54.0216 40.8666H54.7935ZM59.6975 37.6923V42.5805H58.6835V38.6088H57.5635V42.5805H56.5494V37.6923H59.6975ZM63.4352 37.6923V37.8413L62.2547 41.731C62.0832 42.2974 61.7049 42.5805 61.1196 42.5805H60.4158V41.6714H60.9833C61.059 41.6714 61.1196 41.6614 61.165 41.6416C61.2104 41.6167 61.2508 41.5795 61.2861 41.5298L60.0374 37.8413V37.6923H61.0288L61.7855 40.2333L62.4515 37.6923H63.4352ZM65.0897 42.6699C64.5853 42.6699 64.1868 42.5407 63.8941 42.2825C63.6015 42.0242 63.4551 41.6714 63.4551 41.2243V39.0485C63.4551 38.6063 63.6015 38.256 63.8941 37.9978C64.1868 37.7344 64.5853 37.6028 65.0897 37.6028C65.6296 37.6028 66.0307 37.7395 66.293 38.0127C66.5604 38.2809 66.694 38.6908 66.694 39.2422V39.7191H65.68V39.2124C65.68 38.969 65.6322 38.7925 65.5362 38.6833C65.4404 38.569 65.2891 38.5119 65.0822 38.5119C64.8804 38.5119 64.7265 38.5641 64.6205 38.6684C64.5198 38.7727 64.4692 38.9267 64.4692 39.1304V41.1498C64.4692 41.3484 64.5198 41.5 64.6205 41.6044C64.7265 41.7087 64.8804 41.7608 65.0822 41.7608C65.2841 41.7608 65.4329 41.7061 65.5286 41.5969C65.6296 41.4877 65.68 41.3163 65.68 41.0827V40.6058H66.694V41.0604C66.694 42.1334 66.1593 42.6699 65.0897 42.6699ZM70.4171 42.4315V42.5805H69.3728L68.563 40.5909H68.2149V42.5805H67.2009V37.6923H68.2149V39.6893H68.563L69.3425 37.6923H70.3641V37.8413L69.4484 40.1289L70.4171 42.4315ZM74.2022 42.4315V42.5805H73.1578L72.9762 41.7236H71.8335L71.6519 42.5805H70.6151V42.4315L71.8108 37.6923H73.014L74.2022 42.4315ZM72.7946 40.8666L72.4086 39.0634L72.0227 40.8666H72.7946ZM77.8262 42.5805H76.8121V38.6088H75.9191L75.8813 41.1424C75.8711 41.6342 75.7628 41.9967 75.5559 42.2303C75.349 42.4639 75.0311 42.5805 74.6024 42.5805H74.277V41.6714H74.4586C74.6251 41.6714 74.7462 41.6218 74.8218 41.5224C74.9025 41.4181 74.9455 41.2567 74.9505 41.038L74.9808 38.6088H74.9732V37.6923H77.8262V42.5805ZM80.0182 42.6699C79.5187 42.6699 79.1226 42.5407 78.83 42.2825C78.5373 42.0191 78.3911 41.6665 78.3911 41.2243V39.0485C78.3911 38.6063 78.5373 38.256 78.83 37.9978C79.1226 37.7344 79.5187 37.6028 80.0182 37.6028C80.5176 37.6028 80.9135 37.7344 81.2063 37.9978C81.4988 38.256 81.6452 38.6063 81.6452 39.0485V41.2243C81.6452 41.6665 81.4988 42.0191 81.2063 42.2825C80.9135 42.5407 80.5176 42.6699 80.0182 42.6699ZM80.0182 41.7608C80.2149 41.7608 80.3663 41.7087 80.4722 41.6044C80.5831 41.5 80.6387 41.3484 80.6387 41.1498V39.1304C80.6387 38.9318 80.5857 38.7802 80.4798 38.6759C80.3738 38.5667 80.2199 38.5119 80.0182 38.5119C79.8214 38.5119 79.67 38.5667 79.5641 38.6759C79.4582 38.7802 79.4052 38.9318 79.4052 39.1304V41.1498C79.4052 41.3484 79.4582 41.5 79.5641 41.6044C79.67 41.7087 79.8214 41.7608 80.0182 41.7608ZM84.7079 40.0991C84.9096 40.1986 85.0636 40.3376 85.1695 40.5164C85.2804 40.6953 85.336 40.9088 85.336 41.1573V41.3063C85.336 41.7038 85.2048 42.0168 84.9425 42.2452C84.6852 42.4687 84.3295 42.5805 83.8755 42.5805H82.2106V37.6923H83.7922C84.2463 37.6923 84.5993 37.8015 84.8517 38.0201C85.109 38.2388 85.2376 38.5443 85.2376 38.9367V39.0857C85.2376 39.3142 85.1922 39.5154 85.1014 39.6893C85.0106 39.8632 84.8793 39.9997 84.7079 40.0991ZM83.2246 38.5865V39.6818H83.6787C84.0419 39.6818 84.2236 39.5179 84.2236 39.19V39.0559C84.2236 38.7429 84.0393 38.5865 83.6711 38.5865H83.2246ZM84.3144 41.0604C84.3144 40.9014 84.2664 40.7798 84.1706 40.6953C84.0748 40.6058 83.9386 40.5611 83.7619 40.5611H83.2246V41.6863H83.7544C84.1278 41.6863 84.3144 41.5224 84.3144 41.1945V41.0604ZM88.9682 42.4315V42.5805H87.9239L87.7423 41.7236H86.5996L86.4179 42.5805H85.3812V42.4315L86.5769 37.6923H87.7801L88.9682 42.4315ZM87.5606 40.8666L87.1747 39.0634L86.7888 40.8666H87.5606Z" fill="#3662AC"/>
<path d="M33.4919 2.8529C9.9027 4.87548 0.605405 5.7271 0.345946 5.94C0.151351 6.08903 0 6.49355 0 6.8129C0 7.26 4.12973 12.8594 17.4054 30.3601L34.8108 53.3323L46.2054 59.5491C53.1459 63.3175 57.8595 65.7659 58.227 65.7659C58.5513 65.7872 74.0973 63.4878 92.7784 60.6775C111.438 57.8672 126.811 55.5678 126.919 55.5678C127.027 55.5678 127.286 55.3336 127.481 55.0355C127.762 54.5885 127.805 54.3755 127.611 53.971C127.33 53.3749 98.3784 15.329 97.9243 14.9884C97.7514 14.8394 91.2216 11.4116 83.4162 7.36645L69.1892 0L67.7405 0.0212916C66.9189 0.0425832 51.5243 1.29871 33.4919 2.8529ZM57.3189 8.19678L49.5135 13.86L27.9568 10.709C16.1081 8.98452 6.81081 7.53678 7.26486 7.49419C7.71892 7.45161 20.7135 6.34452 36.1081 5.00323C51.5027 3.68323 64.3459 2.59742 64.627 2.57613C64.9514 2.55484 62.3784 4.55613 57.3189 8.19678ZM80.7135 15.4994C80.1946 15.5632 52.5405 14.1155 52.4108 14.009C52.3676 13.9665 55.8703 11.369 60.173 8.26065L68 2.57613L74.5514 9.00581C79.0703 13.4555 80.973 15.4568 80.7135 15.4994ZM85.8811 11.3903C90.8541 13.9452 94.8541 16.0955 94.8108 16.1381C94.7676 16.2019 92.0432 16.1168 88.7784 15.9677L82.8541 15.691L76.6054 9.51678L70.3784 3.36387L73.6216 5.04581C75.4162 5.96129 80.9297 8.81419 85.8811 11.3903ZM27.4595 11.5819C39.3946 13.3277 48.0649 14.6903 48 14.8181C47.9351 14.9245 44.3027 17.6071 39.8919 20.8006L31.9135 26.5704L31.3514 26.2085C13.9676 14.2432 6.0973 8.83548 5.88108 8.62258C5.66487 8.43097 5.72973 8.38839 6.20541 8.45226C6.52973 8.51613 16.1081 9.92129 27.4595 11.5819ZM19.9568 21.2477C25.9892 25.3994 30.9189 28.8272 30.9189 28.891C30.9189 28.9336 31.3081 31.2968 31.7838 34.1072C32.2811 36.9388 32.627 39.302 32.6054 39.3872C32.5622 39.4723 27.1568 33.7026 20.5622 26.5704C13.9892 19.4168 8.69189 13.6045 8.8 13.6471C8.90811 13.6897 13.9243 17.1174 19.9568 21.2477ZM68 15.8613L82.2703 16.6065L89.6865 23.9091L97.1027 31.233L97.4487 38.5143C97.6649 42.9214 97.7297 45.8594 97.6 45.9659C97.4919 46.0723 94.0973 47.6478 90.0541 49.4575L82.7027 52.7362L66.5081 52.2465C57.6 51.9697 50.227 51.6717 50.1622 51.5865C49.5351 50.9052 32.8649 28.0394 32.9297 27.9755C32.973 27.9117 37.0595 24.9736 41.9676 21.3968L50.9189 14.9458L52.3243 15.031C53.1027 15.0948 60.1514 15.4781 68 15.8613ZM90.8108 17.0536C93.8378 17.1813 96.3459 17.309 96.3892 17.3516C96.4541 17.4155 97.0595 29.4659 96.9946 29.5297C96.973 29.551 93.9892 26.6556 90.3784 23.0788C84.3459 17.1387 83.8486 16.5852 84.5405 16.6916C84.9514 16.7555 87.7838 16.9045 90.8108 17.0536ZM22.8757 30.5091L33.0162 41.5375L33.4919 44.4543C33.773 46.051 34.0324 47.6052 34.0973 47.9033C34.1622 48.2014 30.0973 43.0278 25.0595 36.4065C12.4541 19.8213 10.8541 17.6497 11.8486 18.629C12.3243 19.0974 17.2973 24.4414 22.8757 30.5091ZM111.135 36.151C117.924 45.093 123.438 52.4594 123.395 52.502C123.33 52.5659 100.238 46.1788 99.5243 45.902C99.5027 45.8807 99.2432 40.5155 98.9405 33.9581C98.6378 27.4007 98.3351 21.4181 98.2703 20.6729C98.1838 19.5019 98.2054 19.3316 98.4649 19.6084C98.6162 19.7574 104.324 27.2304 111.135 36.151ZM41.0595 40.7923C45.4486 46.7536 49.0162 51.6504 48.9946 51.693C48.9297 51.7568 36.4757 51.331 36.4108 51.2459C36.3892 51.2246 35.5459 46.3278 34.5514 40.3878C33.5351 34.4478 32.8 29.6575 32.9081 29.7639C33.0162 29.8704 36.6703 34.831 41.0595 40.7923ZM109.708 50.5007C116.541 52.4381 120.259 53.5665 119.87 53.6091C119.135 53.6943 91.2432 52.8426 88.8865 52.6723L87.3081 52.5446L92.8865 50.011C95.9784 48.6272 98.5946 47.4775 98.7027 47.4775C98.8324 47.4775 103.784 48.8401 109.708 50.5007ZM44.7784 52.0762L49.4703 52.2039L53.2541 57.3562C55.3297 60.1665 57.0162 62.5085 56.9946 62.5297C56.973 62.5723 52.4324 60.1452 46.9405 57.1859L36.9297 51.7568L38.5297 51.8633C39.3946 51.9059 42.2054 52.0123 44.7784 52.0762ZM66.5946 52.7149C73.7946 52.9065 80.0649 53.1194 80.5405 53.2046C81.3405 53.3323 80.9514 53.5452 70.2703 58.3143C64.1514 61.0607 59.0703 63.3388 59.0054 63.3814C58.8757 63.4239 56.5622 60.3368 51.373 53.2685L50.5514 52.1401L52.0216 52.2465C52.8432 52.3104 59.3946 52.5233 66.5946 52.7149ZM102.443 54.0775C109.514 54.3117 115.741 54.5033 116.281 54.5246C116.843 54.5246 105.73 56.2917 91.5676 58.442C77.4054 60.571 65.8162 62.3168 65.773 62.2743C65.7514 62.253 70.0757 60.273 75.3946 57.8672L85.0811 53.5026L87.3514 53.5878C88.6054 53.6304 95.3946 53.8646 102.443 54.0775Z" fill="#3662AC"/>
</g>
<defs>
<clipPath id="clip0">
<rect width="128" height="66" fill="white"/>
</clipPath>
</defs>
</svg>
