<svg width="170" height="49" viewBox="0 0 170 49" fill="none" xmlns="http://www.w3.org/2000/svg">
<path fill-rule="evenodd" clip-rule="evenodd" d="M82.6116 35.041H79.6343V39.9501H75.0537V42.9891H79.6343V48.1319H82.6116V42.9891H87.4212V39.9501H82.6116V35.041Z" fill="#E83C24"/>
<path d="M61.6522 11.0029L61.1288 8.96997H57.676L57.138 11.0029H53.9834L57.4507 0.111296H61.2814L64.7924 11.0029H61.6522ZM60.5327 6.56611L60.0749 4.78547C59.9681 4.38977 59.8374 3.87785 59.6823 3.24967C59.5321 2.6215 59.4327 2.17141 59.3843 1.89935C59.3406 2.15161 59.2533 2.5671 59.1226 3.14581C58.9966 3.7245 58.7131 4.86462 58.2722 6.56611H60.5327ZM75.5771 11.0029H72.6913V6.58096H69.3548V11.0029H66.4691V0.155805H69.3548V4.17709H72.6913V0.155805H75.5771V11.0029ZM89.1023 14.3787H86.3038V11.0029H80.1107V14.3787H77.3122V8.59901H78.1917C78.8265 7.50094 79.3499 6.23225 79.7617 4.7929C80.1737 3.3486 80.4403 1.8029 80.5614 0.155805H87.6485V8.59901H89.1023V14.3787ZM84.7556 8.59901V2.55226H82.8657C82.6669 4.66924 82.1218 6.68482 81.2302 8.59901H84.7556ZM98.7605 3.60579C98.7605 4.81764 98.4091 5.75494 97.7065 6.41772C97.0086 7.07558 96.0153 7.40449 94.7261 7.40449H93.9193V11.0029H91.0482V0.155805H94.7261C96.0685 0.155805 97.0764 0.455049 97.75 1.05356C98.4238 1.65205 98.7605 2.50279 98.7605 3.60579ZM93.9193 5.01547H94.4428C94.8741 5.01547 95.2156 4.89181 95.4677 4.64451C95.7245 4.39721 95.8529 4.05591 95.8529 3.62064C95.8529 2.8886 95.4556 2.52257 94.6609 2.52257H93.9193V5.01547ZM107.285 11.0029H100.975V0.155805H107.285V2.50775H103.846V4.21419H107.03V6.56611H103.846V8.61386H107.285V11.0029ZM115.976 11.0029H109.667V0.155805H115.976V2.50775H112.538V4.21419H115.722V6.56611H112.538V8.61386H115.976V11.0029ZM118.358 0.155805H122.065C123.509 0.155805 124.58 0.375919 125.278 0.816124C125.981 1.2514 126.332 1.93151 126.332 2.85646C126.332 3.46483 126.179 3.98419 125.874 4.41451C125.569 4.84482 125.166 5.12181 124.667 5.24547V5.31967C125.326 5.49773 125.804 5.7945 126.099 6.20999C126.395 6.62547 126.543 7.1646 126.543 7.8274C126.543 8.81169 126.179 9.58826 125.452 10.1571C124.73 10.7209 123.744 11.0029 122.494 11.0029H118.358V0.155805ZM121.229 4.31806H122.094C122.506 4.31806 122.824 4.23149 123.046 4.05839C123.274 3.88526 123.388 3.62805 123.388 3.28677C123.388 2.67837 122.937 2.3742 122.036 2.3742H121.229V4.31806ZM121.229 6.46225V8.73997H122.24C123.136 8.73997 123.584 8.35417 123.584 7.58257C123.584 7.2215 123.463 6.94451 123.221 6.75161C122.983 6.5587 122.637 6.46225 122.181 6.46225H121.229ZM133.642 2.40386C132.959 2.40386 132.426 2.69074 132.043 3.26452C131.66 3.83332 131.469 4.61978 131.469 5.62385C131.469 7.71117 132.246 8.75482 133.802 8.75482C134.272 8.75482 134.728 8.68805 135.169 8.5545C135.61 8.42095 136.053 8.26019 136.499 8.07224V10.5503C135.612 10.9509 134.609 11.1513 133.49 11.1513C131.885 11.1513 130.655 10.6764 129.797 9.72675C128.944 8.77707 128.518 7.40449 128.518 5.60903C128.518 4.48623 128.724 3.49945 129.135 2.64871C129.552 1.79796 130.148 1.14506 130.924 0.690007C131.704 0.230002 132.62 0 133.671 0C134.82 0 135.917 0.254735 136.964 0.764204L136.084 3.07161C135.692 2.88364 135.3 2.72538 134.907 2.59677C134.515 2.46817 134.093 2.40386 133.642 2.40386ZM148.389 11.0029H145.139L141.985 5.50514V11.0029H139.099V0.155805H141.985V5.40869L145.023 0.155805H148.178L144.9 5.33452L148.389 11.0029ZM150 0.155805H152.559V4.81516C152.559 5.30978 152.52 6.29901 152.442 7.78289H152.501L156.738 0.155805H160.285V11.0029H157.741V6.46225C157.741 5.77472 157.785 4.74589 157.872 3.37579H157.814L153.54 11.0029H150V0.155805ZM169.42 11.0029H163.111V0.155805H169.42V2.50775H165.982V4.21419H169.166V6.56611H165.982V8.61386H169.42V11.0029Z" fill="#E83C24"/>
<path d="M64.7588 48.1312V48.365H64.9878V48.1312H64.7588ZM61.3403 48.1312H61.1113V48.365H61.3403V48.1312ZM61.3403 42.893H61.5693V42.6592H61.3403V42.893ZM57.388 42.893V42.6592H57.1589V42.893H57.388ZM57.388 48.1312V48.365H57.617V48.1312H57.388ZM53.9693 48.1312H53.7402V48.365H53.9693V48.1312ZM53.9693 35.2816V35.0479H53.7402V35.2816H53.9693ZM57.388 35.2816H57.617V35.0479H57.388V35.2816ZM57.388 40.0453H57.1589V40.279H57.388V40.0453ZM61.3403 40.0453V40.279H61.5693V40.0453H61.3403ZM61.3403 35.2816V35.0479H61.1113V35.2816H61.3403ZM64.7588 35.2816H64.9878V35.0479H64.7588V35.2816ZM64.7588 47.8975H61.3403V48.365H64.7588V47.8975ZM61.5693 48.1312V42.893H61.1113V48.1312H61.5693ZM61.3403 42.6592H57.388V43.1268H61.3403V42.6592ZM57.1589 42.893V48.1312H57.617V42.893H57.1589ZM57.388 47.8975H53.9693V48.365H57.388V47.8975ZM54.1983 48.1312V35.2816H53.7402V48.1312H54.1983ZM53.9693 35.5154H57.388V35.0479H53.9693V35.5154ZM57.1589 35.2816V40.0453H57.617V35.2816H57.1589ZM57.388 40.279H61.3403V39.8115H57.388V40.279ZM61.5693 40.0453V35.2816H61.1113V40.0453H61.5693ZM61.3403 35.5154H64.7588V35.0479H61.3403V35.5154ZM64.5297 35.2816V48.1312H64.9878V35.2816H64.5297Z" fill="black"/>
<path d="M74.8024 48.1318V48.3657H75.0537V48.1318H74.8024ZM66.6019 48.1318H66.3506V48.3657H66.6019V48.1318ZM66.6019 35.2749V35.041H66.3506V35.2749H66.6019ZM74.8024 35.2749H75.0537V35.041H74.8024V35.2749ZM74.8024 38.0627V38.2966H75.0537V38.0627H74.8024ZM70.3339 38.0627V37.8288H70.0826V38.0627H70.3339ZM70.3339 40.0852H70.0826V40.3191H70.3339V40.0852ZM74.4717 40.0852H74.723V39.8513H74.4717V40.0852ZM74.4717 42.873V43.1069H74.723V42.873H74.4717ZM70.3339 42.873V42.6391H70.0826V42.873H70.3339ZM70.3339 45.3002H70.0826V45.5341H70.3339V45.3002ZM74.8024 45.3002H75.0537V45.0663H74.8024V45.3002ZM74.8024 47.8979H66.6019V48.3657H74.8024V47.8979ZM66.8531 48.1318V35.2749H66.3506V48.1318H66.8531ZM66.6019 35.5088H74.8024V35.041H66.6019V35.5088ZM74.5511 35.2749V38.0627H75.0537V35.2749H74.5511ZM74.8024 37.8288H70.3339V38.2966H74.8024V37.8288ZM70.0826 38.0627V40.0852H70.5852V38.0627H70.0826ZM70.3339 40.3191H74.4717V39.8513H70.3339V40.3191ZM74.2204 40.0852V42.873H74.723V40.0852H74.2204ZM74.4717 42.6391H70.3339V43.1069H74.4717V42.6391ZM70.0826 42.873V45.3002H70.5852V42.873H70.0826ZM70.3339 45.5341H74.8024V45.0663H70.3339V45.5341ZM74.5511 45.3002V48.1318H75.0537V45.3002H74.5511Z" fill="black"/>
<path d="M95.5842 47.0589L95.7248 47.2436V47.2434L95.5842 47.0589ZM87.6363 48.1312H87.4072V48.365H87.6363V48.1312ZM87.6363 35.2816V35.0478H87.4072V35.2816H87.6363ZM95.92 35.2816H96.149V35.0478H95.92V35.2816ZM95.92 38.0678V38.3016H96.149V38.0678H95.92ZM91.055 38.0678V37.834H90.8259V38.0678H91.055ZM91.055 40.0277H90.8259V40.2615H91.055V40.0277ZM95.567 41.0121L95.4356 41.2035L95.4365 41.2043L95.567 41.0121ZM91.055 45.4506H90.8259V45.6844H91.055V45.4506ZM93.0095 42.9895L92.8826 43.184L92.884 43.1852L93.0095 42.9895ZM91.055 42.6557V42.4219H90.8259V42.6557H91.055ZM96.7156 43.9564C96.7156 45.2442 96.286 46.205 95.4436 46.8745L95.7248 47.2434C96.6964 46.4715 97.1737 45.3641 97.1737 43.9564H96.7156ZM95.4436 46.8742C94.5982 47.5449 93.353 47.8974 91.6749 47.8974V48.365C93.4066 48.365 94.7677 48.0026 95.7248 47.2436L95.4436 46.8742ZM91.6749 47.8974H87.6363V48.365H91.6749V47.8974ZM87.8653 48.1312V35.2816H87.4072V48.1312H87.8653ZM87.6363 35.5154H95.92V35.0478H87.6363V35.5154ZM95.6909 35.2816V38.0678H96.149V35.2816H95.6909ZM95.92 37.834H91.055V38.3016H95.92V37.834ZM90.8259 38.0678V40.0277H91.284V38.0678H90.8259ZM91.055 40.2615H91.5458V39.7939H91.055V40.2615ZM91.5458 40.2615C93.2859 40.2615 94.5719 40.5864 95.4356 41.2035L95.6983 40.8206C94.7251 40.1252 93.3301 39.7939 91.5458 39.7939V40.2615ZM95.4365 41.2043C96.2832 41.8039 96.7156 42.7071 96.7156 43.9564H97.1737C97.1737 42.5807 96.6877 41.5212 95.6976 40.8199L95.4365 41.2043ZM91.055 45.6844H91.5112V45.2168H91.055V45.6844ZM91.5112 45.6844C92.237 45.6844 92.8111 45.5642 93.1824 45.2765L92.9055 44.9041C92.6568 45.0967 92.2093 45.2168 91.5112 45.2168V45.6844ZM93.1824 45.2765C93.5603 44.9838 93.738 44.5536 93.738 44.0267H93.28C93.28 44.4372 93.1478 44.7161 92.9055 44.9041L93.1824 45.2765ZM93.738 44.0267C93.738 43.4933 93.5433 43.0671 93.135 42.7941L92.884 43.1852C93.1416 43.3575 93.28 43.6226 93.28 44.0267H93.738ZM93.1366 42.795C92.7532 42.5341 92.193 42.4219 91.494 42.4219V42.8895C92.1614 42.8895 92.6117 42.9998 92.8826 43.184L93.1366 42.795ZM91.494 42.4219H91.055V42.8895H91.494V42.4219ZM90.8259 42.6557V45.4506H91.284V42.6557H90.8259ZM99.7244 46.6108L99.5581 46.7716L99.5585 46.7721L99.7244 46.6108ZM99.7157 36.7758L99.5496 36.615L99.7157 36.7758ZM106.182 44.5102L105.996 44.3751L105.995 44.3762L106.182 44.5102ZM106.174 38.85L105.986 38.9835L105.987 38.9856L106.174 38.85ZM110.164 41.6888C110.164 43.8152 109.653 45.3922 108.668 46.4591L109.001 46.7798C110.094 45.5967 110.622 43.8867 110.622 41.6888H110.164ZM108.668 46.4591C107.685 47.5234 106.233 48.0732 104.271 48.0732V48.5408C106.316 48.5408 107.906 47.9655 109.001 46.7798L108.668 46.4591ZM104.271 48.0732C102.34 48.0732 100.891 47.5215 99.8902 46.4495L99.5585 46.7721C100.67 47.9615 102.253 48.5408 104.271 48.5408V48.0732ZM99.8906 46.45C98.8939 45.377 98.3777 43.7969 98.3777 41.6713H97.9196C97.9196 43.8699 98.4539 45.5829 99.5581 46.7716L99.8906 46.45ZM98.3777 41.6713C98.3777 39.5695 98.8907 38.004 99.8819 36.9366L99.5496 36.615C98.4512 37.7976 97.9196 39.4957 97.9196 41.6713H98.3777ZM99.8819 36.9366C100.877 35.8655 102.333 35.3132 104.288 35.3132V34.8457C102.248 34.8457 100.656 35.4243 99.5496 36.615L99.8819 36.9366ZM104.288 35.3132C106.25 35.3132 107.7 35.8602 108.677 36.9184L109.01 36.5979C107.921 35.4178 106.333 34.8457 104.288 34.8457V35.3132ZM108.677 36.9184C109.656 37.9792 110.164 39.556 110.164 41.6888H110.622C110.622 39.4858 110.097 37.7754 109.01 36.5979L108.677 36.9184ZM101.502 41.6888C101.502 42.951 101.716 43.9391 102.178 44.6172C102.651 45.3108 103.362 45.6491 104.271 45.6491V45.1815C103.487 45.1815 102.928 44.8989 102.554 44.3503C102.169 43.7862 101.96 42.9112 101.96 41.6888H101.502ZM104.271 45.6491C105.19 45.6491 105.905 45.3227 106.37 44.6441L105.995 44.3762C105.633 44.9045 105.074 45.1815 104.271 45.1815V45.6491ZM106.369 44.6453C106.83 43.9828 107.04 42.9832 107.04 41.6888H106.582C106.582 42.9491 106.374 43.8306 105.996 44.3751L106.369 44.6453ZM107.04 41.6888C107.04 40.3882 106.827 39.3827 106.36 38.7144L105.987 38.9856C106.371 39.5359 106.582 40.4232 106.582 41.6888H107.04ZM106.362 38.7165C105.893 38.0288 105.189 37.6933 104.288 37.6933V38.1609C105.064 38.1609 105.616 38.4407 105.986 38.9835L106.362 38.7165ZM104.288 37.6933C103.373 37.6933 102.658 38.0349 102.182 38.7343C101.717 39.4183 101.502 40.4151 101.502 41.6888H101.96C101.96 40.4548 102.171 39.5707 102.558 39.0008C102.935 38.4463 103.499 38.1609 104.288 38.1609V37.6933ZM122.946 48.1312V48.365H123.175V48.1312H122.946ZM119.528 48.1312H119.299V48.365H119.528V48.1312ZM119.528 38.1204H119.757V37.8866H119.528V38.1204ZM117.125 38.1204V37.8866H116.916L116.897 38.0989L117.125 38.1204ZM116.591 42.5765L116.365 42.5416L116.365 42.5426L116.591 42.5765ZM115.963 45.7582L115.746 45.6837L115.963 45.7582ZM115.196 47.2172L115.024 47.0636V47.0638L115.196 47.2172ZM114.06 48.0344L114.144 48.2521L114.146 48.2511L114.06 48.0344ZM111.08 48.1137H110.851V48.2853L111.012 48.3367L111.08 48.1137ZM111.08 45.4331L111.153 45.2112L110.851 45.1086V45.4331H111.08ZM112.605 45.2309L112.411 45.1053L112.411 45.1065L112.605 45.2309ZM113.044 43.93L113.267 43.9805L113.267 43.98L113.044 43.93ZM113.595 40.5198L113.821 40.5534V40.5532L113.595 40.5198ZM114.249 35.2816V35.0478H114.045L114.022 35.2555L114.249 35.2816ZM122.946 35.2816H123.175V35.0478H122.946V35.2816ZM122.946 47.8974H119.528V48.365H122.946V47.8974ZM119.757 48.1312V38.1204H119.299V48.1312H119.757ZM119.528 37.8866H117.125V38.3542H119.528V37.8866ZM116.897 38.0989C116.766 39.5532 116.588 41.0341 116.365 42.5416L116.818 42.6115C117.042 41.0956 117.221 39.6055 117.353 38.1419L116.897 38.0989ZM116.365 42.5426C116.147 44.0541 115.94 45.096 115.746 45.6837L116.18 45.8328C116.388 45.2016 116.6 44.1226 116.818 42.6106L116.365 42.5426ZM115.746 45.6837C115.551 46.273 115.309 46.7298 115.024 47.0636L115.369 47.3708C115.704 46.978 115.973 46.4619 116.18 45.8328L115.746 45.6837ZM115.024 47.0638C114.744 47.3918 114.396 47.6433 113.974 47.818L114.146 48.2511C114.631 48.0506 115.04 47.7572 115.369 47.3705L115.024 47.0638ZM113.976 47.817C113.556 47.9851 113.038 48.0732 112.415 48.0732V48.5408C113.078 48.5408 113.656 48.4473 114.144 48.2521L113.976 47.817ZM112.415 48.0732C111.947 48.0732 111.525 48.0113 111.149 47.8907L111.012 48.3367C111.439 48.4737 111.908 48.5408 112.415 48.5408V48.0732ZM111.31 48.1137V45.4331H110.851V48.1137H111.31ZM111.008 45.6547C111.362 45.7753 111.671 45.8424 111.924 45.8424V45.3749C111.742 45.3749 111.487 45.3251 111.153 45.2112L111.008 45.6547ZM111.924 45.8424C112.299 45.8424 112.6 45.6771 112.798 45.3552L112.411 45.1065C112.299 45.2884 112.146 45.3749 111.924 45.3749V45.8424ZM112.798 45.3564C112.981 45.0621 113.134 44.5948 113.267 43.9805L112.82 43.8795C112.689 44.4842 112.549 44.884 112.411 45.1053L112.798 45.3564ZM113.267 43.98C113.401 43.3556 113.586 42.2111 113.821 40.5534L113.368 40.4864C113.133 42.1452 112.95 43.274 112.82 43.8799L113.267 43.98ZM113.821 40.5532C114.057 38.8865 114.276 37.1381 114.477 35.3077L114.022 35.2555C113.821 37.0816 113.603 38.825 113.368 40.4866L113.821 40.5532ZM114.249 35.5154H122.946V35.0478H114.249V35.5154ZM122.717 35.2816V48.1312H123.175V35.2816H122.717ZM125.235 35.2816V35.0478H125.006V35.2816H125.235ZM128.266 35.2816H128.495V35.0478H128.266V35.2816ZM128.128 44.3168L127.9 44.3042L127.887 44.5506H128.128V44.3168ZM128.197 44.3168V44.5506H128.331L128.396 44.4321L128.197 44.3168ZM133.217 35.2816V35.0478H133.084L133.018 35.1663L133.217 35.2816ZM137.42 35.2816H137.649V35.0478H137.42V35.2816ZM137.42 48.1312V48.365H137.649V48.1312H137.42ZM134.406 48.1312H134.177V48.365H134.406V48.1312ZM134.561 39.0962L134.789 39.1111L134.805 38.8624H134.561V39.0962ZM134.492 39.0962V38.8624H134.359L134.293 38.98L134.492 39.0962ZM129.429 48.1312V48.365H129.561L129.627 48.2474L129.429 48.1312ZM125.235 48.1312H125.006V48.365H125.235V48.1312ZM125.235 35.5154H128.266V35.0478H125.235V35.5154ZM128.037 35.2816V40.8012H128.495V35.2816H128.037ZM128.037 40.8012C128.037 41.3798 127.991 42.5454 127.9 44.3042L128.357 44.3292C128.449 42.5725 128.495 41.3943 128.495 40.8012H128.037ZM128.128 44.5506H128.197V44.0831H128.128V44.5506ZM128.396 44.4321L133.417 35.3969L133.018 35.1663L127.998 44.2014L128.396 44.4321ZM133.217 35.5154H137.42V35.0478H133.217V35.5154ZM137.191 35.2816V48.1312H137.649V35.2816H137.191ZM137.42 47.8974H134.406V48.365H137.42V47.8974ZM134.635 48.1312V42.7523H134.177V48.1312H134.635ZM134.635 42.7523C134.635 41.9458 134.686 40.7332 134.789 39.1111L134.332 39.081C134.229 40.7052 134.177 41.9301 134.177 42.7523H134.635ZM134.561 38.8624H134.492V39.3299H134.561V38.8624ZM134.293 38.98L129.23 48.015L129.627 48.2474L134.691 39.2121L134.293 38.98ZM129.429 47.8974H125.235V48.365H129.429V47.8974ZM125.464 48.1312V35.2816H125.006V48.1312H125.464ZM145.262 48.1312V48.365H145.491V48.1312H145.262ZM141.861 48.1312H141.632V48.365H141.861V48.1312ZM141.861 38.1204H142.09V37.8866H141.861V38.1204ZM138.787 38.1204H138.558V38.3542H138.787V38.1204ZM138.787 35.2816V35.0478H138.558V35.2816H138.787ZM148.328 35.2816H148.557V35.0478H148.328V35.2816ZM148.328 38.1204V38.3542H148.557V38.1204H148.328ZM145.262 38.1204V37.8866H145.033V38.1204H145.262ZM145.262 47.8974H141.861V48.365H145.262V47.8974ZM142.09 48.1312V38.1204H141.632V48.1312H142.09ZM141.861 37.8866H138.787V38.3542H141.861V37.8866ZM139.016 38.1204V35.2816H138.558V38.1204H139.016ZM138.787 35.5154H148.328V35.0478H138.787V35.5154ZM148.099 35.2816V38.1204H148.557V35.2816H148.099ZM148.328 37.8866H145.262V38.3542H148.328V37.8866ZM145.033 38.1204V48.1312H145.491V38.1204H145.033Z" fill="black"/>
<path d="M61.7536 24.3818C61.7536 25.5647 61.3699 26.4725 60.6027 27.1051C59.8403 27.7326 58.7381 28.0463 57.2959 28.0463H53.8799V16.7673H60.8868V19.2129H56.7715V20.9333H57.1867C58.6775 20.9333 59.8112 21.2213 60.5883 21.7973C61.3651 22.3682 61.7536 23.2297 61.7536 24.3818ZM56.7715 25.6933H57.1575C57.7597 25.6933 58.1919 25.5879 58.454 25.377C58.7163 25.1661 58.8473 24.855 58.8473 24.4435C58.8473 24.0321 58.7066 23.7286 58.4248 23.5332C58.148 23.3377 57.7207 23.24 57.1428 23.24H56.7715V25.6933ZM74.0246 22.3914C74.0246 24.2892 73.5851 25.7319 72.7061 26.7194C71.8271 27.7069 70.5404 28.2006 68.8458 28.2006C67.1753 28.2006 65.8933 27.7043 64.9999 26.7117C64.1113 25.719 63.667 24.2738 63.667 22.376C63.667 20.4987 64.1087 19.0663 64.9925 18.0788C65.8811 17.0862 67.1704 16.5898 68.8602 16.5898C70.555 16.5898 71.8393 17.081 72.7135 18.0634C73.5874 19.0457 74.0246 20.4884 74.0246 22.3914ZM66.697 22.3914C66.697 24.5721 67.4132 25.6625 68.8458 25.6625C69.5739 25.6625 70.113 25.3976 70.4628 24.8678C70.8171 24.3381 70.9943 23.5126 70.9943 22.3914C70.9943 21.265 70.8148 20.4344 70.4554 19.8995C70.1009 19.3595 69.5691 19.0894 68.8602 19.0894C67.4181 19.0894 66.697 20.1901 66.697 22.3914ZM85.5379 28.0463H82.6463V19.2592H80.6141C80.5023 20.5398 80.3518 21.8436 80.1624 23.1706C79.9779 24.4975 79.8005 25.4284 79.6307 25.9633C79.4606 26.4982 79.2447 26.9251 78.9824 27.244C78.7251 27.5577 78.4045 27.7969 78.021 27.9615C77.6373 28.1209 77.1737 28.2006 76.6298 28.2006C76.2169 28.2006 75.8406 28.144 75.5007 28.0309V25.6779C75.7921 25.7807 76.0301 25.8322 76.2146 25.8322C76.4671 25.8322 76.6589 25.7216 76.79 25.5004C76.9258 25.2741 77.0498 24.8935 77.1615 24.3586C77.2731 23.8186 77.4284 22.8208 77.6276 21.3653C77.8266 19.9046 78.0111 18.372 78.1812 16.7673H85.5379V28.0463ZM95.9731 24.3046C95.9731 25.5082 95.5848 26.4339 94.8077 27.082C94.0357 27.7249 92.9382 28.0463 91.5156 28.0463H88.369V16.7673H91.2606V20.779H91.4063C92.8921 20.779 94.0235 21.0773 94.8006 21.6739C95.5823 22.2654 95.9731 23.1423 95.9731 24.3046ZM91.2606 25.7087H91.3917C92.5183 25.7087 93.0814 25.2664 93.0814 24.3818C93.0814 23.5383 92.5134 23.1166 91.3772 23.1166H91.2606V25.7087ZM107.312 28.0463H104.42V23.4483H101.077V28.0463H98.1852V16.7673H101.077V20.9487H104.42V16.7673H107.312V28.0463ZM110.143 16.7673H112.707V21.6122C112.707 22.1265 112.668 23.1551 112.59 24.6981H112.648L116.895 16.7673H120.449V28.0463H117.9V23.3249C117.9 22.61 117.944 21.5402 118.031 20.1155H117.973L113.69 28.0463H110.143V16.7673ZM132.022 25.5467H134.257V31.5566H131.453V28.0463H123.281V16.7673H126.172V25.5467H129.13V16.7673H132.022V25.5467ZM143.804 24.3046C143.804 25.5082 143.417 26.4339 142.639 27.082C141.867 27.7249 140.768 28.0463 139.345 28.0463H136.199V16.7673H139.091V20.779H139.237C140.722 20.779 141.854 21.0773 142.632 21.6739C143.412 22.2654 143.804 23.1423 143.804 24.3046ZM139.091 25.6933H139.208C140.334 25.6933 140.897 25.251 140.897 24.3664C140.897 23.5126 140.33 23.0857 139.194 23.0857H139.091V25.6933ZM147.671 28.0463H144.773V16.7673H147.671V28.0463Z" fill="#E83C24"/>
<path d="M47.8935 0.625977H0V48.5195H47.8935V0.625977Z" fill="#4872A2"/>
<path fill-rule="evenodd" clip-rule="evenodd" d="M20.5215 26.8368V36.248V36.4099V43.2652C21.636 43.4397 22.7802 43.5304 23.9466 43.5304C35.5189 43.5304 44.9 34.5961 44.9 23.5748C44.9 22.6638 44.836 21.767 44.7118 20.8885H37.5621H35.8336H26.7672V10.6077C30.9944 11.4374 34.5206 14.0947 36.3948 17.6741L42.8458 14.9469C39.467 8.24558 32.274 3.61914 23.9466 3.61914C12.3743 3.61914 2.99316 12.5536 2.99316 23.5748C2.99316 30.9159 7.1555 37.3315 13.3552 40.7972L17.755 35.4324C14.1752 33.7336 11.4731 30.6075 10.4699 26.8368H20.5215ZM26.7672 26.8368V36.5419C31.9786 35.5191 36.1246 31.7181 37.4234 26.8368H26.7672ZM20.5215 20.8885H10.3311C11.4051 15.9252 15.3959 11.9767 20.5215 10.7399V20.8885Z" fill="white"/>
<path fill-rule="evenodd" clip-rule="evenodd" d="M26.7567 14.5947H20.5206V20.8827H13.9688V26.8448H20.5206V33.5526H26.7723V26.837H32.9266V20.8893H26.7567V14.5947Z" fill="#E83C24"/>
</svg>
