<svg width="405" height="405" viewBox="0 0 405 405" fill="none" xmlns="http://www.w3.org/2000/svg">
<path fill-rule="evenodd" clip-rule="evenodd" d="M202.5 0C90.8453 0 0 90.8413 0 202.503C0 314.164 90.8453 405 202.5 405C314.155 405 405 314.159 405 202.497C405 90.8361 314.16 0 202.5 0ZM5.54852 202.503C5.54852 311.101 93.8975 399.457 202.5 399.457C311.103 399.457 399.451 311.096 399.451 202.497C399.451 93.8987 311.097 5.54343 202.5 5.54343C93.9026 5.54343 5.54852 93.9038 5.54852 202.503ZM249.04 375.445C249.323 376.809 249.369 378.096 249.179 379.301C248.988 380.505 248.571 381.581 247.928 382.533C247.284 383.485 246.43 384.293 245.365 384.967C244.299 385.642 243.048 386.131 241.607 386.429C240.418 386.676 239.265 386.753 238.159 386.661C237.052 386.568 236.033 386.306 235.101 385.879C234.17 385.451 233.341 384.864 232.62 384.118C231.895 383.377 231.308 382.466 230.85 381.395L235.544 380.423C236.105 381.267 236.841 381.838 237.747 382.142C238.653 382.445 239.651 382.487 240.743 382.255C242.158 381.962 243.192 381.308 243.851 380.289C244.505 379.27 244.675 377.983 244.351 376.418C244.026 374.853 243.357 373.736 242.354 373.062C241.345 372.393 240.135 372.203 238.72 372.496C237.752 372.697 236.939 373.072 236.29 373.623C235.642 374.174 235.179 374.786 234.906 375.466L230.587 376.362L228.683 361.569L243.769 358.439L244.587 362.387L233.49 364.693L234.247 370.597C235.312 369.367 236.764 368.558 238.601 368.178C239.868 367.915 241.072 367.884 242.215 368.09C243.357 368.296 244.387 368.713 245.293 369.356C246.204 370 246.986 370.833 247.64 371.863C248.288 372.882 248.756 374.076 249.04 375.445ZM224.607 374.668C224.447 372.393 224.102 370.468 223.567 368.903C223.026 367.339 222.311 366.078 221.421 365.125C220.53 364.168 219.48 363.499 218.271 363.108C217.061 362.722 215.723 362.578 214.256 362.675C212.789 362.773 211.487 363.097 210.36 363.643C209.227 364.194 208.285 365.007 207.534 366.083C206.782 367.164 206.237 368.517 205.902 370.144C205.568 371.765 205.48 373.706 205.629 375.955L205.763 377.926C205.918 380.206 206.273 382.126 206.824 383.691C207.374 385.251 208.09 386.517 208.97 387.469C209.85 388.426 210.89 389.095 212.099 389.487C213.309 389.873 214.647 390.017 216.114 389.919C217.581 389.821 218.883 389.497 220.015 388.951C221.143 388.406 222.09 387.592 222.841 386.506C223.593 385.426 224.138 384.077 224.468 382.451C224.802 380.829 224.895 378.889 224.74 376.639L224.607 374.668ZM177.135 366.067C177.326 367.133 177.3 368.245 177.058 369.413C176.755 370.88 175.982 372.218 174.742 373.433C173.507 374.653 171.7 375.96 169.338 377.355L162.379 381.457L174.032 383.897L173.203 387.845L155.703 384.185L156.527 380.237L166.63 373.917C167.618 373.294 168.457 372.743 169.152 372.27C169.847 371.791 170.413 371.343 170.851 370.916C171.288 370.489 171.628 370.082 171.865 369.691C172.102 369.3 172.266 368.883 172.359 368.435C172.601 367.292 172.431 366.299 171.855 365.455C171.283 364.611 170.362 364.055 169.096 363.792C167.83 363.525 166.764 363.679 165.894 364.25C165.024 364.822 164.448 365.774 164.17 367.112L159.476 366.134C159.744 364.868 160.181 363.761 160.794 362.814C161.406 361.867 162.163 361.116 163.074 360.555C163.98 359.994 165.019 359.628 166.177 359.453C167.341 359.283 168.602 359.34 169.971 359.623C171.335 359.906 172.518 360.359 173.517 360.966C174.516 361.579 175.318 362.315 175.931 363.18C176.543 364.039 176.945 365.007 177.135 366.067ZM198.295 366.062C197.543 364.992 196.596 364.183 195.454 363.628C194.311 363.077 193.004 362.747 191.537 362.639C190.07 362.531 188.737 362.675 187.543 363.056C186.343 363.442 185.299 364.117 184.403 365.079C183.507 366.047 182.782 367.308 182.226 368.872C181.67 370.432 181.31 372.342 181.15 374.591L181.011 376.562C180.846 378.837 180.929 380.788 181.258 382.414C181.588 384.041 182.118 385.389 182.859 386.46C183.595 387.531 184.537 388.339 185.679 388.895C186.822 389.445 188.129 389.775 189.591 389.883C191.058 389.986 192.391 389.847 193.585 389.466C194.785 389.08 195.829 388.406 196.725 387.438C197.621 386.47 198.346 385.209 198.902 383.645C199.458 382.08 199.818 380.176 199.978 377.926L200.122 375.955C200.287 373.68 200.21 371.729 199.89 370.103C199.576 368.481 199.041 367.133 198.295 366.062ZM41.4234 113.164C40.6204 110.215 41.2124 107.132 43.1991 103.915C44.0226 102.582 44.9594 101.501 46.0094 100.662C47.0645 99.823 48.1712 99.2208 49.3344 98.8502C50.4976 98.4796 51.6866 98.3303 52.9013 98.4075C54.1108 98.4796 55.2844 98.7421 56.4116 99.195L53.7403 103.519C52.4741 103.199 51.2285 103.22 50.0189 103.591C48.8094 103.966 47.78 104.841 46.9307 106.216C45.7366 108.146 45.4123 109.978 45.9476 111.723C46.4829 113.463 48.027 115.115 50.58 116.695L52.3763 117.802C54.8417 119.325 57.0189 119.907 58.9027 119.552C60.7917 119.202 62.2792 118.136 63.3807 116.361C64.4204 114.672 64.8321 113.113 64.6159 111.677C64.3998 110.241 63.4064 108.836 61.6461 107.477L57.9505 113.468L54.5535 111.373L60.6115 101.552L62.3461 102.623C65.8512 104.785 67.977 107.261 68.7233 110.05C69.4696 112.84 68.9343 115.707 67.1123 118.661C66.1395 120.242 65.0329 121.503 63.7873 122.45C62.5417 123.397 61.1829 124.03 59.7005 124.339C58.2182 124.658 56.6483 124.617 54.9858 124.236C53.3233 123.855 51.5888 123.108 49.7925 121.997L47.9859 120.89C44.4138 118.687 42.2263 116.114 41.4234 113.164ZM127.425 61.3895L115.803 36.5959L131.744 29.1223L133.504 32.8746L121.815 38.3511L124.821 44.7644L134.384 40.2812L136.144 44.0335L126.581 48.5166L129.916 55.6351L141.605 50.1585L143.366 53.9108L127.425 61.3895ZM94.4585 54.6057L92.2092 51.121L110.286 39.4526L112.535 42.9371L105.468 47.4975L118.068 67.0204L114.12 69.5683L101.52 50.0453L94.4585 54.6057ZM151.05 51.3012L148.013 41.4291L153.433 39.7614L161.293 48.146L166.378 46.5813L157.484 37.615C158.935 36.4878 159.867 35.1702 160.279 33.6672C160.691 32.1643 160.624 30.5378 160.088 28.7929C159.306 26.2502 157.891 24.5054 155.832 23.548C153.778 22.6009 151.009 22.6576 147.519 23.7333L138.507 26.5076L146.557 52.6806L151.05 51.3012ZM74.9358 106.262L53.9616 88.6589L65.2799 75.1735L68.4556 77.8397L60.1586 87.7273L65.5784 92.2773L72.3674 84.1809L75.5483 86.8471L68.7542 94.9384L74.7814 99.9928L83.0784 90.1052L86.2541 92.7663L74.9358 106.262ZM178.633 44.6511L174.963 17.5156L179.616 16.8876L183.286 44.0232L178.633 44.6511ZM88.4725 90.306L70.324 69.7947L75.2446 65.4403L94.2011 72.6977L97.8144 74.3036L83.5056 58.1314L87.021 55.0226L105.169 75.5286L100.249 79.8831L81.2924 72.6257L77.7049 71.0507L91.9879 87.192L88.4725 90.306ZM359.639 173.035L386.779 169.412L389.111 186.866L384.999 187.411L383.29 174.616L376.269 175.552L377.664 186.027L373.557 186.572L372.162 176.103L364.369 177.138L366.078 189.938L361.966 190.489L359.639 173.035ZM337.023 115.805L361.008 102.592L364.179 108.347L352.953 125.255L350.591 128.431L369.506 118.013L371.771 122.125L347.785 135.343L344.615 129.584L355.846 112.675L358.172 109.515L339.293 119.922L337.023 115.805ZM355.511 156.832C356.685 160.914 358.646 163.729 361.379 165.279C364.117 166.823 367.406 167.049 371.241 165.943L373.346 165.335C377.227 164.224 379.913 162.299 381.391 159.565C382.873 156.832 383.017 153.399 381.833 149.261L379.347 140.609L353.03 148.175L355.511 156.832ZM57.1424 136.517L32.3852 124.817L34.3925 120.576L59.1498 132.27L57.1424 136.517ZM304.694 79.7081L301.215 76.5632L319.569 56.2424L324.449 60.6483L319.353 80.2948L318.159 84.0677L332.638 68.0447L336.122 71.1896L317.763 91.5104L312.889 87.1045L317.984 67.458L319.147 63.716L304.694 79.7081ZM239.785 47.2401L246.548 20.7068L251.098 21.8649L244.335 48.4034L239.785 47.2401ZM222.527 44.1107L216.253 15.5854L221.292 16.2906L226.001 39.0717L236.167 18.3752L241.046 19.0597L227.952 44.8776L222.527 44.1107ZM188.165 43.143L187.625 15.7656L194.198 15.6318L203.941 33.4356L205.655 37.0025L205.228 15.4104L209.922 15.3178L210.468 42.6952L203.895 42.8239L194.151 25.0201L192.438 21.4892L192.865 43.0401L188.165 43.143ZM256.019 42.2732C255.489 44.0901 255.473 45.5004 255.978 46.5092C256.482 47.5181 257.578 48.3365 259.262 48.9593C261.027 49.613 262.437 49.7571 263.503 49.3968C264.568 49.0313 265.278 48.3776 265.628 47.4151C265.984 46.4578 265.901 45.5879 265.381 44.8107C264.862 44.0335 264.126 43.282 263.173 42.5511C262.221 41.8202 261.176 41.0739 260.044 40.307C258.912 39.5401 257.903 38.6908 257.028 37.754C256.148 36.8172 255.525 35.7569 255.159 34.5628C254.794 33.3738 254.902 31.9944 255.478 30.4245C255.859 29.3951 256.405 28.5253 257.12 27.7995C257.831 27.0789 258.69 26.5333 259.704 26.173C260.713 25.8076 261.871 25.6686 263.173 25.7458C264.481 25.823 265.917 26.1524 267.481 26.7289C270.616 27.887 272.654 29.4157 273.606 31.315C274.564 33.2143 274.625 35.5819 273.797 38.4231L269.103 36.6886C269.525 35.1702 269.504 33.9657 269.041 33.0701C268.578 32.1746 267.543 31.4282 265.927 30.8312C264.264 30.2186 262.957 30.0745 262 30.4039C261.042 30.7282 260.409 31.3253 260.09 32.1848C259.751 33.0907 259.848 33.9143 260.384 34.6555C260.914 35.3966 261.66 36.1224 262.617 36.843C263.58 37.5584 264.625 38.2996 265.757 39.0665C266.895 39.8335 267.898 40.6879 268.768 41.6401C269.643 42.5872 270.25 43.6732 270.606 44.9033C270.961 46.1335 270.832 47.5644 270.23 49.2012C269.823 50.3027 269.252 51.2343 268.526 52.0064C267.795 52.7784 266.91 53.3446 265.875 53.7101C264.836 54.0755 263.637 54.2196 262.278 54.1321C260.919 54.0497 259.406 53.6946 257.743 53.0821C254.542 51.8983 252.437 50.2924 251.433 48.2696C250.429 46.2467 250.393 43.6732 251.325 40.5437L256.019 42.2732ZM274.095 56.1034C274.476 57.5858 275.176 58.9498 276.2 60.1954C277.225 61.4359 278.532 62.5013 280.123 63.3969C281.692 64.2771 283.278 64.8227 284.873 65.044C286.469 65.2653 288.003 65.1418 289.47 64.6785C290.936 64.2153 292.326 63.4226 293.623 62.2954C294.925 61.1682 296.073 59.7219 297.067 57.9461L298.06 56.1704C299.064 54.374 299.707 52.6291 299.99 50.9512C300.268 49.2681 300.227 47.6828 299.851 46.1901C299.475 44.6975 298.781 43.3283 297.756 42.0827C296.732 40.8371 295.425 39.7717 293.834 38.8812C292.264 38.0062 290.679 37.4606 289.073 37.2496C287.472 37.0437 285.939 37.1672 284.477 37.615C283.01 38.068 281.631 38.8555 280.328 39.9827C279.026 41.1099 277.884 42.5563 276.885 44.3372L275.897 46.1078C274.888 47.9093 274.245 49.6541 273.956 51.3475C273.668 53.0306 273.714 54.6159 274.095 56.1034ZM336.56 82.1375C334.928 82.678 333.317 83.5839 331.716 84.8449L330.121 86.1111C328.505 87.3927 327.244 88.7567 326.333 90.2082C325.422 91.6648 324.861 93.1472 324.644 94.6656C324.433 96.1788 324.557 97.7075 325.03 99.2516C325.499 100.791 326.302 102.273 327.439 103.709C328.551 105.114 329.807 106.231 331.197 107.039C332.591 107.847 334.053 108.326 335.587 108.455C337.121 108.588 338.701 108.377 340.333 107.832C341.964 107.286 343.58 106.38 345.176 105.124L346.777 103.858C348.388 102.582 349.649 101.218 350.549 99.7715C351.45 98.3252 352.011 96.8376 352.238 95.3192C352.459 93.7957 352.335 92.2619 351.867 90.7229C351.399 89.1839 350.596 87.6964 349.458 86.2655C348.341 84.8552 347.086 83.7434 345.68 82.9456C344.275 82.1426 342.813 81.6691 341.29 81.5301C339.766 81.3963 338.191 81.5971 336.56 82.1375ZM371.534 278.613C371.786 279.658 371.802 280.821 371.575 282.113C371.354 283.4 370.865 284.794 370.118 286.282C368.626 289.267 366.881 291.131 364.889 291.872C362.902 292.608 360.54 292.412 357.807 291.275L360.051 286.802C361.513 287.389 362.712 287.502 363.654 287.142C364.601 286.781 365.455 285.834 366.227 284.295C367.02 282.705 367.308 281.418 367.087 280.435C366.866 279.447 366.346 278.747 365.527 278.34C364.657 277.903 363.829 277.913 363.036 278.361C362.238 278.808 361.43 279.467 360.617 280.342C359.799 281.217 358.944 282.175 358.059 283.219C357.174 284.264 356.211 285.17 355.172 285.932C354.132 286.694 352.984 287.183 351.728 287.399C350.467 287.615 349.062 287.332 347.497 286.55C346.452 286.025 345.583 285.361 344.893 284.547C344.203 283.739 343.74 282.792 343.488 281.727C343.236 280.651 343.23 279.447 343.467 278.103C343.704 276.765 344.213 275.298 345.011 273.713C346.54 270.655 348.362 268.741 350.488 267.963C352.608 267.191 355.172 267.438 358.177 268.71L355.933 273.188C354.188 272.457 352.783 272.287 351.723 272.673C350.663 273.064 349.731 274.068 348.923 275.669C348.084 277.347 347.78 278.736 348.027 279.838C348.269 280.934 348.846 281.711 349.757 282.169C350.673 282.628 351.548 282.643 352.377 282.211C353.205 281.778 354.034 281.13 354.868 280.265C355.702 279.395 356.561 278.443 357.441 277.398C358.332 276.353 359.284 275.447 360.313 274.68C361.343 273.908 362.47 273.409 363.69 273.177C364.92 272.946 366.279 273.198 367.766 273.95C368.749 274.439 369.557 275.077 370.196 275.864C370.844 276.652 371.292 277.568 371.534 278.613ZM341.017 309.912H333.837L328.762 304.837L323.687 309.912H316.507V317.093L311.432 322.168L316.507 327.243V334.423H323.687L328.762 339.498L333.837 334.423H341.017V327.243L346.092 322.168L341.017 317.093V309.912ZM385.539 192.759L389.688 192.831L389.338 214.346L385.189 214.274L385.328 205.864L362.094 205.488L362.171 200.794L385.405 201.169L385.539 192.759ZM352.768 256.547L378.395 266.203L376.743 270.599L351.116 260.943L352.768 256.547ZM358.445 237.57L384.86 244.786L383.619 249.315L361.204 243.19L358.008 254.89L354.013 253.793L358.445 237.57ZM361.77 215.798L368.343 218.942L367.005 229.226L359.84 230.621L359.176 235.748L387.593 229.587L388.303 224.156L362.413 210.923L361.77 215.798ZM48.3564 244.194L38.3094 246.593L36.9918 241.075L45.8704 233.771L44.6403 228.593L35.1183 236.896C34.0837 235.372 32.833 234.358 31.3558 233.848C29.8837 233.344 28.2573 233.303 26.4815 233.725C23.8926 234.343 22.0602 235.645 20.9793 237.632C19.8985 239.618 19.7801 242.382 20.6294 245.939L22.8117 255.111L49.4476 248.765L48.3564 244.194ZM29.6881 228.264L31.7161 228.104C33.7697 227.945 35.5815 227.518 37.1513 226.823C38.7212 226.123 40.0131 225.206 41.0374 224.069C42.0616 222.926 42.8079 221.593 43.2763 220.049C43.7447 218.505 43.9094 216.832 43.7704 215.005C43.6315 213.209 43.2094 211.587 42.5094 210.136C41.8094 208.689 40.8572 207.485 39.658 206.512C38.4587 205.545 37.0278 204.834 35.3705 204.376C33.7131 203.913 31.8705 203.764 29.8425 203.918L27.8146 204.078C25.761 204.242 23.9543 204.67 22.3999 205.364C20.8455 206.059 19.5485 206.975 18.5139 208.113C17.4742 209.256 16.7227 210.594 16.2544 212.133C15.786 213.672 15.6213 215.355 15.7654 217.177C15.9044 218.968 16.3316 220.59 17.047 222.041C17.7624 223.487 18.7095 224.697 19.8985 225.665C21.0874 226.632 22.508 227.348 24.1653 227.806C25.8176 228.269 27.6602 228.423 29.6881 228.264ZM44.3418 181.106C44.9491 176.896 44.3212 173.524 42.4579 170.992C40.5947 168.454 37.6918 166.905 33.744 166.339L31.5771 166.025C27.5779 165.449 24.3404 166.102 21.8698 167.986C19.3992 169.875 17.8551 172.943 17.2426 177.205L15.961 186.109L43.0653 190.005L44.3418 181.106ZM49.9417 154.969L24.1962 145.637L25.797 141.221L47.641 149.148L51.7741 137.747L55.6755 139.162L49.9417 154.969ZM47.4815 164.404L20.9845 157.496L22.1683 152.957L48.6653 159.859L47.4815 164.404ZM47.116 268.916L45.3815 264.556C44.0896 261.308 42.355 259.162 40.1675 258.127C37.9852 257.082 35.6227 257.067 33.08 258.081C30.3624 259.162 28.597 260.768 27.7786 262.904C26.9602 265.04 27.2278 267.819 28.5867 271.232L32.0558 279.961L57.4976 269.837L55.763 265.477L47.116 268.916ZM219.542 339.04C222.038 341.217 225.26 342.581 228.822 342.581C236.651 342.581 243.018 336.209 243.018 328.38C243.018 327.042 242.77 325.766 242.426 324.535C243.084 324.643 243.748 324.736 244.438 324.736C245.323 324.736 246.183 324.628 247.012 324.448V318.668C246.219 319.002 245.349 319.188 244.438 319.188C240.794 319.188 237.829 316.223 237.829 312.579C237.829 308.934 240.794 305.97 244.438 305.97C245.349 305.97 246.219 306.155 247.012 306.49V300.709C246.183 300.529 245.323 300.421 244.438 300.421C237.737 300.421 232.286 305.872 232.286 312.573C232.286 313.304 232.379 314.015 232.502 314.709C231.323 314.39 230.104 314.169 228.827 314.169C222.558 314.169 217.287 318.276 215.409 323.923C212.176 320.279 207.518 317.932 202.274 317.932C197.039 317.932 192.381 320.274 189.149 323.913C187.28 318.256 181.999 314.133 175.72 314.133C174.438 314.133 173.224 314.359 172.04 314.679C172.163 313.984 172.256 313.268 172.256 312.537C172.256 305.836 166.805 300.385 160.104 300.385C159.378 300.385 158.673 300.478 157.983 300.601V306.361C158.658 306.129 159.352 305.934 160.104 305.934C163.748 305.934 166.713 308.898 166.713 312.543C166.713 316.187 163.748 319.151 160.104 319.151C159.352 319.151 158.658 318.956 157.983 318.724V324.484C158.673 324.607 159.378 324.7 160.104 324.7C160.794 324.7 161.458 324.607 162.121 324.494C161.771 325.724 161.524 326.996 161.524 328.339C161.524 336.168 167.896 342.54 175.725 342.54C179.287 342.54 182.509 341.176 185.005 338.999C186.611 347.069 193.74 353.179 202.279 353.179C210.797 353.184 217.926 347.095 219.542 339.04ZM88.4879 309.912H81.3078L76.2328 304.837L71.1578 309.912H63.9777V317.093L58.9027 322.168L63.9777 327.243V334.423H71.1578L76.2328 339.498L81.3078 334.423H88.4879V327.243L93.5629 322.168L88.4879 317.093V309.912ZM289.449 280.821L289.459 280.836V261.267L289.449 261.283V201.586L283.906 196.851V244.168C276.669 238.033 270.848 230.318 266.941 221.537V174.693L273.313 177.169C276.031 178.224 278.357 180.174 279.87 182.671L286.489 193.598L298.178 188.446C300.844 187.272 303.871 187.005 306.702 187.7L319.111 190.747L323.733 178.836C324.789 176.119 326.744 173.792 329.236 172.284L340.163 165.665L335.011 153.976C333.832 151.309 333.569 148.283 334.264 145.452L337.311 133.042L325.401 128.42C322.689 127.365 320.357 125.414 318.844 122.918L312.225 111.991L300.536 117.143C297.869 118.317 294.843 118.584 292.012 117.889L279.603 114.842L274.981 126.753C273.925 129.47 271.97 131.797 269.478 133.305L258.551 139.924L258.85 140.609C257.012 137.948 255.026 135.323 252.298 133.341C249.076 130.994 245.298 129.897 241.643 128.837L241.638 128.836C239.473 128.208 237.431 127.617 235.554 126.789C233.739 125.988 231.958 124.902 230.077 123.753L230.057 123.742C226.784 121.739 223.402 119.675 219.408 118.867C219.307 118.845 219.205 118.837 219.103 118.828C219.012 118.82 218.921 118.812 218.832 118.795C225.435 114.4 230.15 107.42 231.576 99.3134C248.17 104.044 263.142 112.655 275.377 124.174V116.953C262.993 106.277 248.231 98.32 232.034 93.8678C232.003 91.0832 231.586 88.4015 230.829 85.8486C247.264 89.8788 262.391 97.2855 275.377 107.348V100.641C261.537 90.6199 245.545 83.4294 228.266 79.775C223.201 70.7624 213.561 64.6528 202.51 64.6528C191.454 64.6528 181.814 70.7676 176.749 79.7853C159.471 83.4449 143.484 90.6405 129.644 100.662V107.369C142.63 97.3009 157.757 89.8891 174.191 85.8537C173.44 88.4015 173.018 91.0883 172.992 93.8729C156.794 98.3252 142.033 106.288 129.649 116.973V124.195C141.883 112.665 156.856 104.049 173.455 99.3185C174.881 107.42 179.601 114.4 186.199 118.79C186.186 118.792 186.172 118.794 186.158 118.795L186.15 118.795C186.135 118.797 186.119 118.798 186.102 118.8C182.759 119.458 179.977 121.211 177.283 122.908L177.274 122.913C175.56 123.994 173.944 125.013 172.307 125.661C170.624 126.331 168.715 126.717 166.692 127.118C163.599 127.736 160.397 128.379 157.577 130.155C154.733 131.947 152.774 134.558 150.88 137.084L150.865 137.103L150.81 137.177C149.6 138.786 148.457 140.308 147.159 141.499C146.521 142.086 145.805 142.626 145.044 143.151L146.531 139.775L135.604 133.15C133.113 131.642 131.157 129.311 130.102 126.598L125.48 114.688L113.07 117.73C110.239 118.425 107.213 118.162 104.547 116.983L92.8577 111.831L86.2387 122.758C84.7254 125.25 82.399 127.206 79.6813 128.261L67.7711 132.883L70.8181 145.292C71.513 148.123 71.2453 151.15 70.0718 153.816L64.9196 165.505L75.8468 172.124C78.3379 173.638 80.2938 175.964 81.349 178.677L85.971 190.587L98.3805 187.54C101.211 186.845 104.238 187.108 106.904 188.286L118.593 193.439L125.212 182.511C126.72 180.02 129.052 178.064 131.769 177.009L138.147 174.533V221.372C134.235 230.22 128.383 238.007 121.094 244.179L121.089 199.764L115.551 204.958V261.277L115.546 261.267V280.836L115.551 280.826L115.546 305.156V305.501C118.063 305.501 120.189 305.342 122.016 305.059V364.832V366.634V370.375C131.135 370.375 134.65 367.934 137.778 365.761L137.863 365.702C140.833 363.638 143.638 361.692 152.507 361.692V356.149H152.45V261.437C152.381 261.339 152.315 261.24 152.249 261.141C163.462 277.285 185.841 291.131 202.279 291.131V291.167L202.324 291.165L202.352 291.163L202.4 291.159L202.466 291.153C202.484 291.152 202.502 291.151 202.521 291.151L202.552 291.152L202.584 291.154L202.642 291.159C202.681 291.163 202.721 291.167 202.763 291.167V291.131C219.302 291.131 241.555 277.314 252.744 261.202C252.685 261.29 252.627 261.376 252.565 261.463V356.149H252.509V361.692C261.377 361.692 264.182 363.638 267.152 365.702L267.232 365.757C270.356 367.931 273.869 370.375 283 370.375V366.634V364.832V305.059C284.827 305.337 286.953 305.501 289.47 305.501L289.449 280.821ZM300.386 202.307V261.833C300.392 267.299 304.833 271.741 310.3 271.741C315.766 271.741 320.213 267.294 320.213 261.828C320.213 256.362 315.766 251.915 310.3 251.915V246.546C318.725 246.546 325.581 253.402 325.581 261.828C325.581 270.254 318.725 277.11 310.3 277.11C301.895 277.11 295.064 270.29 295.023 261.895L295.018 202.307H300.386ZM84.6534 261.828C84.6534 267.294 89.1004 271.741 94.5666 271.741C100.033 271.741 104.48 267.294 104.48 261.828V202.307H109.869V261.823H109.848C109.848 270.249 102.992 277.105 94.5666 277.105C86.1409 277.105 79.285 270.249 79.285 261.823C79.285 253.397 86.1409 246.541 94.5666 246.541V251.91C89.1004 251.915 84.6534 256.362 84.6534 261.828ZM355.712 202.497C355.712 254.71 329.452 300.895 289.459 328.571V321.962C326.327 295.048 350.344 251.539 350.344 202.503C350.344 184.055 346.916 166.401 340.719 150.105L345.758 148.195C352.186 165.078 355.712 183.386 355.712 202.497ZM328.407 115.3L323.975 118.368C297.252 79.9037 252.781 54.652 202.5 54.652C152.219 54.652 107.748 79.9037 81.0247 118.368L76.5931 115.3C104.284 75.436 150.391 49.2835 202.5 49.2835C254.609 49.2835 300.716 75.436 328.407 115.3ZM115.541 321.962V328.571C75.5431 300.9 49.2829 254.71 49.2829 202.497C49.2829 183.381 52.8138 165.078 59.2373 148.185L64.2762 150.095C58.0792 166.396 54.6513 184.045 54.6513 202.492C54.6564 251.539 78.6725 295.053 115.541 321.962ZM202.515 285.603C182.179 285.402 143.705 258.796 143.695 220.6V172.402L143.685 172.397L140.638 159.993C140.02 157.471 140.205 154.799 141.075 152.359C142.316 151.304 143.777 150.357 145.316 149.39C147.185 148.216 149.115 147.001 150.793 145.452C152.454 143.923 153.808 142.122 155.118 140.378L155.158 140.326C156.841 138.081 158.431 135.966 160.438 134.7C162.415 133.452 164.996 132.937 167.722 132.393L167.742 132.389C169.909 131.956 172.153 131.503 174.294 130.654C176.382 129.821 178.285 128.623 180.132 127.461L180.136 127.458C182.519 125.955 184.774 124.539 187.141 124.071C189.39 123.623 191.974 124.061 194.702 124.524C196.905 124.9 199.19 125.286 201.532 125.255C203.998 125.219 206.417 124.864 208.759 124.519L208.774 124.516C212.197 124.013 215.434 123.537 218.343 124.128C221.408 124.745 224.242 126.477 227.246 128.313L227.252 128.317C229.208 129.517 231.236 130.752 233.387 131.699C235.59 132.667 237.901 133.341 240.145 133.989C243.501 134.962 246.677 135.884 249.137 137.675C251.618 139.481 253.476 142.22 255.437 145.117C256.74 147.043 258.088 149.034 259.684 150.815C261.233 152.55 263.009 154.079 264.733 155.556C264.898 157.085 264.815 158.634 264.45 160.132L261.403 172.541L261.398 172.546V220.579C261.398 258.786 222.857 285.402 202.515 285.603ZM202.274 237.05V237.081C202.322 237.081 202.361 237.077 202.397 237.073C202.431 237.069 202.463 237.065 202.5 237.065C202.546 237.065 202.584 237.069 202.621 237.073C202.658 237.077 202.696 237.081 202.742 237.081V237.05C205.979 236.968 207.554 236.175 209.047 235.197C209.943 234.615 210.483 234.265 212.552 234.265C214.776 234.265 218.307 232.577 218.307 228.048H212.763C212.763 228.439 212.691 228.629 212.557 228.722C209.119 228.722 207.565 229.551 206.026 230.559C205.161 231.126 204.538 231.496 202.51 231.527C200.477 231.496 199.854 231.126 198.99 230.559C197.451 229.551 195.896 228.722 192.35 228.66C192.324 228.629 192.252 228.434 192.252 228.048H186.709C186.709 232.577 190.235 234.265 192.458 234.265C194.532 234.265 195.068 234.61 195.963 235.197C197.461 236.175 199.031 236.968 202.274 237.05ZM170.326 198.617C174.932 197.932 178.263 194.133 178.319 189.578C179.179 190.072 179.884 190.623 180.507 191.189H183.471V186.588C181.639 185.121 178.963 183.68 175.463 182.763L175.411 182.707L174.505 182.511L174.485 182.506C173.769 182.347 173.013 182.233 172.225 182.13C171 181.96 169.811 181.858 168.669 181.837C168.607 181.837 168.554 181.831 168.501 181.824C168.477 181.821 168.452 181.818 168.426 181.816C168.397 181.813 168.367 181.811 168.334 181.811C168.233 181.811 168.146 181.823 168.059 181.835C167.982 181.845 167.906 181.855 167.819 181.858C166.424 181.878 165.081 181.966 163.861 182.151L163.913 182.202C158.647 183.005 155.173 185.085 153.047 187.056V195.369C153.768 193.979 155.25 191.853 158.06 190.098C160.094 188.698 163.305 187.355 168.329 187.355C168.367 187.355 168.402 187.359 168.437 187.362L168.481 187.367L168.504 187.369L168.545 187.37C168.584 187.37 168.616 187.366 168.648 187.362C168.68 187.359 168.712 187.355 168.751 187.355C169.827 187.355 170.784 187.442 171.716 187.55C171.789 187.57 171.87 187.595 171.951 187.621C172.079 187.661 172.207 187.701 172.307 187.72C172.58 188.194 172.796 188.786 172.796 189.47C172.796 191.272 171.468 192.79 169.621 193.114L168.627 193.181C167.294 193.052 166.229 192.26 165.642 191.184L161.653 195.173C163.213 197.103 165.555 198.447 168.36 198.714C168.677 198.714 168.971 198.701 169.26 198.687L169.461 198.678L170.326 198.617ZM251.989 187.051C249.992 185.198 246.862 183.196 242.122 182.295L242.117 182.28L241.19 182.141C240.72 182.07 240.194 182.05 239.668 182.03C239.394 182.019 239.12 182.009 238.854 181.991C238.574 181.972 238.311 181.94 238.048 181.908C237.624 181.857 237.202 181.806 236.712 181.806C229.27 181.806 224.498 184.251 221.58 186.583V191.184H224.504C226.707 189.161 230.299 187.355 236.295 187.355C236.334 187.355 236.366 187.359 236.398 187.362C236.42 187.365 236.441 187.367 236.464 187.369L236.501 187.37C236.54 187.37 236.574 187.367 236.606 187.363L236.613 187.362L236.67 187.357L236.692 187.355L236.718 187.355C237.67 187.355 238.504 187.442 239.332 187.53C239.687 188.116 239.888 188.78 239.888 189.47C239.888 191.39 238.39 192.991 236.409 193.181L235.42 193.114C234.134 192.883 233.135 192.059 232.626 190.983L228.642 194.967C230.073 196.856 232.168 198.236 234.715 198.617L235.575 198.678L235.776 198.687C236.065 198.701 236.359 198.714 236.676 198.714C241.782 198.23 245.426 194.257 245.426 189.47C245.426 189.416 245.418 189.361 245.41 189.307C245.404 189.264 245.398 189.22 245.395 189.177C245.977 189.47 246.517 189.779 246.976 190.093C249.786 191.848 251.268 193.974 251.989 195.364V187.051ZM207.194 246.042L208.599 245.11L210.071 245.949C210.164 246.006 219.64 251.395 228.143 251.395V256.624C227.475 256.73 227.461 256.731 227.461 256.731C227.461 256.731 227.462 256.73 227.443 256.732L227.344 256.746C227.25 256.76 227.082 256.785 226.779 256.83V256.841C224.334 257.196 222.954 258.483 221.045 260.263L221.035 260.273C217.676 263.401 213.494 267.294 202.536 267.294H202.526C191.568 267.294 187.386 263.401 184.027 260.273L184.017 260.263L184.006 260.253C182.097 258.477 180.718 257.195 178.283 256.841L176.919 256.624V251.395C185.422 251.395 194.903 246.006 194.996 245.949L196.457 245.11L197.868 246.042C197.868 246.042 199.957 247.36 202.531 247.36C204.994 247.36 207.025 246.143 207.184 246.048L207.194 246.042ZM257.429 177.93C253.713 174.456 245.112 167.945 232.857 167.945C212.737 167.945 205.599 183.211 205.599 196.28L207.323 225.026C208.822 224.828 209.343 224.546 210.108 224.132C210.396 223.976 210.719 223.802 211.142 223.606V196.28C211.142 192.476 212.192 173.488 232.857 173.488C248.139 173.488 255.221 178.368 257.429 180.298V177.93ZM147.633 180.267C149.887 178.316 156.969 173.493 172.169 173.493C192.834 173.493 193.884 192.476 193.879 196.285V223.611C194.31 223.809 194.637 223.985 194.93 224.143C195.689 224.552 196.213 224.835 197.703 225.031L199.427 196.285C199.427 183.216 192.288 167.95 172.169 167.95C159.949 167.95 151.369 174.415 147.633 177.899V180.267ZM147.612 162.288C150.144 162.638 151.972 163.266 153.536 163.925C155.765 164.867 158.066 165.84 162.121 165.845C167.976 165.845 170.52 162.207 172.566 159.282L172.58 159.262C174.479 156.539 175.854 154.573 179.647 154.573C190.852 154.573 198.774 150.373 202.515 143.064C206.252 150.378 214.179 154.573 225.384 154.573C229.175 154.573 230.544 156.536 232.442 159.257L232.445 159.262C234.489 162.196 237.037 165.845 242.904 165.845C246.96 165.845 249.261 164.872 251.49 163.93C253.152 163.23 254.799 162.571 257.409 162.242V156.812C253.837 157.265 251.052 158.093 249.333 158.819C247.382 159.648 245.838 160.296 242.904 160.296C240.058 160.296 238.92 158.855 236.99 156.086C234.916 153.106 232.07 149.024 225.384 149.024C217.998 149.024 205.599 146.868 205.599 132.44H204.976H200.055H199.432C199.432 146.868 187.038 149.024 179.647 149.024C172.961 149.024 170.11 153.106 168.035 156.086C166.1 158.855 164.963 160.296 162.121 160.296C159.188 160.296 157.644 159.648 155.693 158.824C154.102 158.15 151.148 157.404 147.612 156.94V162.288ZM129.968 295.794C133.38 293.421 137.277 290.786 146.897 290.353L146.902 252.301C143.098 245.177 140.452 237.997 139.145 231.548C134.461 239.217 128.311 245.877 121.094 251.189V299.587C125.449 298.923 127.595 297.446 129.968 295.794ZM146.897 356.473C140.422 357.235 137.38 359.283 134.688 361.152C132.716 362.521 130.93 363.746 127.554 364.379V303.551C129.803 302.624 131.497 301.487 133.133 300.349C136.155 298.249 139.068 296.267 146.897 295.887V356.473ZM270.312 361.152C272.284 362.526 274.07 363.746 277.446 364.379L277.441 303.551C275.192 302.624 273.498 301.487 271.867 300.349C268.845 298.244 265.932 296.267 258.103 295.887V356.473C264.578 357.235 267.62 359.278 270.312 361.152ZM283.906 299.582C279.556 298.918 277.405 297.441 275.037 295.789C271.625 293.416 267.723 290.786 258.109 290.348V252.347C261.928 245.203 264.584 237.997 265.891 231.532C270.57 239.191 276.705 245.846 283.911 251.158L283.906 299.582ZM71.7394 163.359L78.6313 167.533C81.7968 169.453 84.2879 172.335 85.8475 175.691C86.6298 173.55 87.721 171.44 89.1673 169.484C91.7769 165.963 95.1533 163.292 99.0393 161.537C96.3938 157.496 96.7026 152.215 99.7702 148.545L93.3467 137.891L102.725 146.065C106.873 143.681 112.128 144.294 115.649 147.598C118.058 144.078 121.275 141.211 125.191 139.255C127.364 138.169 129.633 137.459 131.883 137.062C128.851 134.952 126.442 131.998 125.104 128.544L122.186 121.029L114.362 122.949C110.389 123.922 106.137 123.551 102.39 121.899L95.0144 118.651L90.835 125.543C88.7195 129.043 85.446 131.786 81.6321 133.269L74.1174 136.182L76.0372 144.011C77.0152 147.984 76.6446 152.236 74.9924 155.983L71.7394 163.359ZM129.824 172.011C127.919 172.752 126.149 173.807 124.589 175.115C123.03 176.422 121.681 177.982 120.621 179.732L116.447 186.624L109.071 183.376C105.324 181.724 101.072 181.353 97.0989 182.326L89.2703 184.246L89.1725 183.994C88.7607 180.319 90.0166 175.887 92.7805 172.15C97.1349 166.267 104.14 163.235 112.082 163.678L122.927 173.133L115.5 160.806C116.441 152.905 120.652 146.538 127.194 143.265C131.347 141.19 135.933 140.722 139.48 141.767L139.711 141.906L136.458 149.276C134.806 153.023 134.436 157.275 135.413 161.249L137.333 169.077L129.824 172.011ZM288.641 186.773L296.017 183.52C299.758 181.868 304.01 181.497 307.983 182.48L315.812 184.405L315.91 184.153C316.322 180.473 315.066 176.046 312.302 172.31C307.947 166.426 300.942 163.39 293 163.838L282.156 173.293L289.583 160.971C288.641 153.07 284.431 146.698 277.889 143.429C273.735 141.355 269.154 140.887 265.603 141.931L265.371 142.07L268.619 149.441C270.271 153.188 270.642 157.44 269.664 161.413L267.744 169.242L275.259 172.155C277.168 172.902 278.939 173.957 280.498 175.264C282.058 176.571 283.406 178.131 284.467 179.881L288.641 186.773ZM279.984 128.683L282.902 121.168L290.731 123.088C294.704 124.066 298.956 123.69 302.703 122.038L310.078 118.785L314.258 125.677C316.378 129.177 319.647 131.92 323.466 133.403L330.98 136.316L329.061 144.145C328.083 148.118 328.458 152.37 330.105 156.117L333.358 163.493L326.466 167.672C323.301 169.592 320.805 172.474 319.25 175.825C318.468 173.684 317.377 171.574 315.93 169.618C313.321 166.097 309.944 163.426 306.058 161.671C308.699 157.63 308.39 152.349 305.328 148.679L311.751 138.025L302.373 146.198C298.225 143.815 292.97 144.428 289.449 147.732C287.045 144.212 283.828 141.345 279.906 139.389C277.729 138.303 275.459 137.598 273.215 137.196C276.236 135.091 278.645 132.131 279.984 128.683ZM202.515 79.5485C194.445 79.5485 187.877 86.1162 187.877 94.1869C187.877 102.258 194.445 108.825 202.515 108.825C210.586 108.825 217.154 102.258 217.154 94.1869C217.154 86.1162 210.586 79.5485 202.515 79.5485ZM178.345 94.1869C178.345 80.861 189.185 70.0212 202.51 70.0212C215.836 70.0212 226.681 80.861 226.681 94.1869C226.681 107.513 215.841 118.353 202.51 118.353C189.19 118.353 178.345 107.513 178.345 94.1869ZM202.515 74.175C213.546 74.175 222.522 83.1515 222.522 94.1869C222.522 105.222 213.546 114.194 202.515 114.194C191.485 114.194 182.509 105.222 182.509 94.1869C182.509 83.1515 191.48 74.175 202.515 74.175ZM153.166 27.573C152.085 27.0841 150.613 27.1252 148.744 27.7017L144.22 29.0966L146.794 37.4709L151.318 36.0812C153.186 35.5047 154.432 34.7069 155.044 33.6878C155.662 32.6687 155.77 31.5209 155.379 30.2495C154.983 28.9525 154.241 28.0569 153.166 27.573ZM280.2 48.5115L281.193 46.7357C282.593 44.2342 284.22 42.6695 286.078 42.0467C287.931 41.429 289.804 41.6452 291.693 42.7004C292.604 43.2099 293.356 43.8482 293.942 44.61C294.529 45.3717 294.931 46.221 295.136 47.1629C295.342 48.0997 295.337 49.1291 295.116 50.2409C294.895 51.3578 294.442 52.5314 293.752 53.7615L292.758 55.5373C291.358 58.0439 289.727 59.6035 287.859 60.216C285.99 60.8336 284.127 60.6175 282.259 59.5726C280.416 58.5432 279.263 57.0608 278.8 55.1306C278.347 53.1953 278.81 50.9924 280.2 48.5115ZM347.379 91.6133C347.122 90.6817 346.669 89.8067 346.025 88.9883C344.677 87.2898 343.03 86.3787 341.079 86.2449C339.123 86.1111 337.023 86.9346 334.774 88.7155L333.178 89.9766C330.955 91.742 329.683 93.6001 329.369 95.5612C329.061 97.5222 329.56 99.3289 330.872 100.986C332.2 102.659 333.842 103.57 335.808 103.719C337.769 103.863 339.869 103.045 342.124 101.264L343.719 99.998C344.821 99.123 345.691 98.2119 346.319 97.2649C346.952 96.3178 347.348 95.3707 347.513 94.4237C347.672 93.4817 347.631 92.5398 347.379 91.6133ZM376.66 146.276L377.844 150.414C378.585 152.993 378.477 155.139 377.52 156.853C376.557 158.567 374.715 159.818 371.982 160.605L369.877 161.212C367.118 162.005 364.889 161.933 363.18 161.001C361.477 160.07 360.252 158.299 359.495 155.69L358.311 151.551L376.66 146.276ZM301.864 159.859C304.154 157.126 303.799 153.039 301.066 150.743C298.338 148.448 294.246 148.808 291.95 151.541C291.897 151.606 291.857 151.677 291.817 151.747C291.788 151.799 291.759 151.851 291.724 151.901C292.743 154.187 293.505 156.642 293.917 159.267C296.578 159.215 299.12 159.54 301.544 160.142C301.588 160.096 301.638 160.057 301.688 160.018C301.75 159.97 301.812 159.921 301.864 159.859ZM103.538 159.998C103.494 159.954 103.447 159.917 103.399 159.88C103.335 159.83 103.272 159.78 103.219 159.715C100.928 156.982 101.283 152.895 104.017 150.599C106.75 148.304 110.836 148.664 113.132 151.397C113.184 151.46 113.222 151.528 113.261 151.595C113.292 151.649 113.322 151.702 113.358 151.752C112.339 154.037 111.578 156.487 111.166 159.118C108.51 159.066 105.962 159.39 103.538 159.998ZM39.6271 184.771L40.2396 180.509C40.6204 177.827 40.2293 175.707 39.066 174.163C37.8925 172.603 35.8852 171.63 33.044 171.218L30.8771 170.905C28.0617 170.503 25.8639 170.884 24.2889 172.052C22.7087 173.216 21.7257 175.13 21.3448 177.791L20.7323 182.048L39.6271 184.771ZM20.1301 216.842C20.0477 215.808 20.161 214.83 20.4698 213.909C20.7786 212.998 21.2676 212.195 21.9315 211.5C22.6007 210.805 23.4551 210.244 24.5051 209.806C25.5602 209.374 26.7852 209.101 28.1903 208.993L30.2234 208.834C33.0852 208.612 35.283 209.106 36.8322 210.316C38.3763 211.536 39.2359 213.209 39.4006 215.339C39.5653 217.445 38.9683 219.226 37.6146 220.677C36.2661 222.128 34.1712 222.962 31.3352 223.189L29.3072 223.348C26.4455 223.565 24.2426 223.081 22.6984 221.881C21.1543 220.682 20.2948 219.004 20.1301 216.842ZM24.6543 244.977L25.7507 249.583L34.2793 247.55L33.183 242.943C32.73 241.039 32.0095 239.752 31.0315 239.073C30.0536 238.393 28.9161 238.203 27.6242 238.517C26.3065 238.836 25.3646 239.51 24.8087 240.555C24.2528 241.605 24.2014 243.072 24.6543 244.977ZM34.1764 274.068L32.4418 269.703C31.7161 267.886 31.5874 266.404 32.0403 265.256C32.4984 264.103 33.4506 263.244 34.9072 262.662C36.2866 262.111 37.5631 262.111 38.7366 262.657C39.9102 263.197 40.8366 264.345 41.5315 266.09L43.266 270.449L34.1764 274.068ZM217.313 256.264C217.658 255.945 218.003 255.626 218.358 255.307C214.127 254.061 210.555 252.383 208.697 251.426C207.323 252.064 205.13 252.831 202.536 252.831H202.526C199.932 252.831 197.739 252.064 196.365 251.426C194.512 252.383 190.94 254.061 186.704 255.307C187.059 255.626 187.404 255.945 187.749 256.264L187.756 256.271C190.687 259.002 193.721 261.828 202.531 261.828C211.343 261.828 214.379 258.997 217.313 256.264ZM202.274 347.641C195.618 347.641 190.199 342.221 190.199 335.566C190.199 328.905 195.613 323.496 202.274 323.496C208.934 323.496 214.348 328.91 214.348 335.566C214.348 342.221 208.934 347.641 202.274 347.641ZM237.479 328.38C237.479 323.604 233.598 319.723 228.827 319.723C224.056 319.723 220.17 323.604 220.17 328.38C220.17 333.157 224.056 337.038 228.827 337.038C233.598 337.038 237.479 333.157 237.479 328.38ZM175.725 336.996C170.954 336.996 167.073 333.116 167.073 328.339C167.073 323.568 170.954 319.687 175.725 319.687C180.496 319.687 184.382 323.568 184.382 328.339C184.377 333.116 180.496 336.996 175.725 336.996ZM219.161 383.732C219.526 383.073 219.779 382.198 219.918 381.107C220.057 380.021 220.072 378.637 219.964 376.969L219.83 374.992C219.722 373.35 219.511 371.997 219.212 370.936C218.909 369.876 218.533 369.037 218.085 368.42C217.632 367.802 217.107 367.39 216.51 367.174C215.908 366.963 215.254 366.881 214.549 366.927C213.813 366.978 213.165 367.148 212.598 367.442C212.032 367.735 211.569 368.214 211.209 368.872C210.849 369.531 210.591 370.406 210.452 371.497C210.313 372.589 210.298 373.968 210.411 375.636L210.545 377.612C210.658 379.254 210.859 380.608 211.147 381.668C211.435 382.728 211.811 383.567 212.274 384.185C212.732 384.803 213.257 385.215 213.844 385.431C214.431 385.647 215.095 385.729 215.826 385.678C216.557 385.626 217.205 385.456 217.771 385.163C218.337 384.87 218.801 384.391 219.161 383.732ZM195.34 375.61L195.196 377.581C195.078 379.249 194.872 380.613 194.579 381.673C194.285 382.734 193.915 383.562 193.467 384.17C193.014 384.772 192.489 385.178 191.892 385.39C191.29 385.601 190.626 385.678 189.89 385.626C189.154 385.575 188.516 385.4 187.965 385.106C187.414 384.813 186.951 384.329 186.58 383.655C186.21 382.981 185.952 382.101 185.818 381.009C185.679 379.918 185.669 378.549 185.788 376.907L185.927 374.936C186.045 373.268 186.251 371.904 186.544 370.844C186.838 369.784 187.208 368.955 187.656 368.347C188.104 367.745 188.634 367.339 189.231 367.128C189.833 366.917 190.497 366.839 191.233 366.891C191.943 366.942 192.577 367.112 193.143 367.411C193.709 367.709 194.167 368.188 194.527 368.862C194.888 369.536 195.14 370.417 195.289 371.513C195.438 372.599 195.454 373.968 195.34 375.61ZM82.9446 324.942L84.571 323.321L85.724 322.162L84.571 321.009L82.9446 319.383V317.087V315.456H81.3129H79.0174L77.396 313.834L76.2431 312.682L75.0902 313.834L73.4637 315.456H71.1681H69.5365V317.087V319.383L67.9152 321.009L66.7623 322.162L67.9152 323.315L69.5365 324.942V327.238V328.869H71.1681H73.4637L75.0902 330.491L76.2431 331.643L77.396 330.491L79.0174 328.869H81.3129H82.9446V327.238V324.942ZM337.1 323.321L335.474 324.942V327.238V328.869H333.842H331.547L329.925 330.491L328.772 331.643L327.609 330.496L325.988 328.874H323.692H322.061V327.243V324.947L320.439 323.321L319.281 322.168L320.439 321.015L322.061 319.388V317.093V315.461H323.692H325.988L327.609 313.84L328.767 312.687L329.92 313.84L331.541 315.461H333.837H335.469V317.093V319.388L337.095 321.015L338.248 322.168L337.1 323.321ZM377.957 223.59L372.275 220.837L371.297 228.398L377.484 227.234L383.305 226.138L377.957 223.59Z" fill="#C9A872"/>
</svg>
