<svg width="558" height="576" viewBox="0 0 558 576" fill="none" xmlns="http://www.w3.org/2000/svg">
<path fill-rule="evenodd" clip-rule="evenodd" d="M288 0C129.202 0 0 129.196 0 288.004C0 446.811 129.202 576 288 576C446.798 576 576 446.804 576 287.996C576 129.189 446.805 0 288 0ZM7.89123 288.004C7.89123 442.455 133.543 568.116 288 568.116C442.457 568.116 568.109 442.448 568.109 287.996C568.109 133.545 442.45 7.88399 288 7.88399C133.55 7.88399 7.89123 133.552 7.89123 288.004ZM354.19 533.967C354.592 535.907 354.658 537.737 354.387 539.45C354.116 541.163 353.523 542.693 352.608 544.047C351.693 545.401 350.478 546.55 348.963 547.509C347.448 548.468 345.669 549.164 343.619 549.588C341.928 549.94 340.288 550.049 338.715 549.918C337.141 549.786 335.691 549.413 334.366 548.805C333.041 548.197 331.863 547.363 330.838 546.301C329.806 545.247 328.971 543.952 328.32 542.429L334.996 541.045C335.794 542.246 336.841 543.059 338.129 543.49C339.417 543.922 340.837 543.981 342.389 543.651C344.402 543.234 345.874 542.305 346.811 540.855C347.74 539.406 347.982 537.576 347.521 535.35C347.06 533.125 346.108 531.536 344.681 530.577C343.246 529.626 341.526 529.355 339.513 529.772C338.136 530.058 336.98 530.592 336.057 531.375C335.135 532.159 334.476 533.03 334.088 533.996L327.947 535.27L325.238 514.231L346.694 509.78L347.858 515.395L332.075 518.674L333.151 527.071C334.666 525.321 336.731 524.172 339.344 523.63C341.145 523.257 342.858 523.213 344.483 523.506C346.108 523.799 347.572 524.392 348.86 525.307C350.156 526.222 351.269 527.408 352.198 528.872C353.121 530.321 353.787 532.019 354.19 533.967ZM319.44 532.861C319.213 529.626 318.723 526.888 317.962 524.663C317.193 522.437 316.176 520.644 314.909 519.289C313.643 517.928 312.149 516.976 310.429 516.42C308.709 515.871 306.806 515.666 304.719 515.805C302.633 515.944 300.781 516.405 299.178 517.181C297.568 517.964 296.228 519.121 295.159 520.651C294.09 522.188 293.314 524.114 292.839 526.427C292.363 528.733 292.238 531.492 292.451 534.691L292.641 537.495C292.861 540.738 293.366 543.468 294.149 545.694C294.932 547.912 295.95 549.713 297.202 551.067C298.453 552.429 299.932 553.38 301.652 553.936C303.372 554.486 305.276 554.69 307.362 554.551C309.448 554.412 311.3 553.951 312.911 553.175C314.514 552.399 315.861 551.243 316.93 549.698C317.998 548.161 318.774 546.243 319.243 543.93C319.719 541.624 319.85 538.864 319.631 535.665L319.44 532.861ZM251.926 520.629C252.197 522.144 252.16 523.726 251.816 525.387C251.384 527.474 250.286 529.377 248.522 531.104C246.765 532.839 244.196 534.699 240.836 536.682L230.939 542.517L247.512 545.987L246.333 551.601L221.444 546.397L222.616 540.782L236.985 531.793C238.391 530.907 239.584 530.123 240.572 529.45C241.56 528.769 242.366 528.132 242.988 527.525C243.61 526.917 244.093 526.339 244.43 525.783C244.767 525.226 245.001 524.633 245.133 523.996C245.477 522.371 245.235 520.958 244.415 519.758C243.603 518.557 242.292 517.767 240.492 517.393C238.691 517.013 237.176 517.232 235.938 518.045C234.701 518.857 233.882 520.212 233.486 522.115L226.81 520.724C227.191 518.923 227.813 517.35 228.684 516.003C229.555 514.656 230.631 513.587 231.927 512.789C233.215 511.991 234.694 511.471 236.341 511.222C237.995 510.981 239.789 511.061 241.736 511.464C243.676 511.867 245.36 512.511 246.78 513.375C248.2 514.246 249.342 515.293 250.213 516.522C251.084 517.745 251.655 519.121 251.926 520.629ZM282.019 520.622C280.951 519.099 279.604 517.95 277.979 517.159C276.353 516.376 274.494 515.907 272.408 515.754C270.322 515.6 268.426 515.805 266.727 516.347C265.022 516.896 263.536 517.855 262.262 519.224C260.988 520.6 259.956 522.393 259.166 524.619C258.375 526.837 257.863 529.552 257.636 532.751L257.438 535.555C257.204 538.791 257.321 541.565 257.789 543.878C258.258 546.192 259.012 548.109 260.066 549.632C261.113 551.155 262.452 552.304 264.077 553.095C265.703 553.878 267.562 554.346 269.641 554.5C271.727 554.647 273.623 554.449 275.321 553.907C277.027 553.358 278.513 552.399 279.787 551.023C281.06 549.647 282.093 547.853 282.883 545.628C283.674 543.403 284.186 540.694 284.413 537.495L284.618 534.691C284.852 531.456 284.742 528.681 284.289 526.368C283.842 524.062 283.081 522.144 282.019 520.622ZM58.9132 160.945C57.7713 156.75 58.6131 152.365 61.4387 147.79C62.61 145.894 63.9423 144.357 65.4356 143.164C66.9362 141.97 68.5101 141.114 70.1645 140.587C71.8188 140.06 73.5098 139.848 75.2374 139.957C76.9576 140.06 78.6267 140.433 80.2298 141.077L76.4306 147.226C74.6298 146.773 72.8583 146.802 71.1381 147.329C69.4178 147.863 67.9537 149.108 66.7459 151.062C65.0476 153.807 64.5864 156.413 65.3477 158.895C66.109 161.369 68.3051 163.719 71.9359 165.966L74.4907 167.54C77.9971 169.707 81.0936 170.534 83.7728 170.029C86.4593 169.531 88.5749 168.016 90.1414 165.491C91.6201 163.09 92.2057 160.872 91.8982 158.829C91.5908 156.787 90.178 154.788 87.6745 152.856L82.4185 161.377L77.5872 158.397L86.2031 144.43L88.67 145.953C93.6551 149.027 96.6783 152.548 97.7398 156.516C98.8012 160.484 98.0399 164.561 95.4485 168.763C94.065 171.01 92.4912 172.804 90.7197 174.151C88.9482 175.498 87.0156 176.398 84.9074 176.837C82.7992 177.291 80.5665 177.232 78.2021 176.691C75.8376 176.149 73.3707 175.088 70.8159 173.506L68.2466 171.933C63.1663 168.799 60.0552 165.139 58.9132 160.945ZM181.227 87.3095L164.698 52.0475L187.369 41.4184L189.872 46.7549L173.248 54.5438L177.523 63.6649L191.124 57.2889L193.628 62.6254L180.027 69.0014L184.77 79.1254L201.394 71.3366L203.898 76.6731L181.227 87.3095ZM134.341 77.6614L131.142 72.7055L156.851 56.1103L160.05 61.0662L149.999 67.552L167.919 95.318L162.304 98.9416L144.384 71.1755L134.341 77.6614ZM214.827 72.9617L210.508 58.9213L218.216 56.5495L229.394 68.4743L236.627 66.249L223.977 53.4969C226.042 51.8938 227.366 50.0198 227.952 47.8823C228.538 45.7447 228.443 43.4315 227.681 40.9499C226.569 37.3337 224.556 34.8521 221.627 33.4905C218.707 32.1436 214.768 32.2241 209.805 33.754L196.988 37.6997L208.436 74.9236L214.827 72.9617ZM106.575 151.128L76.7453 126.093L92.8426 106.913L97.3591 110.705L85.5589 124.768L93.2671 131.239L102.923 119.724L107.446 123.516L97.7837 135.023L106.356 142.212L118.156 128.15L122.673 131.934L106.575 151.128ZM254.056 63.5038L248.837 24.9111L255.454 24.018L260.674 62.6108L254.056 63.5038ZM125.828 128.435L100.016 99.2636L107.015 93.0706L133.975 103.392L139.114 105.676L118.764 82.6758L123.763 78.2543L149.574 107.418L142.576 113.611L115.616 103.29L110.514 101.05L130.827 124.006L125.828 128.435ZM511.487 246.095L550.086 240.941L553.402 265.765L547.554 266.54L545.123 248.342L535.138 249.674L537.122 264.571L531.281 265.347L529.297 250.458L518.214 251.929L520.644 270.135L514.796 270.918L511.487 246.095ZM479.322 164.7L513.434 145.909L517.943 154.093L501.978 178.14L498.618 182.657L525.52 167.84L528.741 173.689L494.628 192.488L490.119 184.297L506.092 160.249L509.401 155.755L482.55 170.556L479.322 164.7ZM505.616 223.05C507.285 228.855 510.074 232.86 513.961 235.063C517.855 237.259 522.533 237.581 527.987 236.007L530.981 235.144C536.5 233.562 540.321 230.825 542.422 226.937C544.53 223.05 544.735 218.168 543.052 212.282L539.516 199.977L502.088 210.738L505.616 223.05ZM81.2692 194.157L46.0589 177.518L48.9138 171.486L84.1241 188.118L81.2692 194.157ZM433.343 113.363L428.395 108.89L454.499 79.9892L461.438 86.2554L454.191 114.197L452.493 119.563L473.085 96.7747L478.041 101.247L451.929 130.148L444.997 123.882L452.244 95.9402L453.898 90.6183L433.343 113.363ZM341.028 67.186L350.647 29.4497L357.118 31.0968L347.499 68.8404L341.028 67.186ZM316.483 62.7352L307.56 22.166L314.726 23.1688L321.424 55.5686L335.882 26.1336L342.821 27.1072L324.199 63.8259L316.483 62.7352ZM267.613 61.359L266.845 22.4222L276.192 22.2318L290.05 47.5528L292.487 52.6258L291.88 21.9171L298.556 21.7853L299.332 60.7221L289.984 60.9051L276.127 35.5841L273.689 30.5624L274.297 61.2126L267.613 61.359ZM364.116 60.1219C363.362 62.7059 363.34 64.7117 364.057 66.1465C364.775 67.5813 366.334 68.7452 368.728 69.631C371.238 70.5607 373.244 70.7656 374.759 70.2532C376.275 69.7334 377.285 68.8037 377.783 67.4349C378.288 66.0733 378.171 64.8362 377.431 63.7308C376.692 62.6254 375.645 61.5566 374.291 60.5171C372.937 59.4777 371.451 58.4162 369.84 57.3255C368.23 56.2348 366.795 55.0269 365.551 53.6946C364.299 52.3623 363.413 50.8543 362.893 49.156C362.374 47.465 362.527 45.5032 363.347 43.2705C363.889 41.8064 364.665 40.5693 365.682 39.5371C366.693 38.5123 367.915 37.7363 369.357 37.2239C370.792 36.7041 372.439 36.5065 374.291 36.6163C376.15 36.7261 378.193 37.1946 380.418 38.0145C384.876 39.6615 387.775 41.8357 389.129 44.5369C390.491 47.2381 390.578 50.6054 389.4 54.6463L382.724 52.1793C383.324 50.0198 383.295 48.3068 382.636 47.0331C381.977 45.7594 380.506 44.6979 378.207 43.8488C375.843 42.9776 373.983 42.7727 372.622 43.2412C371.26 43.7023 370.36 44.5515 369.906 45.774C369.423 47.0624 369.562 48.2336 370.323 49.2878C371.077 50.3419 372.139 51.3741 373.5 52.3989C374.869 53.4164 376.355 54.4706 377.966 55.5613C379.583 56.652 381.011 57.8672 382.248 59.2215C383.492 60.5684 384.356 62.113 384.861 63.8625C385.366 65.6121 385.183 67.6471 384.327 69.975C383.749 71.5416 382.936 72.8665 381.904 73.9646C380.865 75.0626 379.605 75.8679 378.134 76.3876C376.655 76.9074 374.95 77.1123 373.017 76.9879C371.085 76.8708 368.933 76.3657 366.568 75.4945C362.015 73.8109 359.021 71.5269 357.593 68.65C356.166 65.7731 356.115 62.113 357.44 57.6622L364.116 60.1219ZM389.824 79.7916C390.366 81.8998 391.362 83.8397 392.818 85.6112C394.275 87.3754 396.134 88.8908 398.396 90.1645C400.629 91.4163 402.884 92.1922 405.153 92.507C407.422 92.8218 409.604 92.6461 411.69 91.9873C413.776 91.3284 415.753 90.2011 417.597 88.5979C419.449 86.9948 421.082 84.9378 422.495 82.4123L423.907 79.8867C425.335 77.3319 426.25 74.8503 426.653 72.4639C427.048 70.0702 426.989 67.8155 426.455 65.6926C425.921 63.5697 424.932 61.6225 423.476 59.851C422.019 58.0795 420.16 56.5642 417.898 55.2978C415.665 54.0533 413.41 53.2773 411.126 52.9772C408.85 52.6844 406.668 52.8601 404.589 53.4969C402.503 54.1411 400.541 55.2611 398.689 56.8643C396.837 58.4674 395.212 60.5245 393.792 63.0573L392.387 65.5755C390.952 68.1376 390.037 70.6192 389.627 73.0276C389.217 75.4213 389.283 77.676 389.824 79.7916ZM478.663 116.818C476.342 117.586 474.051 118.875 471.774 120.668L469.505 122.469C467.207 124.292 465.413 126.232 464.117 128.296C462.822 130.368 462.024 132.476 461.716 134.635C461.416 136.788 461.592 138.962 462.266 141.158C462.932 143.347 464.074 145.455 465.691 147.497C467.273 149.496 469.059 151.084 471.035 152.234C473.019 153.383 475.098 154.064 477.279 154.247C479.461 154.437 481.708 154.137 484.029 153.361C486.349 152.585 488.648 151.297 490.917 149.51L493.193 147.71C495.485 145.894 497.278 143.954 498.559 141.897C499.84 139.84 500.638 137.725 500.96 135.565C501.275 133.398 501.099 131.217 500.433 129.028C499.767 126.839 498.625 124.724 497.007 122.689C495.419 120.683 493.633 119.102 491.634 117.967C489.636 116.825 487.557 116.152 485.39 115.954C483.223 115.764 480.983 116.049 478.663 116.818ZM528.404 396.249C528.762 397.735 528.784 399.39 528.462 401.227C528.148 403.057 527.452 405.041 526.391 407.157C524.268 411.402 521.786 414.052 518.953 415.107C516.128 416.153 512.768 415.875 508.881 414.257L512.072 407.896C514.151 408.73 515.857 408.892 517.197 408.379C518.543 407.867 519.759 406.52 520.857 404.331C521.984 402.069 522.394 400.239 522.079 398.841C521.764 397.435 521.025 396.44 519.861 395.861C518.624 395.239 517.445 395.254 516.318 395.891C515.183 396.528 514.034 397.464 512.878 398.709C511.714 399.953 510.499 401.315 509.239 402.801C507.98 404.287 506.611 405.576 505.133 406.659C503.654 407.742 502.022 408.438 500.236 408.745C498.442 409.053 496.444 408.65 494.218 407.537C492.732 406.791 491.495 405.846 490.514 404.69C489.533 403.54 488.875 402.194 488.516 400.678C488.157 399.148 488.15 397.435 488.487 395.525C488.823 393.621 489.548 391.535 490.683 389.28C492.857 384.932 495.448 382.209 498.471 381.104C501.487 380.006 505.133 380.357 509.408 382.165L506.216 388.534C503.735 387.494 501.736 387.253 500.228 387.802C498.72 388.358 497.395 389.786 496.246 392.062C495.053 394.449 494.621 396.425 494.972 397.992C495.316 399.551 496.136 400.656 497.432 401.308C498.735 401.959 499.979 401.981 501.158 401.366C502.336 400.751 503.515 399.829 504.701 398.599C505.887 397.362 507.109 396.008 508.361 394.522C509.627 393.036 510.982 391.747 512.446 390.657C513.91 389.559 515.513 388.848 517.248 388.519C518.997 388.19 520.93 388.548 523.045 389.617C524.444 390.313 525.593 391.22 526.501 392.34C527.423 393.46 528.06 394.763 528.404 396.249ZM485.002 440.764H474.79L467.573 433.546L460.355 440.764H450.143V450.976L442.925 458.194L450.143 465.412V475.624H460.355L467.573 482.842L474.79 475.624H485.002V465.412L492.22 458.194L485.002 450.976V440.764ZM548.322 274.146L554.222 274.249L553.724 304.848L547.824 304.745L548.022 292.784L514.978 292.249L515.088 285.573L548.132 286.108L548.322 274.146ZM501.714 364.867L538.162 378.6L535.812 384.852L499.364 371.119L501.714 364.867ZM509.788 337.877L547.356 348.14L545.592 354.582L513.712 345.871L509.166 362.51L503.486 360.951L509.788 337.877ZM514.517 306.912L523.865 311.385L521.962 326.011L511.772 327.995L510.828 335.286L551.243 326.523L552.253 318.8L515.432 299.98L514.517 306.912ZM68.7736 347.298L54.4845 350.71L52.6105 342.862L65.2379 332.475L63.4884 325.11L49.946 336.918C48.4746 334.751 46.6958 333.309 44.5949 332.584C42.5013 331.867 40.1881 331.809 37.6626 332.409C33.9805 333.287 31.3745 335.139 29.8373 337.965C28.3 340.791 28.1317 344.722 29.3395 349.78L32.4433 362.825L70.3255 353.799L68.7736 347.298ZM42.2231 324.642L45.1073 324.415C48.0281 324.188 50.6048 323.58 52.8375 322.592C55.0701 321.597 56.9075 320.294 58.3643 318.676C59.821 317.051 60.8824 315.155 61.5485 312.959C62.2147 310.763 62.4489 308.383 62.2513 305.785C62.0536 303.23 61.4534 300.924 60.4578 298.86C59.4623 296.803 58.108 295.09 56.4024 293.706C54.6968 292.33 52.6618 291.32 50.3047 290.668C47.9475 290.009 45.3269 289.797 42.4427 290.017L39.5586 290.244C36.6378 290.478 34.0684 291.086 31.8577 292.074C29.647 293.062 27.8022 294.365 26.3309 295.983C24.8522 297.608 23.7834 299.511 23.1173 301.7C22.4512 303.889 22.2169 306.283 22.4219 308.874C22.6195 311.421 23.2271 313.727 24.2446 315.792C25.2621 317.849 26.6091 319.569 28.3 320.945C29.991 322.321 32.0114 323.339 34.3685 323.99C36.7183 324.649 39.339 324.869 42.2231 324.642ZM63.0638 257.573C63.9276 251.585 63.0345 246.79 60.3846 243.189C57.7347 239.58 53.6061 237.376 47.9915 236.571L44.9097 236.124C39.2218 235.305 34.6174 236.234 31.1037 238.914C27.59 241.6 25.3939 245.963 24.5228 252.024L22.7001 264.688L61.2484 270.23L63.0638 257.573ZM71.0283 220.4L34.4124 207.129L36.689 200.848L67.7561 212.121L73.6343 195.907L79.183 197.92L71.0283 220.4ZM67.5292 233.819L29.8446 223.995L31.5283 217.538L69.2128 227.355L67.5292 233.819ZM67.0094 382.458L64.5425 376.258C62.7051 371.638 60.2382 368.586 57.1271 367.114C54.0233 365.628 50.6634 365.606 47.0472 367.049C43.1821 368.586 40.6712 370.87 39.5073 373.908C38.3434 376.946 38.724 380.899 40.6566 385.752L45.5904 398.167L81.7743 383.768L79.3074 377.568L67.0094 382.458ZM312.237 482.19C315.788 485.286 320.37 487.226 325.436 487.226C336.57 487.226 345.625 478.164 345.625 467.03C345.625 465.126 345.273 463.311 344.783 461.561C345.72 461.715 346.664 461.847 347.645 461.847C348.904 461.847 350.127 461.693 351.305 461.437V453.216C350.178 453.692 348.941 453.956 347.645 453.956C342.463 453.956 338.246 449.739 338.246 444.556C338.246 439.373 342.463 435.157 347.645 435.157C348.941 435.157 350.178 435.42 351.305 435.896V427.675C350.127 427.419 348.904 427.266 347.645 427.266C338.114 427.266 330.362 435.018 330.362 444.549C330.362 445.588 330.494 446.599 330.67 447.587C328.993 447.133 327.258 446.818 325.443 446.818C316.527 446.818 309.031 452.66 306.359 460.69C301.762 455.507 295.137 452.169 287.678 452.169C280.233 452.169 273.608 455.5 269.011 460.676C266.354 452.631 258.843 446.767 249.913 446.767C248.09 446.767 246.363 447.089 244.679 447.543C244.855 446.555 244.986 445.537 244.986 444.498C244.986 434.967 237.234 427.214 227.703 427.214C226.671 427.214 225.668 427.346 224.687 427.522V435.713C225.646 435.384 226.634 435.106 227.703 435.106C232.886 435.106 237.102 439.322 237.102 444.505C237.102 449.688 232.886 453.904 227.703 453.904C226.634 453.904 225.646 453.626 224.687 453.297V461.488C225.668 461.664 226.671 461.796 227.703 461.796C228.684 461.796 229.628 461.664 230.573 461.503C230.075 463.252 229.724 465.06 229.724 466.971C229.724 478.105 238.786 487.168 249.92 487.168C254.986 487.168 259.568 485.228 263.118 482.131C265.402 493.61 275.541 502.299 287.685 502.299C299.8 502.306 309.939 493.646 312.237 482.19ZM125.849 440.764H115.638L108.42 433.546L101.202 440.764H90.9905V450.976L83.7728 458.194L90.9905 465.412V475.624H101.202L108.42 482.842L115.638 475.624H125.849V465.412L133.067 458.194L125.849 450.976V440.764ZM411.661 399.39L411.675 399.412V371.58L411.661 371.602V286.701L403.777 279.966V347.262C393.485 338.536 385.205 327.563 379.649 315.074V248.452L388.712 251.973C392.577 253.474 395.886 256.248 398.038 259.798L407.452 275.34L424.076 268.012C427.868 266.343 432.172 265.962 436.198 266.95L453.847 271.284L460.421 254.345C461.921 250.48 464.703 247.171 468.246 245.026L483.787 235.612L476.459 218.988C474.783 215.196 474.41 210.891 475.398 206.865L479.732 189.216L462.793 182.642C458.935 181.141 455.619 178.367 453.467 174.817L444.053 159.276L427.428 166.603C423.637 168.272 419.332 168.653 415.306 167.665L397.657 163.331L391.084 180.27C389.583 184.136 386.801 187.444 383.258 189.589L367.717 199.003L368.142 199.977C365.529 196.192 362.703 192.459 358.823 189.64C354.241 186.302 348.868 184.743 343.67 183.235L343.662 183.233C340.584 182.341 337.68 181.499 335.011 180.322C332.428 179.184 329.897 177.638 327.22 176.005L327.193 175.988C322.537 173.14 317.727 170.205 312.047 169.056C311.904 169.025 311.758 169.012 311.613 169C311.484 168.988 311.355 168.977 311.227 168.953C320.619 162.702 327.324 152.775 329.352 141.246C352.952 147.973 374.247 160.22 391.647 176.603V166.333C374.035 151.15 353.04 139.833 330.003 133.501C329.96 129.541 329.367 125.727 328.291 122.096C351.664 127.828 373.178 138.362 391.647 152.673V143.134C371.963 128.882 349.219 118.655 324.645 113.458C317.442 100.64 303.731 91.9506 288.015 91.9506C272.291 91.9506 258.58 100.647 251.377 113.472C226.803 118.677 204.066 128.911 184.382 143.164V152.702C202.851 138.383 224.365 127.842 247.739 122.103C246.67 125.727 246.07 129.548 246.033 133.508C222.996 139.84 202.002 151.165 184.389 166.362V176.632C201.79 160.235 223.084 147.98 246.692 141.253C248.72 152.775 255.432 162.702 264.817 168.946C264.798 168.949 264.778 168.951 264.759 168.952L264.747 168.953C264.725 168.955 264.702 168.957 264.678 168.961C259.925 169.897 255.968 172.389 252.135 174.802L252.124 174.809C249.686 176.347 247.387 177.796 245.06 178.719C242.666 179.67 239.95 180.219 237.073 180.79C232.674 181.669 228.12 182.584 224.109 185.109C220.064 187.657 217.279 191.371 214.584 194.964L214.563 194.992L214.485 195.096C212.765 197.385 211.139 199.549 209.293 201.243C208.385 202.078 207.368 202.846 206.284 203.593L208.4 198.791L192.859 189.37C189.316 187.225 186.534 183.909 185.034 180.051L178.46 163.112L160.811 167.438C156.785 168.426 152.48 168.053 148.689 166.376L132.064 159.049L122.651 174.59C120.498 178.133 117.19 180.915 113.325 182.415L96.3855 188.989L100.719 206.638C101.707 210.664 101.327 214.969 99.6577 218.761L92.3301 235.385L107.871 244.799C111.414 246.951 114.196 250.26 115.696 254.118L122.27 271.057L139.919 266.723C143.945 265.735 148.249 266.109 152.041 267.785L168.666 275.113L178.079 259.572C180.224 256.028 183.54 253.247 187.405 251.746L196.475 248.225V314.84C190.912 327.424 182.589 338.499 172.223 347.276L172.216 284.109L164.339 291.495V371.595L164.332 371.58V399.412L164.339 399.397L164.332 434V434.491C167.912 434.491 170.935 434.264 173.533 433.861V518.872V521.434V526.756C186.504 526.756 191.502 523.284 195.951 520.194L196.073 520.109C200.296 517.174 204.286 514.407 216.899 514.407V506.523H216.818V371.821C216.719 371.682 216.626 371.541 216.532 371.4C232.479 394.361 264.307 414.052 287.685 414.052V414.104L287.749 414.102L287.789 414.099L287.857 414.093L287.952 414.084C287.978 414.083 288.003 414.082 288.029 414.082L288.074 414.083L288.12 414.085L288.201 414.093C288.258 414.098 288.315 414.104 288.373 414.104V414.052C311.896 414.052 343.545 394.403 359.458 371.487C359.374 371.612 359.292 371.735 359.204 371.858V506.523H359.123V514.407C371.736 514.407 375.726 517.174 379.949 520.109L380.063 520.188C384.507 523.28 389.503 526.756 402.488 526.756V521.434V518.872V433.861C405.087 434.256 408.11 434.491 411.69 434.491L411.661 399.39ZM427.216 287.725V372.385C427.224 380.159 433.541 386.477 441.315 386.477C449.089 386.477 455.414 380.152 455.414 372.378C455.414 364.604 449.089 358.279 441.315 358.279V350.644C453.298 350.644 463.049 360.394 463.049 372.378C463.049 384.361 453.298 394.112 441.315 394.112C429.361 394.112 419.647 384.412 419.589 372.473L419.581 287.725H427.216ZM120.396 372.378C120.396 380.152 126.721 386.477 134.495 386.477C142.269 386.477 148.593 380.152 148.593 372.378V287.725H156.258V372.37H156.228C156.228 384.354 146.478 394.104 134.495 394.104C122.511 394.104 112.761 384.354 112.761 372.37C112.761 360.387 122.511 350.636 134.495 350.636V358.272C126.721 358.279 120.396 364.604 120.396 372.378ZM505.901 287.996C505.901 362.254 468.554 427.939 411.675 467.3V457.901C464.11 419.623 498.266 357.744 498.266 288.004C498.266 261.768 493.391 236.659 484.578 213.483L491.744 210.767C500.887 234.778 505.901 260.816 505.901 287.996ZM467.068 163.983L460.765 168.346C422.758 113.641 359.511 77.7272 288 77.7272C216.489 77.7272 153.242 113.641 115.235 168.346L108.932 163.983C148.315 107.287 213.89 70.0921 288 70.0921C362.11 70.0921 427.685 107.287 467.068 163.983ZM164.325 457.901V467.3C107.439 427.946 70.0912 362.254 70.0912 287.996C70.0912 260.809 75.1129 234.778 84.2486 210.752L91.4151 213.468C82.6015 236.652 77.7262 261.753 77.7262 287.989C77.7336 357.744 111.89 419.631 164.325 457.901ZM288.022 406.19C259.1 405.905 204.381 368.066 204.366 313.742V245.194L204.352 245.187L200.018 227.545C199.14 223.958 199.403 220.159 200.64 216.689C202.405 215.188 204.483 213.841 206.672 212.465C209.329 210.796 212.075 209.069 214.461 206.865C216.824 204.691 218.749 202.129 220.612 199.649L220.668 199.574C223.062 196.382 225.324 193.374 228.179 191.573C230.99 189.799 234.661 189.066 238.537 188.292L238.566 188.286C241.648 187.671 244.84 187.027 247.885 185.819C250.854 184.634 253.561 182.93 256.187 181.277L256.194 181.273C259.583 179.136 262.789 177.123 266.156 176.456C269.355 175.82 273.03 176.442 276.91 177.101C280.043 177.635 283.293 178.184 286.624 178.14C290.13 178.089 293.571 177.584 296.901 177.093L296.923 177.09C301.791 176.374 306.395 175.696 310.532 176.537C314.891 177.415 318.922 179.879 323.194 182.49L323.203 182.496C325.985 184.201 328.869 185.958 331.929 187.305C335.062 188.681 338.349 189.64 341.54 190.563C346.313 191.946 350.83 193.257 354.329 195.804C357.857 198.374 360.5 202.268 363.289 206.389C365.141 209.127 367.059 211.96 369.328 214.493C371.531 216.96 374.057 219.134 376.509 221.235C376.743 223.409 376.626 225.613 376.106 227.743L371.773 245.392L371.765 245.399V313.713C371.765 368.051 316.952 405.905 288.022 406.19ZM287.678 337.138V337.182C287.747 337.182 287.802 337.176 287.854 337.17C287.902 337.165 287.948 337.16 288 337.16C288.066 337.16 288.119 337.165 288.172 337.171C288.225 337.176 288.278 337.182 288.344 337.182V337.138C292.948 337.021 295.188 335.893 297.311 334.502C298.585 333.675 299.354 333.177 302.296 333.177C305.459 333.177 310.48 330.776 310.48 324.334H302.596C302.596 324.891 302.494 325.162 302.304 325.293C297.414 325.293 295.203 326.472 293.014 327.907C291.785 328.712 290.899 329.239 288.015 329.283C285.123 329.239 284.237 328.712 283.008 327.907C280.819 326.472 278.608 325.293 273.564 325.206C273.528 325.162 273.425 324.883 273.425 324.334H265.542C265.542 330.776 270.556 333.177 273.718 333.177C276.668 333.177 277.43 333.668 278.703 334.502C280.833 335.893 283.066 337.021 287.678 337.138ZM242.241 282.477C248.793 281.503 253.529 276.101 253.61 269.622C254.832 270.325 255.835 271.108 256.721 271.914H260.937V265.369C258.331 263.283 254.525 261.233 249.547 259.93L249.474 259.85L248.185 259.572L248.156 259.564C247.138 259.337 246.062 259.176 244.942 259.03C243.2 258.788 241.509 258.642 239.884 258.613C239.796 258.613 239.721 258.603 239.646 258.594C239.611 258.59 239.576 258.586 239.539 258.582C239.498 258.579 239.455 258.576 239.408 258.576C239.264 258.576 239.141 258.593 239.017 258.609C238.908 258.624 238.8 258.638 238.676 258.642C236.692 258.671 234.782 258.796 233.047 259.059L233.12 259.132C225.632 260.274 220.69 263.232 217.667 266.035V277.858C218.692 275.881 220.8 272.858 224.797 270.362C227.689 268.371 232.256 266.46 239.401 266.46C239.456 266.46 239.505 266.465 239.555 266.471L239.618 266.478L239.65 266.48L239.708 266.482C239.763 266.482 239.809 266.476 239.855 266.471C239.901 266.465 239.946 266.46 240.001 266.46C241.531 266.46 242.893 266.584 244.218 266.738C244.323 266.766 244.437 266.802 244.552 266.839C244.734 266.896 244.916 266.953 245.06 266.98C245.447 267.653 245.755 268.495 245.755 269.469C245.755 272.031 243.866 274.19 241.238 274.651L239.826 274.747C237.93 274.564 236.414 273.436 235.58 271.906L229.907 277.58C232.125 280.325 235.455 282.235 239.445 282.616C239.896 282.616 240.314 282.597 240.725 282.578L241.011 282.565L242.241 282.477ZM358.384 266.028C355.544 263.393 351.093 260.545 344.351 259.264L344.344 259.242L343.026 259.044C342.357 258.943 341.61 258.915 340.862 258.887C340.472 258.872 340.082 258.857 339.703 258.832C339.305 258.804 338.931 258.759 338.557 258.714C337.955 258.641 337.354 258.569 336.658 258.569C326.073 258.569 319.287 262.046 315.136 265.362V271.906H319.294C322.427 269.029 327.537 266.46 336.065 266.46C336.12 266.46 336.165 266.465 336.211 266.471C336.241 266.475 336.272 266.478 336.305 266.48L336.357 266.482C336.413 266.482 336.46 266.477 336.506 266.472L336.517 266.471L336.597 266.463L336.629 266.461L336.665 266.46C338.019 266.46 339.205 266.584 340.384 266.709C340.889 267.543 341.174 268.488 341.174 269.469C341.174 272.199 339.044 274.476 336.226 274.747L334.82 274.651C332.99 274.322 331.57 273.151 330.845 271.621L325.179 277.287C327.215 279.973 330.194 281.935 333.817 282.477L335.04 282.565L335.326 282.578C335.737 282.597 336.155 282.616 336.606 282.616C343.868 281.928 349.051 276.276 349.051 269.469C349.051 269.391 349.039 269.314 349.028 269.237C349.019 269.175 349.01 269.113 349.007 269.051C349.834 269.469 350.603 269.908 351.254 270.354C355.251 272.851 357.359 275.874 358.384 277.85V266.028ZM294.676 349.926L296.674 348.601L298.768 349.795C298.9 349.875 312.376 357.539 324.469 357.539V364.977C323.52 365.127 323.499 365.129 323.499 365.129C323.499 365.129 323.501 365.127 323.474 365.131L323.333 365.15C323.2 365.169 322.96 365.205 322.53 365.27V365.284C319.052 365.789 317.091 367.62 314.375 370.152L314.361 370.166C309.583 374.614 303.635 380.152 288.051 380.152H288.037C272.452 380.152 266.505 374.614 261.727 370.166L261.713 370.152L261.697 370.138C258.982 367.612 257.021 365.788 253.558 365.284L251.618 364.977V357.539C263.711 357.539 277.195 349.875 277.327 349.795L279.406 348.601L281.412 349.926C281.412 349.926 284.384 351.8 288.044 351.8C291.547 351.8 294.436 350.07 294.662 349.935L294.676 349.926ZM366.122 253.056C360.836 248.115 348.604 238.855 331.175 238.855C302.56 238.855 292.407 260.567 292.407 279.153L294.859 320.037C296.991 319.756 297.733 319.354 298.82 318.766C299.23 318.544 299.689 318.296 300.291 318.017V279.153C300.291 273.744 301.784 246.739 331.175 246.739C352.909 246.739 362.981 253.679 366.122 256.424V253.056ZM209.966 256.38C213.173 253.605 223.245 246.746 244.862 246.746C274.253 246.746 275.746 273.744 275.739 279.161V318.024C276.352 318.305 276.817 318.556 277.234 318.781C278.313 319.363 279.059 319.765 281.178 320.045L283.63 279.161C283.63 260.574 273.477 238.862 244.862 238.862C227.484 238.862 215.281 248.057 209.966 253.012V256.38ZM209.937 230.81C213.539 231.308 216.137 232.201 218.363 233.138C221.532 234.477 224.804 235.861 230.573 235.868C238.899 235.868 242.517 230.695 245.427 226.534L245.447 226.506C248.149 222.633 250.103 219.837 255.498 219.837C271.434 219.837 282.7 213.863 288.022 203.469C293.336 213.871 304.61 219.837 320.546 219.837C325.937 219.837 327.885 222.63 330.584 226.498L330.589 226.506C333.495 230.678 337.119 235.868 345.464 235.868C351.232 235.868 354.504 234.485 357.674 233.145C360.038 232.15 362.381 231.213 366.092 230.744V223.021C361.012 223.665 357.052 224.844 354.607 225.876C351.832 227.055 349.636 227.977 345.464 227.977C341.416 227.977 339.798 225.927 337.053 221.989C334.103 217.75 330.055 211.945 320.546 211.945C310.041 211.945 292.407 208.878 292.407 188.359H291.521H284.523H283.637C283.637 208.878 266.01 211.945 255.498 211.945C245.989 211.945 241.934 217.75 238.984 221.989C236.231 225.927 234.614 227.977 230.573 227.977C226.4 227.977 224.204 227.055 221.43 225.883C219.168 224.924 214.966 223.863 209.937 223.204V230.81ZM184.843 420.685C189.697 417.31 195.238 413.562 208.919 412.947L208.927 358.828C203.517 348.697 199.755 338.485 197.895 329.312C191.234 340.22 182.486 349.692 172.223 357.247V426.08C178.416 425.135 181.469 423.034 184.843 420.685ZM208.919 506.984C199.711 508.067 195.384 510.981 191.556 513.638C188.752 515.585 186.212 517.328 181.41 518.228V431.716C184.609 430.399 187.017 428.781 189.345 427.163C193.642 424.176 197.785 421.358 208.919 420.816V506.984ZM384.444 513.638C387.248 515.593 389.788 517.328 394.59 518.228L394.583 431.716C391.384 430.399 388.975 428.781 386.655 427.163C382.358 424.169 378.215 421.358 367.081 420.816V506.984C376.289 508.067 380.616 510.974 384.444 513.638ZM403.777 426.072C397.591 425.128 394.531 423.027 391.164 420.677C386.311 417.303 380.762 413.562 367.088 412.94V358.894C372.519 348.733 376.297 338.485 378.156 329.29C384.81 340.183 393.536 349.648 403.784 357.203L403.777 426.072ZM102.029 232.333L111.831 238.269C116.333 241 119.876 245.099 122.094 249.872C123.207 246.827 124.759 243.826 126.816 241.044C130.527 236.037 135.329 232.237 140.856 229.741C137.093 223.995 137.533 216.484 141.895 211.265L132.76 196.112L146.097 207.736C151.997 204.347 159.471 205.218 164.478 209.918C167.904 204.911 172.479 200.833 178.05 198.051C181.139 196.507 184.367 195.497 187.566 194.933C183.255 191.932 179.829 187.73 177.926 182.818L173.775 172.13L162.648 174.861C156.997 176.244 150.951 175.717 145.621 173.367L135.132 168.748L129.188 178.55C126.179 183.528 121.523 187.43 116.099 189.538L105.411 193.681L108.142 204.815C109.533 210.467 109.006 216.513 106.656 221.843L102.029 232.333ZM184.638 244.638C181.93 245.692 179.412 247.193 177.194 249.052C174.976 250.912 173.058 253.13 171.55 255.619L165.613 265.42L155.123 260.801C149.794 258.452 143.747 257.924 138.096 259.308L126.962 262.038L126.823 261.68C126.237 256.453 128.024 250.15 131.955 244.836C138.147 236.469 148.11 232.157 159.405 232.786L174.829 246.234L164.266 228.702C165.606 217.465 171.594 208.41 180.898 203.754C186.805 200.804 193.327 200.138 198.371 201.624L198.7 201.821L194.074 212.304C191.724 217.633 191.197 223.68 192.588 229.331L195.318 240.465L184.638 244.638ZM410.511 265.633L421.001 261.006C426.323 258.656 432.37 258.129 438.021 259.528L449.155 262.265L449.294 261.907C449.88 256.673 448.094 250.377 444.163 245.063C437.97 236.695 428.007 232.377 416.712 233.013L401.288 246.461L411.851 228.936C410.511 217.699 404.523 208.637 395.219 203.988C389.312 201.038 382.797 200.372 377.746 201.858L377.417 202.056L382.036 212.538C384.386 217.868 384.913 223.914 383.522 229.565L380.791 240.7L391.479 244.843C394.195 245.904 396.713 247.405 398.931 249.265C401.149 251.124 403.067 253.342 404.575 255.831L410.511 265.633ZM398.199 183.016L402.349 172.328L413.483 175.058C419.135 176.449 425.181 175.915 430.51 173.565L441 168.939L446.944 178.74C449.96 183.718 454.609 187.62 460.04 189.728L470.728 193.872L467.997 205.006C466.606 210.657 467.141 216.704 469.483 222.033L474.11 232.523L464.308 238.467C459.806 241.197 456.256 245.297 454.045 250.062C452.932 247.017 451.38 244.016 449.323 241.234C445.612 236.227 440.81 232.428 435.283 229.931C439.038 224.185 438.599 216.674 434.244 211.455L443.379 196.302L430.042 207.927C424.142 204.537 416.668 205.408 411.661 210.108C408.242 205.101 403.667 201.024 398.089 198.242C394.993 196.697 391.764 195.694 388.573 195.123C392.87 192.129 396.296 187.92 398.199 183.016ZM288.022 113.136C276.544 113.136 267.203 122.476 267.203 133.955C267.203 145.433 276.544 154.774 288.022 154.774C299.5 154.774 308.841 145.433 308.841 133.955C308.841 122.476 299.5 113.136 288.022 113.136ZM253.646 133.955C253.646 115.002 269.063 99.5857 288.015 99.5857C306.967 99.5857 322.39 115.002 322.39 133.955C322.39 152.907 306.974 168.324 288.015 168.324C269.07 168.324 253.646 152.907 253.646 133.955ZM288.022 105.493C303.709 105.493 316.476 118.26 316.476 133.955C316.476 149.649 303.709 162.409 288.022 162.409C272.335 162.409 259.568 149.649 259.568 133.955C259.568 118.26 272.327 105.493 288.022 105.493ZM217.836 39.215C216.298 38.5196 214.205 38.5781 211.547 39.398L205.113 41.3818L208.773 53.292L215.208 51.3155C217.865 50.4956 219.636 49.361 220.507 47.9115C221.386 46.4621 221.54 44.8297 220.983 43.0216C220.42 41.1768 219.365 39.9031 217.836 39.215ZM398.506 68.9941L399.919 66.4686C401.91 62.9109 404.223 60.6855 406.866 59.7998C409.501 58.9213 412.166 59.2288 414.852 60.7294C416.148 61.4541 417.217 62.3619 418.051 63.4453C418.886 64.5287 419.457 65.7365 419.75 67.0762C420.042 68.4085 420.035 69.8725 419.72 71.4537C419.405 73.0422 418.761 74.7113 417.78 76.4608L416.368 78.9864C414.376 82.5513 412.056 84.7694 409.399 85.6405C406.742 86.519 404.092 86.2115 401.434 84.7255C398.814 83.2614 397.174 81.1531 396.515 78.408C395.871 75.6556 396.53 72.5225 398.506 68.9941ZM494.05 130.294C493.684 128.97 493.04 127.725 492.125 126.561C490.207 124.145 487.864 122.85 485.09 122.659C482.308 122.469 479.322 123.64 476.123 126.173L473.853 127.967C470.691 130.478 468.883 133.12 468.436 135.909C467.997 138.698 468.707 141.268 470.574 143.625C472.463 146.004 474.798 147.3 477.594 147.512C480.383 147.717 483.37 146.553 486.576 144.02L488.845 142.219C490.412 140.975 491.649 139.679 492.542 138.332C493.442 136.985 494.006 135.638 494.24 134.291C494.467 132.952 494.409 131.612 494.05 130.294ZM535.695 208.036L537.378 213.922C538.433 217.589 538.279 220.642 536.917 223.08C535.548 225.517 532.928 227.296 529.041 228.416L526.047 229.28C522.123 230.407 518.953 230.305 516.523 228.98C514.1 227.655 512.358 225.137 511.282 221.425L509.598 215.54L535.695 208.036ZM429.317 227.355C432.575 223.468 432.07 217.655 428.182 214.39C424.303 211.126 418.483 211.638 415.218 215.525C415.142 215.618 415.086 215.718 415.029 215.818C414.988 215.892 414.946 215.966 414.896 216.038C416.346 219.288 417.429 222.78 418.015 226.513C421.799 226.44 425.415 226.901 428.863 227.757C428.925 227.692 428.996 227.637 429.068 227.581C429.156 227.513 429.244 227.444 429.317 227.355ZM147.254 227.552C147.192 227.49 147.124 227.437 147.057 227.384C146.966 227.313 146.876 227.242 146.8 227.15C143.542 223.263 144.048 217.45 147.935 214.186C151.822 210.921 157.634 211.433 160.899 215.32C160.972 215.41 161.027 215.506 161.082 215.602C161.126 215.678 161.169 215.754 161.221 215.825C159.771 219.075 158.688 222.56 158.102 226.301C154.325 226.227 150.702 226.689 147.254 227.552ZM56.3585 262.785L57.2296 256.724C57.7713 252.91 57.215 249.894 55.5606 247.698C53.8916 245.48 51.0367 244.096 46.9959 243.511L43.9141 243.064C39.9099 242.493 36.7842 243.035 34.5442 244.697C32.2969 246.351 30.8987 249.074 30.357 252.859L29.4859 258.913L56.3585 262.785ZM28.6295 308.398C28.5123 306.927 28.6734 305.536 29.1126 304.225C29.5518 302.93 30.2472 301.788 31.1915 300.8C32.1432 299.811 33.3583 299.013 34.8516 298.391C36.3523 297.776 38.0945 297.388 40.0929 297.235L42.9844 297.008C47.0545 296.693 50.1802 297.396 52.3836 299.116C54.5797 300.851 55.8022 303.23 56.0364 306.261C56.2707 309.255 55.4215 311.787 53.4963 313.852C51.5784 315.916 48.599 317.102 44.5656 317.424L41.6814 317.651C37.6114 317.958 34.4783 317.27 32.2822 315.565C30.0862 313.859 28.8637 311.473 28.6295 308.398ZM35.0639 348.411L36.6231 354.963L48.7528 352.071L47.1936 345.519C46.5494 342.811 45.5246 340.981 44.1337 340.015C42.7429 339.048 41.1251 338.777 39.2877 339.224C37.4137 339.678 36.0741 340.637 35.2835 342.123C34.4929 343.616 34.4198 345.703 35.0639 348.411ZM48.6064 389.785L46.1394 383.578C45.1073 380.994 44.9243 378.886 45.5685 377.253C46.22 375.613 47.5742 374.391 49.6458 373.564C51.6077 372.78 53.4231 372.78 55.0921 373.556C56.7611 374.325 58.0787 375.957 59.067 378.439L61.5339 384.639L48.6064 389.785ZM309.068 364.465C309.558 364.011 310.049 363.557 310.554 363.103C304.536 361.331 299.456 358.945 296.814 357.583C294.859 358.491 291.741 359.582 288.051 359.582H288.037C284.347 359.582 281.229 358.491 279.274 357.583C276.639 358.945 271.559 361.331 265.534 363.103C266.039 363.557 266.53 364.011 267.02 364.465L267.031 364.474C271.2 368.358 275.515 372.378 288.044 372.378C300.576 372.378 304.895 368.352 309.068 364.465ZM287.678 494.422C278.213 494.422 270.505 486.714 270.505 477.249C270.505 467.776 278.206 460.083 287.678 460.083C297.15 460.083 304.851 467.784 304.851 477.249C304.851 486.714 297.15 494.422 287.678 494.422ZM337.748 467.03C337.748 460.236 332.229 454.717 325.443 454.717C318.657 454.717 313.13 460.236 313.13 467.03C313.13 473.823 318.657 479.342 325.443 479.342C332.229 479.342 337.748 473.823 337.748 467.03ZM249.92 479.284C243.134 479.284 237.615 473.764 237.615 466.971C237.615 460.185 243.134 454.666 249.92 454.666C256.706 454.666 262.233 460.185 262.233 466.971C262.225 473.764 256.706 479.284 249.92 479.284ZM311.696 545.752C312.215 544.815 312.574 543.571 312.772 542.019C312.969 540.474 312.991 538.505 312.838 536.133L312.647 533.323C312.493 530.987 312.193 529.062 311.769 527.554C311.337 526.046 310.803 524.853 310.166 523.974C309.521 523.096 308.775 522.51 307.926 522.203C307.069 521.903 306.139 521.786 305.137 521.852C304.09 521.925 303.168 522.166 302.362 522.584C301.557 523.001 300.898 523.682 300.386 524.619C299.873 525.556 299.507 526.8 299.31 528.352C299.112 529.904 299.09 531.866 299.251 534.238L299.441 537.049C299.603 539.384 299.888 541.309 300.298 542.817C300.708 544.325 301.242 545.518 301.901 546.397C302.553 547.275 303.299 547.861 304.134 548.168C304.968 548.476 305.913 548.593 306.952 548.52C307.992 548.446 308.914 548.205 309.719 547.787C310.524 547.37 311.183 546.689 311.696 545.752ZM277.818 534.201L277.613 537.005C277.444 539.376 277.151 541.316 276.734 542.824C276.317 544.332 275.79 545.511 275.153 546.375C274.509 547.231 273.762 547.809 272.913 548.11C272.057 548.41 271.112 548.519 270.065 548.446C269.019 548.373 268.111 548.124 267.328 547.707C266.544 547.29 265.886 546.602 265.358 545.643C264.831 544.684 264.465 543.432 264.275 541.88C264.077 540.328 264.063 538.381 264.231 536.046L264.429 533.242C264.597 530.87 264.89 528.93 265.307 527.422C265.725 525.914 266.252 524.736 266.888 523.872C267.525 523.015 268.279 522.437 269.128 522.137C269.985 521.837 270.929 521.727 271.976 521.8C272.986 521.873 273.887 522.115 274.692 522.54C275.497 522.964 276.148 523.645 276.661 524.604C277.173 525.563 277.532 526.815 277.744 528.374C277.957 529.919 277.979 531.866 277.818 534.201ZM117.966 462.14L120.279 459.834L121.919 458.187L120.279 456.547L117.966 454.234V450.969V448.648H115.645H112.38L110.074 446.342L108.435 444.703L106.795 446.342L104.482 448.648H101.217H98.8964V450.969V454.234L96.5905 456.547L94.9508 458.187L96.5905 459.826L98.8964 462.14V465.405V467.725H101.217H104.482L106.795 470.031L108.435 471.671L110.074 470.031L112.38 467.725H115.645H117.966V465.405V462.14ZM479.431 459.834L477.118 462.14V465.405V467.725H474.798H471.533L469.227 470.031L467.587 471.671L465.933 470.038L463.627 467.732H460.362H458.042V465.412V462.147L455.736 459.834L454.089 458.194L455.736 456.554L458.042 454.241V450.976V448.656H460.362H463.627L465.933 446.35L467.58 444.71L469.22 446.35L471.526 448.656H474.79H477.111V450.976V454.241L479.424 456.554L481.064 458.194L479.431 459.834ZM537.539 317.995L529.458 314.079L528.067 324.832L536.866 323.178L545.145 321.619L537.539 317.995Z" fill="#24344B"/>
</svg>
