<svg width="465" height="92" viewBox="0 0 465 92" fill="none" xmlns="http://www.w3.org/2000/svg">
<path d="M131.974 24.2345H129.504L125.034 24.3515V25.642L127.034 26.1108V38.7763L125.034 39.246V40.6535H131.504V39.246L129.504 38.7763V34.5538H131.033C135.034 34.5538 137.386 32.6775 137.386 29.0427C137.387 26.1108 135.505 24.2345 131.974 24.2345ZM131.033 32.6784H129.504V26.1117H131.856C133.858 26.1117 134.916 27.5192 134.916 29.3955C134.916 31.5058 133.622 32.6784 131.033 32.6784ZM149.616 33.4991C149.616 29.9814 148.088 27.988 144.675 27.988C141.262 27.988 138.91 30.8021 138.91 34.5547C138.91 38.4253 140.791 40.8875 144.556 40.8875C147.382 40.8875 149.568 38.9413 149.568 38.9413L148.745 37.7216C148.745 37.7216 147.145 39.0121 144.792 39.0121C142.768 39.0121 141.38 37.3706 141.38 34.7896L149.497 34.7434C149.498 34.7425 149.616 34.085 149.616 33.4991ZM141.474 33.0303C141.615 31.2709 142.675 29.8163 144.556 29.8163C146.44 29.8163 147.122 31.2709 147.122 33.0303H141.474ZM163.352 28.339L167.966 28.222V29.6295L165.964 30.0993V38.7772L167.966 39.363V40.6535H162.317V39.363L163.845 38.7772V30.5917L163.165 32.0463L160.317 38.1913L158.952 38.3083L156.033 32.3982L155.492 31.0615V38.7781L157.022 39.3639V40.6544H151.61V39.3639L153.61 38.7781V30.0984L151.61 29.6286V28.339L156.151 28.222L159.869 35.8443L163.352 28.339ZM180.545 33.4991C180.545 29.9814 179.015 27.988 175.603 27.988C172.191 27.988 169.838 30.8021 169.838 34.5547C169.838 38.4253 171.72 40.8875 175.485 40.8875C178.31 40.8875 180.497 38.9413 180.497 38.9413L179.673 37.7216C179.673 37.7216 178.074 39.0121 175.721 39.0121C173.696 39.0121 172.308 37.3706 172.308 34.7896L180.427 34.7434C180.427 34.7425 180.545 34.085 180.545 33.4991ZM172.402 33.0303C172.543 31.2709 173.603 29.8163 175.485 29.8163C177.368 29.8163 178.051 31.2709 178.051 33.0303H172.402ZM192.092 36.8999C192.092 39.9262 189.503 40.8875 186.891 40.8875C185.291 40.8875 183.667 40.512 182.654 40.0667L182.984 37.2291H184.397L184.444 38.8008C185.126 38.9413 185.996 39.0819 186.844 39.0819C188.585 39.0819 189.62 38.3555 189.62 37.0178C189.62 35.6104 188.421 34.9075 186.419 34.9075H184.938V33.2652H186.515C188.397 33.2652 189.361 32.7265 189.361 31.3181C189.361 30.2625 188.397 29.7465 186.868 29.7465C185.691 29.7465 184.586 30.0049 184.586 30.0049L184.42 31.4124H183.009L182.913 28.5748C182.913 28.5748 185.032 27.989 186.961 27.989C189.786 27.989 191.715 29.0446 191.715 31.1558C191.715 32.6793 190.867 33.6887 189.055 34.0868C190.985 34.4369 192.092 35.4934 192.092 36.8999ZM197.851 39.3385C197.851 40.6526 196.791 42.5053 195.144 44.2647L194.086 43.3732C194.086 43.3732 195.333 41.7318 195.333 40.8875C195.333 40.4177 194.791 39.996 194.791 39.1753C194.791 38.2838 195.403 37.6037 196.32 37.6037C197.144 37.6037 197.851 38.0254 197.851 39.3385ZM210.199 38.7763L212.435 39.246V40.6535H205.728V39.246L207.728 38.7763V26.1108L205.728 25.642V24.3515L210.199 24.2345H222.154V25.642L220.152 26.1108V38.7763L222.154 39.246V40.6535H215.447V39.246L217.682 38.7763V26.1108H210.199V38.7763ZM234.686 38.9404L233.863 37.7207C233.863 37.7207 232.263 39.0111 229.91 39.0111C227.885 39.0111 226.498 37.3697 226.498 34.7887L234.615 34.7425C234.615 34.7425 234.733 34.085 234.733 33.4991C234.733 29.9814 233.205 27.988 229.792 27.988C226.379 27.988 224.027 30.8021 224.027 34.5547C224.027 38.4253 225.908 40.8875 229.673 40.8875C232.5 40.8875 234.686 38.9404 234.686 38.9404ZM229.674 29.8163C231.558 29.8163 232.24 31.2709 232.24 33.0303H226.592C226.733 31.2709 227.793 29.8163 229.674 29.8163ZM243.905 28.339L249.789 28.222V29.6295L247.787 30.0993V38.7772L249.789 39.363V40.6535H243.081V39.363L245.434 38.7772V35.8452C244.61 36.0556 243.764 36.4311 242.139 36.4311C239.197 36.4311 238.021 34.7896 238.021 32.2096V30.0984L236.374 29.6286V28.339L241.902 28.222V29.6295L240.374 30.0993V31.8577C240.374 33.617 240.892 34.4378 242.656 34.4378C244.186 34.4378 245.433 34.0859 245.433 34.0859V30.0984L243.904 29.6286V28.339H243.905ZM262.368 33.4991C262.368 29.9814 260.839 27.988 257.426 27.988C254.013 27.988 251.661 30.8021 251.661 34.5547C251.661 38.4253 253.543 40.8875 257.308 40.8875C260.133 40.8875 262.32 38.9413 262.32 38.9413L261.496 37.7216C261.496 37.7216 259.897 39.0121 257.544 39.0121C255.519 39.0121 254.132 37.3706 254.132 34.7896L262.249 34.7434C262.25 34.7425 262.368 34.085 262.368 33.4991ZM254.226 33.0303C254.367 31.2709 255.427 29.8163 257.309 29.8163C259.192 29.8163 259.875 31.2709 259.875 33.0303H254.226ZM271.894 27.9871C270.27 27.9871 269.023 28.8786 268.317 29.5352L268.129 28.222L264.127 28.339V29.6295L266.129 30.0993V44.2892L264.245 44.758V46.0485H270.952V44.758L268.482 44.2892V40.5592C269.117 40.7469 269.824 40.8884 270.6 40.8884C274.952 40.8884 276.954 38.0734 276.954 34.0859C276.953 30.4502 275.306 27.9871 271.894 27.9871ZM270.952 39.0111C269.187 39.0111 268.482 38.5423 268.482 38.5423V31.5058C268.482 31.5058 269.305 29.8644 271.423 29.8644C273.542 29.8644 274.483 31.7407 274.483 34.3199C274.483 36.8999 273.682 39.0111 270.952 39.0111ZM289.652 33.4991C289.652 29.9814 288.123 27.988 284.71 27.988C281.297 27.988 278.945 30.8021 278.945 34.5547C278.945 38.4253 280.826 40.8875 284.592 40.8875C287.417 40.8875 289.603 38.9413 289.603 38.9413L288.78 37.7216C288.78 37.7216 287.18 39.0121 284.827 39.0121C282.803 39.0121 281.415 37.3706 281.415 34.7896L289.533 34.7434C289.533 34.7425 289.652 34.085 289.652 33.4991ZM281.509 33.0303C281.65 31.2709 282.71 29.8163 284.592 29.8163C286.475 29.8163 287.157 31.2709 287.157 33.0303H281.509ZM300.351 28.339L306.116 28.222V29.6295L304.116 30.0993V38.7772L306.116 39.363V40.6535H300.351V39.363L301.88 38.7772V32.7972L295.88 38.1913V38.7772L297.408 39.363V40.6535H291.643V39.363L293.643 38.7772V30.0984L291.643 29.6286V28.339L297.408 28.222V29.6295L295.88 30.0993V36.0792L301.88 30.6851V30.0984L300.351 29.6286V28.339ZM294.632 22.8506L297.151 22.7336C297.151 24.0939 298.07 24.7505 299.339 24.7505C300.422 24.7505 301.127 24.0939 301.127 22.8506L303.127 22.7336C303.127 25.0552 301.339 26.2278 298.963 26.2278C296.775 26.2278 294.657 25.1259 294.632 22.8506ZM316.93 28.339C316.93 26.9315 317.871 25.9938 319.755 25.9938C321.402 25.9938 322.343 26.3457 322.343 26.3457L322.838 28.222H324.343L324.46 24.9382C324.46 24.9382 322.06 24.0005 319.99 24.0005C316.647 24.0005 314.506 25.3137 314.506 28.2229C314.506 31.0134 317.283 31.7407 317.283 31.7407C317.283 31.7407 314.106 33.2652 314.106 36.0792C314.106 38.8932 315.753 40.8875 319.636 40.8875C323.165 40.8875 325.402 39.0111 325.402 35.7273V32.9124L327.285 32.4426V31.0352H319.99C318.343 31.0361 316.93 29.9805 316.93 28.339ZM323.05 35.8443C323.05 37.8376 321.873 38.8932 319.872 38.8932C317.872 38.8932 316.577 37.9555 316.577 35.9622C316.577 34.2029 318.106 32.9124 319.872 32.9124H323.05V35.8443ZM339.038 24.2345H350.994V25.642L348.992 26.1108V38.7763L350.994 39.246V40.6535H344.287V39.246L346.521 38.7763V26.1108H339.038V38.7763L341.275 39.246V40.6535H334.568V39.246L336.568 38.7763V26.1108L334.568 25.642V24.3515L339.038 24.2345ZM362.632 31.6219C362.632 28.9249 361.01 27.9871 358.28 27.9871C356.28 27.9871 353.691 28.9249 353.691 28.9249L353.81 31.8568H355.338L355.668 30.0984C355.668 30.0984 356.632 29.7456 358.044 29.7456C359.456 29.7456 360.28 30.4493 360.28 31.8568V33.7331H358.398C355.103 33.7331 352.984 34.6717 352.984 37.3688C352.984 39.597 354.279 40.8866 356.515 40.8866C358.162 40.8866 359.575 39.8074 360.374 39.0102L360.87 40.6517L364.517 40.5347V39.2442L362.633 38.7745V31.6219H362.632ZM360.279 37.1348C360.279 37.1348 358.867 39.0111 357.103 39.0111C356.043 39.0111 355.385 38.3074 355.385 37.2518C355.385 35.8452 356.279 35.2585 358.631 35.2585H360.278V37.1348H360.279ZM373.685 27.9871C372.061 27.9871 370.814 28.8786 370.107 29.5352L369.92 28.222L365.918 28.339V29.6295L367.92 30.0993V44.2892L366.036 44.758V46.0485H372.743V44.758L370.273 44.2892V40.5592C370.908 40.7469 371.613 40.8884 372.391 40.8884C376.743 40.8884 378.745 38.0734 378.745 34.0859C378.744 30.4502 377.097 27.9871 373.685 27.9871ZM372.743 39.0111C370.978 39.0111 370.273 38.5423 370.273 38.5423V31.5058C370.273 31.5058 371.096 29.8644 373.214 29.8644C375.333 29.8644 376.274 31.7407 376.274 34.3199C376.273 36.8999 375.473 39.0111 372.743 39.0111ZM380.385 28.222H392.386L392.268 32.5605H390.621L390.268 30.0984H387.561V38.7763L389.915 39.3621V40.6526H382.856V39.3621L385.208 38.7763V30.0984H382.503L382.148 32.5605H380.501L380.385 28.222ZM402.38 28.339L408.262 28.222V29.6295L406.262 30.0993V38.7772L408.262 39.363V40.6535H402.38V39.363L403.909 38.7772V35.0245H398.26V38.7772L399.791 39.363V40.6535H393.907V39.363L395.907 38.7772V30.0984L393.907 29.6286V28.339L399.791 28.222V29.6295L398.26 30.0993V33.2652H403.909V30.0984L402.38 29.6286V28.339ZM420.842 33.4991C420.842 29.9814 419.314 27.988 415.901 27.988C412.489 27.988 410.136 30.8021 410.136 34.5547C410.136 38.4253 412.017 40.8875 415.782 40.8875C418.606 40.8875 420.794 38.9413 420.794 38.9413L419.971 37.7216C419.971 37.7216 418.371 39.0121 416.018 39.0121C413.994 39.0121 412.606 37.3706 412.606 34.7896L420.723 34.7434C420.724 34.7425 420.842 34.085 420.842 33.4991ZM412.7 33.0303C412.841 31.2709 413.901 29.8163 415.782 29.8163C417.666 29.8163 418.348 31.2709 418.348 33.0303H412.7ZM430.367 27.9871C428.743 27.9871 427.497 28.8786 426.789 29.5352L426.602 28.222L422.6 28.339V29.6295L424.602 30.0993V44.2892L422.719 44.758V46.0485H429.425V44.758L426.955 44.2892V40.5592C427.59 40.7469 428.295 40.8884 429.073 40.8884C433.425 40.8884 435.427 38.0734 435.427 34.0859C435.427 30.4502 433.78 27.9871 430.367 27.9871ZM429.425 39.0111C427.66 39.0111 426.955 38.5423 426.955 38.5423V31.5058C426.955 31.5058 427.779 29.8644 429.897 29.8644C432.015 29.8644 432.957 31.7407 432.957 34.3199C432.957 36.8999 432.156 39.0111 429.425 39.0111ZM449.068 28.339L454.951 28.222V29.6295L453.186 30.0993V38.7772L454.951 39.363V40.6535H449.068V39.363L450.833 38.7772V30.0984L449.068 29.6286V28.339ZM443.844 32.6077H441.772V30.1219L444.009 29.6295V28.222L437.42 28.339V29.6295L439.42 30.0993V38.847L437.42 39.363V40.6535H443.232C446.645 40.6535 448.597 39.363 448.597 36.666C448.596 33.851 446.549 32.6077 443.844 32.6077ZM443.348 38.8932H441.771V34.367H443.373C445.302 34.367 446.126 35.0236 446.126 36.8999C446.126 38.1904 445.113 38.8932 443.348 38.8932ZM460.817 22.5259C458.417 22.5259 456.635 24.3034 456.635 26.6957C456.635 29.0872 458.28 30.7277 460.681 30.7277C463.081 30.7277 465 28.9502 465 26.5579C465.001 24.1674 463.218 22.5259 460.817 22.5259ZM460.75 29.839C458.829 29.839 457.664 28.5403 457.664 26.6268C457.664 24.7133 458.829 23.4147 460.75 23.4147C462.67 23.4147 463.972 24.7133 463.972 26.6268C463.972 28.5412 462.67 29.839 460.75 29.839ZM462.025 27.2698C461.82 26.8735 461.654 26.7774 461.641 26.7638C462.188 26.5588 462.491 26.1761 462.491 25.5612C462.491 24.7414 461.779 24.3043 460.886 24.3043L458.829 24.3451V24.8512L459.379 24.96V28.1313L458.829 28.2683V28.8151H460.817V28.2683L460.269 28.1313V26.9415H460.531C460.886 26.9415 460.984 27.0104 461.285 27.6525L461.833 28.8142H463.012V28.2674L462.462 28.1304L462.025 27.2698ZM460.75 26.3121H460.269V24.9872H460.817C461.298 24.9872 461.571 25.233 461.571 25.6302C461.571 26.0664 461.229 26.3121 460.75 26.3121ZM134.757 61.6142C134.475 61.3058 134.136 61.0709 133.739 60.9113C133.343 60.7517 132.902 60.671 132.417 60.671C131.932 60.671 131.488 60.7517 131.095 60.9113C130.699 61.0718 130.36 61.3085 130.075 61.6205C129.793 61.9325 129.577 62.3197 129.419 62.7804C129.262 63.2411 129.183 63.7689 129.183 64.362H127.654V60.7526H126.831V68.9571H127.654V65.1129H129.183C129.183 65.7695 129.262 66.3435 129.419 66.8351C129.577 67.3275 129.793 67.7374 130.075 68.0657C130.361 68.394 130.699 68.6388 131.095 68.7984C131.489 68.9589 131.932 69.0388 132.417 69.0388C132.893 69.0388 133.333 68.9571 133.733 68.793C134.133 68.6298 134.475 68.3849 134.757 68.0602C135.039 67.7365 135.259 67.3275 135.416 66.8351C135.571 66.3435 135.649 65.7695 135.649 65.1129V64.362C135.649 63.7598 135.57 63.2293 135.416 62.7686C135.259 62.3088 135.04 61.9234 134.757 61.6142ZM134.803 65.1138C134.803 65.6525 134.744 66.1195 134.629 66.514C134.511 66.9085 134.344 67.2368 134.133 67.498C133.921 67.7592 133.668 67.9532 133.376 68.0784C133.081 68.2035 132.762 68.2652 132.417 68.2652C132.073 68.2652 131.754 68.2008 131.463 68.072C131.174 67.9423 130.925 67.7492 130.711 67.4916C130.501 67.2341 130.334 66.9076 130.213 66.5131C130.092 66.1177 130.029 65.6516 130.029 65.1129V64.362C130.029 63.8859 130.088 63.4633 130.206 63.096C130.325 62.7287 130.488 62.424 130.699 62.1819C130.912 61.9397 131.164 61.7556 131.46 61.6305C131.752 61.5053 132.073 61.4428 132.418 61.4428C132.763 61.4428 133.082 61.5053 133.37 61.6305C133.659 61.7556 133.911 61.9415 134.122 62.1873C134.335 62.4331 134.502 62.7378 134.624 63.1014C134.745 63.4651 134.804 63.885 134.804 64.3611V65.1138H134.803ZM141.625 63.7127C141.418 63.4823 141.175 63.3082 140.893 63.1912C140.611 63.0733 140.303 63.0153 139.964 63.0153C139.525 63.0153 139.144 63.1023 138.819 63.2783C138.493 63.4542 138.228 63.7226 138.024 64.0809L137.929 63.0969H137.328V71.3023H138.106V68.101C138.31 68.4212 138.569 68.6579 138.88 68.8102C139.195 68.9626 139.557 69.0379 139.963 69.0379C140.301 69.0379 140.609 68.9798 140.892 68.8619C141.174 68.7449 141.417 68.569 141.624 68.3341C141.828 68.0992 141.985 67.8109 142.1 67.4671C142.212 67.1234 142.271 66.7289 142.271 66.2837V65.7686C142.271 65.3151 142.212 64.917 142.1 64.5724C141.986 64.2305 141.828 63.9439 141.625 63.7127ZM141.47 66.2855C141.47 66.9738 141.316 67.4835 141.011 67.8154C140.706 68.1482 140.299 68.3142 139.787 68.3142C139.294 68.3142 138.891 68.14 138.576 67.7927C138.264 67.4445 138.106 66.9421 138.106 66.2864V65.677C138.122 65.044 138.286 64.5633 138.605 64.235C138.923 63.9067 139.317 63.7426 139.786 63.7426C140.288 63.7426 140.695 63.9113 141.003 64.2468C141.315 64.5833 141.469 65.0902 141.469 65.7713V66.2855H141.47ZM147.692 63.0978H148.656V68.9581H147.878V63.9893L147.15 65.2072L144.797 68.9581H143.832V63.0978H144.61V68.0793L145.339 66.8486L147.692 63.0978ZM154.982 63.0978H151.041V64.8553C151.041 65.3405 151.031 65.7504 151.012 66.0869C150.992 66.4233 150.959 66.7181 150.914 66.972C150.865 67.2259 150.799 67.4508 150.714 67.6458C150.628 67.8408 150.514 68.0448 150.373 68.2552H149.749V70.4825H150.527V68.959H155.029V70.4825H155.807V68.2552H154.984V63.0978H154.982ZM154.205 68.2543H151.278C151.373 68.0666 151.455 67.877 151.524 67.6866C151.595 67.4943 151.652 67.2704 151.695 67.0119C151.737 66.7543 151.77 66.4523 151.79 66.1041C151.81 65.7568 151.819 65.3405 151.819 64.8553V63.8006H154.205V68.2543ZM160.816 63.0978H161.781V68.9581H161.003V63.9893L160.274 65.2072L157.922 68.9581H156.958V63.0978H157.735V68.0793L158.464 66.8486L160.816 63.0978ZM167.037 63.0978H167.812V68.9581H167.037V66.7897C166.864 66.8287 166.653 66.8677 166.401 66.9067C166.151 66.9457 165.875 66.9656 165.577 66.9656C164.793 66.9656 164.225 66.7951 163.874 66.456C163.519 66.1168 163.342 65.5826 163.342 64.8562V63.0987H164.12V64.8562C164.12 65.3722 164.229 65.7359 164.441 65.9472C164.658 66.1585 165.036 66.2637 165.577 66.2637C165.875 66.2637 166.151 66.2447 166.401 66.2048C166.653 66.1658 166.864 66.1277 167.037 66.0878V63.0978ZM171.904 63.0153C171.136 63.0153 170.522 63.2529 170.066 63.7299C169.607 64.2069 169.378 64.8871 169.378 65.7704V66.2855C169.378 67.1769 169.604 67.858 170.06 68.3314C170.513 68.8039 171.13 69.0397 171.904 69.0397C172.266 69.0397 172.587 68.9934 172.869 68.8991C173.151 68.8057 173.394 68.6787 173.601 68.5182C173.804 68.3586 173.968 68.1691 174.093 67.9505C174.217 67.7319 174.313 67.4971 174.375 67.2477H173.574C173.46 67.5524 173.272 67.8063 173.016 68.0095C172.761 68.2126 172.393 68.3142 171.904 68.3142C171.379 68.3142 170.959 68.1455 170.647 67.8099C170.332 67.4735 170.178 66.9666 170.178 66.2864V66.251H174.433V65.7713C174.433 64.888 174.204 64.2078 173.744 63.7308C173.288 63.2538 172.674 63.0153 171.904 63.0153ZM170.178 65.5709C170.217 64.985 170.384 64.5334 170.686 64.2169C170.988 63.9004 171.395 63.7417 171.904 63.7417C172.399 63.7417 172.8 63.894 173.111 64.1997C173.42 64.5035 173.59 64.9605 173.622 65.5709H170.178ZM176.445 65.7704V66.2855C176.445 66.6056 176.488 66.894 176.573 67.147C176.659 67.4009 176.78 67.6141 176.937 67.7855C177.095 67.9578 177.275 68.0883 177.485 68.179C177.691 68.2688 177.922 68.3142 178.171 68.3142C178.594 68.3142 178.916 68.2199 179.136 68.0321C179.356 67.8453 179.526 67.5878 179.641 67.2586H180.464C180.346 67.7746 180.1 68.2008 179.726 68.5364C179.348 68.8719 178.831 69.0397 178.171 69.0397C177.797 69.0397 177.452 68.978 177.144 68.8529C176.832 68.7277 176.566 68.5481 176.343 68.3142C176.12 68.0793 175.946 67.7927 175.824 67.4526C175.703 67.1126 175.644 66.7244 175.644 66.2864V65.7713C175.644 65.3414 175.703 64.956 175.824 64.6168C175.946 64.2767 176.12 63.9875 176.343 63.7489C176.566 63.5104 176.832 63.3291 177.144 63.203C177.452 63.0779 177.797 63.0162 178.171 63.0162C178.502 63.0162 178.794 63.0588 179.047 63.1441C179.303 63.2311 179.526 63.3499 179.72 63.5023C179.91 63.6546 180.067 63.8315 180.189 64.0355C180.31 64.2387 180.402 64.4527 180.465 64.6794H179.641C179.527 64.4146 179.356 64.1915 179.133 64.011C178.906 63.8315 178.588 63.7417 178.171 63.7417C177.669 63.7417 177.256 63.9158 176.931 64.2631C176.606 64.6114 176.445 65.1138 176.445 65.7704ZM184.382 65.9218L186.558 68.9571H185.593L183.677 66.2619H182.63V68.9571H181.852V63.0969H182.63V65.5591H183.677L185.357 63.0969H186.321L184.382 65.9218ZM189.71 63.0153C189.356 63.0153 189.048 63.0561 188.779 63.1377C188.513 63.2202 188.29 63.3354 188.109 63.4832C187.929 63.632 187.791 63.8079 187.699 64.0101C187.604 64.2142 187.548 64.4364 187.535 64.6785H188.368C188.401 64.3901 188.523 64.1607 188.739 63.9929C188.955 63.8242 189.277 63.7399 189.71 63.7399C190.186 63.7399 190.53 63.8396 190.738 64.0392C190.944 64.2387 191.05 64.5488 191.05 64.9714V65.4992H189.711C189.272 65.4992 188.894 65.5428 188.582 65.628C188.267 65.7142 188.012 65.8348 187.811 65.9907C187.611 66.1467 187.467 66.3408 187.376 66.5711C187.287 66.8015 187.241 67.0572 187.241 67.3384C187.241 67.8698 187.398 68.286 187.71 68.5862C188.025 68.8873 188.475 69.0379 189.063 69.0379C189.512 69.0379 189.912 68.9345 190.27 68.7268C190.628 68.52 190.907 68.2289 191.11 67.8535L191.228 68.9553H191.829V64.9705C191.829 64.3529 191.649 63.8723 191.294 63.5286C190.934 63.1876 190.406 63.0153 189.71 63.0153ZM191.05 66.4732C191.05 66.7235 191.001 66.9593 190.902 67.1815C190.804 67.4037 190.669 67.5995 190.492 67.7673C190.315 67.936 190.108 68.0684 189.875 68.1654C189.639 68.2634 189.389 68.3123 189.121 68.3123C188.77 68.3123 188.5 68.2244 188.316 68.0484C188.133 67.8725 188.041 67.6367 188.041 67.3402C188.041 67.0037 188.165 66.7298 188.421 66.5194C188.677 66.3081 189.107 66.2029 189.71 66.2029H191.049V66.4732H191.05ZM193.891 63.5839C193.517 63.9086 193.329 64.3602 193.329 64.9379C193.329 65.336 193.415 65.6761 193.582 65.9572C193.753 66.2383 194.028 66.4496 194.412 66.5902L193.096 68.9581H193.989L195.176 66.7543C195.262 66.7698 195.354 66.7779 195.446 66.7779C195.541 66.7779 195.639 66.7779 195.741 66.7779H196.906V68.9581H197.68V63.0978H195.741C194.879 63.0978 194.262 63.2592 193.891 63.5839ZM196.906 66.0742H195.741C195.137 66.0742 194.718 65.9771 194.485 65.7813C194.248 65.5854 194.13 65.3042 194.13 64.9379C194.13 64.5715 194.248 64.2894 194.485 64.0945C194.718 63.8986 195.138 63.8006 195.741 63.8006H196.906V66.0742ZM202.455 63.0978H206.218V63.8006H203.232V68.9581H202.455V63.0978ZM211.725 63.7127C211.518 63.4823 211.275 63.3082 210.993 63.1912C210.711 63.0733 210.403 63.0153 210.064 63.0153C209.625 63.0153 209.244 63.1023 208.918 63.2783C208.593 63.4542 208.328 63.7226 208.124 64.0809L208.029 63.0969H207.428V71.3023H208.206V68.101C208.41 68.4212 208.669 68.6579 208.98 68.8102C209.295 68.9626 209.656 69.0379 210.063 69.0379C210.401 69.0379 210.709 68.9798 210.992 68.8619C211.274 68.7449 211.517 68.569 211.724 68.3341C211.928 68.0992 212.085 67.8109 212.2 67.4671C212.312 67.1234 212.371 66.7289 212.371 66.2837V65.7686C212.371 65.3151 212.312 64.917 212.2 64.5724C212.085 64.2305 211.928 63.9439 211.725 63.7127ZM211.57 66.2855C211.57 66.9738 211.416 67.4835 211.11 67.8154C210.806 68.1482 210.399 68.3142 209.887 68.3142C209.394 68.3142 208.991 68.14 208.676 67.7927C208.363 67.4445 208.206 66.9421 208.206 66.2864V65.677C208.222 65.044 208.386 64.5633 208.705 64.235C209.023 63.9067 209.417 63.7426 209.886 63.7426C210.388 63.7426 210.795 63.9113 211.103 64.2468C211.415 64.5833 211.569 65.0902 211.569 65.7713V66.2855H211.57ZM217.696 63.0978H218.52L215.347 71.3032H214.523L215.429 68.9581L212.994 63.0978H213.864L215.852 67.9968L217.696 63.0978ZM219.731 63.0978H224.318V68.9581H223.543V63.8006H220.508V68.9581H219.73V63.0978H219.731ZM226.234 63.0978H230.821V68.9581H230.046V63.8006H227.011V68.9581H226.233V63.0978H226.234ZM234.798 63.0153C234.444 63.0153 234.136 63.0561 233.866 63.1377C233.601 63.2202 233.378 63.3354 233.197 63.4832C233.016 63.632 232.878 63.8079 232.786 64.0101C232.691 64.2142 232.635 64.4364 232.622 64.6785H233.456C233.489 64.3901 233.61 64.1607 233.826 63.9929C234.043 63.8242 234.364 63.7399 234.797 63.7399C235.273 63.7399 235.618 63.8396 235.824 64.0392C236.031 64.2387 236.136 64.5488 236.136 64.9714V65.4992H234.798C234.358 65.4992 233.981 65.5428 233.67 65.628C233.355 65.7142 233.099 65.8348 232.899 65.9907C232.699 66.1467 232.554 66.3408 232.462 66.5711C232.374 66.8015 232.328 67.0572 232.328 67.3384C232.328 67.8698 232.485 68.286 232.797 68.5862C233.112 68.8873 233.561 69.0379 234.149 69.0379C234.599 69.0379 234.999 68.9345 235.357 68.7268C235.714 68.52 235.994 68.2289 236.196 67.8535L236.315 68.9553H236.915V64.9705C236.915 64.3529 236.735 63.8723 236.38 63.5286C236.022 63.1876 235.493 63.0153 234.798 63.0153ZM236.136 66.4732C236.136 66.7235 236.087 66.9593 235.989 67.1815C235.891 67.4037 235.756 67.5995 235.579 67.7673C235.401 67.936 235.195 68.0684 234.962 68.1654C234.725 68.2634 234.476 68.3123 234.207 68.3123C233.856 68.3123 233.587 68.2244 233.403 68.0484C233.219 67.8725 233.127 67.6367 233.127 67.3402C233.127 67.0037 233.252 66.7298 233.508 66.5194C233.763 66.3081 234.194 66.2029 234.797 66.2029H236.136V66.4732H236.136ZM97.3652 0H98.3433V92H97.3652V0ZM44.0257 77.1798C44.0757 77.4201 44.0839 77.6468 44.0503 77.8591C44.0166 78.0713 43.9429 78.2608 43.8292 78.4286C43.7154 78.5963 43.5644 78.7387 43.376 78.8575C43.1877 78.9763 42.9666 79.0625 42.7118 79.1151C42.5016 79.1586 42.2978 79.1722 42.1022 79.1559C41.9065 79.1396 41.7264 79.0933 41.5617 79.018C41.397 78.9428 41.2505 78.8394 41.1231 78.7079C40.9948 78.5773 40.8911 78.4168 40.8101 78.2281L41.6399 78.0567C41.7391 78.2055 41.8692 78.3061 42.0294 78.3597C42.1895 78.4132 42.366 78.4204 42.5589 78.3796C42.8092 78.3279 42.992 78.2127 43.1085 78.0332C43.2241 77.8536 43.2541 77.6269 43.1968 77.3512C43.1395 77.0755 43.0212 76.8787 42.8437 76.7599C42.6654 76.642 42.4516 76.6085 42.2013 76.6602C42.0303 76.6955 41.8865 76.7617 41.7719 76.8588C41.6572 76.9558 41.5753 77.0637 41.5271 77.1834L40.7637 77.3412L40.427 74.7349L43.094 74.1835L43.2386 74.879L41.2769 75.2853L41.4106 76.3255C41.599 76.1088 41.8556 75.9664 42.1804 75.8993C42.4043 75.853 42.6172 75.8476 42.8192 75.8839C43.0212 75.9201 43.2032 75.9936 43.3633 76.107C43.5243 76.2203 43.6626 76.3672 43.7782 76.5486C43.8929 76.7282 43.9757 76.9386 44.0257 77.1798ZM39.7064 77.0429C39.6782 76.642 39.6172 76.3028 39.5226 76.0272C39.427 75.7515 39.3006 75.5293 39.1432 75.3615C38.9857 75.1928 38.8001 75.0749 38.5863 75.006C38.3725 74.938 38.1359 74.9126 37.8766 74.9298C37.6172 74.9471 37.387 75.0042 37.1878 75.1003C36.9876 75.1974 36.8211 75.3407 36.6882 75.5302C36.5554 75.7206 36.4589 75.9591 36.3998 76.2457C36.3406 76.5314 36.3252 76.8733 36.3516 77.2696L36.3752 77.6169C36.4025 78.0187 36.4653 78.3569 36.5627 78.6326C36.66 78.9074 36.7865 79.1305 36.9421 79.2983C37.0977 79.4669 37.2815 79.5848 37.4953 79.6538C37.7091 79.7218 37.9457 79.7472 38.205 79.7299C38.4644 79.7127 38.6946 79.6556 38.8948 79.5594C39.094 79.4633 39.2614 79.32 39.3943 79.1287C39.5271 78.9382 39.6236 78.7006 39.6818 78.4141C39.741 78.1284 39.7573 77.7865 39.73 77.3902L39.7064 77.0429ZM38.8775 78.1774C38.8529 78.3696 38.8083 78.5238 38.7437 78.6399C38.68 78.756 38.5981 78.8403 38.498 78.892C38.3979 78.9437 38.2833 78.9736 38.1541 78.9827C38.0249 78.9917 37.9075 78.9772 37.8038 78.9391C37.7001 78.9011 37.6072 78.8285 37.5263 78.7197C37.4444 78.6108 37.3779 78.463 37.327 78.2762C37.276 78.0894 37.2405 77.8509 37.2205 77.5616L37.1969 77.2134C37.1769 76.9195 37.1796 76.6765 37.2042 76.4842C37.2287 76.292 37.2742 76.1378 37.3379 76.0217C37.4016 75.9056 37.4835 75.8213 37.5836 75.7696C37.6837 75.7179 37.7983 75.688 37.9284 75.6789C38.0531 75.6708 38.1687 75.6853 38.2751 75.7225C38.3807 75.7605 38.4735 75.8331 38.5535 75.9419C38.6327 76.0507 38.6991 76.1986 38.7528 76.3854C38.8056 76.5722 38.8429 76.8107 38.862 77.1L38.8857 77.4482C38.9048 77.7421 38.902 77.986 38.8775 78.1774ZM31.3143 75.5275C31.348 75.7152 31.3435 75.9111 31.3007 76.1169C31.247 76.3754 31.1105 76.6112 30.8912 76.8252C30.6729 77.0401 30.3535 77.2705 29.9358 77.5163L28.7057 78.239L30.7657 78.6689L30.6192 79.3645L27.5255 78.7197L27.6711 78.0241L29.4572 76.9105C29.6319 76.8007 29.7802 76.7037 29.9031 76.6202C30.0259 76.5359 30.126 76.457 30.2034 76.3817C30.2807 76.3065 30.3407 76.2348 30.3826 76.1659C30.4245 76.097 30.4536 76.0235 30.47 75.9446C30.5127 75.7433 30.4827 75.5683 30.3808 75.4196C30.2798 75.2708 30.1169 75.1729 29.8931 75.1266C29.6692 75.0795 29.4809 75.1067 29.3271 75.2073C29.1733 75.308 29.0714 75.4758 29.0223 75.7116L28.1925 75.5393C28.2398 75.3162 28.3171 75.1212 28.4254 74.9543C28.5337 74.7875 28.6674 74.6551 28.8285 74.5562C28.9886 74.4574 29.1724 74.393 29.3772 74.3621C29.5828 74.3322 29.8057 74.3422 30.0478 74.3921C30.2889 74.4419 30.4982 74.5217 30.6747 74.6287C30.8512 74.7367 30.9931 74.8664 31.1014 75.0187C31.2097 75.1702 31.2807 75.3407 31.3143 75.5275ZM35.055 75.5266C34.9221 75.3379 34.7547 75.1956 34.5527 75.0976C34.3507 75.0006 34.1196 74.9425 33.8603 74.9235C33.6009 74.9044 33.3653 74.9298 33.1542 74.9969C32.9422 75.065 32.7575 75.1838 32.5991 75.3534C32.4408 75.5238 32.3125 75.746 32.2142 76.0217C32.116 76.2965 32.0523 76.6329 32.0241 77.0293L31.9995 77.3766C31.9704 77.7774 31.9849 78.1211 32.0432 78.4077C32.1014 78.6943 32.1951 78.9319 32.3262 79.1205C32.4563 79.3091 32.6228 79.4515 32.8248 79.5495C33.0268 79.6465 33.2579 79.7046 33.5163 79.7236C33.7756 79.7417 34.0113 79.7172 34.2224 79.6501C34.4344 79.5821 34.6191 79.4633 34.7774 79.2928C34.9358 79.1223 35.0641 78.9001 35.1623 78.6245C35.2606 78.3488 35.3243 78.0132 35.3525 77.6169L35.378 77.2696C35.4071 76.8687 35.3934 76.525 35.337 76.2385C35.2815 75.9528 35.1869 75.7152 35.055 75.5266ZM34.5327 77.2088L34.5072 77.5562C34.4863 77.85 34.4499 78.0903 34.398 78.2771C34.3461 78.4639 34.2806 78.6099 34.2015 78.717C34.1214 78.8231 34.0286 78.8947 33.923 78.9319C33.8166 78.9691 33.6992 78.9827 33.5691 78.9736C33.439 78.9645 33.3261 78.9337 33.2288 78.882C33.1314 78.8303 33.0495 78.7451 32.984 78.6263C32.9185 78.5075 32.873 78.3524 32.8494 78.1601C32.8248 77.9679 32.823 77.7266 32.8439 77.4373L32.8685 77.09C32.8894 76.7962 32.9258 76.5559 32.9776 76.369C33.0295 76.1822 33.095 76.0362 33.1742 75.9292C33.2533 75.8231 33.3471 75.7515 33.4526 75.7143C33.5591 75.6771 33.6765 75.6635 33.8066 75.6726C33.9321 75.6816 34.0441 75.7116 34.1441 75.7642C34.2442 75.8168 34.3252 75.9011 34.3889 76.0199C34.4526 76.1387 34.4972 76.2938 34.5236 76.4869C34.55 76.6783 34.5527 76.9195 34.5327 77.2088ZM7.32291 30.968C7.18096 30.4484 7.2856 29.9052 7.63682 29.3384C7.78241 29.1035 7.94801 28.9131 8.13363 28.7652C8.32016 28.6174 8.51579 28.5113 8.72143 28.446C8.92707 28.3807 9.13725 28.3544 9.35199 28.368C9.56582 28.3807 9.77328 28.427 9.97255 28.5068L9.50031 29.2686C9.27647 29.2123 9.05628 29.216 8.84245 29.2813C8.62862 29.3475 8.44664 29.5016 8.2965 29.7438C8.08541 30.0838 8.02808 30.4067 8.12271 30.7141C8.21734 31.0206 8.49031 31.3118 8.94163 31.5902L9.25918 31.7851C9.69503 32.0536 10.0799 32.1561 10.4129 32.0935C10.7469 32.0318 11.0098 31.8441 11.2046 31.5312C11.3884 31.2338 11.4612 30.959 11.4229 30.706C11.3847 30.4529 11.2091 30.2054 10.8979 29.9659L10.2446 31.0216L9.64407 30.6525L10.715 28.9221L11.0217 29.1108C11.6413 29.4916 12.0171 29.9279 12.149 30.4194C12.281 30.9109 12.1863 31.416 11.8642 31.9366C11.6923 32.215 11.4966 32.4372 11.2764 32.6041C11.0562 32.7709 10.816 32.8825 10.554 32.9369C10.2919 32.9931 10.0144 32.9859 9.72051 32.9187C9.42661 32.8516 9.11997 32.7201 8.80241 32.5242L8.48304 32.3293C7.85156 31.9411 7.46485 31.4877 7.32291 30.968ZM22.5265 21.8458L20.4719 17.4773L23.2899 16.1606L23.6011 16.8217L21.5347 17.7866L22.0661 18.9166L23.7567 18.1267L24.0679 18.7878L22.3773 19.5777L22.9669 20.8319L25.0333 19.867L25.3445 20.5281L22.5265 21.8458ZM16.6986 20.6505L16.3009 20.0365L19.4965 17.9807L19.8941 18.5946L18.6448 19.3981L20.8723 22.8379L20.1744 23.2868L17.9469 19.847L16.6986 20.6505ZM26.7029 20.0683L26.1661 18.3289L27.1242 18.0351L28.5137 19.5124L29.4126 19.2367L27.8403 17.6569C28.0969 17.4583 28.2616 17.2261 28.3344 16.9613C28.4072 16.6965 28.3954 16.4099 28.3007 16.1025C28.1624 15.6545 27.9122 15.3471 27.5483 15.1784C27.1852 15.0115 26.6957 15.0215 26.0788 15.2111L24.4855 15.6999L25.9086 20.3113L26.7029 20.0683ZM26.2953 15.9103C26.6256 15.8087 26.8858 15.8014 27.0769 15.8876C27.2671 15.9728 27.3981 16.1306 27.4682 16.3592C27.5373 16.5832 27.5182 16.7854 27.409 16.965C27.3008 17.1445 27.0806 17.2851 26.7503 17.3867L25.9505 17.6315L25.4955 16.156L26.2953 15.9103ZM13.2473 29.7519L9.53943 26.6504L11.5403 24.2744L12.1017 24.7442L10.635 26.4863L11.5931 27.2879L12.7933 25.8614L13.3556 26.3312L12.1545 27.7568L13.22 28.6474L14.6868 26.9052L15.2482 27.3741L13.2473 29.7519ZM31.5791 18.8966L30.9304 14.1155L31.7529 14.0049L32.4017 18.786L31.5791 18.8966ZM15.6403 26.9406L12.432 23.3267L13.3019 22.5595L16.6531 23.8382L17.2918 24.1211L14.7623 21.2717L15.3837 20.724L18.5921 24.337L17.7222 25.1042L14.371 23.8255L13.7368 23.548L16.2618 26.3919L15.6403 26.9406ZM63.5777 41.5168L68.3756 40.8784L68.7878 43.9536L68.0608 44.0498L67.7587 41.7953L66.5176 41.9603L66.7642 43.8058L66.0381 43.9019L65.7915 42.0573L64.4139 42.2396L64.716 44.495L63.989 44.5921L63.5777 41.5168ZM59.5796 31.4333L63.8197 29.1053L64.3803 30.1192L62.3958 33.0983L61.9781 33.6578L65.322 31.8223L65.7224 32.5469L61.4822 34.8758L60.9217 33.861L62.9071 30.8819L63.3184 30.3251L59.9809 32.1588L59.5796 31.4333ZM62.848 38.662C63.0554 39.3811 63.4021 39.8772 63.8853 40.1502C64.3693 40.4222 64.9508 40.4621 65.6286 40.2672L66.0008 40.1602C66.6869 39.9643 67.1618 39.6251 67.423 39.1435C67.685 38.662 67.7105 38.0571 67.5012 37.328L67.0617 35.8035L62.4094 37.1366L62.848 38.662ZM66.5868 36.802L66.7961 37.5311C66.9271 37.9855 66.908 38.3636 66.7387 38.6656C66.5686 38.9676 66.2428 39.188 65.7597 39.3267L65.3875 39.4337C64.8998 39.5734 64.5058 39.5607 64.2037 39.3966C63.9026 39.2324 63.686 38.9205 63.5522 38.4607L63.343 37.7315L66.5868 36.802ZM10.1018 35.0826L5.72512 33.0212L6.07998 32.274L10.4566 34.3344L10.1018 35.0826ZM53.8645 25.0733L53.2494 24.5192L56.4941 20.9389L57.3567 21.7152L56.4559 25.1767L56.2448 25.8415L58.8044 23.0184L59.4204 23.5725L56.1747 27.1528L55.3131 26.3765L56.2139 22.915L56.4195 22.2557L53.8645 25.0733ZM42.3897 19.3528L43.5853 14.6778L44.3897 14.8819L43.194 19.5577L42.3897 19.3528ZM39.3388 18.8014L38.2296 13.7755L39.1204 13.8997L39.953 17.9135L41.75 14.267L42.6126 14.3876L40.2978 18.9365L39.3388 18.8014ZM33.2643 18.6309L33.1687 13.8072L34.3307 13.7836L36.0531 16.9205L36.3561 17.549L36.2806 13.7446L37.1104 13.7283L37.2069 18.552L36.0449 18.5747L34.3225 15.4378L34.0195 14.8157L34.095 18.6128L33.2643 18.6309ZM45.2595 18.4776C45.1658 18.7978 45.1631 19.0462 45.2523 19.224C45.3414 19.4017 45.5352 19.5459 45.8328 19.6557C46.1449 19.7708 46.3942 19.7962 46.5825 19.7327C46.7709 19.6684 46.8964 19.5532 46.9583 19.3836C47.0211 19.2149 47.0065 19.0617 46.9146 18.9247C46.8228 18.7878 46.6926 18.6554 46.5243 18.5266C46.356 18.3978 46.1713 18.2663 45.9711 18.1312C45.7709 17.9961 45.5926 17.8464 45.4379 17.6814C45.2823 17.5163 45.1722 17.3295 45.1076 17.1191C45.043 16.9096 45.0621 16.6666 45.164 16.39C45.2313 16.2086 45.3278 16.0554 45.4543 15.9275C45.5798 15.8005 45.7318 15.7044 45.911 15.6409C46.0894 15.5765 46.2941 15.552 46.5243 15.5656C46.7554 15.5792 47.0093 15.6373 47.2859 15.7389C47.84 15.9429 48.2003 16.2122 48.3687 16.5469C48.5379 16.8815 48.5488 17.2987 48.4023 17.7993L47.5725 17.4937C47.6471 17.2261 47.6435 17.0139 47.5616 16.8561C47.4797 16.6983 47.2968 16.5668 47.0111 16.4616C46.7172 16.3537 46.4861 16.3283 46.3168 16.3864C46.1476 16.4435 46.0357 16.5487 45.9793 16.7001C45.9192 16.8598 45.9365 17.0049 46.0311 17.1354C46.1249 17.266 46.2568 17.3939 46.426 17.5209C46.5962 17.6469 46.7809 17.7775 46.9811 17.9126C47.1822 18.0478 47.3596 18.1983 47.5134 18.3661C47.668 18.5329 47.7754 18.7243 47.8382 18.941C47.901 19.1578 47.8782 19.4099 47.7718 19.6983C47.6999 19.8924 47.5989 20.0565 47.4706 20.1925C47.3414 20.3286 47.1849 20.4283 47.002 20.4927C46.8182 20.5571 46.6062 20.5825 46.366 20.5671C46.1258 20.5526 45.8582 20.49 45.5644 20.3821C44.9984 20.1735 44.6262 19.8905 44.4488 19.5341C44.2714 19.1777 44.265 18.7243 44.4297 18.1729L45.2595 18.4776ZM48.4551 20.9144C48.5224 21.1756 48.6462 21.4159 48.8273 21.6354C49.0083 21.8539 49.2395 22.0417 49.5206 22.1995C49.7981 22.3545 50.0784 22.4507 50.3605 22.4897C50.6425 22.5286 50.9137 22.5069 51.173 22.4253C51.4323 22.3436 51.678 22.204 51.9073 22.0054C52.1375 21.8068 52.3404 21.5519 52.516 21.2391L52.6916 20.9262C52.8691 20.6097 52.9828 20.3023 53.0328 20.0066C53.082 19.7101 53.0747 19.4308 53.0083 19.1678C52.9419 18.9048 52.819 18.6635 52.6379 18.4441C52.4569 18.2246 52.2258 18.0369 51.9446 17.88C51.6671 17.7258 51.3868 17.6297 51.1029 17.5925C50.82 17.5562 50.5488 17.578 50.2904 17.6569C50.0311 17.7367 49.7872 17.8755 49.557 18.0741C49.3268 18.2727 49.1248 18.5275 48.9483 18.8413L48.7736 19.1532C48.5952 19.4707 48.4815 19.7781 48.4305 20.0764C48.3796 20.373 48.3878 20.6523 48.4551 20.9144ZM49.5343 19.5768L49.7099 19.2639C49.9574 18.8231 50.2449 18.5475 50.5734 18.4377C50.9009 18.3289 51.2321 18.367 51.5661 18.5529C51.7271 18.6427 51.86 18.7551 51.9637 18.8893C52.0674 19.0236 52.1384 19.1732 52.1748 19.3392C52.2112 19.5042 52.2103 19.6856 52.1712 19.8815C52.132 20.0783 52.052 20.285 51.93 20.5018L51.7544 20.8146C51.5069 21.2563 51.2185 21.5311 50.8882 21.639C50.5579 21.7478 50.2285 21.7097 49.8982 21.5256C49.5725 21.3443 49.3687 21.0831 49.2868 20.743C49.2067 20.402 49.2886 20.0139 49.5343 19.5768ZM59.4977 25.5014C59.2093 25.5966 58.9245 25.7562 58.6415 25.9784L58.3594 26.2015C58.0737 26.4273 57.8508 26.6676 57.6897 26.9234C57.5287 27.18 57.4295 27.4412 57.3913 27.7087C57.354 27.9754 57.3758 28.2447 57.4595 28.5168C57.5423 28.7879 57.6843 29.0491 57.8854 29.3021C58.0819 29.5497 58.3039 29.7465 58.5496 29.8889C58.7962 30.0312 59.0546 30.1156 59.3257 30.1383C59.5969 30.1618 59.8762 30.1246 60.1647 30.0285C60.4531 29.9324 60.7388 29.7728 61.0209 29.5515L61.3039 29.3284C61.5887 29.1035 61.8116 28.8632 61.9708 28.6084C62.1301 28.3535 62.2292 28.0914 62.2693 27.8239C62.3084 27.5555 62.2866 27.2852 62.2038 27.0141C62.121 26.7429 61.979 26.4808 61.7779 26.2287C61.5805 25.9802 61.3585 25.7843 61.1101 25.6438C60.8617 25.5023 60.6032 25.4189 60.3339 25.3944C60.0646 25.3708 59.7861 25.4062 59.4977 25.5014ZM61.171 26.7084C61.2848 26.8526 61.3648 27.0068 61.4103 27.1709C61.4549 27.3342 61.4622 27.5002 61.434 27.6661C61.4049 27.833 61.3348 27.9998 61.2229 28.1667C61.1119 28.3336 60.9581 28.4941 60.7634 28.6483L60.4813 28.8713C60.0828 29.1851 59.7115 29.3293 59.3649 29.3039C59.0173 29.2776 58.727 29.1171 58.4923 28.8224C58.2602 28.5304 58.172 28.212 58.2266 27.8665C58.2821 27.521 58.5068 27.1936 58.8999 26.8826L59.182 26.6604C59.5796 26.3466 59.9508 26.2015 60.2966 26.2251C60.6415 26.2487 60.9326 26.4092 61.171 26.7084ZM65.6805 60.1187C65.7251 60.3028 65.7278 60.5078 65.6878 60.7354C65.6487 60.9621 65.5622 61.2079 65.4303 61.47C65.1664 61.9959 64.8579 62.3242 64.5058 62.4548C64.1546 62.5845 63.7369 62.5501 63.2538 62.3496L63.6505 61.5616C63.9089 61.6649 64.1209 61.6849 64.2874 61.6214C64.4549 61.5579 64.6059 61.3911 64.7424 61.1199C64.8825 60.8397 64.9335 60.613 64.8943 60.4397C64.8552 60.2656 64.7633 60.1423 64.6186 60.0707C64.4649 59.9936 64.3184 59.9954 64.1783 60.0743C64.0372 60.1532 63.8944 60.2692 63.7506 60.4234C63.6059 60.5776 63.4549 60.7463 63.2984 60.9304C63.1419 61.1145 62.9717 61.2741 62.7879 61.4083C62.6041 61.5425 62.4012 61.6287 62.1792 61.6667C61.9563 61.7048 61.7079 61.655 61.4313 61.5171C61.2465 61.4246 61.0928 61.3076 60.9708 61.1643C60.8489 61.022 60.767 60.8551 60.7224 60.6674C60.6779 60.4778 60.6769 60.2656 60.7188 60.0289C60.7607 59.7931 60.8507 59.5347 60.9918 59.2554C61.262 58.7167 61.5841 58.3793 61.9599 58.2424C62.3348 58.1063 62.7879 58.1499 63.3193 58.3739L62.9226 59.1629C62.6141 59.0341 62.3657 59.0042 62.1783 59.0722C61.9908 59.1411 61.8261 59.3179 61.6833 59.6C61.535 59.8956 61.4813 60.1405 61.525 60.3346C61.5677 60.5277 61.6696 60.6647 61.8307 60.7454C61.9927 60.8261 62.1473 60.8288 62.2938 60.7526C62.4403 60.6764 62.5868 60.5622 62.7342 60.4098C62.8816 60.2566 63.0336 60.0888 63.1892 59.9047C63.3466 59.7206 63.5149 59.561 63.6969 59.4259C63.8789 59.2898 64.0782 59.2019 64.2938 59.161C64.5113 59.1202 64.7515 59.1647 65.0145 59.2971C65.1882 59.3832 65.3311 59.4957 65.4439 59.6344C65.5586 59.7732 65.6377 59.9346 65.6805 60.1187ZM60.2857 65.6334H59.0164L58.1192 64.7393L57.222 65.6334H55.9527V66.8985L55.0556 67.7927L55.9527 68.6869V69.952H57.222L58.1192 70.8462L59.0164 69.952H60.2857V68.6869L61.1828 67.7927L60.2857 66.8985V65.6334ZM59.5932 67.9958L59.3057 68.2815V68.686V68.9735H59.0173H58.6115L58.3248 69.2591L58.121 69.4623L57.9154 69.26L57.6288 68.9744H57.2229H56.9345V68.6869V68.2824L56.6479 67.9958L56.4432 67.7927L56.6479 67.5896L56.9345 67.303V66.8985V66.6111H57.2229H57.6288L57.9154 66.3254L58.1201 66.1222L58.3239 66.3254L58.6105 66.6111H59.0164H59.3048V66.8985V67.303L59.5923 67.5896L59.7962 67.7927L59.5932 67.9958ZM68.1563 44.992L68.8897 45.0047L68.8279 48.7954L68.0945 48.7827L68.119 47.3009L64.0117 47.2347L64.0254 46.4076L68.1327 46.4738L68.1563 44.992ZM62.363 56.2309L66.8934 57.9322L66.6013 58.7067L62.0709 57.0054L62.363 56.2309ZM35.7984 11.0294C16.0598 11.0294 0 27.0349 0 46.7087C0 66.3825 16.0598 82.3871 35.7984 82.3871C55.5369 82.3871 71.5967 66.3816 71.5967 46.7078C71.5967 27.034 55.5378 11.0294 35.7984 11.0294ZM35.7984 81.4104C16.5994 81.4104 0.980879 65.8429 0.980879 46.7087C0.980879 27.5745 16.6003 12.0061 35.7984 12.0061C54.9964 12.0061 70.6158 27.5736 70.6158 46.7078C70.6158 65.842 54.9973 81.4104 35.7984 81.4104ZM63.3666 52.8873L68.0362 54.1587L67.817 54.9568L63.8543 53.8776L63.2893 55.9389L62.5832 55.7458L63.3666 52.8873ZM63.9544 49.0512L65.1164 49.6053L64.8798 51.4172L63.6132 51.663L63.4958 52.5662L68.5194 51.4807L68.645 50.524L64.0682 48.1924L63.9544 49.0512ZM65.8115 49.939L66.8161 50.4242L67.7615 50.8731L66.7324 51.0663L65.6386 51.2712L65.8115 49.939ZM35.7583 52.8011V52.7957C35.1851 52.7812 34.9076 52.6415 34.6428 52.4692C34.4844 52.3658 34.3898 52.3051 34.0231 52.3051C33.63 52.3051 33.0068 52.0076 33.0068 51.2096H33.9867C33.9867 51.2776 33.9995 51.312 34.004 51.3175C34.6309 51.3284 34.9057 51.4744 35.1778 51.6521C35.3307 51.7519 35.4408 51.8172 35.8002 51.8226C36.1587 51.8172 36.2688 51.7519 36.4216 51.6521C36.6937 51.4744 36.9685 51.3284 37.5763 51.3284C37.6 51.312 37.6127 51.2785 37.6127 51.2096H38.5927C38.5927 52.0076 37.9685 52.3051 37.5754 52.3051C37.2096 52.3051 37.1141 52.3667 36.9557 52.4692C36.6919 52.6415 36.4134 52.7812 35.8411 52.7957V52.8011C35.8247 52.8011 35.8147 52.7984 35.7984 52.7984C35.7847 52.7984 35.7747 52.8011 35.7583 52.8011ZM8.54855 54.0544L6.77242 54.477L6.53948 53.5049L8.10907 52.218L7.8916 51.3057L6.20828 52.7685C6.02539 52.5 5.80428 52.3214 5.54314 52.2316C5.2829 52.1427 4.99537 52.1355 4.68146 52.2098C4.22377 52.3187 3.89985 52.5481 3.70877 52.8982C3.51769 53.2482 3.49676 53.7352 3.6469 54.3619L4.0327 55.9779L8.74145 54.8597L8.54855 54.0544ZM4.55225 55.0039L4.35844 54.1923C4.27837 53.8567 4.28747 53.5983 4.38574 53.4133C4.48401 53.2292 4.65052 53.1104 4.88345 53.0541C5.11184 52.9988 5.31293 53.0324 5.48581 53.1521C5.6587 53.2718 5.78608 53.4985 5.86615 53.8341L6.05996 54.6457L4.55225 55.0039ZM5.24833 51.2476L5.60683 51.2195C5.96988 51.1914 6.29017 51.1161 6.56769 50.9937C6.84521 50.8704 7.0736 50.709 7.25467 50.5085C7.43574 50.3072 7.56767 50.0723 7.65047 49.8003C7.73327 49.5282 7.76239 49.2335 7.73782 48.9115C7.71326 48.595 7.63865 48.3094 7.5149 48.0536C7.39115 47.7988 7.22282 47.5866 7.01081 47.4152C6.7988 47.2447 6.54585 47.1195 6.25286 47.0388C5.95987 46.9572 5.63413 46.9309 5.27562 46.9581L4.91712 46.9862C4.55407 47.0152 4.23469 47.0905 3.9599 47.2129C3.68511 47.3354 3.45582 47.4968 3.27292 47.6972C3.08912 47.8985 2.95628 48.1343 2.87348 48.4055C2.79068 48.6766 2.76156 48.9732 2.78704 49.2942C2.8116 49.6098 2.88713 49.8955 3.0136 50.1512C3.14008 50.4061 3.3075 50.6192 3.51769 50.7897C3.72788 50.9602 3.97901 51.0862 4.272 51.1669C4.56408 51.2486 4.88982 51.2758 5.24833 51.2476ZM3.55864 49.2353C3.54408 49.053 3.56409 48.8807 3.61869 48.7184C3.67328 48.5578 3.75972 48.4164 3.8771 48.2939C3.99539 48.1715 4.14643 48.0727 4.33205 47.9956C4.51858 47.9194 4.73514 47.8713 4.98354 47.8523L5.34296 47.8242C5.84886 47.7852 6.23739 47.8722 6.51127 48.0854C6.78425 48.3003 6.9362 48.595 6.96532 48.9705C6.99443 49.3414 6.88888 49.6552 6.64958 49.9109C6.41118 50.1666 6.04085 50.3136 5.5395 50.3535L5.18099 50.3816C4.67509 50.4197 4.28565 50.3344 4.01268 50.1231C3.7397 49.9118 3.58775 49.6162 3.55864 49.2353ZM7.83882 42.9388C7.94619 42.197 7.83518 41.603 7.5058 41.1568C7.17641 40.7097 6.66323 40.4368 5.96533 40.337L5.58226 40.2817C4.87527 40.1801 4.30294 40.2953 3.86618 40.6272C3.42943 40.96 3.15646 41.5005 3.04818 42.2514L2.82161 43.8203L7.61317 44.5068L7.83882 42.9388ZM7.11363 42.8336L7.00535 43.5845L3.66509 43.1048L3.77337 42.3548C3.84071 41.8859 4.0145 41.5486 4.29384 41.3436C4.57227 41.1378 4.9608 41.0707 5.45851 41.1414L5.84158 41.1967C6.34385 41.2693 6.69871 41.4407 6.90617 41.7155C7.11181 41.9875 7.18096 42.3611 7.11363 42.8336ZM8.8288 38.3337L4.27746 36.6895L4.56044 35.9114L8.42207 37.308L9.15273 35.2993L9.84243 35.5487L8.8288 38.3337ZM8.39387 39.996L3.70968 38.779L3.91896 37.9791L8.60314 39.1952L8.39387 39.996ZM8.32926 58.4102L8.02262 57.642C7.79424 57.0698 7.4876 56.6916 7.10089 56.5093C6.71509 56.3252 6.29745 56.3225 5.84795 56.5012C5.36752 56.6916 5.05543 56.9746 4.91075 57.3509C4.76608 57.7273 4.81339 58.217 5.05361 58.8183L5.66688 60.3563L10.1645 58.5725L9.8579 57.8044L8.32926 58.4102ZM6.04176 59.3179L5.73513 58.5489C5.60683 58.2288 5.58408 57.9676 5.66415 57.7654C5.74514 57.5622 5.91347 57.4108 6.17097 57.3083C6.41482 57.2113 6.64048 57.2113 6.84794 57.3074C7.0554 57.4026 7.21918 57.6049 7.34201 57.9123L7.64865 58.6804L6.04176 59.3179ZM38.811 70.7655C39.2523 71.1491 39.8219 71.3894 40.4516 71.3894C41.8356 71.3894 42.9611 70.2667 42.9611 68.8873C42.9611 68.6515 42.9174 68.4266 42.8565 68.2099C42.9729 68.2289 43.0903 68.2452 43.2122 68.2452C43.3688 68.2452 43.5207 68.2262 43.6672 68.1945V67.176C43.5271 67.235 43.3733 67.2676 43.2122 67.2676C42.568 67.2676 42.0439 66.7453 42.0439 66.1032C42.0439 65.4611 42.568 64.9388 43.2122 64.9388C43.3733 64.9388 43.5271 64.9714 43.6672 65.0304V64.0119C43.5207 63.9802 43.3688 63.9611 43.2122 63.9611C42.0276 63.9611 41.064 64.9215 41.064 66.1023C41.064 66.2311 41.0803 66.3562 41.1022 66.4786C40.8938 66.4224 40.6782 66.3834 40.4525 66.3834C39.3442 66.3834 38.4125 67.1071 38.0804 68.102C37.509 67.4599 36.6855 67.0464 35.7583 67.0464C34.8329 67.0464 34.0095 67.459 33.4381 68.1001C33.1078 67.1035 32.1742 66.3771 31.0641 66.3771C30.8376 66.3771 30.6228 66.417 30.4135 66.4732C30.4354 66.3508 30.4518 66.2247 30.4518 66.0959C30.4518 64.9152 29.4882 63.9548 28.3035 63.9548C28.1752 63.9548 28.0505 63.9711 27.9286 63.9929V65.0077C28.0478 64.9669 28.1706 64.9324 28.3035 64.9324C28.9477 64.9324 29.4718 65.4548 29.4718 66.0969C29.4718 66.7389 28.9477 67.2613 28.3035 67.2613C28.1706 67.2613 28.0478 67.2268 27.9286 67.186V68.2008C28.0505 68.2226 28.1752 68.2389 28.3035 68.2389C28.4254 68.2389 28.5428 68.2226 28.6602 68.2026C28.5983 68.4194 28.5546 68.6434 28.5546 68.8801C28.5546 70.2594 29.6811 71.3821 31.065 71.3821C31.6947 71.3821 32.2643 71.1418 32.7056 70.7582C32.9895 72.1802 34.2497 73.2566 35.7592 73.2566C37.2651 73.2575 38.5253 72.1847 38.811 70.7655ZM40.4525 67.3619C41.296 67.3619 41.9821 68.0457 41.9821 68.8873C41.9821 69.7289 41.296 70.4127 40.4525 70.4127C39.609 70.4127 38.9221 69.7289 38.9221 68.8873C38.9221 68.0457 39.609 67.3619 40.4525 67.3619ZM31.065 70.4054C30.2215 70.4054 29.5355 69.7216 29.5355 68.8801C29.5355 68.0394 30.2215 67.3556 31.065 67.3556C31.9085 67.3556 32.5955 68.0394 32.5955 68.8801C32.5946 69.7216 31.9085 70.4054 31.065 70.4054ZM35.7583 72.2809C34.5818 72.2809 33.6237 71.3259 33.6237 70.1533C33.6237 68.9798 34.5809 68.0267 35.7583 68.0267C36.9357 68.0267 37.893 68.9807 37.893 70.1533C37.893 71.3259 36.9357 72.2809 35.7583 72.2809ZM15.6431 65.6334H14.3738L13.4766 64.7393L12.5794 65.6334H11.3101V66.8985L10.4129 67.7927L11.3101 68.6869V69.952H12.5794L13.4766 70.8462L14.3738 69.952H15.6431V68.6869L16.5402 67.7927L15.6431 66.8985V65.6334ZM14.9506 67.9958L14.6631 68.2815V68.686V68.9735H14.3747H13.9688L13.6822 69.2591L13.4784 69.4623L13.2746 69.2591L12.9871 68.9735H12.5812H12.2928V68.686V68.2815L12.0062 67.9949L11.8024 67.7918L12.0062 67.5887L12.2928 67.3021V66.8976V66.6101H12.5812H12.9871L13.2746 66.3245L13.4784 66.1213L13.6822 66.3245L13.9688 66.6101H14.3747H14.6631V66.8976V67.3021L14.9506 67.5887L15.1545 67.7918L14.9506 67.9958ZM31.5236 44.4315C31.5136 45.2341 30.9249 45.9034 30.1105 46.024L29.9577 46.0349C29.8949 46.0376 29.8321 46.0413 29.763 46.0413C29.2671 45.9941 28.8531 45.7574 28.5774 45.4173L29.2825 44.7145C29.3863 44.904 29.5746 45.0437 29.8103 45.0664L29.9859 45.0546C30.3125 44.9974 30.5473 44.7299 30.5473 44.4125C30.5473 44.2919 30.5091 44.1876 30.4609 44.1042C30.4317 44.0987 30.3899 44.0833 30.3562 44.0742C30.1915 44.0552 30.0223 44.0398 29.8321 44.0398C29.8185 44.0398 29.8094 44.0425 29.7957 44.0425C29.7821 44.0425 29.7711 44.0398 29.7575 44.0398C28.8694 44.0398 28.3017 44.2765 27.9422 44.5231C27.4454 44.8324 27.1834 45.2069 27.056 45.4518V43.9872C27.4318 43.6399 28.046 43.2735 28.9768 43.132L28.9677 43.1229C29.1833 43.0903 29.4208 43.0749 29.6674 43.0712C29.7002 43.0703 29.7247 43.0631 29.7584 43.0631C29.7802 43.0631 29.7957 43.0676 29.8176 43.0676C30.0196 43.0712 30.2297 43.0894 30.4463 43.1193C30.5855 43.1374 30.7193 43.1574 30.8457 43.1855C30.8467 43.1855 30.8485 43.1855 30.8494 43.1864L31.0095 43.2209L31.0186 43.2308C31.6374 43.3923 32.1105 43.6462 32.4344 43.9047V44.7154H31.9103C31.8002 44.6156 31.6756 44.5186 31.5236 44.4315ZM42.8028 43.1483C43.6408 43.307 44.194 43.6598 44.5471 43.9863V45.4509C44.4197 45.206 44.1576 44.8315 43.6608 44.5222C43.5798 44.4669 43.4843 44.4125 43.3815 44.3608C43.3824 44.378 43.3869 44.3953 43.3869 44.4125C43.3869 45.2559 42.7427 45.956 41.8401 46.0413C41.771 46.0413 41.7082 46.0376 41.6454 46.0349L41.4934 46.024C41.043 45.9569 40.6727 45.7139 40.4198 45.3811L41.124 44.6791C41.2141 44.8687 41.3906 45.0138 41.6181 45.0546L41.7928 45.0664C42.1431 45.0328 42.4079 44.7508 42.4079 44.4125C42.4079 44.291 42.3724 44.174 42.3096 44.0706C42.1631 44.0552 42.0157 44.0398 41.8474 44.0398C41.8337 44.0398 41.8237 44.0425 41.8092 44.0425C41.7955 44.0425 41.7864 44.0398 41.7728 44.0398C40.7127 44.0398 40.0776 44.3581 39.6882 44.7145H39.1714V43.9037C39.6873 43.4929 40.5308 43.0622 41.8465 43.0622C41.9866 43.0622 42.0958 43.0857 42.225 43.0948C42.3624 43.1039 42.5116 43.1021 42.6381 43.1211L42.8019 43.1456L42.8028 43.1483ZM51.1694 60.5078C51.1703 60.5087 51.1703 60.5096 51.1712 60.5105V57.0625C51.1703 57.0634 51.1703 57.0644 51.1694 57.0653V46.5473L50.1894 45.713V54.0499C48.9101 52.9689 47.881 51.6095 47.1903 50.0624V41.8089L48.3168 42.2451C48.7972 42.431 49.2085 42.7747 49.476 43.2145L50.6462 45.1398L52.7126 44.232C53.1839 44.0253 53.7189 43.9781 54.2194 44.1005L56.4131 44.6374L57.2302 42.5389C57.4168 42.0601 57.7625 41.6502 58.2029 41.3844L60.1346 40.2182L59.2238 38.1587C59.0155 37.6889 58.9691 37.1557 59.0919 36.6569L59.6306 34.4704L57.525 33.656C57.0455 33.4701 56.6333 33.1264 56.3658 32.6866L55.1957 30.7613L53.1293 31.6691C52.658 31.8758 52.1229 31.923 51.6225 31.8006L49.4287 31.2637L48.6116 33.3622C48.4251 33.841 48.0793 34.2509 47.6389 34.5167L45.7072 35.6829L45.76 35.8035C45.4351 35.3347 45.0839 34.8722 44.6017 34.523C44.0321 34.1095 43.3642 33.9163 42.7182 33.7295C42.3351 33.6189 41.9739 33.5146 41.6418 33.3686C41.3196 33.2271 41.0039 33.0348 40.67 32.8317C40.0913 32.4789 39.4935 32.1152 38.7874 31.9729C38.7537 31.9656 38.7191 31.9665 38.6855 31.9602C39.8529 31.1857 40.6864 29.956 40.9384 28.5276C43.8719 29.3611 46.5188 30.8783 48.6817 32.9079V31.6355C46.4924 29.7546 43.8828 28.3526 41.0194 27.5682C41.0139 27.0775 40.9402 26.6051 40.8065 26.1553C43.7118 26.8653 46.386 28.1703 48.6817 29.9433V28.7616C46.2349 26.9959 43.4079 25.729 40.3533 25.0851C39.458 23.4972 37.7537 22.4207 35.8002 22.4207C33.8457 22.4207 32.1414 23.4981 31.2461 25.0869C28.1916 25.7317 25.3654 26.9996 22.9187 28.7652V29.9469C25.2143 28.1731 27.8886 26.8671 30.7939 26.1562C30.661 26.6051 30.5864 27.0784 30.5819 27.5691C27.7184 28.3535 25.1088 29.7565 22.9196 31.6391V32.9115C25.0824 30.8801 27.7293 29.362 30.6638 28.5285C30.9158 29.956 31.7502 31.1857 32.9167 31.9593C32.9112 31.9602 32.9058 31.9602 32.8994 31.9611C32.308 32.0772 31.8157 32.3864 31.3389 32.6857C31.0359 32.8761 30.7502 33.0557 30.4609 33.1699C30.1633 33.2878 29.8257 33.3559 29.4681 33.4266C28.9213 33.5354 28.3553 33.6488 27.8567 33.9617C27.3526 34.2782 27.006 34.7398 26.6702 35.1859C26.4527 35.4743 26.248 35.7473 26.0151 35.9604C25.9022 36.0638 25.7758 36.159 25.6411 36.2515L25.9041 35.6566L23.9723 34.4895C23.5319 34.2237 23.1862 33.8129 22.9996 33.335L22.1825 31.2365L19.9888 31.7724C19.4883 31.8949 18.9533 31.8486 18.482 31.6409L16.4156 30.7332L15.2454 32.6585C14.9779 33.0974 14.5667 33.442 14.0862 33.6279L11.9807 34.4423L12.5194 36.6288C12.6422 37.1276 12.5949 37.6608 12.3874 38.1306L11.4766 40.1901L13.4083 41.3563C13.8487 41.623 14.1945 42.0329 14.381 42.5108L15.1981 44.6093L17.3919 44.0724C17.8924 43.95 18.4274 43.9963 18.8987 44.2039L20.9651 45.1117L22.1352 43.1864C22.4018 42.7475 22.814 42.4029 23.2944 42.217L24.4218 41.7807V50.0333C23.7303 51.5923 22.6957 52.9644 21.4073 54.0517L21.4064 46.2263L20.4273 47.1413V57.0644C20.4273 57.0634 20.4264 57.0634 20.4264 57.0625V60.5105C20.4264 60.5096 20.4273 60.5096 20.4273 60.5087L20.4264 64.7955V64.8562C20.8714 64.8562 21.2472 64.8281 21.5702 64.7782V75.3098V75.6272V76.2865C23.1971 76.2865 23.8149 75.8485 24.3718 75.4631C24.8968 75.0994 25.3927 74.7566 26.9605 74.7566V73.7799C26.9568 73.7799 26.9541 73.7799 26.9504 73.7799V57.0925C26.9259 57.058 26.904 57.0226 26.8795 56.9882C28.8494 59.8548 32.8357 62.3242 35.7592 62.3242V62.3306C35.7738 62.3306 35.7874 62.3279 35.802 62.3279C35.8165 62.3279 35.8302 62.3306 35.8448 62.3306V62.3242C38.7792 62.3242 42.7309 59.872 44.7018 57.0199C44.6836 57.0462 44.6672 57.0716 44.649 57.097V73.7799C44.6453 73.7799 44.6426 73.7799 44.639 73.7799V74.7566C46.2067 74.7566 46.7026 75.0994 47.2276 75.4631C47.7836 75.8485 48.4014 76.2865 50.0292 76.2865V75.6272V75.3098V64.7782C50.3523 64.8272 50.7281 64.8562 51.173 64.8562L51.1694 60.5078ZM52.3304 43.3642L51.0265 43.9373L50.2886 42.723C50.1011 42.4147 49.8627 42.1399 49.587 41.9095C49.3113 41.6792 48.9983 41.4933 48.6608 41.3618L47.3323 40.8485L47.6717 39.4691C47.8446 38.769 47.7791 38.0199 47.487 37.3597L46.9128 36.0611L46.9538 36.0366C47.5816 35.8525 48.3914 35.935 49.1257 36.3005C50.2822 36.8764 51.0265 37.9991 51.193 39.3911L49.88 41.5622L51.7972 39.8963C53.2012 39.8174 54.4396 40.3524 55.2093 41.389C55.6979 42.0474 55.92 42.8273 55.8472 43.4757L55.8299 43.5201L54.4459 43.181C53.7435 43.0078 52.9919 43.073 52.3304 43.3642ZM53.223 37.5892C53.7062 37.9936 53.769 38.7137 53.364 39.1952C53.3477 39.2152 53.3249 39.227 53.3076 39.2451C52.8791 39.139 52.4296 39.0819 51.9592 39.091C51.8864 38.6284 51.7517 38.1959 51.5715 37.7932C51.5861 37.7724 51.5952 37.7497 51.6116 37.7297C52.0174 37.2482 52.7408 37.1847 53.223 37.5892ZM49.496 33.7023L50.012 32.3782L51.3959 32.7165C52.0984 32.8888 52.85 32.8226 53.5124 32.5315L54.8163 31.9584L55.5551 33.1727C55.93 33.7893 56.5078 34.2727 57.1829 34.5339L58.5114 35.0472L58.172 36.4265C57.9991 37.1267 58.0655 37.8757 58.3567 38.5359L58.9317 39.8355L57.7134 40.5719C57.1538 40.9101 56.7125 41.418 56.4377 42.0084C56.2994 41.6311 56.1065 41.2593 55.8508 40.9147C55.3895 40.2944 54.7926 39.8237 54.1056 39.5145C54.5724 38.8026 54.5178 37.8721 53.9764 37.2255L55.112 35.3483L53.4541 36.7884C52.7207 36.3685 51.7917 36.4764 51.1694 37.0586C50.7444 36.4383 50.1757 35.9332 49.4824 35.5886C49.0975 35.3972 48.6962 35.273 48.2995 35.2023C48.8336 34.8313 49.2595 34.3099 49.496 33.7023ZM31.5282 27.6244C31.5282 25.2765 33.4444 23.3666 35.8002 23.3666C38.1559 23.3666 40.0731 25.2765 40.0731 27.6244C40.0731 29.9723 38.1568 31.8822 35.8002 31.8822C33.4453 31.8822 31.5282 29.9723 31.5282 27.6244ZM13.9006 40.5474L12.6822 39.8119L13.2573 38.5124C13.5494 37.8522 13.6149 37.1031 13.442 36.403L13.1026 35.0236L14.4311 34.5103C15.1053 34.2491 15.684 33.7658 16.058 33.1491L16.7968 31.9348L18.1007 32.507C18.7631 32.7981 19.5147 32.8634 20.2172 32.692L21.6002 32.3538L22.1161 33.6778C22.3527 34.2863 22.7785 34.8069 23.3145 35.1787C22.9168 35.2485 22.5156 35.3737 22.1316 35.565C21.4392 35.9096 20.8705 36.4148 20.4446 37.0351C19.8223 36.4528 18.8932 36.3449 18.1599 36.7648L16.502 35.3247L17.6376 37.2019C17.0953 37.8485 17.0407 38.779 17.5084 39.4909C16.8214 39.8001 16.2245 40.2708 15.7632 40.8911C15.5075 41.2357 15.3146 41.6075 15.1763 41.9848C14.9006 41.3935 14.4602 40.8857 13.9006 40.5474ZM18.3036 39.2197C18.2854 39.2016 18.2636 39.1898 18.2472 39.1698C17.8423 38.6883 17.9051 37.9682 18.3882 37.5638C18.8714 37.1593 19.5939 37.2228 19.9997 37.7043C20.0161 37.7243 20.0252 37.747 20.0397 37.7669C19.8596 38.1696 19.7249 38.6012 19.6521 39.0647C19.1826 39.0556 18.7322 39.1127 18.3036 39.2197ZM22.9505 41.3364C22.6138 41.467 22.3008 41.6529 22.0251 41.8832C21.7494 42.1136 21.511 42.3884 21.3236 42.6967L20.5857 43.911L19.2818 43.3388C18.6194 43.0477 17.8678 42.9824 17.1653 43.1538L15.7814 43.492L15.7641 43.4476C15.6913 42.8001 15.9133 42.0193 16.4019 41.3609C17.1717 40.3243 18.4101 39.7902 19.8141 39.8681L21.7312 41.5341L20.4182 39.3621C20.5848 37.97 21.3291 36.8482 22.4855 36.2715C23.2198 35.906 24.0306 35.8235 24.6575 36.0076L24.6984 36.0321L24.1234 37.3307C23.8313 37.9909 23.7658 38.74 23.9387 39.4401L24.2781 40.8195L22.9505 41.3364ZM25.9687 73.837C24.824 73.9713 24.2862 74.3322 23.8104 74.6614C23.4619 74.9026 23.1461 75.1185 22.5492 75.23V64.5125C22.9469 64.3493 23.2462 64.1489 23.5356 63.9485C24.0697 63.5785 24.5847 63.2293 25.9687 63.1622V73.837ZM25.9687 62.1873C24.268 62.2635 23.5792 62.7278 22.976 63.1459C22.5565 63.437 22.1771 63.6973 21.4073 63.8142V55.2869C22.683 54.351 23.7703 53.1775 24.5983 51.8262C24.8295 52.9625 25.2971 54.2276 25.9696 55.4828V62.1873H25.9687ZM35.8011 61.3503C32.206 61.3149 25.4045 56.6272 25.4027 49.8973V41.4053L25.4009 41.4044L24.8622 39.2188C24.753 38.7744 24.7858 38.3038 24.9396 37.8739C25.1588 37.688 25.4173 37.5211 25.6893 37.3507C26.0196 37.1439 26.3608 36.9299 26.6575 36.6569C26.9541 36.3848 27.1952 36.0638 27.4291 35.7536C27.7266 35.3582 28.0078 34.9855 28.3626 34.7624C28.7129 34.542 29.1706 34.4514 29.6538 34.3552C30.0368 34.2791 30.4336 34.1993 30.8121 34.0496C31.1815 33.9027 31.5182 33.6914 31.8448 33.4864C32.2661 33.2216 32.6646 32.9722 33.0832 32.8897C33.4808 32.8108 33.9376 32.8879 34.4198 32.9695C34.8093 33.0357 35.2133 33.1037 35.6273 33.0983C36.0631 33.092 36.4908 33.0294 36.9048 32.9686C37.5108 32.8797 38.084 32.7954 38.599 32.8997C39.1413 33.0085 39.6427 33.3141 40.1741 33.6379C40.5198 33.8492 40.8783 34.0668 41.2587 34.2337C41.6481 34.4042 42.0567 34.523 42.4534 34.6373C43.0466 34.8087 43.6081 34.971 44.043 35.2866C44.4816 35.6049 44.81 36.0874 45.1567 36.5979C45.3869 36.9371 45.6253 37.2881 45.9074 37.6019C46.1813 37.9075 46.4952 38.1768 46.8 38.4371C46.8291 38.7064 46.8146 38.9794 46.75 39.2433L46.2113 41.4298L46.2104 41.4307V49.8937C46.2104 56.6254 39.397 61.3149 35.8011 61.3503ZM49.0475 75.23C48.4506 75.1185 48.1348 74.9035 47.7863 74.6614C47.3105 74.3313 46.7727 73.9713 45.628 73.837V63.1622C47.012 63.2293 47.527 63.5775 48.0611 63.9485C48.3496 64.1489 48.6489 64.3493 49.0466 64.5125V75.23H49.0475ZM50.1894 63.8133C49.4205 63.6963 49.0402 63.4361 48.6216 63.145C48.0184 62.7269 47.3287 62.2635 45.629 62.1864V55.4909C46.3041 54.2322 46.7736 52.9625 47.0047 51.8235C47.8318 53.1729 48.9164 54.3455 50.1903 55.2814V63.8133H50.1894ZM53.1029 46.6743V57.1623C53.1038 58.1254 53.8891 58.908 54.8554 58.908C55.8217 58.908 56.6079 58.1245 56.6079 57.1614C56.6079 56.1983 55.8217 55.4147 54.8554 55.4147V54.4689C56.3449 54.4689 57.5569 55.6768 57.5569 57.1614C57.5569 58.646 56.3449 59.8539 54.8554 59.8539C53.3695 59.8539 52.1621 58.6523 52.1548 57.1732H52.1539V46.6743H53.1029ZM14.9652 57.1614C14.9652 58.1245 15.7513 58.908 16.7177 58.908C17.684 58.908 18.4701 58.1245 18.4701 57.1614V46.6743H19.4228V57.1605H19.4192C19.4192 58.645 18.2072 59.853 16.7177 59.853C15.2282 59.853 14.0162 58.645 14.0162 57.1605C14.0162 55.6759 15.2282 54.468 16.7177 54.468V55.4138C15.7513 55.4147 14.9652 56.1983 14.9652 57.1614ZM36.8766 54.2159L36.6282 54.38C36.6245 54.3818 36.2551 54.6122 35.8038 54.6122C35.3489 54.6122 34.9803 54.38 34.9794 54.38L34.7301 54.2159L34.4717 54.3637C34.4553 54.3736 32.7793 55.3232 31.2761 55.3232V56.2445C31.5173 56.2826 31.5173 56.2826 31.5173 56.2826C31.9485 56.3452 32.1924 56.5719 32.5309 56.8857C33.125 57.4371 33.8639 58.1245 35.8029 58.1245C35.8029 58.1245 35.8029 58.1245 35.8038 58.1245C35.8038 58.1245 35.8038 58.1245 35.8047 58.1245C37.7437 58.1245 38.4826 57.4371 39.0767 56.8857C39.4143 56.5719 39.6582 56.3452 40.0904 56.2826V56.2808C40.3315 56.2445 40.0904 56.2826 40.3315 56.2445V55.3232C38.8283 55.3232 37.1532 54.3736 37.1368 54.3637L36.8766 54.2159ZM38.4171 56.1811C37.8984 56.6626 37.3616 57.1614 35.8038 57.1614C34.2451 57.1614 33.7092 56.6626 33.1906 56.1811C33.1296 56.1248 33.0686 56.0686 33.0059 56.0124C33.7547 55.7929 34.3862 55.4973 34.7137 55.3286C34.9567 55.441 35.3443 55.5762 35.8029 55.5762H35.8038H35.8047C36.2633 55.5762 36.6509 55.441 36.8939 55.3286C37.2224 55.4973 37.8538 55.7929 38.6018 56.0124C38.539 56.0686 38.478 56.1248 38.4171 56.1811ZM41.165 40.6199C43.3314 40.6199 44.8519 41.7671 45.5088 42.3793V42.7964C45.1185 42.4564 43.8665 41.5967 41.165 41.5967C37.5117 41.5967 37.3261 44.9421 37.3261 45.6123V50.4269C37.0531 50.553 37.0158 50.6292 36.6509 50.6772L36.3461 45.6123C36.3461 43.3097 37.6082 40.6199 41.165 40.6199ZM30.4363 41.5976C27.7493 41.5976 26.4973 42.4473 26.0988 42.791V42.3738C26.7594 41.7599 28.2762 40.6208 30.4363 40.6208C33.9931 40.6208 35.2551 43.3106 35.2551 45.6132L34.9503 50.6781C34.5854 50.6301 34.5481 50.553 34.2743 50.4278V45.6132C34.2752 44.9421 34.0896 41.5976 30.4363 41.5976ZM27.1424 39.9117C26.8658 39.7956 26.5428 39.685 26.0951 39.6233V38.681C26.7202 38.7627 27.2425 38.8942 27.5237 39.013C27.8685 39.1581 28.1415 39.2723 28.6602 39.2723C29.1624 39.2723 29.3635 39.0184 29.7056 38.5305C30.0723 38.0054 30.5764 37.2863 31.7584 37.2863C33.065 37.2863 35.256 36.9063 35.256 34.3643H35.3661H36.236H36.3461C36.3461 36.9063 38.5381 37.2863 39.8438 37.2863C41.0257 37.2863 41.5289 38.0054 41.8956 38.5305C42.2368 39.0184 42.4379 39.2723 42.9411 39.2723C43.4597 39.2723 43.7327 39.1581 44.0776 39.0121C44.3815 38.8842 44.8737 38.7382 45.5052 38.6584V39.6151C45.0439 39.6732 44.7527 39.7892 44.4588 39.9126C44.0648 40.0785 43.6581 40.2499 42.9411 40.2499C41.9038 40.2499 41.4534 39.607 41.0922 39.09C40.7564 38.6103 40.5144 38.2639 39.8438 38.2639C37.8629 38.2639 36.4617 37.5248 35.8011 36.2361C35.1396 37.5239 33.7392 38.2639 31.7584 38.2639C31.0878 38.2639 30.8448 38.6103 30.5091 39.09C30.1469 39.6061 29.6974 40.2499 28.6602 40.2499C27.9431 40.249 27.5364 40.0776 27.1424 39.9117ZM39.3379 27.6244C39.3379 25.68 37.751 24.0985 35.8011 24.0985C33.8502 24.0985 32.2643 25.68 32.2643 27.6244C32.2643 29.5687 33.8512 31.1494 35.8011 31.1494C37.751 31.1494 39.3379 29.5687 39.3379 27.6244ZM33.2133 27.6244C33.2133 26.2024 34.3743 25.0452 35.8011 25.0452C37.2278 25.0452 38.3888 26.2024 38.3888 27.6244C38.3888 29.0464 37.2278 30.2035 35.8011 30.2035C34.3743 30.2035 33.2133 29.0464 33.2133 27.6244ZM62.8835 46.7078C62.8835 55.9072 58.2411 64.0446 51.1712 68.9209V67.7564C57.6888 63.0144 61.9344 55.3485 61.9344 46.7087C61.9344 43.4585 61.3284 40.3479 60.2329 37.4767L61.1237 37.1403C62.2602 40.1148 62.8835 43.3406 62.8835 46.7078ZM58.0564 31.3444L57.273 31.8849C52.5488 25.1078 44.6872 20.6587 35.7984 20.6587C26.9095 20.6587 19.0479 25.1078 14.3237 31.8849L13.5403 31.3444C18.4356 24.3206 26.5865 19.7128 35.7984 19.7128C45.0102 19.7128 53.1611 24.3206 58.0564 31.3444ZM20.4255 67.7564V68.9209C13.3547 64.0455 8.71233 55.9072 8.71233 46.7078C8.71233 43.3397 9.33653 40.1148 10.4721 37.1384L11.3629 37.4749C10.2674 40.347 9.66136 43.4567 9.66136 46.7069C9.66227 55.3485 13.9079 63.0153 20.4255 67.7564Z" fill="#24344B"/>
</svg>
