<svg width="41" height="40" viewBox="0 0 41 40" fill="none" xmlns="http://www.w3.org/2000/svg">
<circle cx="20.5" cy="20" r="20" fill="white"/>
<g clip-path="url(#clip0)">
<path d="M32.0055 14.2388C31.7288 13.2106 30.9182 12.4002 29.8903 12.1233C28.0122 11.6094 20.4998 11.6094 20.4998 11.6094C20.4998 11.6094 12.9875 11.6094 11.1094 12.1038C10.1013 12.3804 9.27087 13.2108 8.9942 14.2388C8.5 16.1167 8.5 20.0113 8.5 20.0113C8.5 20.0113 8.5 23.9255 8.9942 25.7839C9.27105 26.8118 10.0815 27.6224 11.1096 27.8993C13.0073 28.4133 20.5 28.4133 20.5 28.4133C20.5 28.4133 28.0122 28.4133 29.8903 27.9189C30.9184 27.6422 31.7288 26.8316 32.0057 25.8037C32.4999 23.9255 32.4999 20.0311 32.4999 20.0311C32.4999 20.0311 32.5197 16.1167 32.0055 14.2388Z" fill="#24344B"/>
<path d="M18.1079 23.6091L24.3549 20.0111L18.1079 16.4131V23.6091Z" fill="white"/>
</g>
<defs>
<clipPath id="clip0">
<rect width="24" height="24" fill="white" transform="translate(8.5 8)"/>
</clipPath>
</defs>
</svg>
